<svg xmlns="http://www.w3.org/2000/svg" xmlns:svg="http://www.w3.org/2000/svg" width="560" height="360"><g display="inline"><title>BeforeScroll</title><rect id="content_1" width="243.979" height="337.979" x="14.733" y="17.333" fill="#fff" stroke="#000" stroke-dasharray="null" stroke-linecap="null" stroke-linejoin="null"/><rect id="scrollbar_1" width="12" height="337.203" x="259.059" y="17.543" fill="#fff" stroke="#000" stroke-dasharray="null" stroke-linecap="null" stroke-linejoin="null"/><rect id="scrollupbutton_1" width="11" height="9" x="259.559" y="17.793" fill="#b2b2b2" stroke="#000" stroke-dasharray="null" stroke-linecap="null" stroke-linejoin="null" stroke-width="0"/><path id="scrollup_1" fill="#000" stroke="#000" stroke-dasharray="null" stroke-linecap="null" stroke-linejoin="null" stroke-width="0" d="m261.255768,24.557659l3.624207,-6.122219l3.624115,6.122219l-7.248322,0z"/><rect id="scrolldownbutton_1" width="11" height="9" x="259.621" y="345.217" fill="#999" stroke="#000" stroke-dasharray="null" stroke-linecap="null" stroke-linejoin="null" stroke-width="0"/><path id="scrolldown_1" fill="#000" stroke="#000" stroke-dasharray="null" stroke-linecap="null" stroke-linejoin="null" stroke-width="0" d="m261.88446,347.036621l3.311768,5.246918l3.311676,-5.246918l-6.623444,0z"/><rect id="scrollprogress_1" width="11" height="113.671" x="259.559" y="30.543" fill="#b2b2b2" stroke="#000" stroke-dasharray="null" stroke-linecap="null" stroke-linejoin="null" stroke-width="0"/><text id="svg_2" x="78.503" y="42.57" fill="#000" stroke="#000" stroke-dasharray="null" stroke-linecap="null" stroke-linejoin="null" stroke-width="0" font-family="Monospace" font-size="24" text-anchor="middle" transform="matrix(0.788294, 0, 0, 0.630525, 76.1569, 9.83237)" xml:space="preserve">The photo slideshow.</text><line id="content_hr_1" x1="28.233" x2="248.233" y1="46" y2="46" fill="none" stroke="#000" stroke-dasharray="null" stroke-linecap="null" stroke-linejoin="null"/><rect id="photoslideshow1" width="226.5" height="61.833" x="24" y="69.833" fill="#fff" stroke="#000" stroke-dasharray="null" stroke-linecap="null" stroke-linejoin="null" stroke-width="null"/><rect id="pic1" width="50" height="56.667" x="29.8" y="72.289" fill="#fff" stroke="#000" stroke-dasharray="null" stroke-linecap="null" stroke-linejoin="null" stroke-width="null"/><rect id="svg_8" width="50" height="56.667" x="84.289" y="72" fill="#fff" stroke="#000" stroke-dasharray="null" stroke-linecap="null" stroke-linejoin="null" stroke-width="null"/><rect id="svg_9" width="50" height="56.667" x="138.956" y="72" fill="#fff" stroke="#000" stroke-dasharray="null" stroke-linecap="null" stroke-linejoin="null" stroke-width="null"/><rect id="svg_11" width="50" height="56.667" x="194.289" y="72" fill="#fff" stroke="#000" stroke-dasharray="null" stroke-linecap="null" stroke-linejoin="null" stroke-width="null"/><rect id="slideShowContent" width="226.5" height="61.833" x="18.539" y="177.039" fill="#fff" stroke="#000" stroke-dasharray="null" stroke-linecap="null" stroke-linejoin="null" stroke-width="null"/><rect id="svg_13" width="13.5" height="56.667" x="19" y="179.994" fill="#fff" stroke="#000" stroke-dasharray="null" stroke-linecap="null" stroke-linejoin="null" stroke-width="null"/><rect id="svg_14" width="50" height="56.667" x="42.328" y="180" fill="#fff" stroke="#000" stroke-dasharray="null" stroke-linecap="null" stroke-linejoin="null" stroke-width="null"/><rect id="svg_15" width="50" height="56.667" x="96.494" y="179.706" fill="#fff" stroke="#000" stroke-dasharray="null" stroke-linecap="null" stroke-linejoin="null" stroke-width="null"/><rect id="pic4" width="50" height="56.667" x="150.828" y="180.206" fill="#fff" stroke="#000" stroke-dasharray="null" stroke-linecap="null" stroke-linejoin="null" stroke-width="null"/><path id="description" fill="#fff" stroke="#000" stroke-dasharray="null" stroke-linecap="null" stroke-linejoin="null" stroke-width="null" d="m36.823891,131.191299l0,0c0,-4.093994 10.038483,-7.412811 22.416615,-7.412811l10.189289,0l0,0l48.90448,0l91.690292,0c5.945633,0 11.649292,0.781029 15.848907,2.170952c4.203308,1.390411 6.567276,3.275597 6.567276,5.241859l0,18.531113l0,0l0,11.118683l0,0c0,4.093826 -10.034607,7.412781 -22.416183,7.412781l-91.690292,0l-63.888733,18.848358l14.984253,-18.848358l-10.189289,0c-12.378132,0 -22.416615,-3.318954 -22.416615,-7.412781l0,0l0,-11.118683l0,0l0,-18.531113z"/><text id="svg_18" x="226.145" y="217.13" fill="#000" stroke="#000" stroke-dasharray="null" stroke-linecap="null" stroke-linejoin="null" stroke-width="0" font-family="Monospace" font-size="24" text-anchor="middle" transform="matrix(0.347141, 0, 0, 0.440207, 57.6295, 55.0943)" xml:space="preserve">This slideshow will related with time base.</text><rect id="svg_1" width="226.5" height="61.833" x="25.93" y="277.449" fill="#fff" stroke="#000" stroke-dasharray="null" stroke-linecap="null" stroke-linejoin="null" stroke-width="null"/><rect id="svg_3" width="50" height="56.667" x="31.73" y="279.904" fill="#fff" stroke="#000" stroke-dasharray="null" stroke-linecap="null" stroke-linejoin="null" stroke-width="null"/><rect id="svg_4" width="50" height="56.667" x="86.219" y="279.615" fill="#fff" stroke="#000" stroke-dasharray="null" stroke-linecap="null" stroke-linejoin="null" stroke-width="null"/><rect id="svg_5" width="50" height="56.667" x="140.886" y="279.615" fill="#fff" stroke="#000" stroke-dasharray="null" stroke-linecap="null" stroke-linejoin="null" stroke-width="null"/><rect id="svg_6" width="50" height="56.667" x="196.219" y="279.615" fill="#fff" stroke="#000" stroke-dasharray="null" stroke-linecap="null" stroke-linejoin="null" stroke-width="null"/><rect id="svg_41" width="34" height="56.667" x="211" y="179.994" fill="#fff" stroke="#000" stroke-dasharray="null" stroke-linecap="null" stroke-linejoin="null" stroke-width="null"/></g><g display="inline"><title>AfterScroll</title><rect id="svg_19" width="243.979" height="337.979" x="284.46" y="17.633" fill="#fff" stroke="#000" stroke-dasharray="null" stroke-linecap="null" stroke-linejoin="null"/><rect id="svg_20" width="12" height="337.203" x="528.785" y="17.842" fill="#fff" stroke="#000" stroke-dasharray="null" stroke-linecap="null" stroke-linejoin="null"/><rect id="svg_21" width="11" height="9" x="529.285" y="18.092" fill="#b2b2b2" stroke="#000" stroke-dasharray="null" stroke-linecap="null" stroke-linejoin="null" stroke-width="0"/><rect id="svg_22" width="11" height="9" x="529.347" y="345.516" fill="#999" stroke="#000" stroke-dasharray="null" stroke-linecap="null" stroke-linejoin="null" stroke-width="0"/><path id="svg_23" fill="#000" stroke="#000" stroke-dasharray="null" stroke-linecap="null" stroke-linejoin="null" stroke-width="0" d="m531.610718,347.335938l3.311768,5.246918l3.311768,-5.246918l-6.623535,0z"/><rect id="svg_24" width="11" height="113.671" x="529.285" y="109.509" fill="#b2b2b2" stroke="#000" stroke-dasharray="null" stroke-linecap="null" stroke-linejoin="null" stroke-width="0"/><text id="svg_25" x="420.667" y="43.045" fill="#000" stroke="#000" stroke-dasharray="null" stroke-linecap="null" stroke-linejoin="null" stroke-width="0" font-family="Monospace" font-size="24" text-anchor="middle" transform="matrix(0.788294, 0, 0, 0.630525, 76.1569, 9.83237)" xml:space="preserve">The photo slideshow.</text><line id="svg_26" x1="297.96" x2="517.96" y1="46.299" y2="46.299" fill="none" stroke="#000" stroke-dasharray="null" stroke-linecap="null" stroke-linejoin="null"/><rect id="svg_27" width="226.5" height="61.833" x="293.726" y="70.133" fill="#fff" stroke="#000" stroke-dasharray="null" stroke-linecap="null" stroke-linejoin="null" stroke-width="null"/><rect id="svg_28" width="50" height="56.667" x="299.526" y="72.588" fill="#fff" stroke="#000" stroke-dasharray="null" stroke-linecap="null" stroke-linejoin="null" stroke-width="null"/><rect id="svg_29" width="50" height="56.667" x="354.015" y="72.299" fill="#fff" stroke="#000" stroke-dasharray="null" stroke-linecap="null" stroke-linejoin="null" stroke-width="null"/><rect id="svg_30" width="50" height="56.667" x="408.682" y="72.299" fill="#fff" stroke="#000" stroke-dasharray="null" stroke-linecap="null" stroke-linejoin="null" stroke-width="null"/><rect id="svg_31" width="50" height="56.667" x="464.015" y="72.299" fill="#fff" stroke="#000" stroke-dasharray="null" stroke-linecap="null" stroke-linejoin="null" stroke-width="null"/><rect id="svg_32" width="226.5" height="61.833" x="293.765" y="177.338" fill="#fff" stroke="#000" stroke-dasharray="null" stroke-linecap="null" stroke-linejoin="null" stroke-width="null"/><rect id="svg_33" width="50" height="56.667" x="299.565" y="179.794" fill="#fff" stroke="#000" stroke-dasharray="null" stroke-linecap="null" stroke-linejoin="null" stroke-width="null"/><rect id="svg_34" width="50" height="56.667" x="354.054" y="179.505" fill="#fff" stroke="#000" stroke-dasharray="null" stroke-linecap="null" stroke-linejoin="null" stroke-width="null"/><rect id="svg_35" width="50" height="56.667" x="408.721" y="179.505" fill="#fff" stroke="#000" stroke-dasharray="null" stroke-linecap="null" stroke-linejoin="null" stroke-width="null"/><rect id="svg_36" width="50" height="56.667" x="464.054" y="179.505" fill="#fff" stroke="#000" stroke-dasharray="null" stroke-linecap="null" stroke-linejoin="null" stroke-width="null"/><path id="svg_37" fill="#fff" stroke="#000" stroke-dasharray="null" stroke-linecap="null" stroke-linejoin="null" stroke-width="null" d="m306.550201,131.490692l0,0c0,-4.094032 10.038483,-7.412849 22.416595,-7.412849l10.189301,0l0,0l48.90448,0l91.690308,0c5.945618,0 11.649292,0.781029 15.848877,2.170952c4.203308,1.390411 6.567291,3.27562 6.567291,5.241898l0,18.531113l0,0l0,11.118683l0,0c0,4.093826 -10.034607,7.412781 -22.416168,7.412781l-91.690308,0l-63.888733,18.848358l14.984253,-18.848358l-10.189301,0c-12.378113,0 -22.416595,-3.318954 -22.416595,-7.412781l0,0l0,-11.118683l0,0l0,-18.531113z"/><text id="svg_38" x="999.298" y="195.093" fill="#000" stroke="#000" stroke-dasharray="null" stroke-linecap="null" stroke-linejoin="null" stroke-width="0" font-family="Monospace" font-size="24" text-anchor="middle" transform="matrix(0.347141, 0, 0, 0.440207, 57.6295, 55.0943)" xml:space="preserve">After scroll, This slideshow will</text><text id="svg_39" x="1000.216" y="236.857" fill="#000" stroke="#000" stroke-dasharray="null" stroke-linecap="null" stroke-linejoin="null" stroke-width="0" font-family="Monospace" font-size="24" text-anchor="middle" transform="matrix(0.347141, 0, 0, 0.440207, 57.6295, 55.0943)" xml:space="preserve">start automatically without scroll.</text><path id="svg_40" fill="#000" stroke="#000" stroke-dasharray="null" stroke-linecap="null" stroke-linejoin="null" stroke-width="0" d="m531.665833,24.350451l3.624146,-6.122221l3.624146,6.122221l-7.248291,0z"/></g></svg>