<svg xmlns="http://www.w3.org/2000/svg" xmlns:xlink="http://www.w3.org/1999/xlink" id="Layer_1" x="0" y="0" enable-background="new 0 0 176.1 48.4" version="1.1" viewBox="0 0 176.1 48.4" xml:space="preserve"><text transform="matrix(1 0 0 1 0 31.0914)"><tspan x="0" y="0" font-family="Arial, Helvetica" font-size="17">Apple</tspan><tspan x="46" y="0" font-family="Arial, Helvetica" font-size="35"> Orange</tspan></text><line x1="0" x2="175" y1="31.7" y2="31.7" fill="none" stroke="#3FA9F5" stroke-miterlimit="10"/><g><g><polyline fill="none" stroke="#2E3192" stroke-miterlimit="10" points="44.8 16.7 44.8 15.7 43.8 15.7"/><line x1="42" x2="3" y1="15.7" y2="15.7" fill="none" stroke="#2E3192" stroke-dasharray="2 2" stroke-miterlimit="10"/><polyline fill="none" stroke="#2E3192" stroke-miterlimit="10" points="1.5 15.7 .5 15.7 .5 16.7"/><line x1=".5" x2=".5" y1="19.2" y2="34.2" fill="none" stroke="#2E3192" stroke-dasharray="2 2" stroke-miterlimit="10"/><polyline fill="none" stroke="#2E3192" stroke-miterlimit="10" points=".5 34.7 .5 35.7 1.5 35.7"/><line x1="4" x2="43" y1="35.7" y2="35.7" fill="none" stroke="#2E3192" stroke-dasharray="2 2" stroke-miterlimit="10"/><polyline fill="none" stroke="#2E3192" stroke-miterlimit="10" points="43.8 35.7 44.8 35.7 44.8 34.7"/><line x1="44.5" x2="44.5" y1="33.2" y2="18.2" fill="none" stroke="#2E3192" stroke-dasharray="2 2" stroke-miterlimit="10"/></g></g><g><g><polyline fill="none" stroke="#2E3192" stroke-miterlimit="10" points="175 1.5 175 .5 174 .5"/><line x1="172" x2="59" y1=".7" y2=".7" fill="none" stroke="#2E3192" stroke-dasharray="2 2" stroke-miterlimit="10"/><polyline fill="none" stroke="#2E3192" stroke-miterlimit="10" points="58.2 .5 57.2 .5 57.2 1.5"/><line x1="57.5" x2="57.5" y1="3.2" y2="39.2" fill="none" stroke="#2E3192" stroke-dasharray="2 2" stroke-miterlimit="10"/><polyline fill="none" stroke="#2E3192" stroke-miterlimit="10" points="57.2 40.7 57.2 41.7 58.2 41.7"/><line x1="60" x2="173" y1="41.7" y2="41.7" fill="none" stroke="#2E3192" stroke-dasharray="2 2" stroke-miterlimit="10"/><polyline fill="none" stroke="#2E3192" stroke-miterlimit="10" points="174 41.7 175 41.7 175 40.7"/><line x1="174.5" x2="174.5" y1="38.2" y2="2.2" fill="none" stroke="#2E3192" stroke-dasharray="2 2" stroke-miterlimit="10"/></g></g></svg>