<svg xmlns="http://www.w3.org/2000/svg" xmlns:svg="http://www.w3.org/2000/svg" id="svg2" width="299" height="202" preserveAspectRatio="xMidYMid slice" version="1.1" viewBox="0 0 382.667 258.667" xml:space="preserve"><metadata id="metadata8"/><path style="fill:#bfbfbf;fill-opacity:1;fill-rule:evenodd;stroke:none;stroke-width:.13333333" id="path14" d="M 3.1999999,208.0932 H 380.79999 V 61.773208 H 3.1999999 Z"/><path style="fill:#404040;fill-opacity:1;fill-rule:evenodd;stroke:none;stroke-width:.13333333" id="path16" d="M 8.2677065,201.06667 H 374.39836 V 139.20001 H 8.2677065 Z"/><path style="fill:gray;fill-opacity:1;fill-rule:evenodd;stroke:none;stroke-width:.13333333" id="path18" d="M 8.5328131,130.66667 H 375.1968 V 68.800008 H 8.5328131 Z"/><text id="text26" x="76.207" y="117.329" style="font-variant:normal;font-weight:400;font-size:33.04000092px;font-family:Times;-inkscape-font-specification:Times-Roman;writing-mode:lr-tb;fill:#000;fill-opacity:1;fill-rule:nonzero;stroke:none;stroke-width:1.33333325"><tspan style="stroke-width:1.33333325" id="tspan22" x="76.207 94.577 111.097 136.802 151.472 159.732 168.917 183.587 200.107" y="117.329">Some text</tspan><tspan style="stroke-width:1.33333325" id="tspan24" x="76.207 105.579 122.099 133.102 147.771 156.031 165.217 179.886 196.406" y="183.41">More text</tspan></text><path style="fill:none;stroke:#000;stroke-width:2.13333321;stroke-linecap:butt;stroke-linejoin:miter;stroke-miterlimit:10;stroke-dasharray:none;stroke-opacity:1" id="path28" d="M 92.266664,63.466675 57.066665,19.733343"/><text id="text34" x="52.8" y="20.472" style="font-variant:normal;font-weight:700;font-size:14.93333244px;font-family:Helvetica;-inkscape-font-specification:Helvetica-Bold;writing-mode:lr-tb;fill:#000;fill-opacity:1;fill-rule:nonzero;stroke:none;stroke-width:1.33333325"><tspan style="stroke-width:1.33333325" id="tspan32" x="52.8 63.582 67.733 77.694 81.845 90.97 100.094" y="20.472">DIV box</tspan></text><path style="fill:none;stroke:red;stroke-width:2.13333321;stroke-linecap:butt;stroke-linejoin:miter;stroke-miterlimit:10;stroke-dasharray:none;stroke-opacity:1" id="path36" d="M 235.19999,89.066674 262.93333,35.733342"/><text id="text42" x="198.933" y="34.339" style="font-variant:normal;font-weight:700;font-size:14.93333244px;font-family:Helvetica;-inkscape-font-specification:Helvetica-Bold;writing-mode:lr-tb;fill:red;fill-opacity:1;fill-rule:nonzero;stroke:none;stroke-width:1.33333325"><tspan style="stroke-width:1.33333325" id="tspan40" x="198.933 207.236 216.361 225.485 234.609 242.912 256.188 265.312 274.436 282.739 286.891 296.015 305.139" y="34.339">anonymous box</tspan></text><path style="fill:none;stroke:#000;stroke-width:2.13333321;stroke-linecap:butt;stroke-linejoin:miter;stroke-miterlimit:10;stroke-dasharray:none;stroke-opacity:1" id="path44" d="m 225.59999,181.86667 29.86667,49.06667"/><text id="text50" x="239.467" y="255.139" style="font-variant:normal;font-weight:700;font-size:14.93333244px;font-family:Helvetica;-inkscape-font-specification:Helvetica-Bold;writing-mode:lr-tb;fill:#000;fill-opacity:1;fill-rule:nonzero;stroke:none;stroke-width:1.33333325"><tspan style="stroke-width:1.33333325" id="tspan48" x="239.467 249.427 253.579 262.703 271.827" y="255.139">P box</tspan></text></svg>