<svg xmlns="http://www.w3.org/2000/svg" xmlns:svg="http://www.w3.org/2000/svg" id="svg2" width="356" height="100" preserveAspectRatio="xMidYMid slice" version="1.1" viewBox="0 0 456 128" xml:space="preserve"><metadata id="metadata8"/><path style="fill:#c3c3c3;fill-opacity:1;fill-rule:evenodd;stroke:none;stroke-width:.13333333" id="path14" d="M 2.0265599,125.81459 H 455.14522 V 0.37498986 H 2.0265599 Z"/><path style="fill:none;stroke:#c3c3c3;stroke-width:1.27376664;stroke-linecap:butt;stroke-linejoin:miter;stroke-miterlimit:10;stroke-dasharray:none;stroke-opacity:1" id="path16" d="M 2.0265599,125.81459 H 455.14522 V 0.37498986 H 2.0265599 Z"/><text id="text30" x="17.393" y="38.397" style="font-variant:normal;font-weight:400;font-size:15.36000061px;font-family:Helvetica;-inkscape-font-specification:Helvetica;writing-mode:lr-tb;fill:#000;fill-opacity:1;fill-rule:nonzero;stroke:none;stroke-width:1.33333325"><tspan style="stroke-width:1.33333325" id="tspan20" x="17.393 26.778 31.893 40.433 48.973 54.088 57.498 65.178 72.858 77.128 81.398 89.938 98.478 102.748 114.698 119.813 128.353 136.893 141.164 145.434 158.228 166.769 175.309 179.579 187.259 191.529 201.774 210.314 217.994" y="38.397">Fredrick the Great meets Bach</tspan><tspan style="stroke-width:1.33333325" id="tspan22" x="16.106 23.786 32.326 40.867 49.407 57.947 66.487 70.757 81.847 85.257 92.937 101.477 104.887 113.427 121.967 129.647 133.917 143.302 151.843 156.957 164.637 173.178" y="56.316">Johann Nikolaus Forkel</tspan><tspan style="stroke-width:1.33333325" id="tspan24" x="17.386 29.336 37.877 46.417 50.687 59.227 66.907 75.447 83.987 87.397 95.937 104.478 108.748 113.018 116.428 124.968 132.648 136.918 141.188 149.728 157.408 161.678 170.218 178.759 183.029 194.119 202.659 210.339 214.609 223.149 231.689 235.959 240.229 243.639 252.179 260.72 264.99 273.53 276.94 284.62 288.89 293.16 296.57 305.11 309.38 317.92 322.19 327.305 335.845 344.385 352.926 360.606 364.876 373.416 381.956 390.496 394.766 403.306 406.716" y="72.95">One evening, just as he was getting his flute ready and his</tspan><tspan style="stroke-width:1.33333325" id="tspan26" x="17.386 30.181 38.721 46.401 49.811 57.491 60.901 69.441 77.982 85.662 89.932 101.022 109.562 114.677 123.217 127.487 136.027 143.707 151.387 159.927 172.722 181.262 184.672 193.212 201.752 206.023 210.293 218.833 227.373 231.643 240.183 244.453 248.723 252.133 259.813 268.353 273.468 277.738 286.279 291.393 299.934 308.474 317.014 325.554 329.824 334.094 342.634 346.044 358.839 363.109 371.649 375.92 379.329 382.739 390.419 394.689 398.959 407.5" y="88.31">musicians were assembled, an officer brought him a list of</tspan><tspan style="stroke-width:1.33333325" id="tspan28" x="17.386 21.656 30.197 38.737 43.007 50.687 54.957 60.072 68.612 77.152 85.692 94.232 99.347 107.027 111.297 122.387 130.928 139.468 143.738 152.278 160.818 169.358 173.628 182.168 187.283 192.398 195.808 203.488 212.028 220.568" y="103.67">the strangers who had arrived.</tspan></text></svg>