<svg xmlns="http://www.w3.org/2000/svg" xmlns:svg="http://www.w3.org/2000/svg" id="svg2" width="354" height="126" preserveAspectRatio="xMidYMid slice" version="1.1" viewBox="0 0 453.333 161.333" xml:space="preserve"><metadata id="metadata8"/><path style="fill:#c3c3c3;fill-opacity:1;fill-rule:evenodd;stroke:none;stroke-width:.13333333" id="path14" d="M 2.1552133,159.58854 H 452.69254 V 1.275214 H 2.1552133 Z"/><path style="fill:none;stroke:#c3c3c3;stroke-width:1.27376664;stroke-linecap:butt;stroke-linejoin:miter;stroke-miterlimit:10;stroke-dasharray:none;stroke-opacity:1" id="path16" d="M 2.1552133,159.58854 H 452.69254 V 1.275214 H 2.1552133 Z"/><text id="text22" x="17.493" y="42.284" style="font-variant:normal;font-weight:400;font-size:20.47986603px;font-family:Helvetica;-inkscape-font-specification:Helvetica;writing-mode:lr-tb;fill:#000;fill-opacity:1;fill-rule:nonzero;stroke:none;stroke-width:1.33333325"><tspan style="stroke-width:1.33333325" id="tspan20" x="17.493 30.006 36.826 48.212 59.599 66.419 70.966 81.206 91.445 97.139 102.832 114.219 125.606 131.299 147.233 154.052 165.439 176.826 182.519 188.213 205.273 216.659 228.046 233.74 243.979 249.673 263.333 274.72 284.96" y="42.284">Fredrick the Great meets Bach</tspan></text><text id="text26" x="18.773" y="71.743" style="font-style:oblique;font-variant:normal;font-size:15.36000061px;font-family:Helvetica;-inkscape-font-specification:Helvetica-Oblique;writing-mode:lr-tb;fill:#000;fill-opacity:1;fill-rule:nonzero;stroke:none;stroke-width:1.33333325"><tspan style="stroke-width:1.33333325" id="tspan24" x="18.773 26.453 34.993 43.533 52.073 60.614 69.154 73.424 84.514 87.924 95.604 104.144 107.554 116.094 124.634 132.314 136.584 145.969 154.509 159.624 167.304 175.844" y="71.743">Johann Nikolaus Forkel</tspan></text><text id="text34" x="20.053" y="106.283" style="font-variant:normal;font-weight:400;font-size:15.36000061px;font-family:Helvetica;-inkscape-font-specification:Helvetica;writing-mode:lr-tb;fill:#000;fill-opacity:1;fill-rule:nonzero;stroke:none;stroke-width:1.33333325"><tspan style="stroke-width:1.33333325" id="tspan28" x="20.053 32.003 40.543 49.083 53.354 61.894 69.574 78.114 86.654 90.064 98.604 107.144 111.414 115.684 119.094 127.635 135.315 139.585 143.855 152.395 160.075 164.345 172.885 181.425 185.695 196.785 205.325 213.005 217.275 225.816 234.356 238.626 242.896 246.306 254.846 263.386 267.656 276.196 279.606 287.286 291.556 295.827 299.236 307.777 312.047 320.587 324.857 329.972 338.512 347.052 355.592 363.272 367.542 376.083 384.623 393.163 397.433 405.973 409.383" y="106.283">One evening, just as he was getting his flute ready and his</tspan><tspan style="stroke-width:1.33333325" id="tspan30" x="20.053 32.848 41.388 49.068 52.478 60.158 63.568 72.108 80.648 88.328 92.598 103.688 112.228 117.343 125.883 130.154 138.694 146.374 154.054 162.594 175.389 183.929 187.339 195.879 204.419 208.689 212.959 221.499 230.04 234.31 242.85 247.12 251.39 254.8 262.48 271.02 276.135 280.405 288.945 294.06 302.6 311.14 319.681 328.221 332.491 336.761 345.301 348.711 361.506 365.776 374.316 378.586 381.996 385.406 393.086 397.356 401.626 410.166" y="121.643">musicians were assembled, an officer brought him a list of</tspan><tspan style="stroke-width:1.33333325" id="tspan32" x="20.053 24.323 32.863 41.403 45.674 53.354 57.624 62.739 71.279 79.819 88.359 96.899 102.014 109.694 113.964 125.054 133.594 142.134 146.404 154.945 163.485 172.025 176.295 184.835 189.95 195.065 198.475 206.155 214.695 223.235" y="137.003">the strangers who had arrived.</tspan></text></svg>