<svg xmlns="http://www.w3.org/2000/svg" xmlns:svg="http://www.w3.org/2000/svg" id="svg2" width="243" height="334" preserveAspectRatio="xMidYMid slice" version="1.1" viewBox="0 0 310.667 428" xml:space="preserve"><metadata id="metadata8"/><g id="g10" transform="matrix(1.3333333,0,0,-1.3333333,0,428)"><g id="g12" transform="scale(0.1)"><path style="fill:#ffffbf;fill-opacity:1;fill-rule:evenodd;stroke:none" id="path14" d="m 967.199,1292.4 h 403.199 v 640.801 H 967.199 Z"/><path style="fill:#00f;fill-opacity:1;fill-rule:evenodd;stroke:none" id="path16" d="m 1118.4,1901.89 c -14.4,-26.5 -43.2,-79.5 -57.6,-122.86 -14.4,-43.37 -14.4,-77.09 13.2,-112.42 27.6,-35.34 82.8,-72.27 110.4,-108.41 27.6,-36.14 27.6,-71.47 14.4,-115.63 -13.2,-44.17 -39.6,-97.17 -52.8,-123.67 -13.2,-26.5 -13.2,-26.5 0,-26.5 13.2,0 39.6,0 52.8,0 13.2,0 13.2,0 26.4,26.5 13.2,26.5 39.6,79.5 52.8,123.67 13.2,44.16 13.2,79.49 -13.2,115.63 -26.4,36.14 -79.2,73.07 -105.6,108.41 -26.4,35.33 -26.4,69.05 -13.2,112.42 13.2,43.36 39.6,96.36 52.8,122.86 13.2,26.5 13.2,26.5 0,26.5 -13.2,0 -39.6,0 -52.8,0 -13.2,0 -13.2,0 -13.2,0 0,0 0,0 -14.4,-26.5"/><path style="fill:#ffffbf;fill-opacity:1;fill-rule:evenodd;stroke:none" id="path18" d="m 967.199,2566.8 h 403.199 v 640.801 H 967.199 Z"/><path style="fill:#ffffbf;fill-opacity:1;fill-rule:evenodd;stroke:none" id="path20" d="m 967.199,1926 h 403.199 v 640.801 H 967.199 Z"/><path style="fill:#ffffbf;fill-opacity:1;fill-rule:evenodd;stroke:none" id="path22" d="m 967.199,658.801 h 403.199 v 640.801 H 967.199 Z"/><path style="fill:#ffffbf;fill-opacity:1;fill-rule:evenodd;stroke:none" id="path24" d="m 967.199,18 h 403.199 V 658.801 H 967.199 Z"/><path style="fill:#00f;fill-opacity:1;fill-rule:evenodd;stroke:none" id="path26" d="m 1118.4,3176.29 c -14.4,-26.5 -43.2,-79.5 -57.6,-123.66 -14.4,-44.17 -14.4,-79.5 13.2,-114.84 27.6,-35.33 82.8,-70.66 110.4,-105.99 27.6,-35.34 27.6,-70.67 14.4,-114.84 -13.2,-44.16 -39.6,-97.16 -52.8,-123.66 -13.2,-26.5 -13.2,-26.5 0,-26.5 13.2,0 39.6,0 52.8,0 13.2,0 13.2,0 26.4,26.5 13.2,26.5 39.6,79.5 52.8,123.66 13.2,44.17 13.2,79.5 -13.2,114.84 -26.4,35.33 -79.2,70.66 -105.6,105.99 -26.4,35.34 -26.4,70.67 -13.2,114.84 13.2,44.16 39.6,97.16 52.8,123.66 13.2,26.5 13.2,26.5 0,26.5 -13.2,0 -39.6,0 -52.8,0 -13.2,0 -13.2,0 -13.2,0 0,0 0,0 -14.4,-26.5"/><path style="fill:#00f;fill-opacity:1;fill-rule:evenodd;stroke:none" id="path28" d="m 1118.4,2542.69 c -14.4,-26.5 -43.2,-79.5 -57.6,-123.67 -14.4,-44.16 -14.4,-79.49 13.2,-114.83 27.6,-35.33 82.8,-70.66 110.4,-105.99 27.6,-35.34 27.6,-70.67 14.4,-114.83 -13.2,-44.17 -39.6,-97.17 -52.8,-123.67 -13.2,-26.5 -13.2,-26.5 0,-26.5 13.2,0 39.6,0 52.8,0 13.2,0 13.2,0 26.4,26.5 13.2,26.5 39.6,79.5 52.8,123.67 13.2,44.16 13.2,79.49 -13.2,114.83 -26.4,35.33 -79.2,70.66 -105.6,105.99 -26.4,35.34 -26.4,70.67 -13.2,114.83 13.2,44.17 39.6,97.17 52.8,123.67 13.2,26.5 13.2,26.5 0,26.5 -13.2,0 -39.6,0 -52.8,0 -13.2,0 -13.2,0 -13.2,0 0,0 0,0 -14.4,-26.5"/><path style="fill:#00f;fill-opacity:1;fill-rule:evenodd;stroke:none" id="path30" d="m 1111.2,1268.29 c -14.4,-26.5 -43.2,-79.5 -57.6,-123.67 -14.4,-44.16 -14.4,-79.49 13.2,-114.83 27.6,-35.329 82.8,-70.661 110.4,-105.993 27.6,-35.332 27.6,-70.664 14.4,-114.832 -13.2,-44.164 -39.6,-97.164 -52.8,-123.664 -13.2,-26.496 -13.2,-26.496 0,-26.496 13.2,0 39.6,0 52.8,0 13.2,0 13.2,0 26.4,26.496 13.2,26.5 39.6,79.5 52.8,123.664 13.2,44.168 13.2,79.5 -13.2,114.832 -26.4,35.332 -79.2,70.664 -105.6,105.993 -26.4,35.34 -26.4,70.67 -13.2,114.83 13.2,44.17 39.6,97.17 52.8,123.67 13.2,26.5 13.2,26.5 0,26.5 -13.2,0 -39.6,0 -52.8,0 -13.2,0 -13.2,0 -13.2,0 0,0 0,0 -14.4,-26.5"/><path style="fill:#00f;fill-opacity:1;fill-rule:evenodd;stroke:none" id="path32" d="m 1118.4,627.484 c -14.4,-26.496 -43.2,-79.496 -57.6,-122.859 -14.4,-43.363 -14.4,-77.09 13.2,-112.422 27.6,-35.332 82.8,-72.269 110.4,-108.406 27.6,-36.133 27.6,-71.465 14.4,-115.633 C 1185.6,124 1159.2,71 1146,44.5039 c -13.2,-26.5 -13.2,-26.5 0,-26.5 13.2,0 39.6,0 52.8,0 13.2,0 13.2,0 26.4,26.5 C 1238.4,71 1264.8,124 1278,168.164 c 13.2,44.168 13.2,79.5 -13.2,115.633 -26.4,36.137 -79.2,73.074 -105.6,108.406 -26.4,35.332 -26.4,69.059 -13.2,112.422 13.2,43.363 39.6,96.363 52.8,122.859 13.2,26.5 13.2,26.5 0,26.5 -13.2,0 -39.6,0 -52.8,0 -13.2,0 -13.2,0 -13.2,0 0,0 0,0 -14.4,-26.5"/><g id="g34" transform="scale(10)"><text style="font-variant:normal;font-weight:700;font-size:10.07999992px;font-family:Times;-inkscape-font-specification:Times-Bold;writing-mode:lr-tb;fill:gray;fill-opacity:1;fill-rule:nonzero;stroke:none" id="text78" transform="matrix(1,0,0,-1,24.7199,104.286)"><tspan id="tspan36" x="0 5.604 10.644 16.249 21.289 23.809 27.166 31.641 36.681 40.038 42.558 48.162 53.202 58.807 63.847 66.367 69.723 74.199 79.239 82.596 85.116 90.72 95.76 101.364 106.404 108.924 112.281 116.757 121.797 125.153 127.673 133.278 138.318 143.922 148.962 151.482 154.839 159.314 164.354 167.711 170.231 175.836 180.876 186.48" y="0">body text body text body text body text body</tspan><tspan id="tspan38" x="0 3.357 7.832 12.872 16.229 18.749 24.353 29.393 34.998 40.038 42.558 45.914 50.39 55.43 58.787 61.307 66.911 71.951 77.556 82.596 85.116 88.472 92.948 97.988 101.344" y="10.08">text body text body text.</tspan><tspan id="tspan40" x="0 5.604 10.644 16.249 21.289 23.809 27.166 31.641 36.681 40.038 42.558 48.162 53.202 58.807 63.847 66.367 69.723 74.199 79.239 82.596 85.116 90.72 95.76 101.364 106.404 108.924 112.281 116.757 121.797 125.153 127.673 133.278 138.318 143.922 148.962 151.482 154.839 159.314 164.354" y="30.24">body text body text body text body text</tspan><tspan id="tspan42" x="0 5.604 10.644 16.249 21.289 23.809 27.166 31.641 36.681" y="40.32">body text</tspan><tspan id="tspan44" x="0 5.604 10.644 16.249 21.289 23.809 27.166 31.641 36.681 40.038 42.558 48.162 53.202 58.807 63.847 66.367 69.723 74.199 79.239 82.596 85.116 90.72 95.76 101.364 106.404 108.924 112.281 116.757 121.797 125.153 127.673 133.278 138.318 143.922 148.962 151.482 154.839 159.314 164.354 167.711 170.231 175.836 180.876 186.48" y="60.48">body text body text body text body text body</tspan><tspan id="tspan46" x="0 3.357 7.832 12.872 16.229 18.749 24.353 29.393 34.998 40.038 42.558 45.914 50.39 55.43 58.787 61.307 66.911 71.951 77.556 82.596 85.116 88.472 92.948 97.988 101.344 103.864 109.469 114.509 120.113 125.153 127.673 131.03 135.505 140.545 143.902 146.422 152.027 157.067 162.671 167.711 170.231 173.588 178.063 183.103" y="70.56">text body text body text body text body text</tspan><tspan id="tspan48" x="0 5.604 10.644 16.249 21.289 23.809 27.166 31.641 36.681 40.038 42.558 48.162 53.202 58.807 63.847 66.367 69.723 74.199 79.239" y="80.64">body text body text</tspan><tspan id="tspan50" x="0 5.604 10.644 16.249 21.289 23.809 27.166 31.641 36.681 40.038 42.558 48.162 53.202 58.807 63.847 66.367 69.723 74.199 79.239 82.596 85.116 90.72 95.76 101.364 106.404 108.924 112.281 116.757 121.797 125.153 127.673 133.278 138.318 143.922 148.962 151.482 154.839 159.314 164.354 167.711 170.231 175.836 180.876 186.48" y="-95.04">body text body text body text body text body</tspan><tspan id="tspan52" x="0 3.357 7.832 12.872 16.229 18.749 24.353 29.393 34.998 40.038 42.558 45.914 50.39 55.43 58.787 61.307 66.911 71.951 77.556 82.596 85.116 88.472 92.948 97.988 101.344" y="-84.96">text body text body text.</tspan><tspan id="tspan54" x="0 5.604 10.644 16.249 21.289 23.809 27.166 31.641 36.681 40.038 42.558 48.162 53.202 58.807 63.847 66.367 69.723 74.199 79.239 82.596 85.116 90.72 95.76 101.364 106.404 108.924 112.281 116.757 121.797 125.153 127.673 133.278 138.318 143.922 148.962 151.482 154.839 159.314 164.354" y="-64.799">body text body text body text body text</tspan><tspan id="tspan56" x="0 5.604 10.644 16.249 21.289 23.809 27.166 31.641 36.681" y="-54.719">body text</tspan><tspan id="tspan58" x="0 5.604 10.644 16.249 21.289 23.809 27.166 31.641 36.681 40.038 42.558 48.162 53.202 58.807 63.847 66.367 69.723 74.199 79.239 82.596 85.116 90.72 95.76 101.364 106.404 108.924 112.281 116.757 121.797 125.153 127.673 133.278 138.318 143.922 148.962 151.482 154.839 159.314 164.354 167.711 170.231 175.836 180.876 186.48" y="-34.559">body text body text body text body text body</tspan><tspan id="tspan60" x="0 3.357 7.832 12.872 16.229 18.749 24.353 29.393 34.998 40.038 42.558 45.914 50.39 55.43 58.787 61.307 66.911 71.951 77.556 82.596 85.116 88.472 92.948 97.988 101.344 103.864 109.469 114.509 120.113 125.153 127.673 131.03 135.505 140.545 143.902 146.422 152.027 157.067 162.671 167.711 170.231 173.588 178.063 183.103" y="-24.479">text body text body text body text body text</tspan><tspan id="tspan62" x="0 5.604 10.644 16.249 21.289 23.809 27.166 31.641 36.681 40.038 42.558 48.162 53.202 58.807 63.847 66.367 69.723 74.199 79.239" y="-14.399">body text body text</tspan><tspan id="tspan64" x="0 5.604 10.644 16.249 21.289 23.809 27.166 31.641 36.681 40.038 42.558 48.162 53.202 58.807 63.847 66.367 69.723 74.199 79.239 82.596 85.116 90.72 95.76 101.364 106.404 108.924 112.281 116.757 121.797 125.153 127.673 133.278 138.318 143.922 148.962 151.482 154.839 159.314 164.354 167.711 170.231 175.836 180.876 186.48" y="-198.719">body text body text body text body text body</tspan><tspan id="tspan66" x="0 3.357 7.832 12.872 16.229 18.749 24.353 29.393 34.998 40.038 42.558 45.914 50.39 55.43 58.787 61.307 66.911 71.951 77.556 82.596 85.116 88.472 92.948 97.988 101.344" y="-188.639">text body text body text.</tspan><tspan id="tspan68" x="0 5.604 10.644 16.249 21.289 23.809 27.166 31.641 36.681 40.038 42.558 48.162 53.202 58.807 63.847 66.367 69.723 74.199 79.239 82.596 85.116 90.72 95.76 101.364 106.404 108.924 112.281 116.757 121.797 125.153 127.673 133.278 138.318 143.922 148.962 151.482 154.839 159.314 164.354" y="-168.479">body text body text body text body text</tspan><tspan id="tspan70" x="0 5.604 10.644 16.249 21.289 23.809 27.166 31.641 36.681" y="-158.399">body text</tspan><tspan id="tspan72" x="0 5.604 10.644 16.249 21.289 23.809 27.166 31.641 36.681 40.038 42.558 48.162 53.202 58.807 63.847 66.367 69.723 74.199 79.239 82.596 85.116 90.72 95.76 101.364 106.404 108.924 112.281 116.757 121.797 125.153 127.673 133.278 138.318 143.922 148.962 151.482 154.839 159.314 164.354 167.711 170.231 175.836 180.876 186.48" y="-138.239">body text body text body text body text body</tspan><tspan id="tspan74" x="0 3.357 7.832 12.872 16.229 18.749 24.353 29.393 34.998 40.038 42.558 45.914 50.39 55.43 58.787 61.307 66.911 71.951 77.556 82.596 85.116 88.472 92.948 97.988 101.344 103.864 109.469 114.509 120.113 125.153 127.673 131.03 135.505 140.545 143.902 146.422 152.027 157.067 162.671 167.711 170.231 173.588 178.063 183.103" y="-128.159">text body text body text body text body text</tspan><tspan id="tspan76" x="0 5.604 10.644 16.249 21.289 23.809 27.166 31.641 36.681 40.038 42.558 48.162 53.202 58.807 63.847 66.367 69.723 74.199 79.239" y="-118.08">body text body text</tspan></text></g><path style="fill:none;stroke:#000;stroke-width:7.19999981;stroke-linecap:butt;stroke-linejoin:miter;stroke-miterlimit:10;stroke-dasharray:14.4,14.4,14.4,14.4,14.4,14.4,14.4,14.4;stroke-dashoffset:108;stroke-opacity:1" id="path80" d="m 16.8008,18 h 2311.2 v 3189.6 h -2311.2 z"/><path style="fill:none;stroke:#000;stroke-width:7.19999981;stroke-linecap:butt;stroke-linejoin:miter;stroke-miterlimit:10;stroke-dasharray:none;stroke-opacity:1" id="path82" d="m 967.199,1292.4 h 403.199 v 640.801 H 967.199 Z"/><path style="fill:none;stroke:#000;stroke-width:7.19999981;stroke-linecap:butt;stroke-linejoin:miter;stroke-miterlimit:10;stroke-dasharray:none;stroke-opacity:1" id="path84" d="m 1370.4,1933.2 205.2,277.2"/><g id="g86" transform="scale(10)"><text style="font-variant:normal;font-weight:700;font-size:10.07999992px;font-family:Helvetica;-inkscape-font-specification:Helvetica-Bold;writing-mode:lr-tb;fill:#000;fill-opacity:1;fill-rule:nonzero;stroke:none" id="text90" transform="matrix(1,0,0,-1,160.16,215.781)"><tspan id="tspan88" x="0 5.604 11.209 17.368 20.724 26.329 30.25 33.052 35.855 44.816 50.42 56.579" y="0">center image</tspan></text></g></g></g></svg>