<svg xmlns="http://www.w3.org/2000/svg" xmlns:svg="http://www.w3.org/2000/svg" id="svg2" width="414" height="584" preserveAspectRatio="xMidYMid slice" version="1.1" viewBox="0 0 530.667 749.333" xml:space="preserve"><metadata id="metadata8"/><g id="g10" transform="matrix(1.3333333,0,0,-1.3333333,0,749.33333)"><g id="g12" transform="scale(0.1)"><path style="fill:#ff0;fill-opacity:1;fill-rule:evenodd;stroke:none" id="path14" d="M 236.199,685.43 V 2443.48 H 2529.04 V 685.43 H 236.199"/><path style="fill:none;stroke:#000;stroke-width:4.72424984;stroke-linecap:butt;stroke-linejoin:miter;stroke-miterlimit:10;stroke-dasharray:none;stroke-opacity:1" id="path16" d="M 236.199,685.43 V 2443.48 H 2529.04 V 685.43 Z"/><g id="g18" transform="scale(10)"><text style="font-style:oblique;font-variant:normal;font-size:10.39340019px;font-family:Helvetica;-inkscape-font-specification:Helvetica-Oblique;writing-mode:lr-tb;fill:#000;fill-opacity:1;fill-rule:nonzero;stroke:none" id="text22" transform="matrix(1,0,0,-1,29.793,69.8027)"><tspan id="tspan20" x="0 7.504 13.283 16.172 21.951 27.73 33.508 39.287 41.594 47.373" y="0">UL padding</tspan></text></g><path style="fill:#5151ff;fill-opacity:1;fill-rule:evenodd;stroke:none" id="path24" d="m 510.207,1792.79 v 382.35 H 2168.73 V 1792.79 H 541.699"/><g id="g26" transform="scale(10)"><text style="font-style:oblique;font-variant:normal;font-size:10.39340019px;font-family:Helvetica;-inkscape-font-specification:Helvetica-Oblique;writing-mode:lr-tb;fill:#000;fill-opacity:1;fill-rule:nonzero;stroke:none" id="text30" transform="matrix(1,0,0,-1,56.5637,179.657)"><tspan id="tspan28" x="0 5.779 8.668 11.557 17.336 23.115 28.894 34.672 36.98 42.758" y="0">LI padding</tspan></text></g><path style="fill:#5151ff;fill-opacity:1;fill-rule:evenodd;stroke:none" id="path32" d="m 618.547,1906.8 v 153.7 H 2137.24 V 1906.8 H 618.547"/><g id="g34" transform="scale(10)"><text style="font-variant:normal;font-weight:400;font-size:13.22789955px;font-family:Helvetica;-inkscape-font-specification:Helvetica;writing-mode:lr-tb;fill:#fff;fill-opacity:1;fill-rule:nonzero;stroke:none" id="text38" transform="matrix(1,0,0,-1,61.8547,191.121)"><tspan id="tspan36" x="0 8.082 11.019 15.424 22.038 25.715 29.392 36.747 39.684 47.038 58.057 65.412 72.767 76.444 80.121 87.476 91.153 94.831 97.767 100.704 107.318" y="0">First element of list</tspan></text></g><path style="fill:#ff0;fill-opacity:1;fill-rule:evenodd;stroke:none" id="path40" d="m 239.98,3684.38 v 1713.96 h 2275.2 V 3684.38 H 239.98"/><g id="g42" transform="scale(10)"><text style="font-style:oblique;font-variant:normal;font-size:10.39340019px;font-family:Helvetica;-inkscape-font-specification:Helvetica-Oblique;writing-mode:lr-tb;fill:#000;fill-opacity:1;fill-rule:nonzero;stroke:none" id="text48" transform="matrix(1,0,0,-1,4.53398,55.9449)"><tspan id="tspan44" x="0 7.504 13.283 16.172 24.83 30.609 34.07 39.848 42.156 47.934" y="0">UL margins</tspan><tspan id="tspan46" x="38.172 43.951 46.84 49.729 58.387 64.166 67.627 73.406 75.713 81.492" y="-30.046">LI margins</tspan></text></g><path style="fill:none;stroke:#000;stroke-width:4.72424984;stroke-linecap:butt;stroke-linejoin:miter;stroke-miterlimit:10;stroke-dasharray:none;stroke-opacity:1" id="path50" d="M 388.637,838.496 V 2290.41 H 2375.97 V 838.496 Z"/><path style="fill:none;stroke:#000;stroke-width:4.72424984;stroke-linecap:butt;stroke-linejoin:miter;stroke-miterlimit:10;stroke-dasharray:none;stroke-opacity:1" id="path52" d="m 617.918,1884.13 h 1550.82 v 183.301 H 617.918 Z"/><path style="fill:#5151ff;fill-opacity:1;fill-rule:evenodd;stroke:none" id="path54" d="m 502.648,990.93 -3.152,593.37 H 2174.4 V 990.93 H 541.699"/><g id="g56" transform="scale(10)"><text style="font-style:oblique;font-variant:normal;font-size:10.39340019px;font-family:Helvetica;-inkscape-font-specification:Helvetica-Oblique;writing-mode:lr-tb;fill:#000;fill-opacity:1;fill-rule:nonzero;stroke:none" id="text60" transform="matrix(1,0,0,-1,56.5637,100.353)"><tspan id="tspan58" x="0 5.779 8.668 11.557 17.336 23.115 28.894 34.672 36.98 42.758" y="0">LI padding</tspan></text></g><path style="fill:#5151ff;fill-opacity:1;fill-rule:evenodd;stroke:none" id="path62" d="m 618.547,1108.09 v 418.89 H 2146.69 V 1108.09 H 618.547"/><g id="g64" transform="scale(10)"><text style="font-variant:normal;font-weight:400;font-size:13.22789955px;font-family:Helvetica;-inkscape-font-specification:Helvetica;writing-mode:lr-tb;fill:#fff;fill-opacity:1;fill-rule:nonzero;stroke:none" id="text72" transform="matrix(1,0,0,-1,61.8547,139.533)"><tspan id="tspan66" x="0 8.823 16.178 22.792 30.146 37.501 44.856 48.533 55.888 58.824 66.179 77.198 84.553 91.907 95.585 99.262 106.617 110.294 113.972 116.908 119.845 126.459 130.136 133.813 136.75 143.364 147.041" y="0">Second element of list is a</tspan><tspan id="tspan68" x="0 7.355 10.291 13.969 17.646 20.583 27.937 35.292 42.647 50.001 54.406 58.084 61.761 69.116 72.793 75.73 78.666 81.603 88.958 95.572 99.249 103.654 111.009 114.686" y="13.354">bit longer to illustrate</tspan><tspan id="tspan70" x="0 9.551 13.955 21.31 28.665 36.02 38.956 46.311 53.666" y="26.771">wrapping.</tspan></text></g><path style="fill:none;stroke:#000;stroke-width:4.72424984;stroke-linecap:butt;stroke-linejoin:miter;stroke-miterlimit:10;stroke-dasharray:none;stroke-opacity:1" id="path74" d="M 7.54688,189.07 H 2767.77"/><path style="fill:none;stroke:#000;stroke-width:4.72424984;stroke-linecap:butt;stroke-linejoin:miter;stroke-miterlimit:10;stroke-dasharray:none;stroke-opacity:1" id="path76" d="M 7.54688,189.07 83.1328,170.172 v 37.793 z"/><path style="fill:none;stroke:#000;stroke-width:4.72424984;stroke-linecap:butt;stroke-linejoin:miter;stroke-miterlimit:10;stroke-dasharray:none;stroke-opacity:1" id="path78" d="m 2767.77,189.07 -76.22,18.895 v -37.793 z"/><g id="g80" transform="scale(10)"><text style="font-style:oblique;font-variant:normal;font-size:10.39340019px;font-family:Helvetica;-inkscape-font-specification:Helvetica-Oblique;writing-mode:lr-tb;fill:#000;fill-opacity:1;fill-rule:nonzero;stroke:none" id="text84" transform="matrix(1,0,0,-1,102.924,1.01758)"><tspan id="tspan82" x="0 6.932 12.711 17.908 20.797 28.301 30.609 36.387 39.277 45.055 47.945 53.723 56.613 59.502 67.006" y="0">Box width of UL</tspan></text></g><path style="fill:none;stroke:#000;stroke-width:4.72424984;stroke-linecap:butt;stroke-linejoin:miter;stroke-miterlimit:10;stroke-dasharray:none;stroke-opacity:1" id="path86" d="M 2834.54,1831.85 V 1603.2"/><path style="fill:none;stroke:#000;stroke-width:4.72424984;stroke-linecap:butt;stroke-linejoin:miter;stroke-miterlimit:10;stroke-dasharray:none;stroke-opacity:1" id="path88" d="m 2834.54,1831.85 -18.9,-76.22 h 37.79 z"/><path style="fill:none;stroke:#000;stroke-width:4.72424984;stroke-linecap:butt;stroke-linejoin:miter;stroke-miterlimit:10;stroke-dasharray:none;stroke-opacity:1" id="path90" d="m 2834.54,1603.2 18.89,76.21 h -37.79 z"/><g id="g92" transform="scale(10)"><text style="font-style:oblique;font-variant:normal;font-size:10.39340019px;font-family:Helvetica;-inkscape-font-specification:Helvetica-Oblique;writing-mode:lr-tb;fill:#000;fill-opacity:1;fill-rule:nonzero;stroke:none" id="text100" transform="matrix(1,0,0,-1,291.139,168.193)"><tspan id="tspan94" x="0 7.504 13.283 15.59 17.897 23.676 29.455 34.652 40.43 46.209 49.098 57.756 63.535 66.996 72.775 75.082 80.861 83.75 86.057" y="0">Collapsed margin is</tspan><tspan id="tspan96" x="0 8.658 14.436 19.633 23.094 28.873 34.652 40.43 45.627 48.516 51.406 57.184 62.963 68.742 73.939 77.4 83.469 89.248 95.027 100.806" y="10.457">max(12px, 12px)=12px</tspan><tspan id="tspan98" x="-198.23 -190.726 -184.947 -179.168 -176.279 -170.5 -164.722 -161.832 -158.943 -151.439 -149.132 -143.353 -140.463 -134.685 -131.795 -126.017 -123.127 -120.238 -112.734" y="136.626">Content width of UL</tspan></text></g><path style="fill:none;stroke:#000;stroke-width:4.72424984;stroke-linecap:butt;stroke-linejoin:miter;stroke-miterlimit:10;stroke-dasharray:none;stroke-opacity:1" id="path102" d="M 388.637,475.672 H 2375.97"/><path style="fill:none;stroke:#000;stroke-width:4.72424984;stroke-linecap:butt;stroke-linejoin:miter;stroke-miterlimit:10;stroke-dasharray:none;stroke-opacity:1" id="path104" d="m 388.637,475.672 76.847,-19.527 v 38.425 z"/><path style="fill:none;stroke:#000;stroke-width:4.72424984;stroke-linecap:butt;stroke-linejoin:miter;stroke-miterlimit:10;stroke-dasharray:none;stroke-opacity:1" id="path106" d="m 2375.97,475.672 -76.22,18.898 v -38.425 z"/><path style="fill:#5151ff;fill-opacity:1;fill-rule:evenodd;stroke:none" id="path108" d="m 531.621,3923.75 v 593.99 H 2174.4 V 3923.75 H 531.621"/><path style="fill:none;stroke:#38fb30;stroke-width:9.44849968;stroke-linecap:butt;stroke-linejoin:miter;stroke-miterlimit:10;stroke-dasharray:56.691;stroke-dashoffset:0;stroke-opacity:1" id="path110" d="m 539.813,3931.93 v 576.99 H 2168.73 v -576.99 z"/><g id="g112" transform="scale(10)"><text style="font-variant:normal;font-weight:400;font-size:13.22789955px;font-family:Helvetica;-inkscape-font-specification:Helvetica;writing-mode:lr-tb;fill:#fff;fill-opacity:1;fill-rule:nonzero;stroke:none" id="text120" transform="matrix(1,0,0,-1,61.5398,432.814)"><tspan id="tspan114" x="0 8.823 16.178 22.792 30.146 37.501 44.856 48.533 55.888 58.824 66.179 77.198 84.553 91.907 95.585 99.262 106.617 110.294 113.972 116.908 119.845 126.459 130.136 133.813 136.75 143.364 147.041" y="0">Second element of list is a</tspan><tspan id="tspan116" x="0 7.355 10.291 13.969 17.646 20.583 27.937 35.292 42.647 50.001 54.406 58.084 61.761 69.116 72.793 75.73 78.666 81.603 88.958 95.572 99.249 103.654 111.009 114.686" y="13.417">bit longer to illustrate</tspan><tspan id="tspan118" x="0 9.551 13.955 21.31 28.665 36.02 38.956 46.311 53.666" y="26.771">wrapping.</tspan></text></g><path style="fill:#5151ff;fill-opacity:1;fill-rule:evenodd;stroke:none" id="path122" d="m 532.254,4725.61 v 382.35 H 2168.73 V 4725.61 H 532.254"/><g id="g124" transform="scale(10)"><text style="font-variant:normal;font-weight:400;font-size:13.22789955px;font-family:Helvetica;-inkscape-font-specification:Helvetica;writing-mode:lr-tb;fill:#fff;fill-opacity:1;fill-rule:nonzero;stroke:none" id="text128" transform="matrix(1,0,0,-1,61.5398,484.403)"><tspan id="tspan126" x="0 8.082 11.019 15.424 22.038 25.715 29.392 36.747 39.684 47.038 58.057 65.412 72.767 76.444 80.121 87.476 91.153 94.831 97.767 100.704 107.318" y="0">First element of list</tspan></text></g><path style="fill:none;stroke:#000;stroke-width:4.72424984;stroke-linecap:butt;stroke-linejoin:miter;stroke-miterlimit:10;stroke-dasharray:none;stroke-opacity:1" id="path130" d="M 665.793,2806.3 H 2117.71"/><path style="fill:none;stroke:#000;stroke-width:4.72424984;stroke-linecap:butt;stroke-linejoin:miter;stroke-miterlimit:10;stroke-dasharray:none;stroke-opacity:1" id="path132" d="m 665.793,2806.3 76.848,-18.89 v 38.42 z"/><path style="fill:none;stroke:#000;stroke-width:4.72424984;stroke-linecap:butt;stroke-linejoin:miter;stroke-miterlimit:10;stroke-dasharray:none;stroke-opacity:1" id="path134" d="m 2117.71,2806.3 -76.22,19.53 v -38.42 z"/><g id="g136" transform="scale(10)"><text style="font-style:oblique;font-variant:normal;font-size:10.39340019px;font-family:Helvetica;-inkscape-font-specification:Helvetica-Oblique;writing-mode:lr-tb;fill:#000;fill-opacity:1;fill-rule:nonzero;stroke:none" id="text140" transform="matrix(1,0,0,-1,96.2473,288.567)"><tspan id="tspan138" x="0 7.504 13.283 19.061 21.951 27.73 33.508 36.398 39.287 46.791 49.098 54.877 57.767 63.545 66.435 72.213 75.103 77.992 83.771" y="0">Content width of LI</tspan></text></g><path style="fill:none;stroke:#000;stroke-width:9.44849968;stroke-linecap:butt;stroke-linejoin:miter;stroke-miterlimit:10;stroke-dasharray:9.4485,42.8332;stroke-dashoffset:42.83319855;stroke-opacity:1" id="path142" d="m 625.477,2059.24 v 749.58"/><path style="fill:none;stroke:#000;stroke-width:9.44849968;stroke-linecap:butt;stroke-linejoin:miter;stroke-miterlimit:10;stroke-dasharray:9.4485,42.8332;stroke-dashoffset:42.83319855;stroke-opacity:1" id="path144" d="m 2168.73,2065.54 v 724.39"/><path style="fill:none;stroke:#000;stroke-width:4.72424984;stroke-linecap:butt;stroke-linejoin:miter;stroke-miterlimit:10;stroke-dasharray:none;stroke-opacity:1" id="path146" d="m 510.836,1792.79 v 382.35 H 2168.73 v -382.35 l -1657.894,1.26"/><path style="fill:none;stroke:#000;stroke-width:4.72424984;stroke-linecap:butt;stroke-linejoin:miter;stroke-miterlimit:10;stroke-dasharray:none;stroke-opacity:1" id="path148" d="m 619.18,1089.2 h 1549.55 v 412.586 H 619.18 Z"/><path style="fill:none;stroke:#38fb30;stroke-width:9.44849968;stroke-linecap:butt;stroke-linejoin:miter;stroke-miterlimit:10;stroke-dasharray:56.691;stroke-dashoffset:0;stroke-opacity:1" id="path150" d="M 510.836,997.859 V 1576.74 H 2168.73 V 997.859 Z"/></g></g></svg>