<svg xmlns="http://www.w3.org/2000/svg" xmlns:svg="http://www.w3.org/2000/svg" id="svg2" width="375" height="241" preserveAspectRatio="xMidYMid slice" version="1.1" viewBox="0 0 480 308" xml:space="preserve"><metadata id="metadata8"/><g id="g10" transform="matrix(1.3333333,0,0,-1.3333333,0,308)"><g id="g12" transform="scale(0.1)"><path style="fill:none;stroke:#ff1441;stroke-width:7.19999981;stroke-linecap:butt;stroke-linejoin:miter;stroke-miterlimit:10;stroke-dasharray:14.4,14.4,14.4,14.4,14.4,14.4,14.4,14.4;stroke-dashoffset:108;stroke-opacity:1" id="path14" d="m 3003.2,517.199 h 158.4"/><path style="fill:none;stroke:#ff1441;stroke-width:7.19999981;stroke-linecap:butt;stroke-linejoin:miter;stroke-miterlimit:10;stroke-dasharray:14.4,14.4,14.4,14.4,14.4,14.4,14.4,14.4;stroke-dashoffset:108;stroke-opacity:1" id="path16" d="m 3003.2,1791.6 h 158.4"/><path style="fill:none;stroke:#ff1441;stroke-width:7.19999981;stroke-linecap:butt;stroke-linejoin:miter;stroke-miterlimit:10;stroke-dasharray:14.4,14.4,14.4,14.4,14.4,14.4,14.4,14.4;stroke-dashoffset:108;stroke-opacity:1" id="path18" d="m 3005,1152.6 h 158.4"/><path style="fill:none;stroke:#ff1441;stroke-width:7.19999981;stroke-linecap:butt;stroke-linejoin:miter;stroke-miterlimit:10;stroke-dasharray:14.4,14.4,14.4,14.4,14.4,14.4,14.4,14.4;stroke-dashoffset:108;stroke-opacity:1" id="path20" d="m 3005,1469.4 h 158.4"/><path style="fill:none;stroke:#c3c3c3;stroke-width:7.19999981;stroke-linecap:butt;stroke-linejoin:miter;stroke-miterlimit:10;stroke-dasharray:none;stroke-opacity:1" id="path22" d="m 2448.8,1633.2 158.4,158.4"/><path style="fill:none;stroke:#c3c3c3;stroke-width:7.19999981;stroke-linecap:butt;stroke-linejoin:miter;stroke-miterlimit:10;stroke-dasharray:none;stroke-opacity:1" id="path24" d="m 2528,1633.2 158.4,158.4"/><path style="fill:none;stroke:#c3c3c3;stroke-width:7.19999981;stroke-linecap:butt;stroke-linejoin:miter;stroke-miterlimit:10;stroke-dasharray:none;stroke-opacity:1" id="path26" d="m 2607.2,1633.2 158.4,158.4"/><path style="fill:none;stroke:#c3c3c3;stroke-width:7.19999981;stroke-linecap:butt;stroke-linejoin:miter;stroke-miterlimit:10;stroke-dasharray:none;stroke-opacity:1" id="path28" d="m 2686.4,1633.2 158.4,158.4"/><path style="fill:none;stroke:#c3c3c3;stroke-width:7.19999981;stroke-linecap:butt;stroke-linejoin:miter;stroke-miterlimit:10;stroke-dasharray:none;stroke-opacity:1" id="path30" d="M 2765.6,1633.2 2924,1791.6"/><path style="fill:none;stroke:#c3c3c3;stroke-width:7.19999981;stroke-linecap:butt;stroke-linejoin:miter;stroke-miterlimit:10;stroke-dasharray:none;stroke-opacity:1" id="path32" d="m 2844.8,1633.2 165.6,158.4"/><path style="fill:none;stroke:#c3c3c3;stroke-width:7.19999981;stroke-linecap:butt;stroke-linejoin:miter;stroke-miterlimit:10;stroke-dasharray:none;stroke-opacity:1" id="path34" d="m 2924,1633.2 79.2,79.2"/><path style="fill:none;stroke:#c3c3c3;stroke-width:7.19999981;stroke-linecap:butt;stroke-linejoin:miter;stroke-miterlimit:10;stroke-dasharray:none;stroke-opacity:1" id="path36" d="m 2441.6,1712.4 86.4,79.2"/><path style="fill:none;stroke:#c3c3c3;stroke-width:7.19999981;stroke-linecap:butt;stroke-linejoin:miter;stroke-miterlimit:10;stroke-dasharray:none;stroke-opacity:1" id="path38" d="m 2448.8,517.199 158.4,158.403"/><path style="fill:none;stroke:#c3c3c3;stroke-width:7.19999981;stroke-linecap:butt;stroke-linejoin:miter;stroke-miterlimit:10;stroke-dasharray:none;stroke-opacity:1" id="path40" d="m 2528,517.199 158.4,158.403"/><path style="fill:none;stroke:#c3c3c3;stroke-width:7.19999981;stroke-linecap:butt;stroke-linejoin:miter;stroke-miterlimit:10;stroke-dasharray:none;stroke-opacity:1" id="path42" d="m 2607.2,517.199 158.4,158.403"/><path style="fill:none;stroke:#c3c3c3;stroke-width:7.19999981;stroke-linecap:butt;stroke-linejoin:miter;stroke-miterlimit:10;stroke-dasharray:none;stroke-opacity:1" id="path44" d="m 2686.4,517.199 158.4,158.403"/><path style="fill:none;stroke:#c3c3c3;stroke-width:7.19999981;stroke-linecap:butt;stroke-linejoin:miter;stroke-miterlimit:10;stroke-dasharray:none;stroke-opacity:1" id="path46" d="M 2765.6,517.199 2924,675.602"/><path style="fill:none;stroke:#c3c3c3;stroke-width:7.19999981;stroke-linecap:butt;stroke-linejoin:miter;stroke-miterlimit:10;stroke-dasharray:none;stroke-opacity:1" id="path48" d="m 2844.8,517.199 165.6,158.403"/><path style="fill:none;stroke:#c3c3c3;stroke-width:7.19999981;stroke-linecap:butt;stroke-linejoin:miter;stroke-miterlimit:10;stroke-dasharray:none;stroke-opacity:1" id="path50" d="m 2924,517.199 79.2,79.199"/><path style="fill:none;stroke:#c3c3c3;stroke-width:7.19999981;stroke-linecap:butt;stroke-linejoin:miter;stroke-miterlimit:10;stroke-dasharray:none;stroke-opacity:1" id="path52" d="m 2441.6,596.398 86.4,79.204"/><path style="fill:none;stroke:#c3c3c3;stroke-width:7.19999981;stroke-linecap:butt;stroke-linejoin:miter;stroke-miterlimit:10;stroke-dasharray:none;stroke-opacity:1" id="path54" d="M 692,517.199 850.398,675.602"/><path style="fill:none;stroke:#c3c3c3;stroke-width:7.19999981;stroke-linecap:butt;stroke-linejoin:miter;stroke-miterlimit:10;stroke-dasharray:none;stroke-opacity:1" id="path56" d="M 1412,992.398 1728.8,1309.2"/><path style="fill:none;stroke:#c3c3c3;stroke-width:7.19999981;stroke-linecap:butt;stroke-linejoin:miter;stroke-miterlimit:10;stroke-dasharray:none;stroke-opacity:1" id="path58" d="M 1412,913.199 1808,1309.2"/><path style="fill:none;stroke:#c3c3c3;stroke-width:7.19999981;stroke-linecap:butt;stroke-linejoin:miter;stroke-miterlimit:10;stroke-dasharray:none;stroke-opacity:1" id="path60" d="m 1412,834 396,396"/><path style="fill:none;stroke:#c3c3c3;stroke-width:7.19999981;stroke-linecap:butt;stroke-linejoin:miter;stroke-miterlimit:10;stroke-dasharray:none;stroke-opacity:1" id="path62" d="M 1412,754.801 1808,1150.8"/><path style="fill:none;stroke:#c3c3c3;stroke-width:7.19999981;stroke-linecap:butt;stroke-linejoin:miter;stroke-miterlimit:10;stroke-dasharray:none;stroke-opacity:1" id="path64" d="M 1412,675.602 1808,1071.6"/><path style="fill:none;stroke:#c3c3c3;stroke-width:7.19999981;stroke-linecap:butt;stroke-linejoin:miter;stroke-miterlimit:10;stroke-dasharray:none;stroke-opacity:1" id="path66" d="m 1412,596.398 396,396"/><path style="fill:none;stroke:#c3c3c3;stroke-width:7.19999981;stroke-linecap:butt;stroke-linejoin:miter;stroke-miterlimit:10;stroke-dasharray:none;stroke-opacity:1" id="path68" d="m 1412,517.199 396,396"/><path style="fill:none;stroke:#c3c3c3;stroke-width:7.19999981;stroke-linecap:butt;stroke-linejoin:miter;stroke-miterlimit:10;stroke-dasharray:none;stroke-opacity:1" id="path70" d="M 1491.2,517.199 1808,834"/><path style="fill:none;stroke:#c3c3c3;stroke-width:7.19999981;stroke-linecap:butt;stroke-linejoin:miter;stroke-miterlimit:10;stroke-dasharray:none;stroke-opacity:1" id="path72" d="M 1649.6,517.199 1808,675.602"/><path style="fill:none;stroke:#c3c3c3;stroke-width:7.19999981;stroke-linecap:butt;stroke-linejoin:miter;stroke-miterlimit:10;stroke-dasharray:none;stroke-opacity:1" id="path74" d="m 1728.8,517.199 79.2,79.199"/><path style="fill:none;stroke:#c3c3c3;stroke-width:7.19999981;stroke-linecap:butt;stroke-linejoin:miter;stroke-miterlimit:10;stroke-dasharray:none;stroke-opacity:1" id="path76" d="m 1412,1071.6 237.6,237.6"/><path style="fill:none;stroke:#c3c3c3;stroke-width:7.19999981;stroke-linecap:butt;stroke-linejoin:miter;stroke-miterlimit:10;stroke-dasharray:none;stroke-opacity:1" id="path78" d="m 1412,1150.8 158.4,158.4"/><path style="fill:none;stroke:#c3c3c3;stroke-width:7.19999981;stroke-linecap:butt;stroke-linejoin:miter;stroke-miterlimit:10;stroke-dasharray:none;stroke-opacity:1" id="path80" d="m 1412,1230 79.2,79.2"/><path style="fill:none;stroke:#c3c3c3;stroke-width:7.19999981;stroke-linecap:butt;stroke-linejoin:miter;stroke-miterlimit:10;stroke-dasharray:none;stroke-opacity:1" id="path82" d="m 1887.2,1388.4 396,403.2"/><path style="fill:none;stroke:#c3c3c3;stroke-width:7.19999981;stroke-linecap:butt;stroke-linejoin:miter;stroke-miterlimit:10;stroke-dasharray:none;stroke-opacity:1" id="path84" d="m 1966.4,1388.4 396,403.2"/><path style="fill:none;stroke:#c3c3c3;stroke-width:7.19999981;stroke-linecap:butt;stroke-linejoin:miter;stroke-miterlimit:10;stroke-dasharray:none;stroke-opacity:1" id="path86" d="m 2045.6,1388.4 396,403.2"/><path style="fill:none;stroke:#c3c3c3;stroke-width:7.19999981;stroke-linecap:butt;stroke-linejoin:miter;stroke-miterlimit:10;stroke-dasharray:none;stroke-opacity:1" id="path88" d="m 2124.8,1388.4 316.8,324"/><path style="fill:none;stroke:#c3c3c3;stroke-width:7.19999981;stroke-linecap:butt;stroke-linejoin:miter;stroke-miterlimit:10;stroke-dasharray:none;stroke-opacity:1" id="path90" d="m 2204,1388.4 237.6,244.8"/><path style="fill:none;stroke:#c3c3c3;stroke-width:7.19999981;stroke-linecap:butt;stroke-linejoin:miter;stroke-miterlimit:10;stroke-dasharray:none;stroke-opacity:1" id="path92" d="M 2283.2,1388.4 2441.6,1554"/><path style="fill:none;stroke:#c3c3c3;stroke-width:7.19999981;stroke-linecap:butt;stroke-linejoin:miter;stroke-miterlimit:10;stroke-dasharray:none;stroke-opacity:1" id="path94" d="m 2362.4,1388.4 79.2,79.2"/><path style="fill:none;stroke:#c3c3c3;stroke-width:7.19999981;stroke-linecap:butt;stroke-linejoin:miter;stroke-miterlimit:10;stroke-dasharray:none;stroke-opacity:1" id="path96" d="m 1808,1633.2 158.4,158.4"/><path style="fill:none;stroke:#c3c3c3;stroke-width:7.19999981;stroke-linecap:butt;stroke-linejoin:miter;stroke-miterlimit:10;stroke-dasharray:none;stroke-opacity:1" id="path98" d="m 1808,1712.4 79.2,79.2"/><path style="fill:none;stroke:#c3c3c3;stroke-width:7.19999981;stroke-linecap:butt;stroke-linejoin:miter;stroke-miterlimit:10;stroke-dasharray:none;stroke-opacity:1" id="path100" d="m 1808,1554 237.6,237.6"/><path style="fill:none;stroke:#c3c3c3;stroke-width:7.19999981;stroke-linecap:butt;stroke-linejoin:miter;stroke-miterlimit:10;stroke-dasharray:none;stroke-opacity:1" id="path102" d="m 1808,1467.6 316.8,324"/><path style="fill:none;stroke:#c3c3c3;stroke-width:7.19999981;stroke-linecap:butt;stroke-linejoin:miter;stroke-miterlimit:10;stroke-dasharray:none;stroke-opacity:1" id="path104" d="m 1808,1388.4 396,403.2"/><path style="fill:none;stroke:#c3c3c3;stroke-width:7.19999981;stroke-linecap:butt;stroke-linejoin:miter;stroke-miterlimit:10;stroke-dasharray:none;stroke-opacity:1" id="path106" d="M 771.199,517.199 929.602,675.602"/><path style="fill:none;stroke:#c3c3c3;stroke-width:7.19999981;stroke-linecap:butt;stroke-linejoin:miter;stroke-miterlimit:10;stroke-dasharray:none;stroke-opacity:1" id="path108" d="M 850.398,517.199 1008.8,675.602"/><path style="fill:none;stroke:#c3c3c3;stroke-width:7.19999981;stroke-linecap:butt;stroke-linejoin:miter;stroke-miterlimit:10;stroke-dasharray:none;stroke-opacity:1" id="path110" d="M 929.602,517.199 1088,675.602"/><path style="fill:none;stroke:#c3c3c3;stroke-width:7.19999981;stroke-linecap:butt;stroke-linejoin:miter;stroke-miterlimit:10;stroke-dasharray:none;stroke-opacity:1" id="path112" d="m 1008.8,517.199 158.4,158.403"/><path style="fill:none;stroke:#c3c3c3;stroke-width:7.19999981;stroke-linecap:butt;stroke-linejoin:miter;stroke-miterlimit:10;stroke-dasharray:none;stroke-opacity:1" id="path114" d="m 1088,517.199 158.4,158.403"/><path style="fill:none;stroke:#c3c3c3;stroke-width:7.19999981;stroke-linecap:butt;stroke-linejoin:miter;stroke-miterlimit:10;stroke-dasharray:none;stroke-opacity:1" id="path116" d="m 1167.2,517.199 165.6,158.403"/><path style="fill:none;stroke:#c3c3c3;stroke-width:7.19999981;stroke-linecap:butt;stroke-linejoin:miter;stroke-miterlimit:10;stroke-dasharray:none;stroke-opacity:1" id="path118" d="m 1332.8,517.199 79.2,79.199"/><path style="fill:none;stroke:#c3c3c3;stroke-width:7.19999981;stroke-linecap:butt;stroke-linejoin:miter;stroke-miterlimit:10;stroke-dasharray:none;stroke-opacity:1" id="path120" d="M 1246.4,517.199 1412,675.602"/><path style="fill:none;stroke:#c3c3c3;stroke-width:7.19999981;stroke-linecap:butt;stroke-linejoin:miter;stroke-miterlimit:10;stroke-dasharray:none;stroke-opacity:1" id="path122" d="m 692,596.398 79.199,79.204"/><path style="fill:none;stroke:#c3c3c3;stroke-width:7.19999981;stroke-linecap:butt;stroke-linejoin:miter;stroke-miterlimit:10;stroke-dasharray:none;stroke-opacity:1" id="path124" d="M 1570.4,517.199 1808,754.801"/><path style="fill:none;stroke:#c3c3c3;stroke-width:7.19999981;stroke-linecap:butt;stroke-linejoin:miter;stroke-miterlimit:10;stroke-dasharray:none;stroke-opacity:1" id="path126" d="m 51.1992,1712.4 79.1988,79.2"/><path style="fill:none;stroke:#c3c3c3;stroke-width:7.19999981;stroke-linecap:butt;stroke-linejoin:miter;stroke-miterlimit:10;stroke-dasharray:none;stroke-opacity:1" id="path128" d="m 130.398,1712.4 86.403,79.2"/><path style="fill:none;stroke:#c3c3c3;stroke-width:7.19999981;stroke-linecap:butt;stroke-linejoin:miter;stroke-miterlimit:10;stroke-dasharray:none;stroke-opacity:1" id="path130" d="M 216.801,1712.4 296,1791.6"/><path style="fill:none;stroke:#c3c3c3;stroke-width:7.19999981;stroke-linecap:butt;stroke-linejoin:miter;stroke-miterlimit:10;stroke-dasharray:none;stroke-opacity:1" id="path132" d="m 375.199,1712.4 79.199,79.2"/><path style="fill:none;stroke:#c3c3c3;stroke-width:7.19999981;stroke-linecap:butt;stroke-linejoin:miter;stroke-miterlimit:10;stroke-dasharray:none;stroke-opacity:1" id="path134" d="m 454.398,1712.4 79.204,79.2"/><path style="fill:none;stroke:#c3c3c3;stroke-width:7.19999981;stroke-linecap:butt;stroke-linejoin:miter;stroke-miterlimit:10;stroke-dasharray:none;stroke-opacity:1" id="path136" d="m 533.602,1712.4 79.199,79.2"/><path style="fill:none;stroke:#c3c3c3;stroke-width:7.19999981;stroke-linecap:butt;stroke-linejoin:miter;stroke-miterlimit:10;stroke-dasharray:none;stroke-opacity:1" id="path138" d="M 612.801,1712.4 692,1791.6"/><path style="fill:none;stroke:#c3c3c3;stroke-width:7.19999981;stroke-linecap:butt;stroke-linejoin:miter;stroke-miterlimit:10;stroke-dasharray:none;stroke-opacity:1" id="path140" d="M 216.801,34.8008 296,114"/><path style="fill:none;stroke:#c3c3c3;stroke-width:7.19999981;stroke-linecap:butt;stroke-linejoin:miter;stroke-miterlimit:10;stroke-dasharray:none;stroke-opacity:1" id="path142" d="M 130.398,34.8008 296,193.199"/><path style="fill:none;stroke:#c3c3c3;stroke-width:7.19999981;stroke-linecap:butt;stroke-linejoin:miter;stroke-miterlimit:10;stroke-dasharray:none;stroke-opacity:1" id="path144" d="m 130.398,114 86.403,79.199"/><path style="fill:none;stroke:#c3c3c3;stroke-width:7.19999981;stroke-linecap:butt;stroke-linejoin:miter;stroke-miterlimit:10;stroke-dasharray:none;stroke-opacity:1" id="path146" d="m 296,1712.4 79.199,79.2"/><path style="fill:#fff;fill-opacity:1;fill-rule:evenodd;stroke:none" id="path148" d="m 130.402,596.402 h 483.402 v 1036.21 H 130.402 Z"/><path style="fill:none;stroke:#c3c3c3;stroke-width:7.19999981;stroke-linecap:butt;stroke-linejoin:miter;stroke-miterlimit:10;stroke-dasharray:14.4,14.4,14.4,14.4,14.4,14.4,14.4,14.4;stroke-dashoffset:108;stroke-opacity:1" id="path150" d="m 130.402,596.402 h 483.402 v 1036.21 H 130.402 Z"/><path style="fill:none;stroke:gray;stroke-width:14.39999962;stroke-linecap:butt;stroke-linejoin:miter;stroke-miterlimit:10;stroke-dasharray:none;stroke-opacity:1" id="path152" d="M 130.398,1388.4 H 533.602"/><path style="fill:none;stroke:gray;stroke-width:14.39999962;stroke-linecap:butt;stroke-linejoin:miter;stroke-miterlimit:10;stroke-dasharray:none;stroke-opacity:1" id="path154" d="M 128.355,1071.6 H 530.488"/><path style="fill:none;stroke:gray;stroke-width:14.39999962;stroke-linecap:butt;stroke-linejoin:miter;stroke-miterlimit:10;stroke-dasharray:none;stroke-opacity:1" id="path156" d="M 130.398,1230 H 612.801"/><path style="fill:none;stroke:gray;stroke-width:14.39999962;stroke-linecap:butt;stroke-linejoin:miter;stroke-miterlimit:10;stroke-dasharray:none;stroke-opacity:1" id="path158" d="M 130.398,913.199 H 612.801"/><path style="fill:none;stroke:gray;stroke-width:14.39999962;stroke-linecap:butt;stroke-linejoin:miter;stroke-miterlimit:10;stroke-dasharray:none;stroke-opacity:1" id="path160" d="M 130.398,754.801 H 612.801"/><g id="g162" transform="scale(10)"><text style="font-variant:normal;font-weight:400;font-size:10.07999992px;font-family:Helvetica;-inkscape-font-specification:Helvetica;writing-mode:lr-tb;fill:#ff1441;fill-opacity:1;fill-rule:nonzero;stroke:none" id="text172" transform="matrix(1,0,0,-1,318.512,112.583)"><tspan id="tspan164" x="0 8.397 10.634 16.239 21.843 24.081" y="0">middle</tspan><tspan id="tspan166" x="0 5.604 11.209 16.249 21.853 24.091 26.329 31.933" y="-31.68">baseline</tspan><tspan id="tspan168" x="0 2.802 8.407" y="-63.36">top</tspan><tspan id="tspan170" x="0 5.604 11.209 14.011 16.813 22.418" y="64.08">bottom</tspan></text></g><path style="fill:none;stroke:#ff1441;stroke-width:7.19999981;stroke-linecap:butt;stroke-linejoin:miter;stroke-miterlimit:10;stroke-dasharray:none;stroke-opacity:1" id="path174" d="m 3083.09,1791.6 v -324"/><path style="fill:#ff1441;fill-opacity:1;fill-rule:evenodd;stroke:none" id="path176" d="m 3083.09,1806.44 -19.02,-76.04 h 38.02"/><path style="fill:none;stroke:#ff1441;stroke-width:7.19999981;stroke-linecap:butt;stroke-linejoin:miter;stroke-miterlimit:10;stroke-dasharray:none;stroke-opacity:1" id="path178" d="m 3083.09,1791.6 -14.41,-57.6 h 28.8 z"/><path style="fill:#ff1441;fill-opacity:1;fill-rule:evenodd;stroke:none" id="path180" d="m 3083.09,1452.76 19,76.04 h -38.02"/><path style="fill:none;stroke:#ff1441;stroke-width:7.19999981;stroke-linecap:butt;stroke-linejoin:miter;stroke-miterlimit:10;stroke-dasharray:none;stroke-opacity:1" id="path182" d="m 3083.09,1467.6 14.39,57.6 h -28.8 z"/><path style="fill:none;stroke:#ff1441;stroke-width:7.19999981;stroke-linecap:butt;stroke-linejoin:miter;stroke-miterlimit:10;stroke-dasharray:none;stroke-opacity:1" id="path184" d="M 537.199,1717.62 V 1473.77"/><path style="fill:#ff1441;fill-opacity:1;fill-rule:evenodd;stroke:none" id="path186" d="m 537.199,1732.46 -19.011,-76.05 h 38.023"/><path style="fill:none;stroke:#ff1441;stroke-width:7.19999981;stroke-linecap:butt;stroke-linejoin:miter;stroke-miterlimit:10;stroke-dasharray:none;stroke-opacity:1" id="path188" d="m 537.199,1717.62 -14.398,-57.6 h 28.801 z"/><path style="fill:#ff1441;fill-opacity:1;fill-rule:evenodd;stroke:none" id="path190" d="m 537.199,1458.93 19.012,76.04 h -38.023"/><path style="fill:none;stroke:#ff1441;stroke-width:7.19999981;stroke-linecap:butt;stroke-linejoin:miter;stroke-miterlimit:10;stroke-dasharray:none;stroke-opacity:1" id="path192" d="m 537.199,1473.77 14.403,57.6 h -28.801 z"/><g id="g194" transform="scale(10)"><text style="font-variant:normal;font-weight:700;font-size:13.19999981px;font-family:Times;-inkscape-font-specification:Times-Bold;writing-mode:lr-tb;fill:gray;fill-opacity:1;fill-rule:nonzero;stroke:none" id="text198" transform="matrix(1,0,0,-1,13.5801,147.99)"><tspan id="tspan196" x="0 8.804 14.665 21.265" y="0">Text</tspan></text></g><g id="g200" transform="scale(10)"><text style="font-variant:normal;font-weight:400;font-size:10.07999992px;font-family:Helvetica;-inkscape-font-specification:Helvetica;writing-mode:lr-tb;fill:#000;fill-opacity:1;fill-rule:nonzero;stroke:none" id="text208" transform="matrix(1,0,0,-1,40.68234,217.535)"><tspan id="tspan202" x="0 5.604 11.209 14.566 20.17 25.775" y="0">border</tspan><tspan id="tspan204" x="68.478 71.28 76.32 81.925 87.529 90.331 95.936 101.54" y="15.84"> content</tspan><tspan id="tspan206" x="28.878 31.68 37.285 42.889 48.494 54.098 56.336 61.94" y="7.92"> padding</tspan></text><text style="font-variant:normal;font-weight:700;font-size:10.07999992px;font-family:Helvetica;-inkscape-font-specification:Helvetica-Bold;writing-mode:lr-tb;fill:#000;fill-opacity:1;fill-rule:nonzero;stroke:none" id="text212" transform="matrix(1,0,0,-1,5.4801,34.66112)"><tspan id="tspan210" x="0 2.802 8.961 14.566 20.17 25.775 28.577 31.379 37.538 43.142 64.08 66.882 73.041 78.646 84.25 89.855 92.657 95.459 101.618 107.222 136.08 138.882 142.239 148.398 154.557 175.68 178.482 184.641 190.8 194.157 197.513 203.672 212.633" y="0">’baseline’’baseline’’top’’bottom’</tspan></text><text style="font-variant:normal;font-weight:400;font-size:10.07999992px;font-family:Helvetica;-inkscape-font-specification:Helvetica;writing-mode:lr-tb;fill:#000;fill-opacity:1;fill-rule:nonzero;stroke:none" id="text216" transform="matrix(1,0,0,-1,37.8801,7.29552)"><tspan id="tspan214" x="0 5.887 8.689 14.293 19.898 25.502 31.107 36.711 39.514 45.118 50.723 56.327 61.932 64.169 69.774 75.378 78.18 81.537 84.339 89.944 92.746 101.143 106.747 111.787 117.392 120.194 125.234 130.838 133.076 135.314 138.116 143.721 148.761 151.563 157.167 159.405 165.01 170.614 173.416 179.021 184.061 186.863 189.665 195.27 200.874 203.676 207.033 212.638 219.915" y="0">= added padding (to make cell as high as the row)</tspan></text></g><path style="fill:none;stroke:gray;stroke-width:14.39999962;stroke-linecap:butt;stroke-linejoin:miter;stroke-miterlimit:10;stroke-dasharray:none;stroke-opacity:1" id="path218" d="M 134,1309.2 H 458"/><path style="fill:none;stroke:gray;stroke-width:14.39999962;stroke-linecap:butt;stroke-linejoin:miter;stroke-miterlimit:10;stroke-dasharray:none;stroke-opacity:1" id="path220" d="M 134,1150.8 H 537.199"/><path style="fill:none;stroke:gray;stroke-width:14.39999962;stroke-linecap:butt;stroke-linejoin:miter;stroke-miterlimit:10;stroke-dasharray:none;stroke-opacity:1" id="path222" d="M 134,992.398 H 616.398"/><path style="fill:none;stroke:gray;stroke-width:14.39999962;stroke-linecap:butt;stroke-linejoin:miter;stroke-miterlimit:10;stroke-dasharray:none;stroke-opacity:1" id="path224" d="M 134,834 H 537.199"/><path style="fill:none;stroke:gray;stroke-width:14.39999962;stroke-linecap:butt;stroke-linejoin:miter;stroke-miterlimit:10;stroke-dasharray:none;stroke-opacity:1" id="path226" d="M 134,675.602 H 458"/><path style="fill:#fff;fill-opacity:1;fill-rule:evenodd;stroke:none" id="path228" d="m 772.359,754.801 h 560.434 v 957.598 H 772.359 Z"/><path style="fill:none;stroke:#c3c3c3;stroke-width:7.19999981;stroke-linecap:butt;stroke-linejoin:miter;stroke-miterlimit:10;stroke-dasharray:14.4,14.4,14.4,14.4,14.4,14.4,14.4,14.4;stroke-dashoffset:108;stroke-opacity:1" id="path230" d="m 772.359,754.801 h 560.434 v 957.598 H 772.359 Z"/><g id="g232" transform="scale(10)"><text style="font-variant:normal;font-weight:700;font-size:24.19199944px;font-family:Times;-inkscape-font-specification:Times-Bold;writing-mode:lr-tb;fill:gray;fill-opacity:1;fill-rule:nonzero;stroke:none" id="text236" transform="matrix(1,0,0,-1,76.5441,147.889)"><tspan id="tspan234" x="0 16.136 26.877 38.973" y="0">Text</tspan></text></g><path style="fill:none;stroke:gray;stroke-width:14.39999962;stroke-linecap:butt;stroke-linejoin:miter;stroke-miterlimit:10;stroke-dasharray:none;stroke-opacity:1" id="path238" d="M 774.801,1309.2 H 1257.2"/><path style="fill:none;stroke:gray;stroke-width:14.39999962;stroke-linecap:butt;stroke-linejoin:miter;stroke-miterlimit:10;stroke-dasharray:none;stroke-opacity:1" id="path240" d="M 774.801,1150.8 H 1336.4"/><path style="fill:none;stroke:gray;stroke-width:14.39999962;stroke-linecap:butt;stroke-linejoin:miter;stroke-miterlimit:10;stroke-dasharray:none;stroke-opacity:1" id="path242" d="M 774.801,992.398 H 1178"/><path style="fill:none;stroke:gray;stroke-width:14.39999962;stroke-linecap:butt;stroke-linejoin:miter;stroke-miterlimit:10;stroke-dasharray:none;stroke-opacity:1" id="path244" d="M 774.801,834 H 1257.2"/><path style="fill:none;stroke:gray;stroke-width:14.39999962;stroke-linecap:butt;stroke-linejoin:miter;stroke-miterlimit:10;stroke-dasharray:none;stroke-opacity:1" id="path246" d="M 774.801,1388.4 H 1178"/><path style="fill:none;stroke:gray;stroke-width:14.39999962;stroke-linecap:butt;stroke-linejoin:miter;stroke-miterlimit:10;stroke-dasharray:none;stroke-opacity:1" id="path248" d="M 774.801,1230 H 1091.6"/><path style="fill:none;stroke:gray;stroke-width:14.39999962;stroke-linecap:butt;stroke-linejoin:miter;stroke-miterlimit:10;stroke-dasharray:none;stroke-opacity:1" id="path250" d="M 774.801,1071.6 H 1257.2"/><path style="fill:none;stroke:gray;stroke-width:14.39999962;stroke-linecap:butt;stroke-linejoin:miter;stroke-miterlimit:10;stroke-dasharray:none;stroke-opacity:1" id="path252" d="M 774.801,913.199 H 1336.4"/><path style="fill:#000;fill-opacity:1;fill-rule:evenodd;stroke:none" id="path254" d="m 969.199,873.602 c 0,43.738 -35.461,79.199 -79.199,79.199 -43.738,0 -79.199,-35.461 -79.199,-79.199 0,-43.739 35.461,-79.204 79.199,-79.204 43.738,0 79.199,35.465 79.199,79.204"/><path style="fill:none;stroke:#fff;stroke-width:7.19999981;stroke-linecap:butt;stroke-linejoin:miter;stroke-miterlimit:10;stroke-dasharray:none;stroke-opacity:1" id="path256" d="m 969.199,873.602 c 0,43.738 -35.461,79.199 -79.199,79.199 -43.738,0 -79.199,-35.461 -79.199,-79.199 0,-43.739 35.461,-79.204 79.199,-79.204 43.738,0 79.199,35.465 79.199,79.204"/><g id="g258" transform="scale(10)"><text style="font-variant:normal;font-weight:700;font-size:10.07999992px;font-family:Helvetica;-inkscape-font-specification:Helvetica-Bold;writing-mode:lr-tb;fill:#fff;fill-opacity:1;fill-rule:nonzero;stroke:none" id="text262" transform="matrix(1,0,0,-1,86.1199,83.2609)"><tspan id="tspan260" x="0" y="0">2</tspan></text></g><path style="fill:#fff;fill-opacity:1;fill-rule:evenodd;stroke:none" id="path264" d="m 1491.2,1388.4 h 237.602 v 324 H 1491.2 Z"/><path style="fill:none;stroke:#c3c3c3;stroke-width:7.19999981;stroke-linecap:butt;stroke-linejoin:miter;stroke-miterlimit:10;stroke-dasharray:14.4,14.4,14.4,14.4,14.4,14.4,14.4,14.4;stroke-dashoffset:108;stroke-opacity:1" id="path266" d="m 1491.2,1388.4 h 237.602 v 324 H 1491.2 Z"/><path style="fill:#000;fill-opacity:1;fill-rule:evenodd;stroke:none" id="path268" d="m 1689.2,1507.2 c 0,43.74 -35.46,79.2 -79.2,79.2 -43.74,0 -79.2,-35.46 -79.2,-79.2 0,-43.74 35.46,-79.2 79.2,-79.2 43.74,0 79.2,35.46 79.2,79.2"/><path style="fill:none;stroke:#fff;stroke-width:7.19999981;stroke-linecap:butt;stroke-linejoin:miter;stroke-miterlimit:10;stroke-dasharray:none;stroke-opacity:1" id="path270" d="m 1689.2,1507.2 c 0,43.74 -35.46,79.2 -79.2,79.2 -43.74,0 -79.2,-35.46 -79.2,-79.2 0,-43.74 35.46,-79.2 79.2,-79.2 43.74,0 79.2,35.46 79.2,79.2"/><g id="g272" transform="scale(10)"><text style="font-variant:normal;font-weight:700;font-size:10.07999992px;font-family:Helvetica;-inkscape-font-specification:Helvetica-Bold;writing-mode:lr-tb;fill:#fff;fill-opacity:1;fill-rule:nonzero;stroke:none" id="text276" transform="matrix(1,0,0,-1,158.12,146.621)"><tspan id="tspan274" x="0" y="0">3</tspan></text></g><path style="fill:#fff;fill-opacity:1;fill-rule:evenodd;stroke:none" id="path278" d="m 1880,596.398 h 483.402 v 712.801 H 1880 Z"/><path style="fill:none;stroke:#c3c3c3;stroke-width:7.19999981;stroke-linecap:butt;stroke-linejoin:miter;stroke-miterlimit:10;stroke-dasharray:14.4,14.4,14.4,14.4,14.4,14.4,14.4,14.4;stroke-dashoffset:108;stroke-opacity:1" id="path280" d="m 1880,596.398 h 483.402 v 712.801 H 1880 Z"/><path style="fill:#000;fill-opacity:1;fill-rule:evenodd;stroke:none" id="path282" d="m 2092.4,726 c 0,43.738 -35.46,79.199 -79.2,79.199 -43.74,0 -79.2,-35.461 -79.2,-79.199 0,-43.738 35.46,-79.199 79.2,-79.199 43.74,0 79.2,35.461 79.2,79.199"/><path style="fill:none;stroke:#fff;stroke-width:7.19999981;stroke-linecap:butt;stroke-linejoin:miter;stroke-miterlimit:10;stroke-dasharray:none;stroke-opacity:1" id="path284" d="m 2092.4,726 c 0,43.738 -35.46,79.199 -79.2,79.199 -43.74,0 -79.2,-35.461 -79.2,-79.199 0,-43.738 35.46,-79.199 79.2,-79.199 43.74,0 79.2,35.461 79.2,79.199"/><g id="g286" transform="scale(10)"><text style="font-variant:normal;font-weight:700;font-size:10.07999992px;font-family:Helvetica;-inkscape-font-specification:Helvetica-Bold;writing-mode:lr-tb;fill:#fff;fill-opacity:1;fill-rule:nonzero;stroke:none" id="text290" transform="matrix(1,0,0,-1,198.44,68.5012)"><tspan id="tspan288" x="0" y="0">4</tspan></text></g><path style="fill:#fff;fill-opacity:1;fill-rule:evenodd;stroke:none" id="path292" d="m 2528,754.801 h 403.199 V 1554 H 2528 Z"/><path style="fill:none;stroke:#c3c3c3;stroke-width:7.19999981;stroke-linecap:butt;stroke-linejoin:miter;stroke-miterlimit:10;stroke-dasharray:14.4,14.4,14.4,14.4,14.4,14.4,14.4,14.4;stroke-dashoffset:108;stroke-opacity:1" id="path294" d="m 2528,754.801 h 403.199 V 1554 H 2528 Z"/><g id="g296" transform="scale(10)"><text style="font-variant:normal;font-weight:700;font-size:10.07999992px;font-family:Helvetica;-inkscape-font-specification:Helvetica-Bold;writing-mode:lr-tb;fill:#000;fill-opacity:1;fill-rule:nonzero;stroke:none" id="text300" transform="matrix(1,0,0,-1,245.24,34.6609)"><tspan id="tspan298" x="0 2.802 11.763 14.566 20.724 26.883 29.686 35.29" y="0">’middle’</tspan></text></g><path style="fill:#000;fill-opacity:1;fill-rule:evenodd;stroke:none" id="path302" d="m 2733.2,880.801 c 0,43.738 -35.46,79.199 -79.2,79.199 -43.74,0 -79.2,-35.461 -79.2,-79.199 0,-43.738 35.46,-79.199 79.2,-79.199 43.74,0 79.2,35.461 79.2,79.199"/><path style="fill:none;stroke:#fff;stroke-width:7.19999981;stroke-linecap:butt;stroke-linejoin:miter;stroke-miterlimit:10;stroke-dasharray:none;stroke-opacity:1" id="path304" d="m 2733.2,880.801 c 0,43.738 -35.46,79.199 -79.2,79.199 -43.74,0 -79.2,-35.461 -79.2,-79.199 0,-43.738 35.46,-79.199 79.2,-79.199 43.74,0 79.2,35.461 79.2,79.199"/><g id="g306" transform="scale(10)"><text style="font-variant:normal;font-weight:700;font-size:10.07999992px;font-family:Helvetica;-inkscape-font-specification:Helvetica-Bold;writing-mode:lr-tb;fill:#fff;fill-opacity:1;fill-rule:nonzero;stroke:none" id="text310" transform="matrix(1,0,0,-1,262.52,83.9809)"><tspan id="tspan308" x="0" y="0">5</tspan></text></g><path style="fill:none;stroke:#ff1441;stroke-width:14.39999962;stroke-linecap:butt;stroke-linejoin:miter;stroke-miterlimit:10;stroke-dasharray:none;stroke-opacity:1" id="path312" d="M 2531.6,1150.8 H 2942"/><path style="fill:none;stroke:#ff1441;stroke-width:14.39999962;stroke-linecap:butt;stroke-linejoin:miter;stroke-miterlimit:10;stroke-dasharray:none;stroke-opacity:1" id="path314" d="M 774.801,1467.6 H 1336.4"/><path style="fill:none;stroke:#ff1441;stroke-width:14.39999962;stroke-linecap:butt;stroke-linejoin:miter;stroke-miterlimit:10;stroke-dasharray:none;stroke-opacity:1" id="path316" d="M 134,1467.6 H 616.398"/><path style="fill:none;stroke:#c3c3c3;stroke-width:14.39999962;stroke-linecap:butt;stroke-linejoin:miter;stroke-miterlimit:10;stroke-dasharray:none;stroke-opacity:1" id="path318" d="M 695.602,1791.6 V 517.199"/><path style="fill:none;stroke:#c3c3c3;stroke-width:14.39999962;stroke-linecap:butt;stroke-linejoin:miter;stroke-miterlimit:10;stroke-dasharray:none;stroke-opacity:1" id="path320" d="M 53.1328,1791.6 H 3005.24"/><path style="fill:none;stroke:#c3c3c3;stroke-width:14.39999962;stroke-linecap:butt;stroke-linejoin:miter;stroke-miterlimit:10;stroke-dasharray:none;stroke-opacity:1" id="path322" d="M 53.1133,517.199 H 3005.22"/><path style="fill:none;stroke:#c3c3c3;stroke-width:14.39999962;stroke-linecap:butt;stroke-linejoin:miter;stroke-miterlimit:10;stroke-dasharray:none;stroke-opacity:1" id="path324" d="M 1415.6,1791.6 V 517.199"/><path style="fill:none;stroke:#c3c3c3;stroke-width:14.39999962;stroke-linecap:butt;stroke-linejoin:miter;stroke-miterlimit:10;stroke-dasharray:none;stroke-opacity:1" id="path326" d="M 47.6016,1791.6 V 517.199"/><path style="fill:none;stroke:#c3c3c3;stroke-width:14.39999962;stroke-linecap:butt;stroke-linejoin:miter;stroke-miterlimit:10;stroke-dasharray:none;stroke-opacity:1" id="path328" d="M 1811.6,1791.6 V 517.199"/><path style="fill:none;stroke:#c3c3c3;stroke-width:14.39999962;stroke-linecap:butt;stroke-linejoin:miter;stroke-miterlimit:10;stroke-dasharray:none;stroke-opacity:1" id="path330" d="M 2445.2,1791.6 V 517.199"/><path style="fill:none;stroke:#c3c3c3;stroke-width:14.39999962;stroke-linecap:butt;stroke-linejoin:miter;stroke-miterlimit:10;stroke-dasharray:none;stroke-opacity:1" id="path332" d="M 3003.2,1791.6 V 517.199"/><path style="fill:none;stroke:#c3c3c3;stroke-width:14.39999962;stroke-linecap:butt;stroke-linejoin:miter;stroke-miterlimit:10;stroke-dasharray:none;stroke-opacity:1" id="path334" d="M 705.563,1771.68 V 497.273"/><path style="fill:none;stroke:#c3c3c3;stroke-width:14.39999962;stroke-linecap:butt;stroke-linejoin:miter;stroke-miterlimit:10;stroke-dasharray:none;stroke-opacity:1" id="path336" d="M 63.0977,1771.68 H 3015.2"/><path style="fill:none;stroke:#c3c3c3;stroke-width:14.39999962;stroke-linecap:butt;stroke-linejoin:miter;stroke-miterlimit:10;stroke-dasharray:none;stroke-opacity:1" id="path338" d="M 63.0742,497.273 H 3015.18"/><path style="fill:none;stroke:#c3c3c3;stroke-width:14.39999962;stroke-linecap:butt;stroke-linejoin:miter;stroke-miterlimit:10;stroke-dasharray:none;stroke-opacity:1" id="path340" d="M 1425.56,1771.68 V 497.273"/><path style="fill:none;stroke:#c3c3c3;stroke-width:14.39999962;stroke-linecap:butt;stroke-linejoin:miter;stroke-miterlimit:10;stroke-dasharray:none;stroke-opacity:1" id="path342" d="M 57.5625,1771.68 V 497.273"/><path style="fill:none;stroke:#c3c3c3;stroke-width:14.39999962;stroke-linecap:butt;stroke-linejoin:miter;stroke-miterlimit:10;stroke-dasharray:none;stroke-opacity:1" id="path344" d="M 1821.56,1771.68 V 497.273"/><path style="fill:none;stroke:#c3c3c3;stroke-width:14.39999962;stroke-linecap:butt;stroke-linejoin:miter;stroke-miterlimit:10;stroke-dasharray:none;stroke-opacity:1" id="path346" d="M 2455.16,1771.68 V 497.273"/><path style="fill:none;stroke:#c3c3c3;stroke-width:14.39999962;stroke-linecap:butt;stroke-linejoin:miter;stroke-miterlimit:10;stroke-dasharray:none;stroke-opacity:1" id="path348" d="M 3013.16,1771.68 V 497.273"/><path style="fill:none;stroke:#c3c3c3;stroke-width:14.39999962;stroke-linecap:butt;stroke-linejoin:miter;stroke-miterlimit:10;stroke-dasharray:none;stroke-opacity:1" id="path350" d="M 705.563,1811.53 V 537.125"/><path style="fill:none;stroke:#c3c3c3;stroke-width:14.39999962;stroke-linecap:butt;stroke-linejoin:miter;stroke-miterlimit:10;stroke-dasharray:none;stroke-opacity:1" id="path352" d="M 63.0977,1811.53 H 3015.2"/><path style="fill:none;stroke:#c3c3c3;stroke-width:14.39999962;stroke-linecap:butt;stroke-linejoin:miter;stroke-miterlimit:10;stroke-dasharray:none;stroke-opacity:1" id="path354" d="M 63.0742,537.125 H 3015.18"/><path style="fill:none;stroke:#c3c3c3;stroke-width:14.39999962;stroke-linecap:butt;stroke-linejoin:miter;stroke-miterlimit:10;stroke-dasharray:none;stroke-opacity:1" id="path356" d="M 1425.56,1811.53 V 537.125"/><path style="fill:none;stroke:#c3c3c3;stroke-width:14.39999962;stroke-linecap:butt;stroke-linejoin:miter;stroke-miterlimit:10;stroke-dasharray:none;stroke-opacity:1" id="path358" d="M 57.5625,1811.53 V 537.125"/><path style="fill:none;stroke:#c3c3c3;stroke-width:14.39999962;stroke-linecap:butt;stroke-linejoin:miter;stroke-miterlimit:10;stroke-dasharray:none;stroke-opacity:1" id="path360" d="M 1821.56,1811.53 V 537.125"/><path style="fill:none;stroke:#c3c3c3;stroke-width:14.39999962;stroke-linecap:butt;stroke-linejoin:miter;stroke-miterlimit:10;stroke-dasharray:none;stroke-opacity:1" id="path362" d="M 2455.16,1811.53 V 537.125"/><path style="fill:none;stroke:#c3c3c3;stroke-width:14.39999962;stroke-linecap:butt;stroke-linejoin:miter;stroke-miterlimit:10;stroke-dasharray:none;stroke-opacity:1" id="path364" d="M 3013.16,1811.53 V 537.125"/><path style="fill:none;stroke:#c3c3c3;stroke-width:14.39999962;stroke-linecap:butt;stroke-linejoin:miter;stroke-miterlimit:10;stroke-dasharray:none;stroke-opacity:1" id="path366" d="M 685.637,1771.68 V 497.273"/><path style="fill:none;stroke:#c3c3c3;stroke-width:14.39999962;stroke-linecap:butt;stroke-linejoin:miter;stroke-miterlimit:10;stroke-dasharray:none;stroke-opacity:1" id="path368" d="M 43.1719,1771.68 H 2995.28"/><path style="fill:none;stroke:#c3c3c3;stroke-width:14.39999962;stroke-linecap:butt;stroke-linejoin:miter;stroke-miterlimit:10;stroke-dasharray:none;stroke-opacity:1" id="path370" d="M 43.1484,497.273 H 2995.26"/><path style="fill:none;stroke:#c3c3c3;stroke-width:14.39999962;stroke-linecap:butt;stroke-linejoin:miter;stroke-miterlimit:10;stroke-dasharray:none;stroke-opacity:1" id="path372" d="M 1405.64,1771.68 V 497.273"/><path style="fill:none;stroke:#c3c3c3;stroke-width:14.39999962;stroke-linecap:butt;stroke-linejoin:miter;stroke-miterlimit:10;stroke-dasharray:none;stroke-opacity:1" id="path374" d="M 37.6367,1771.68 V 497.273"/><path style="fill:none;stroke:#c3c3c3;stroke-width:14.39999962;stroke-linecap:butt;stroke-linejoin:miter;stroke-miterlimit:10;stroke-dasharray:none;stroke-opacity:1" id="path376" d="M 1801.64,1771.68 V 497.273"/><path style="fill:none;stroke:#c3c3c3;stroke-width:14.39999962;stroke-linecap:butt;stroke-linejoin:miter;stroke-miterlimit:10;stroke-dasharray:none;stroke-opacity:1" id="path378" d="M 2435.24,1771.68 V 497.273"/><path style="fill:none;stroke:#c3c3c3;stroke-width:14.39999962;stroke-linecap:butt;stroke-linejoin:miter;stroke-miterlimit:10;stroke-dasharray:none;stroke-opacity:1" id="path380" d="M 2993.24,1771.68 V 497.273"/><path style="fill:none;stroke:#c3c3c3;stroke-width:14.39999962;stroke-linecap:butt;stroke-linejoin:miter;stroke-miterlimit:10;stroke-dasharray:none;stroke-opacity:1" id="path382" d="M 685.637,1811.53 V 537.125"/><path style="fill:none;stroke:#c3c3c3;stroke-width:14.39999962;stroke-linecap:butt;stroke-linejoin:miter;stroke-miterlimit:10;stroke-dasharray:none;stroke-opacity:1" id="path384" d="M 43.1719,1811.53 H 2995.28"/><path style="fill:none;stroke:#c3c3c3;stroke-width:14.39999962;stroke-linecap:butt;stroke-linejoin:miter;stroke-miterlimit:10;stroke-dasharray:none;stroke-opacity:1" id="path386" d="M 43.1484,537.125 H 2995.26"/><path style="fill:none;stroke:#c3c3c3;stroke-width:14.39999962;stroke-linecap:butt;stroke-linejoin:miter;stroke-miterlimit:10;stroke-dasharray:none;stroke-opacity:1" id="path388" d="M 1405.64,1811.53 V 537.125"/><path style="fill:none;stroke:#c3c3c3;stroke-width:14.39999962;stroke-linecap:butt;stroke-linejoin:miter;stroke-miterlimit:10;stroke-dasharray:none;stroke-opacity:1" id="path390" d="M 37.6367,1811.53 V 537.125"/><path style="fill:none;stroke:#c3c3c3;stroke-width:14.39999962;stroke-linecap:butt;stroke-linejoin:miter;stroke-miterlimit:10;stroke-dasharray:none;stroke-opacity:1" id="path392" d="M 1801.64,1811.53 V 537.125"/><path style="fill:none;stroke:#c3c3c3;stroke-width:14.39999962;stroke-linecap:butt;stroke-linejoin:miter;stroke-miterlimit:10;stroke-dasharray:none;stroke-opacity:1" id="path394" d="M 2435.24,1811.53 V 537.125"/><path style="fill:none;stroke:#c3c3c3;stroke-width:14.39999962;stroke-linecap:butt;stroke-linejoin:miter;stroke-miterlimit:10;stroke-dasharray:none;stroke-opacity:1" id="path396" d="M 2993.24,1811.53 V 537.125"/><path style="fill:none;stroke:#ff1441;stroke-width:14.39999962;stroke-linecap:butt;stroke-linejoin:miter;stroke-miterlimit:10;stroke-dasharray:none;stroke-opacity:1" id="path398" d="m 1491.64,1790.51 h 238.37"/><path style="fill:none;stroke:#ff1441;stroke-width:14.39999962;stroke-linecap:butt;stroke-linejoin:miter;stroke-miterlimit:10;stroke-dasharray:none;stroke-opacity:1" id="path400" d="m 1889.32,518.289 h 475.74"/><path style="fill:none;stroke:#ff1441;stroke-width:7.19999981;stroke-linecap:butt;stroke-linejoin:miter;stroke-miterlimit:10;stroke-dasharray:none;stroke-opacity:1" id="path402" d="M 1250,1789.86 V 1471.48"/><path style="fill:#ff1441;fill-opacity:1;fill-rule:evenodd;stroke:none" id="path404" d="m 1250,1804.71 -19.01,-76.05 h 38.02"/><path style="fill:none;stroke:#ff1441;stroke-width:7.19999981;stroke-linecap:butt;stroke-linejoin:miter;stroke-miterlimit:10;stroke-dasharray:none;stroke-opacity:1" id="path406" d="m 1250,1789.86 -14.4,-57.6 h 28.8 z"/><path style="fill:#ff1441;fill-opacity:1;fill-rule:evenodd;stroke:none" id="path408" d="m 1250,1456.64 19.01,76.04 h -38.02"/><path style="fill:none;stroke:#ff1441;stroke-width:7.19999981;stroke-linecap:butt;stroke-linejoin:miter;stroke-miterlimit:10;stroke-dasharray:none;stroke-opacity:1" id="path410" d="m 1250,1471.48 14.4,57.6 h -28.8 z"/><path style="fill:none;stroke:#fff;stroke-width:7.19999981;stroke-linecap:butt;stroke-linejoin:miter;stroke-miterlimit:10;stroke-dasharray:none;stroke-opacity:1" id="path412" d="m 626.363,1633.2 489.597,396"/><path style="fill:#fff;fill-opacity:1;fill-rule:evenodd;stroke:none" id="path414" d="m 614.824,1623.87 71.078,33.04 -23.91,29.56"/><path style="fill:none;stroke:#fff;stroke-width:7.19999981;stroke-linecap:butt;stroke-linejoin:miter;stroke-miterlimit:10;stroke-dasharray:none;stroke-opacity:1" id="path416" d="m 626.363,1633.2 53.844,25.03 -18.113,22.39 z"/><path style="fill:none;stroke:#fff;stroke-width:7.19999981;stroke-linecap:butt;stroke-linejoin:miter;stroke-miterlimit:10;stroke-dasharray:none;stroke-opacity:1" id="path418" d="m 606.434,1633.2 489.606,396"/><path style="fill:#fff;fill-opacity:1;fill-rule:evenodd;stroke:none" id="path420" d="m 594.895,1623.87 71.078,33.04 -23.91,29.56"/><path style="fill:none;stroke:#fff;stroke-width:7.19999981;stroke-linecap:butt;stroke-linejoin:miter;stroke-miterlimit:10;stroke-dasharray:none;stroke-opacity:1" id="path422" d="m 606.434,1633.2 53.843,25.03 -18.113,22.39 z"/><path style="fill:none;stroke:#000;stroke-width:7.19999981;stroke-linecap:butt;stroke-linejoin:miter;stroke-miterlimit:10;stroke-dasharray:none;stroke-opacity:1" id="path424" d="M 616.398,1633.2 1106,2029.2"/><path style="fill:#000;fill-opacity:1;fill-rule:evenodd;stroke:none" id="path426" d="m 604.859,1623.87 71.079,33.04 -23.911,29.56"/><path style="fill:none;stroke:#000;stroke-width:7.19999981;stroke-linecap:butt;stroke-linejoin:miter;stroke-miterlimit:10;stroke-dasharray:none;stroke-opacity:1" id="path428" d="m 616.398,1633.2 53.844,25.03 -18.113,22.39 z"/><path style="fill:none;stroke:#fff;stroke-width:7.19999981;stroke-linecap:butt;stroke-linejoin:miter;stroke-miterlimit:10;stroke-dasharray:none;stroke-opacity:1" id="path430" d="m 390.434,1705.2 295.203,403.2"/><path style="fill:#fff;fill-opacity:1;fill-rule:evenodd;stroke:none" id="path432" d="m 381.668,1693.22 60.258,50.13 -30.676,22.46"/><path style="fill:none;stroke:#fff;stroke-width:7.19999981;stroke-linecap:butt;stroke-linejoin:miter;stroke-miterlimit:10;stroke-dasharray:none;stroke-opacity:1" id="path434" d="m 390.434,1705.2 45.648,37.97 -23.238,17.01 z"/><path style="fill:none;stroke:#fff;stroke-width:7.19999981;stroke-linecap:butt;stroke-linejoin:miter;stroke-miterlimit:10;stroke-dasharray:none;stroke-opacity:1" id="path436" d="m 410.359,1705.2 295.2,403.2"/><path style="fill:#fff;fill-opacity:1;fill-rule:evenodd;stroke:none" id="path438" d="m 401.59,1693.22 60.262,50.13 -30.68,22.46"/><path style="fill:none;stroke:#fff;stroke-width:7.19999981;stroke-linecap:butt;stroke-linejoin:miter;stroke-miterlimit:10;stroke-dasharray:none;stroke-opacity:1" id="path440" d="m 410.359,1705.2 45.645,37.97 -23.238,17.01 z"/><path style="fill:none;stroke:#000;stroke-width:7.19999981;stroke-linecap:butt;stroke-linejoin:miter;stroke-miterlimit:10;stroke-dasharray:none;stroke-opacity:1" id="path442" d="m 400.398,1705.2 295.204,403.2"/><path style="fill:#000;fill-opacity:1;fill-rule:evenodd;stroke:none" id="path444" d="m 391.633,1693.22 60.258,50.13 -30.676,22.46"/><path style="fill:none;stroke:#000;stroke-width:7.19999981;stroke-linecap:butt;stroke-linejoin:miter;stroke-miterlimit:10;stroke-dasharray:none;stroke-opacity:1" id="path446" d="m 400.398,1705.2 45.649,37.97 -23.238,17.01 z"/><path style="fill:none;stroke:#fff;stroke-width:7.19999981;stroke-linecap:butt;stroke-linejoin:miter;stroke-miterlimit:10;stroke-dasharray:none;stroke-opacity:1" id="path448" d="m 230.363,1827.6 158.403,360"/><path style="fill:#fff;fill-opacity:1;fill-rule:evenodd;stroke:none" id="path450" d="m 224.387,1814.02 48.027,61.94 -34.801,15.31"/><path style="fill:none;stroke:#fff;stroke-width:7.19999981;stroke-linecap:butt;stroke-linejoin:miter;stroke-miterlimit:10;stroke-dasharray:none;stroke-opacity:1" id="path452" d="m 230.363,1827.6 36.379,46.92 -26.359,11.6 z"/><path style="fill:none;stroke:#fff;stroke-width:7.19999981;stroke-linecap:butt;stroke-linejoin:miter;stroke-miterlimit:10;stroke-dasharray:none;stroke-opacity:1" id="path454" d="m 210.441,1827.6 158.403,360"/><path style="fill:#fff;fill-opacity:1;fill-rule:evenodd;stroke:none" id="path456" d="m 204.465,1814.02 48.027,61.94 -34.804,15.31"/><path style="fill:none;stroke:#fff;stroke-width:7.19999981;stroke-linecap:butt;stroke-linejoin:miter;stroke-miterlimit:10;stroke-dasharray:none;stroke-opacity:1" id="path458" d="m 210.441,1827.6 36.379,46.92 -26.359,11.6 z"/><path style="fill:none;stroke:#000;stroke-width:7.19999981;stroke-linecap:butt;stroke-linejoin:miter;stroke-miterlimit:10;stroke-dasharray:none;stroke-opacity:1" id="path460" d="m 220.398,1827.6 158.403,360"/><path style="fill:#000;fill-opacity:1;fill-rule:evenodd;stroke:none" id="path462" d="m 214.422,1814.02 48.027,61.94 -34.801,15.31"/><path style="fill:none;stroke:#000;stroke-width:7.19999981;stroke-linecap:butt;stroke-linejoin:miter;stroke-miterlimit:10;stroke-dasharray:none;stroke-opacity:1" id="path464" d="m 220.398,1827.6 36.379,46.92 -26.359,11.6 z"/><path style="fill:#000;fill-opacity:1;fill-rule:evenodd;stroke:none" id="path466" d="m 317.602,711.602 c 0,43.738 -35.465,79.199 -79.204,79.199 -43.738,0 -79.199,-35.461 -79.199,-79.199 0,-43.739 35.461,-79.204 79.199,-79.204 43.739,0 79.204,35.465 79.204,79.204"/><path style="fill:none;stroke:#fff;stroke-width:7.19999981;stroke-linecap:butt;stroke-linejoin:miter;stroke-miterlimit:10;stroke-dasharray:none;stroke-opacity:1" id="path468" d="m 317.602,711.602 c 0,43.738 -35.465,79.199 -79.204,79.199 -43.738,0 -79.199,-35.461 -79.199,-79.199 0,-43.739 35.461,-79.204 79.199,-79.204 43.739,0 79.204,35.465 79.204,79.204"/><g id="g470" transform="scale(10)"><text style="font-variant:normal;font-weight:700;font-size:10.07999992px;font-family:Helvetica;-inkscape-font-specification:Helvetica-Bold;writing-mode:lr-tb;fill:#fff;fill-opacity:1;fill-rule:nonzero;stroke:none" id="text474" transform="matrix(1,0,0,-1,20.9602,67.0609)"><tspan id="tspan472" x="0" y="0">1</tspan></text></g></g></g></svg>