<svg xmlns="http://www.w3.org/2000/svg" xmlns:svg="http://www.w3.org/2000/svg" id="svg2" width="243" height="141" preserveAspectRatio="xMidYMid slice" version="1.1" viewBox="0 0 310.667 180" xml:space="preserve"><metadata id="metadata8"/><text id="text24" x="43.491" y="48.19" style="font-variant:normal;font-weight:400;font-size:17.8326664px;font-family:Helvetica;-inkscape-font-specification:Helvetica;writing-mode:lr-tb;fill:#000;fill-opacity:1;fill-rule:nonzero;stroke:none;stroke-width:1.33333325"><tspan style="stroke-width:1.33333325" id="tspan16" x="43.491 48.449 53.406 63.321 72.237 82.152 92.067 97.025 101.982 114.858 124.772 129.73 135.668 145.583 155.498 160.456 170.371 179.287 189.202 199.117 209.032 218.947 227.863 232.821 237.778 247.693 252.651 261.567 271.482 277.42 286.336" y="48.19">I used two red hyphens to serve</tspan><tspan style="stroke-width:1.33333325" id="tspan18" x="43.491 53.406 62.322 67.28 77.195 82.152 91.069 100.984 110.899 120.814 130.729 140.644 145.601 155.516 165.431 171.369 176.327 181.284 192.18 202.095 212.01 220.926 225.884 238.759 242.718 246.677 250.635 255.593 261.924 266.881 270.84 280.755 290.67 295.627" y="66.023">as a change bar. They will &quot;float&quot;</tspan><tspan style="stroke-width:1.33333325" id="tspan20" x="43.491 48.449 58.364 63.321 68.279 78.194 88.109 93.066 97.025 106.94 111.897 116.855 121.812 131.727 136.685 141.642 146.6 156.515 166.43 171.387 175.346 179.305 189.22 199.135 204.092 213.009 222.923 232.838 237.796 247.711 251.67 261.585 265.544 275.459" y="83.856">to the left of the line containing</tspan><tspan style="stroke-width:1.33333325" id="tspan22" x="43.491 54.387 67.262 72.22 84.114 89.071 101.947 111.862 117.8 127.715" y="101.689">THIS word.</tspan></text><text id="text30" x="20.563" y="101.043" style="font-variant:normal;font-weight:400;font-size:17.8326664px;font-family:Helvetica;-inkscape-font-specification:Helvetica;writing-mode:lr-tb;fill:#f91340;fill-opacity:1;fill-rule:nonzero;stroke:none;stroke-width:1.33333325"><tspan style="stroke-width:1.33333325" id="tspan28" x="20.563 30.977" y="101.043">−−</tspan></text><path style="fill:none;stroke:#000;stroke-width:1;stroke-linecap:butt;stroke-linejoin:miter;stroke-miterlimit:10;stroke-dasharray:none;stroke-opacity:1" id="path32" d="M 1.4567733,155.42347 H 42.217199"/><path style="fill:none;stroke:#000;stroke-width:1;stroke-linecap:butt;stroke-linejoin:miter;stroke-miterlimit:10;stroke-dasharray:none;stroke-opacity:1" id="path34" d="M 11.64688,157.9708 1.4567733,155.42347 11.64688,152.876"/><path style="fill:none;stroke:#000;stroke-width:1;stroke-linecap:butt;stroke-linejoin:miter;stroke-miterlimit:10;stroke-dasharray:none;stroke-opacity:1" id="path36" d="m 32.027066,152.876 10.190133,2.54747 -10.190133,2.54733"/><text id="text42" x="7.189" y="174.162" style="font-variant:normal;font-weight:400;font-size:14.01146698px;font-family:Helvetica;-inkscape-font-specification:Helvetica;writing-mode:lr-tb;fill:#000;fill-opacity:1;fill-rule:nonzero;stroke:none;stroke-width:1.33333325"><tspan style="stroke-width:1.33333325" id="tspan40" x="7.189 14.979 22.769 30.56" y="174.162">10px</tspan></text><path style="fill:none;stroke:#000;stroke-width:1;stroke-linecap:butt;stroke-linejoin:miter;stroke-miterlimit:10;stroke-dasharray:none;stroke-opacity:1" id="path44" d="M 1.4567733,136.3172 V 0.0240045"/><path style="fill:none;stroke:#000;stroke-width:1;stroke-linecap:butt;stroke-linejoin:miter;stroke-miterlimit:10;stroke-dasharray:none;stroke-opacity:1" id="path46" d="M 309.70799,136.3172 V 0.0240045"/></svg>