<svg xmlns="http://www.w3.org/2000/svg" xmlns:svg="http://www.w3.org/2000/svg" id="svg2" width="292" height="577" preserveAspectRatio="xMidYMid slice" version="1.1" viewBox="0 0 291.707 577" xml:space="preserve"><metadata id="metadata8"/><path style="fill:#c2c1c0;fill-opacity:1;fill-rule:evenodd;stroke:none;stroke-width:.13333333" id="path14" d="M 45.244266,264.93867 V 54.76668 H 236.30933 V 264.93867 H 45.244266"/><path style="fill:none;stroke:#100f0d;stroke-width:2.54753327;stroke-linecap:butt;stroke-linejoin:miter;stroke-miterlimit:10;stroke-dasharray:none;stroke-opacity:1" id="path16" d="M 45.244266,264.93867 V 54.76668 H 236.30933 v 210.17199 z"/><path style="fill:#fff;fill-opacity:1;fill-rule:evenodd;stroke:none;stroke-width:.13333333" id="path18" d="M 64.351065,226.72534 V 73.873346 H 198.096 V 226.72534 H 64.351065"/><path style="fill:none;stroke:#100f0d;stroke-width:2.54753327;stroke-linecap:butt;stroke-linejoin:miter;stroke-miterlimit:10;stroke-dasharray:15.28519962,5.09506654;stroke-dashoffset:0;stroke-opacity:1" id="path20" d="M 64.351065,226.72534 V 73.873346 H 198.096 V 226.72534 Z"/><path style="fill:none;stroke:#100f0d;stroke-width:2.54753327;stroke-linecap:butt;stroke-linejoin:miter;stroke-miterlimit:10;stroke-dasharray:none;stroke-opacity:1" id="path22" d="M 26.137999,54.76668 H 45.244266 M 26.137999,73.873346 H 45.244266 M 26.137999,92.980012 H 45.244266 M 26.137999,112.08668 h 19.106267 m -19.106267,19.10666 h 19.106267 m -19.106267,19.10667 h 19.106267 m -19.106267,19.10667 h 19.106267 m -19.106267,0 H 45.244266 M 26.137999,188.51334 H 45.244266 M 26.137999,207.61868 H 45.244266 M 26.137999,226.72534 H 45.244266 M 26.137999,245.83201 H 45.244266 M 26.137999,264.93867 H 45.244266 M 236.30933,35.660014 V 54.76668 M 217.20266,35.660014 V 54.76668 M 198.096,35.660014 V 54.76668 M 178.98933,35.660014 V 54.76668 M 159.88266,35.660014 V 54.76668 M 140.77733,35.660014 V 54.76668 m 0,-19.106666 V 54.76668 M 121.67026,35.660014 V 54.76668 M 102.564,35.660014 V 54.76668 M 83.457865,35.660014 V 54.76668 M 64.351065,35.660014 V 54.76668 M 45.244266,35.660014 V 54.76668"/><text id="text34" x="13.583" y="58.544" style="font-style:oblique;font-variant:normal;font-size:15.28519917px;font-family:Helvetica;-inkscape-font-specification:Helvetica-Oblique;writing-mode:lr-tb;fill:#100f0d;fill-opacity:1;fill-rule:nonzero;stroke:none;stroke-width:1.33333325"><tspan style="stroke-width:1.33333325" id="tspan26" x="13.583" y="58.544">0</tspan><tspan style="stroke-width:1.33333325" id="tspan28" x="227.522 236.023" y="31.544">50</tspan><tspan style="stroke-width:1.33333325" id="tspan30" x=".001 4.247 12.748" y="270.065"> 55</tspan><tspan style="stroke-width:1.33333325" id="tspan32" x="70.719 78.362 81.758 85.154 93.655 97.901 102.991 111.492 119.992 123.388 131.89" y="215.544">clip region</tspan></text><path style="fill:#c2c1c0;fill-opacity:1;fill-rule:evenodd;stroke:none;stroke-width:.13333333" id="path36" d="M 45.244266,555.35573 V 345.18801 H 236.30933 V 555.35573 H 45.244266"/><path style="fill:none;stroke:#100f0d;stroke-width:2.54753327;stroke-linecap:butt;stroke-linejoin:miter;stroke-miterlimit:10;stroke-dasharray:none;stroke-opacity:1" id="path38" d="M 45.244266,555.35573 V 345.18801 H 236.30933 v 210.16772 z"/><path style="fill:#fff;fill-opacity:1;fill-rule:evenodd;stroke:none;stroke-width:.13333333" id="path40" d="M 64.895332,517.14533 V 364.29201 H 255.13333 V 517.14533 H 64.895332"/><path style="fill:none;stroke:#100f0d;stroke-width:2.54753327;stroke-linecap:butt;stroke-linejoin:miter;stroke-miterlimit:10;stroke-dasharray:15.28519962,5.09506654;stroke-dashoffset:0;stroke-opacity:1" id="path42" d="M 64.895332,517.14533 V 364.29201 H 255.13333 v 152.85332 z"/><path style="fill:none;stroke:#100f0d;stroke-width:2.54753327;stroke-linecap:butt;stroke-linejoin:miter;stroke-miterlimit:10;stroke-dasharray:none;stroke-opacity:1" id="path44" d="m 26.137999,345.18801 h 19.106267 m -19.106267,19.104 H 45.244266 M 26.137999,383.39867 H 45.244266 M 26.137999,402.50534 H 45.244266 M 26.137999,421.612 h 19.106267 m -19.106267,19.10667 h 19.106267 m -19.106267,19.1068 h 19.106267 m -19.106267,0 h 19.106267 m -19.106267,19.10627 h 19.106267 m -19.106267,19.1068 H 45.244266 M 26.137999,517.14533 H 45.244266 M 26.137999,536.24947 H 45.244266 M 26.137999,555.35573 H 45.244266 M 236.30933,326.08001 v 19.108 m -19.10667,-19.108 v 19.108 m -19.10666,-19.108 v 19.108 m -19.10667,-19.108 v 19.108 m -19.10667,-19.108 v 19.108 m -19.10533,-19.108 v 19.108 m 0,-19.108 v 19.108 m -19.10707,-19.108 v 19.108 m -19.10626,-19.108 v 19.108 m -19.106135,-19.108 v 19.108 m -19.1068,-19.108 v 19.108 m -19.106799,-19.108 v 19.108"/><text id="text58" x="227.188" y="322.628" style="font-style:oblique;font-variant:normal;font-size:15.28519917px;font-family:Helvetica;-inkscape-font-specification:Helvetica-Oblique;writing-mode:lr-tb;fill:#100f0d;fill-opacity:1;fill-rule:nonzero;stroke:none;stroke-width:1.33333325"><tspan style="stroke-width:1.33333325" id="tspan48" x="227.188 235.689" y="322.628">50</tspan><tspan style="stroke-width:1.33333325" id="tspan50" x="5 13.501" y="560.815">55</tspan><tspan style="stroke-width:1.33333325" id="tspan52" x="70.719 78.361 81.757 85.153 93.654 97.9 102.99 111.491 119.992 123.388 131.889" y="504.689">clip region</tspan><tspan style="stroke-width:1.33333325" id="tspan54" x="140.771 149.272 157.772 166.274 174.775 178.171 185.813 190.061 198.561 201.957 210.458 218.1 225.743 229.99 238.49 246.992" y="280.503">#one’s block box</tspan><tspan style="stroke-width:1.33333325" id="tspan56" x="140.771 149.272 153.518 164.557 173.057 176.453 184.096 188.342 196.843 200.239 208.74 216.382 224.025 228.271 236.772 245.274" y="569.648">#two’s block box</tspan></text><text id="text64" x="67.875" y="145.419" style="font-variant:normal;font-weight:400;font-size:16px;font-family:Helvetica;writing-mode:lr-tb;fill:#ed1e24;fill-opacity:1;fill-rule:nonzero;stroke:none;stroke-width:1.33333325"><tspan style="stroke-width:1.33333325" id="tspan62" x="67.875 76.083 84.963" y="145.419">5px</tspan></text><path style="fill:none;stroke:#ed1e24;stroke-width:2.66666651;stroke-linecap:butt;stroke-linejoin:miter;stroke-miterlimit:4;stroke-dasharray:none;stroke-opacity:1" id="path66" d="M 43.666666,140.75201 H 55.333332"/><path style="fill:#ed1e24;fill-opacity:1;fill-rule:nonzero;stroke:none;stroke-width:.13333333" id="path68" d="m 58.482265,139.38534 c -2.204133,-0.66533 -3.636933,-1.27866 -5.405733,-1.988 v 6.72534 c 0.6328,-0.3 3.2016,-1.32267 5.405733,-1.98934 2.359467,-0.712 4.498933,-1.2 5.886533,-1.37333 -1.3876,-0.17467 -3.527066,-0.66133 -5.886533,-1.37467"/><path style="fill:none;stroke:#ed1e24;stroke-width:2.66666651;stroke-linecap:butt;stroke-linejoin:miter;stroke-miterlimit:4;stroke-dasharray:none;stroke-opacity:1" id="path70" d="M 43.666666,159.75201 H 190"/><path style="fill:#ed1e24;fill-opacity:1;fill-rule:nonzero;stroke:none;stroke-width:.13333333" id="path72" d="m 193.148,158.38534 c -2.20267,-0.66533 -3.636,-1.27866 -5.404,-1.988 v 6.72534 c 0.632,-0.3 3.20133,-1.32267 5.404,-1.98934 2.36,-0.712 4.5,-1.2 5.88666,-1.37333 -1.38666,-0.17467 -3.52666,-0.66133 -5.88666,-1.37467"/><text id="text78" x="201" y="164.085" style="font-variant:normal;font-weight:400;font-size:16px;font-family:Helvetica;writing-mode:lr-tb;fill:#ed1e24;fill-opacity:1;fill-rule:nonzero;stroke:none;stroke-width:1.33333325"><tspan style="stroke-width:1.33333325" id="tspan76" x="201 209.208 217.416 226.296" y="164.085">40px</tspan></text><path style="fill:none;stroke:#ed1e24;stroke-width:2.66666651;stroke-linecap:butt;stroke-linejoin:miter;stroke-miterlimit:4;stroke-dasharray:none;stroke-opacity:1" id="path80" d="M 150.36,53.74268 V 65.409346"/><path style="fill:#ed1e24;fill-opacity:1;fill-rule:nonzero;stroke:none;stroke-width:.13333333" id="path82" d="m 151.72533,68.558679 c 0.66667,-2.204 1.28,-3.637333 1.98933,-5.405333 h -6.72533 c 0.3,0.632 1.32267,3.201333 1.988,5.405333 0.71333,2.358667 1.20133,4.498667 1.37467,5.885334 0.17466,-1.386667 0.66133,-3.526667 1.37333,-5.885334"/><path style="fill:none;stroke:#ed1e24;stroke-width:2.66666651;stroke-linecap:butt;stroke-linejoin:miter;stroke-miterlimit:4;stroke-dasharray:none;stroke-opacity:1" id="path84" d="M 169.36,53.752013 V 218.74268"/><path style="fill:#ed1e24;fill-opacity:1;fill-rule:nonzero;stroke:none;stroke-width:.13333333" id="path86" d="m 170.72533,221.89068 c 0.66667,-2.20267 1.28,-3.636 1.98933,-5.404 h -6.72533 c 0.3,0.632 1.32267,3.20133 1.988,5.404 0.71333,2.36 1.20133,4.5 1.37467,5.88666 0.17466,-1.38666 0.66133,-3.52666 1.37333,-5.88666"/><text id="text94" x="138.873" y="89.428" style="font-variant:normal;font-weight:400;font-size:16px;font-family:Helvetica;writing-mode:lr-tb;fill:#ed1e24;fill-opacity:1;fill-rule:nonzero;stroke:none;stroke-width:1.33333325"><tspan style="stroke-width:1.33333325" id="tspan90" x="138.873 147.081 155.962" y="89.428">5px</tspan><tspan style="stroke-width:1.33333325" id="tspan92" x="154.333 162.541 170.749 179.629" y="241.888">45px</tspan></text><path style="fill:none;stroke:#ed1e24;stroke-width:2.66666651;stroke-linecap:butt;stroke-linejoin:miter;stroke-miterlimit:4;stroke-dasharray:none;stroke-opacity:1" id="path96" d="M 43.999999,429.752 H 55.666665"/><path style="fill:#ed1e24;fill-opacity:1;fill-rule:nonzero;stroke:none;stroke-width:.13333333" id="path98" d="m 58.815599,428.38534 c -2.204134,-0.66534 -3.636934,-1.27867 -5.405734,-1.988 v 6.72533 c 0.6328,-0.3 3.2016,-1.32267 5.405734,-1.98933 2.359466,-0.712 4.498933,-1.2 5.886533,-1.37334 -1.3876,-0.17466 -3.527067,-0.66133 -5.886533,-1.37466"/><text id="text104" x="67.875" y="434.752" style="font-variant:normal;font-weight:400;font-size:16px;font-family:Helvetica;writing-mode:lr-tb;fill:#ed1e24;fill-opacity:1;fill-rule:nonzero;stroke:none;stroke-width:1.33333325"><tspan style="stroke-width:1.33333325" id="tspan102" x="67.875 76.083 84.963" y="434.752">5px</tspan></text><path style="fill:none;stroke:#ed1e24;stroke-width:2.66666651;stroke-linecap:butt;stroke-linejoin:miter;stroke-miterlimit:4;stroke-dasharray:none;stroke-opacity:1" id="path106" d="M 43.999999,450.4188 H 247.33333"/><path style="fill:#ed1e24;fill-opacity:1;fill-rule:nonzero;stroke:none;stroke-width:.13333333" id="path108" d="m 250.48133,449.05214 c -2.20267,-0.66574 -3.636,-1.27867 -5.404,-1.98814 v 6.72507 c 0.632,-0.3 3.20133,-1.3224 5.404,-1.98907 2.36,-0.712 4.5,-1.2 5.88666,-1.37346 -1.38666,-0.1744 -3.52666,-0.66147 -5.88666,-1.3744"/><text id="text114" x="259" y="454.085" style="font-variant:normal;font-weight:400;font-size:16px;font-family:Helvetica;writing-mode:lr-tb;fill:#ed1e24;fill-opacity:1;fill-rule:nonzero;stroke:none;stroke-width:1.33333325"><tspan style="stroke-width:1.33333325" id="tspan112" x="259 267.208 275.416 284.296" y="454.085">55px</tspan></text><path style="fill:none;stroke:#ed1e24;stroke-width:2.66666651;stroke-linecap:butt;stroke-linejoin:miter;stroke-miterlimit:4;stroke-dasharray:none;stroke-opacity:1" id="path116" d="m 170.02666,344.07601 v 11.66666"/><path style="fill:#ed1e24;fill-opacity:1;fill-rule:nonzero;stroke:none;stroke-width:.13333333" id="path118" d="m 171.392,358.89201 c 0.66666,-2.204 1.28,-3.63734 1.98933,-5.40534 H 166.656 c 0.3,0.63334 1.32266,3.20134 1.988,5.40534 0.71333,2.35866 1.20133,4.49866 1.37466,5.88666 0.17467,-1.388 0.66134,-3.528 1.37334,-5.88666"/><path style="fill:none;stroke:#ed1e24;stroke-width:2.66666651;stroke-linecap:butt;stroke-linejoin:miter;stroke-miterlimit:4;stroke-dasharray:none;stroke-opacity:1" id="path120" d="M 189.02666,343.75201 V 508.74267"/><path style="fill:#ed1e24;fill-opacity:1;fill-rule:nonzero;stroke:none;stroke-width:.13333333" id="path122" d="m 190.392,511.89067 c 0.66666,-2.20267 1.28,-3.636 1.98933,-5.40427 H 185.656 c 0.3,0.63334 1.32266,3.2016 1.988,5.40427 0.71333,2.3588 1.20133,4.5 1.37466,5.888 0.17467,-1.388 0.66134,-3.5292 1.37334,-5.888"/><text id="text130" x="157.54" y="378.764" style="font-variant:normal;font-weight:400;font-size:16px;font-family:Helvetica;writing-mode:lr-tb;fill:#ed1e24;fill-opacity:1;fill-rule:nonzero;stroke:none;stroke-width:1.33333325"><tspan style="stroke-width:1.33333325" id="tspan126" x="157.54 165.748 174.628" y="378.764">5px</tspan><tspan style="stroke-width:1.33333325" id="tspan128" x="174 182.208 190.416 199.296" y="532.555">45px</tspan></text><text id="text140" x="39.25" y="31.877" style="font-style:oblique;font-variant:normal;font-size:15.28519917px;font-family:Helvetica;-inkscape-font-specification:Helvetica-Oblique;writing-mode:lr-tb;fill:#100f0d;fill-opacity:1;fill-rule:nonzero;stroke:none;stroke-width:1.33333325"><tspan style="stroke-width:1.33333325" id="tspan134" x="39.25" y="31.877">0</tspan><tspan style="stroke-width:1.33333325" id="tspan136" x="39.917" y="323.211">0</tspan><tspan style="stroke-width:1.33333325" id="tspan138" x="13.583" y="350.211">0</tspan></text><text id="text148" x="27.419" y="-147" transform="rotate(90)" style="font-variant:normal;font-weight:400;font-size:16px;font-family:Helvetica;writing-mode:lr-tb;fill:#ed1e24;fill-opacity:1;fill-rule:nonzero;stroke:none;stroke-width:1.33333325"><tspan style="stroke-width:1.33333325" id="tspan144" x="27.419 32.619 41.403" y="-147">top</tspan><tspan style="stroke-width:1.33333325" id="tspan146" x="-.006 9.098 17.882 23.178 28.378 37.162" y="-167">bottom</tspan></text><text id="text158" x="17.16" y="145.419" style="font-variant:normal;font-weight:400;font-size:16px;font-family:Helvetica;writing-mode:lr-tb;fill:#ed1e24;fill-opacity:1;fill-rule:nonzero;stroke:none;stroke-width:1.33333325"><tspan style="stroke-width:1.33333325" id="tspan150" x="17.16 20.936 28.952 33.8" y="145.419">left</tspan><tspan style="stroke-width:1.33333325" id="tspan152" x="7 12.296 16.04 24.984 33.799" y="164.085">right</tspan><tspan style="stroke-width:1.33333325" id="tspan154" x="17.16 20.936 28.952 33.8" y="436.752">left</tspan><tspan style="stroke-width:1.33333325" id="tspan156" x="7 12.296 16.04 24.984 33.799" y="454.752">right</tspan></text><text id="text164" x="318.085" y="-166.333" transform="rotate(90)" style="font-variant:normal;font-weight:400;font-size:16px;font-family:Helvetica;writing-mode:lr-tb;fill:#ed1e24;fill-opacity:1;fill-rule:nonzero;stroke:none;stroke-width:1.33333325"><tspan style="stroke-width:1.33333325" id="tspan160" x="318.085 323.285 332.069" y="-166.333">top</tspan><tspan style="stroke-width:1.33333325" id="tspan162" x="290.662 299.766 308.55 313.846 319.046 327.83" y="-184.333">bottom</tspan></text></svg>