<svg xmlns="http://www.w3.org/2000/svg" xmlns:svg="http://www.w3.org/2000/svg" id="svg2" width="114" height="72" preserveAspectRatio="xMidYMid slice" version="1.1" viewBox="0 0 145.333 92" xml:space="preserve"><metadata id="metadata8"/><text id="text18" x="1.713" y="46.603" style="font-style:italic;font-variant:normal;font-size:63.68826675px;font-family:New Century Schoolbook;writing-mode:lr-tb;fill:#000;fill-opacity:1;fill-rule:nonzero;stroke:none;stroke-width:1.33333325"><tspan style="stroke-width:1.33333325" id="tspan16" x="1.713 27.188" y="46.603">&quot;A</tspan></text><text id="text30" x="78.139" y="22.817" style="font-variant:normal;font-weight:400;font-size:15.28519917px;font-family:New Century Schoolbook;writing-mode:lr-tb;fill:#000;fill-opacity:1;fill-rule:nonzero;stroke:none;stroke-width:1.33333325"><tspan style="stroke-width:1.33333325" id="tspan20" x="78.139 86.638 91.452 98.239 107.013 111.262 116.077" y="22.817">bird in</tspan><tspan style="stroke-width:1.33333325" id="tspan22" x="78.139 84.085 93.424 101.067 105.316 114.655 123.154 132.493" y="38.102">the hand</tspan><tspan style="stroke-width:1.33333325" id="tspan24" x="78.139 82.954 90.031 94.28 106.172 113.815 120.601 126.547" y="53.387">is worth</tspan><tspan style="stroke-width:1.33333325" id="tspan26" x="1.713 7.659 19.551 27.193 31.443 36.258 45.597 49.846 55.792 65.131 72.774 77.023 85.522 94.861 101.938 111.277 115.527" y="69.945">two in the bush,&quot;</tspan><tspan style="stroke-width:1.33333325" id="tspan28" x="1.713 8.79 17.289 25.497 32.574 36.823 45.322 54.661 58.91 66.553 71.368 80.141 84.391 93.164 99.951 107.594 115.802 123.444 130.231 138.73" y="85.23">says an old proverb.</tspan></text></svg>