<svg xmlns="http://www.w3.org/2000/svg" xmlns:svg="http://www.w3.org/2000/svg" id="svg2" width="318" height="306" preserveAspectRatio="xMidYMid slice" version="1.1" viewBox="0 0 406.667 393.333" xml:space="preserve"><metadata id="metadata8"/><path style="fill:none;stroke:#000;stroke-width:.59999996;stroke-linecap:butt;stroke-linejoin:miter;stroke-miterlimit:10;stroke-dasharray:1.19999997,4.79999988;stroke-dashoffset:36;stroke-opacity:1" id="path14" d="M 0.98645864,211.89333 V 73.653338 H 405.14666 V 211.89333 Z"/><path style="fill:none;stroke:#000;stroke-width:.59999996;stroke-linecap:butt;stroke-linejoin:miter;stroke-miterlimit:10;stroke-dasharray:1.19999997,4.79999988;stroke-dashoffset:36;stroke-opacity:1" id="path16" d="M 0.98645864,392.37343 V 190.77334 H 405.14666 v 201.60009 z"/><path style="fill:none;stroke:#000;stroke-width:.59999996;stroke-linecap:butt;stroke-linejoin:miter;stroke-miterlimit:10;stroke-dasharray:1.19999997,4.79999988;stroke-dashoffset:36;stroke-opacity:1" id="path18" d="M 22.106799,365.41306 V 216.61333 H 384.02666 v 148.79973 z"/><path style="fill:none;stroke:#000;stroke-width:.59999996;stroke-linecap:butt;stroke-linejoin:miter;stroke-miterlimit:10;stroke-dasharray:1.19999997,4.79999988;stroke-dashoffset:36;stroke-opacity:1" id="path20" d="M 22.106799,185.25334 V 99.973337 H 384.02666 v 85.280003 z"/><path style="fill:none;stroke:#000;stroke-width:.59999996;stroke-linecap:butt;stroke-linejoin:miter;stroke-miterlimit:10;stroke-dasharray:1.19999997,4.79999988;stroke-dashoffset:36;stroke-opacity:1" id="path22" d="M 22.026533,269.65307 V 121.09334 h 95.920397 v 148.55973 z"/><path style="fill:none;stroke:#ff1440;stroke-width:1.19999993;stroke-linecap:butt;stroke-linejoin:miter;stroke-miterlimit:10;stroke-dasharray:none;stroke-opacity:1" id="path24" d="M 11.54688,371.25306 V 211.89333 h 383.03978 v 159.35973 z"/><path style="fill:none;stroke:#ff1440;stroke-width:1.19999993;stroke-linecap:butt;stroke-linejoin:miter;stroke-miterlimit:10;stroke-dasharray:none;stroke-opacity:1" id="path26" d="M 11.54688,190.85334 V 94.773337 h 383.03978 v 96.080003 z"/><path style="fill:#c2c2c2;fill-opacity:1;fill-rule:evenodd;stroke:none;stroke-width:.13333333" id="path28" d="M 34.506799,258.13333 V 131.65334 H 106.34693 V 258.13333 H 34.506799"/><path style="fill:none;stroke:#000;stroke-width:1.19999993;stroke-linecap:butt;stroke-linejoin:miter;stroke-miterlimit:10;stroke-dasharray:none;stroke-opacity:1" id="path30" d="M 34.506799,258.13333 V 131.65334 h 71.840131 v 126.47999 z"/><text id="text42" x="22.107" y="117.493" style="font-variant:normal;font-weight:400;font-size:13.19999886px;font-family:Helvetica;-inkscape-font-specification:Helvetica;writing-mode:lr-tb;fill:#000;fill-opacity:1;fill-rule:nonzero;stroke:none;stroke-width:1.33333325"><tspan style="stroke-width:1.33333325" id="tspan34" x="22.107 30.911 38.25 49.246 56.585 60.255 66.855 74.194 85.19 92.529 95.459 102.798 106.468 110.138 117.477 124.077 127.746 131.416 134.346 141.686 145.355 149.025 156.364 163.703 167.373 171.042 173.973 178.368 184.968 188.638 192.308 199.647 206.986 211.382 218.721 226.06 230.456 237.795 245.134 252.473 256.143 259.812 263.482 267.152 270.821 278.16 285.5 292.1 295.769 303.108 306.778 310.448 313.378 320.717 328.056 331.726 334.656 341.996" y="117.493">Some sample text in the first paragraph. It has a floating</tspan><tspan style="stroke-width:1.33333325" id="tspan36" x="118.107 121.037 132.033 139.372 146.711 154.05 157.72 161.39 168.729 176.068 179.738 183.407 192.938 200.277 206.877 210.546 214.942 217.872 225.212 232.551 236.22 239.89 247.229 254.568 261.908 269.247 272.916 276.586 283.925 291.264 295.66 302.999 306.669 311.064 319.869 324.264 327.934 330.864 338.204 341.873 345.543 352.882" y="138.614">image that was right about here (X) in the</tspan><tspan style="stroke-width:1.33333325" id="tspan38" x="118.107 124.707 132.046 139.385 143.781 150.381 157.72 161.39 165.059 174.59 181.929 191.459 198.798 205.398 212.738 217.133 220.803 224.472 228.142 235.481 242.82 246.49 249.42 260.416 267.755 275.094 282.434 286.103 289.034 295.634 299.303 305.903 313.242 316.912 319.842 327.182 331.577 338.916 346.256 349.925 353.595 360.934 368.273" y="159.733">source. However, the image is so large that</tspan><tspan style="stroke-width:1.33333325" id="tspan40" x="118.107 121.037 124.707 128.376 135.716 142.316 145.985 153.324 160.664 168.003 174.603 178.272 185.612 192.951 195.881 203.22 212.751 216.42 220.09 227.429 234.768 238.438 242.108 249.447 256.047 259.716 263.386 270.725 274.395 278.064 281.734 289.073 292.004 298.604 302.273 309.612 316.952 321.347 328.686 336.026 340.421 347.76 355.1 362.439" y="181.814">it extends below the text of this paragraph.</tspan></text><path style="fill:none;stroke:#000;stroke-width:.59999996;stroke-linecap:butt;stroke-linejoin:miter;stroke-miterlimit:10;stroke-dasharray:none;stroke-opacity:1" id="path44" d="M 106.34693,131.65334 34.426532,258.13333"/><text id="text62" x="118.107" y="234.613" style="font-variant:normal;font-weight:400;font-size:13.19999886px;font-family:Helvetica;-inkscape-font-specification:Helvetica;writing-mode:lr-tb;fill:#000;fill-opacity:1;fill-rule:nonzero;stroke:none;stroke-width:1.33333325"><tspan style="stroke-width:1.33333325" id="tspan48" x="118.107 126.172 133.511 140.85 144.52 151.12 158.459 165.059 172.398 179.738 187.077 190.746 198.086 205.425 209.82 217.16 224.499 228.894 236.234 243.573 250.912 254.582 257.512 264.112 267.782 271.451 278.79 286.13 290.525 297.864 301.534 308.873 313.269 320.608 324.278 331.617 334.547 341.147" y="234.613">The second paragraph is therefore also</tspan><tspan style="stroke-width:1.33333325" id="tspan50" x="118.107 125.446 129.116 132.785 140.124 146.724 150.394 157.733 165.072 168.742 172.412 181.216 188.555 195.155 198.825 201.755 209.094 212.025 214.955 222.294 229.634 233.303 240.642 247.982 254.582 261.921 268.521 272.19 275.121 282.46 286.13 289.06 292.73 296.399 303.738 308.134 315.473 319.143 323.829 331.168 338.507 345.107 352.446 359.786" y="255.733">affected. Any inline boxes in it are &quot;pushed</tspan><tspan style="stroke-width:1.33333325" id="tspan52" x="118.107 125.446 132.046 134.976 142.316 149.655 153.324 158.01 161.68 169.019 175.619 179.289 182.958 190.298 197.637 204.237 207.906 215.246 219.641 226.98 230.65 234.32 241.659 246.054 253.394 256.324 263.663 271.002 278.342 285.681 289.35 293.02 297.416 304.755 315.75 319.42 326.02 333.359 344.355 347.285 354.624" y="276.853">aside,&quot; as they are forbidden from coming</tspan><tspan style="stroke-width:1.33333325" id="tspan54" x="22.107 25.037 32.376 38.976 41.907 49.246 56.585 60.255 63.924 71.264 78.603 82.272 89.612 94.007 101.346 108.686 112.355 119.694 127.034 129.964 132.894 143.89 146.82 150.49 157.829 165.168 168.838 176.177 182.777 186.447 190.116 197.456 204.795 208.464 212.134 215.064 222.404 229.743 233.412 236.343 243.682 251.021 254.691 257.621 268.617 275.956 283.295 290.634 293.565 300.165 303.834 314.83 322.169 326.565 333.904 336.834 344.174 350.774" y="297.973">inside the area delimited by the floating image’s margins.</tspan><tspan style="stroke-width:1.33333325" id="tspan56" x="22.107 31.637 38.976 42.646 49.985 53.655 57.324 64.664 72.003 75.672 79.342 83.012 90.351 97.69 101.36 108.699 116.038 120.434 127.773 135.112 139.508 146.847 154.186 161.525 165.195 172.534 179.873 186.473 193.812 200.412 204.082 211.421 215.817 223.156 226.826 233.426 237.095 240.026 242.956 245.886 249.556 253.952 261.291 267.891 271.56 278.9 286.239 293.578 300.917 303.848 311.187 315.582 319.252 322.922 330.261 337.6" y="319.093">Note that the paragraph boxes are still rectangular, but</tspan><tspan style="stroke-width:1.33333325" id="tspan58" x="22.107 25.776 33.116 40.455 43.385 47.781 51.45 58.79 66.129 70.524 77.864 85.203 89.598 96.198 99.868 107.207 114.546 121.886 125.555 132.894 140.234 146.834 153.434 160.773 165.168 172.508 179.847 187.186 194.525 201.125 204.795 212.134 216.53 223.869 227.538 232.224 238.824 241.755 244.685 252.024 259.364 266.703 274.042 278.728 282.398 289.737 294.132 297.802 300.732 308.072 311.741 319.08 323.476 327.872 335.211 342.55 346.22 353.559" y="341.173">their borders and backgrounds are &quot;clipped&quot; or interrupted</tspan><tspan style="stroke-width:1.33333325" id="tspan60" x="22.107 29.446 36.046 39.716 43.385 50.724 58.064 61.733 65.403 68.333 75.672 83.012 86.681 89.612 96.951 104.29 107.96 110.89 121.886 129.225 136.564 143.903" y="362.293">by the floating image.</tspan></text><path style="fill:none;stroke:#000;stroke-width:.59999996;stroke-linecap:butt;stroke-linejoin:miter;stroke-miterlimit:10;stroke-dasharray:none;stroke-opacity:1" id="path64" d="m 235.22666,73.813338 42.24,-53.199999"/><text id="text70" x="235.227" y="10.933" style="font-variant:normal;font-weight:700;font-size:13.19999886px;font-family:Helvetica;-inkscape-font-specification:Helvetica-Bold;writing-mode:lr-tb;fill:#000;fill-opacity:1;fill-rule:nonzero;stroke:none;stroke-width:1.33333325"><tspan style="stroke-width:1.33333325" id="tspan68" x="235.227 243.292 250.631 255.766 263.105 271.17 276.305 283.644 291.709 299.775 303.444 315.179 322.518 327.653 335.718 339.388" y="10.933">paragraph margin</tspan></text><path style="fill:none;stroke:#000;stroke-width:.59999996;stroke-linecap:butt;stroke-linejoin:miter;stroke-miterlimit:10;stroke-dasharray:none;stroke-opacity:1" id="path72" d="M 76.106798,126.45334 44.266666,20.853339"/><text id="text80" x="23.067" y="10.933" style="font-variant:normal;font-weight:700;font-size:13.19999886px;font-family:Helvetica;-inkscape-font-specification:Helvetica-Bold;writing-mode:lr-tb;fill:#000;fill-opacity:1;fill-rule:nonzero;stroke:none;stroke-width:1.33333325"><tspan style="stroke-width:1.33333325" id="tspan76" x="23.067 26.736 38.471 45.81 53.875 61.215 64.884 76.619 83.958 89.093 97.158 100.828" y="10.933">image margin</tspan><tspan style="stroke-width:1.33333325" id="tspan78" x="107.547 115.612 122.951 128.086 135.425 143.491 148.625 155.965 164.03 172.095 175.765 183.83 191.895 197.03 205.095 212.434" y="33.014">paragraph border</tspan></text><path style="fill:none;stroke:#000;stroke-width:.59999996;stroke-linecap:butt;stroke-linejoin:miter;stroke-miterlimit:10;stroke-dasharray:none;stroke-opacity:1" id="path82" d="m 128.66666,41.333339 31.68,53.439998"/><path style="fill:none;stroke:#000;stroke-width:.59999996;stroke-linecap:butt;stroke-linejoin:miter;stroke-miterlimit:10;stroke-dasharray:none;stroke-opacity:1" id="path84" d="M 34.586399,131.65334 108.1068,259.33333"/><text id="text90" x="266.987" y="54.133" style="font-variant:normal;font-weight:700;font-size:13.19999886px;font-family:Helvetica;-inkscape-font-specification:Helvetica-Bold;writing-mode:lr-tb;fill:#000;fill-opacity:1;fill-rule:nonzero;stroke:none;stroke-width:1.33333325"><tspan style="stroke-width:1.33333325" id="tspan88" x="266.987 275.052 282.391 287.526 294.865 302.93 308.065 315.404 323.469 331.535 335.204 343.269 350.609 358.674 366.739 370.409 378.474" y="54.133">paragraph padding</tspan></text><path style="fill:none;stroke:#000;stroke-width:.59999996;stroke-linecap:butt;stroke-linejoin:miter;stroke-miterlimit:10;stroke-dasharray:none;stroke-opacity:1" id="path92" d="m 266.98666,99.573337 52.72,-36.479999"/></svg>