<svg xmlns="http://www.w3.org/2000/svg" xmlns:svg="http://www.w3.org/2000/svg" id="svg2" width="319" height="286" preserveAspectRatio="xMidYMid slice" version="1.1" viewBox="0 0 408 368" xml:space="preserve"><metadata id="metadata8"/><defs id="defs6"><clipPath id="clipPath108" clipPathUnits="userSpaceOnUse"><path id="path106" d="M 0,0 H 3060 V 2760 H 0 Z m 1974.49,914.547 h -22.68 l -7.56,54.801 h 37.8 z m -22.68,249.443 h 22.68 l 7.56,-54.8 h -37.8 z" style="clip-rule:evenodd"/></clipPath></defs><path style="fill:none;stroke:#ff1440;stroke-width:1.25979996;stroke-linecap:butt;stroke-linejoin:miter;stroke-miterlimit:10;stroke-dasharray:none;stroke-opacity:1" id="path14" d="m 12.732813,344.49267 v -73.74 H 395.71199 v 73.74 z"/><path style="fill:none;stroke:#000;stroke-width:.62989998;stroke-linecap:butt;stroke-linejoin:miter;stroke-miterlimit:10;stroke-dasharray:1.25979997,5.03919987;stroke-dashoffset:37.79399872;stroke-opacity:1" id="path16" d="M 2.1505199,213.30534 V 75.064007 H 406.29466 l -0.924,139.249333 z"/><path style="fill:none;stroke:#000;stroke-width:.62989998;stroke-linecap:butt;stroke-linejoin:miter;stroke-miterlimit:10;stroke-dasharray:1.25979997,5.03919987;stroke-dashoffset:37.79399872;stroke-opacity:1" id="path18" d="M 23.231199,186.68134 V 101.35201 H 385.13066 v 85.32933 z"/><path style="fill:none;stroke:#000;stroke-width:.62989998;stroke-linecap:butt;stroke-linejoin:miter;stroke-miterlimit:10;stroke-dasharray:1.25979997,5.03919987;stroke-dashoffset:37.79399872;stroke-opacity:1" id="path20" d="M 0.97499998,365.48959 V 244.5484 H 405.37066 l 0.924,122.20056 H 2.1505199"/><path style="fill:none;stroke:#000;stroke-width:.62989998;stroke-linecap:butt;stroke-linejoin:miter;stroke-miterlimit:10;stroke-dasharray:1.25979997,5.03919987;stroke-dashoffset:37.79399872;stroke-opacity:1" id="path22" d="M 23.231199,340.8812 V 276.1276 H 385.13066 v 64.7536 z"/><path style="fill:none;stroke:#000;stroke-width:.62989998;stroke-linecap:butt;stroke-linejoin:miter;stroke-miterlimit:10;stroke-dasharray:1.25979997,5.03919987;stroke-dashoffset:37.79399872;stroke-opacity:1" id="path24" d="M 23.147333,271.08854 V 122.51601 h 95.912527 v 148.57253 z"/><path style="fill:none;stroke:#ff1440;stroke-width:1.25979996;stroke-linecap:butt;stroke-linejoin:miter;stroke-miterlimit:10;stroke-dasharray:none;stroke-opacity:1" id="path26" d="M 12.732813,192.22534 V 96.228007 H 395.71199 v 95.997333 z"/><path style="fill:#c2c2c2;fill-opacity:1;fill-rule:evenodd;stroke:none;stroke-width:.13333333" id="path28" d="m 35.661466,259.58227 v -126.4836 h 71.808264 v 126.4836 H 35.661466"/><path style="fill:none;stroke:#000;stroke-width:1.25979996;stroke-linecap:butt;stroke-linejoin:miter;stroke-miterlimit:10;stroke-dasharray:none;stroke-opacity:1" id="path30" d="m 35.661466,259.58227 v -126.4836 h 71.808264 v 126.4836 z"/><text id="text42" x="23.231" y="118.905" style="font-variant:normal;font-weight:400;font-size:13.85786629px;font-family:Helvetica;-inkscape-font-specification:Helvetica;writing-mode:lr-tb;fill:#000;fill-opacity:1;fill-rule:nonzero;stroke:none;stroke-width:1.33333325"><tspan style="stroke-width:1.33333325" id="tspan34" x="23.231 32.474 40.179 51.723 59.428 63.28 70.209 77.914 89.458 97.163 100.239 107.944 111.797 115.649 123.354 130.283 134.136 137.988 141.065 148.77 152.622 156.475 164.18 171.885 175.737 179.59 182.666 187.281 194.21 198.062 201.915 209.62 217.324 221.939 229.644 237.349 241.964 249.669 257.374 265.079 268.931 272.784 276.636 280.489 284.341 292.046 299.751 306.68 310.532 318.237 322.09 325.942 329.019 336.724 344.429 348.281 351.358 359.063" y="118.905">Some sample text in the first paragraph. It has a floating</tspan><tspan style="stroke-width:1.33333325" id="tspan36" x="119.228 122.305 133.848 141.553 149.258 156.963 160.816 164.668 172.373 180.078 183.931 187.783 197.788 205.493 212.422 216.275 220.889 223.966 231.671 239.376 243.228 247.081 254.786 262.491 270.196 277.901 281.753 285.606 293.311 301.016 305.63 313.335 317.188 321.802 331.046 335.66 339.513 342.589 350.294 354.147 357.999 365.704" y="139.986">image that was right about here (X) in the</tspan><tspan style="stroke-width:1.33333325" id="tspan38" x="119.228 126.157 133.862 141.567 146.182 153.111 160.816 164.668 168.521 178.526 186.231 196.236 203.941 210.87 218.575 223.19 227.042 230.895 234.747 242.452 250.157 254.01 257.086 268.63 276.335 284.04 291.745 295.597 298.674 305.603 309.455 316.384 324.089 327.941 331.018 338.723 343.338 351.043 358.748 362.6 366.452 374.157 381.862" y="161.151">source. However, the image is so large that</tspan><tspan style="stroke-width:1.33333325" id="tspan40" x="119.228 122.305 126.157 130.01 137.715 144.643 148.496 156.201 163.906 171.611 178.54 182.392 190.097 197.802 200.879 208.584 218.589 222.442 226.294 233.999 241.704 245.556 249.409 257.114 264.043 267.895 271.748 279.453 283.305 287.158 291.01 298.715 301.792 308.721 312.573 320.278 327.983 332.598 340.303 348.008 352.622 360.327 368.032 375.737" y="183.239">it extends below the text of this paragraph.</tspan></text><path style="fill:none;stroke:#000;stroke-width:.62989998;stroke-linecap:butt;stroke-linejoin:miter;stroke-miterlimit:10;stroke-dasharray:none;stroke-opacity:1" id="path44" d="M 107.46973,133.09867 35.577599,259.58227"/><path style="fill:none;stroke:#000;stroke-width:.62989998;stroke-linecap:butt;stroke-linejoin:miter;stroke-miterlimit:10;stroke-dasharray:none;stroke-opacity:1" id="path46" d="M 236.38933,75.230674 278.63466,22.068009"/><text id="text52" x="236.389" y="12.325" style="font-variant:normal;font-weight:700;font-size:13.85786629px;font-family:Helvetica;-inkscape-font-specification:Helvetica-Bold;writing-mode:lr-tb;fill:#000;fill-opacity:1;fill-rule:nonzero;stroke:none;stroke-width:1.33333325"><tspan style="stroke-width:1.33333325" id="tspan50" x="236.389 244.856 252.561 257.952 265.657 274.124 279.515 287.22 295.687 304.154 308.007 320.326 328.031 333.422 341.889 345.742" y="12.325">paragraph margin</tspan></text><path style="fill:none;stroke:#000;stroke-width:.62989998;stroke-linecap:butt;stroke-linejoin:miter;stroke-miterlimit:10;stroke-dasharray:none;stroke-opacity:1" id="path54" d="M 77.234931,127.89067 45.403599,22.236009"/><text id="text62" x="24.239" y="12.325" style="font-variant:normal;font-weight:700;font-size:13.85786629px;font-family:Helvetica;-inkscape-font-specification:Helvetica-Bold;writing-mode:lr-tb;fill:#000;fill-opacity:1;fill-rule:nonzero;stroke:none;stroke-width:1.33333325"><tspan style="stroke-width:1.33333325" id="tspan58" x="24.239 28.092 40.411 48.116 56.583 64.288 68.141 80.46 88.165 93.556 102.023 105.876" y="12.325">image margin</tspan><tspan style="stroke-width:1.33333325" id="tspan60" x="108.73 117.197 124.902 130.293 137.998 146.465 151.855 159.56 168.028 176.495 180.347 188.814 197.281 202.672 211.139 218.844" y="34.414">paragraph border</tspan></text><path style="fill:none;stroke:#000;stroke-width:.62989998;stroke-linecap:butt;stroke-linejoin:miter;stroke-miterlimit:10;stroke-dasharray:none;stroke-opacity:1" id="path64" d="m 129.8104,42.728008 31.66293,53.499999"/><path style="fill:none;stroke:#000;stroke-width:.62989998;stroke-linecap:butt;stroke-linejoin:miter;stroke-miterlimit:10;stroke-dasharray:none;stroke-opacity:1" id="path66" d="m 35.745332,133.09867 73.488528,127.6592"/><text id="text72" x="268.136" y="55.579" style="font-variant:normal;font-weight:700;font-size:13.85786629px;font-family:Helvetica;-inkscape-font-specification:Helvetica-Bold;writing-mode:lr-tb;fill:#000;fill-opacity:1;fill-rule:nonzero;stroke:none;stroke-width:1.33333325"><tspan style="stroke-width:1.33333325" id="tspan70" x="268.136 276.603 284.308 289.699 297.404 305.871 311.262 318.967 327.434 335.901 339.753 348.221 355.926 364.393 372.86 376.712 385.18" y="55.579">paragraph padding</tspan></text><path style="fill:none;stroke:#000;stroke-width:.62989998;stroke-linecap:butt;stroke-linejoin:miter;stroke-miterlimit:10;stroke-dasharray:none;stroke-opacity:1" id="path74" d="m 268.13599,101.01601 52.744,-36.534669"/><text id="text84" x="34.737" y="293.597" style="font-variant:normal;font-weight:400;font-size:13.85786629px;font-family:Helvetica;-inkscape-font-specification:Helvetica;writing-mode:lr-tb;fill:#000;fill-opacity:1;fill-rule:nonzero;stroke:none;stroke-width:1.33333325"><tspan style="stroke-width:1.33333325" id="tspan78" x="34.737 43.205 50.91 53.986 60.915 64.767 72.472 80.177 84.792 92.497 100.202 104.817 112.522 120.227 127.932 131.784 139.489 147.194 154.123 157.975 161.052 164.904 171.833 175.686 178.762 185.691 188.768 196.473 204.178 208.792 211.869 215.721 223.426 228.041 235.746 243.451 251.156 255.77 262.699 266.552 273.481 281.186 285.038 288.891 292.743 300.448 304.301 307.377 310.454 318.159 322.011 325.864 329.716 332.792 336.645 343.574" y="293.597">This paragraph has its ’clear’ propery set to ’left,’ so</tspan><tspan style="stroke-width:1.33333325" id="tspan80" x="34.737 38.59 46.295 54 57.852 61.705 64.781 68.634 72.486 82.492 85.568 88.645 91.721 95.574 103.278 110.983 114.836 118.688 126.393 131.008 137.937 145.642 153.347 157.199 161.052 168.757 172.609 180.314 188.019 191.872 199.577 207.282 210.358 218.063 228.069 231.921 239.626 247.331 254.26 258.112 261.189 268.894 272.746 276.599 284.692 288.544 291.621 299.326 307.031 310.883 313.96 321.665 329.37 333.222 336.298 347.842 355.547 363.252 370.957 377.886" y="314.761">that it will be forced to be below any left−floating images.</tspan><tspan style="stroke-width:1.33333325" id="tspan82" x="34.737 43.205 50.91 53.986 60.915 64.767 67.844 74.773 78.625 86.33 94.035 101.74 109.445 113.298 121.003 127.932 131.784 139.489 147.194 154.899 157.975 165.68 173.385 177.238 182.157 189.086 192.163 199.868 207.573 212.187 219.892 227.597 234.526 242.231 247.151 251.003 254.856 262.561 266.413 269.49 273.342 280.271 284.124 287.976 295.681 303.386 307.239 318.782 326.487 331.102 338.807 341.883 349.588" y="336.85">This is done by adding &quot;clearance&quot; to its top margin.</tspan></text><path style="fill:none;stroke:#000;stroke-width:.62989998;stroke-linecap:butt;stroke-linejoin:miter;stroke-miterlimit:10;stroke-dasharray:none;stroke-opacity:1" id="path86" d="m 241.17599,191.72134 v 21.08"/><path style="fill:none;stroke:#000;stroke-width:.62989998;stroke-linecap:butt;stroke-linejoin:miter;stroke-miterlimit:10;stroke-dasharray:none;stroke-opacity:1" id="path88" d="m 241.17599,212.80134 2.01734,-7.64267 h -3.948 z"/><path style="fill:none;stroke:#000;stroke-width:.62989998;stroke-linecap:butt;stroke-linejoin:miter;stroke-miterlimit:10;stroke-dasharray:none;stroke-opacity:1" id="path90" d="m 276.87199,269.6604 v -25.112"/><path style="fill:none;stroke:#000;stroke-width:.62989998;stroke-linecap:butt;stroke-linejoin:miter;stroke-miterlimit:10;stroke-dasharray:none;stroke-opacity:1" id="path92" d="m 276.87199,244.5484 -1.932,7.6428 h 3.86267 z"/><path style="fill:none;stroke:#000;stroke-width:.62989998;stroke-linecap:butt;stroke-linejoin:miter;stroke-miterlimit:10;stroke-dasharray:none;stroke-opacity:1" id="path94" d="m 225.80666,95.640007 v -21.08"/><path style="fill:none;stroke:#000;stroke-width:.62989998;stroke-linecap:butt;stroke-linejoin:miter;stroke-miterlimit:10;stroke-dasharray:none;stroke-opacity:1" id="path96" d="m 225.80666,74.560007 -1.93067,7.726667 h 3.86267 z"/><path style="fill:none;stroke:#000;stroke-width:.62989998;stroke-linecap:butt;stroke-linejoin:miter;stroke-miterlimit:10;stroke-dasharray:none;stroke-opacity:1" id="path98" d="m 230.59466,345.75267 v 21.16452"/><path style="fill:none;stroke:#000;stroke-width:.62989998;stroke-linecap:butt;stroke-linejoin:miter;stroke-miterlimit:10;stroke-dasharray:none;stroke-opacity:1" id="path100" d="m 230.59466,366.91719 1.932,-7.81094 h -3.864 z"/><path style="fill:none;stroke:#000;stroke-width:2.51959991;stroke-linecap:butt;stroke-linejoin:miter;stroke-miterlimit:10;stroke-dasharray:1.25979997,3.77939991;stroke-dashoffset:28.34550095;stroke-opacity:1" id="path110" d="M 261.75333,214.31334 V 244.5484"/><path style="fill:#000;fill-opacity:1;fill-rule:evenodd;stroke:none;stroke-width:.13333333" id="path112" d="m 264.27333,220.108 -2.52,-5.03866 -2.52,5.03866 z"/><path style="fill:none;stroke:#000;stroke-width:.62989998;stroke-linecap:butt;stroke-linejoin:miter;stroke-miterlimit:10;stroke-dasharray:none;stroke-opacity:1" id="path114" d="m 264.27333,220.108 -2.52,-5.03866 -2.52,5.03866 z"/><path style="fill:#000;fill-opacity:1;fill-rule:evenodd;stroke:none;stroke-width:.13333333" id="path116" d="m 259.23333,238.7536 2.52,5.03907 2.52,-5.03907 z"/><path style="fill:none;stroke:#000;stroke-width:.62989998;stroke-linecap:butt;stroke-linejoin:miter;stroke-miterlimit:10;stroke-dasharray:none;stroke-opacity:1" id="path118" d="m 259.23333,238.7536 2.52,5.03907 2.52,-5.03907 z"/></svg>