<svg xmlns="http://www.w3.org/2000/svg" xmlns:svg="http://www.w3.org/2000/svg" id="svg2" width="326" height="342" preserveAspectRatio="xMidYMid slice" version="1.1" viewBox="0 0 417.333 437.333" xml:space="preserve"><metadata id="metadata8"/><path style="fill:none;stroke:#000;stroke-width:1;stroke-linecap:butt;stroke-linejoin:miter;stroke-miterlimit:10;stroke-dasharray:none;stroke-opacity:1" id="path14" d="M 95.871331,411.79013 H 392.90466 V 28.38614 H 95.871331 Z"/><text id="text34" x="76.765" y="72.219" style="font-variant:normal;font-weight:400;font-size:15.28519917px;font-family:Helvetica;-inkscape-font-specification:Helvetica;writing-mode:lr-tb;fill:#000;fill-opacity:1;fill-rule:nonzero;stroke:none;stroke-width:1.33333325"><tspan style="stroke-width:1.33333325" id="tspan18" x="76.765" y="72.219">1</tspan><tspan style="stroke-width:1.33333325" id="tspan20" x="76.765" y="118.074">2</tspan><tspan style="stroke-width:1.33333325" id="tspan22" x="76.765" y="166.477">3</tspan><tspan style="stroke-width:1.33333325" id="tspan24" x="76.765" y="214.881">4</tspan><tspan style="stroke-width:1.33333325" id="tspan26" x="76.765" y="262.01">5</tspan><tspan style="stroke-width:1.33333325" id="tspan28" x="76.765" y="310.413">6</tspan><tspan style="stroke-width:1.33333325" id="tspan30" x="76.765" y="357.543">7</tspan><tspan style="stroke-width:1.33333325" id="tspan32" x="76.765" y="402.124">8</tspan></text><path style="fill:none;stroke:#000;stroke-width:1;stroke-linecap:butt;stroke-linejoin:miter;stroke-miterlimit:10;stroke-dasharray:none;stroke-opacity:1" id="path36" d="M 95.871331,75.516006 H 130.26306"/><path style="fill:none;stroke:#000;stroke-width:1;stroke-linecap:butt;stroke-linejoin:miter;stroke-miterlimit:10;stroke-dasharray:none;stroke-opacity:1" id="path38" d="M 95.871331,123.91867 H 130.26306"/><path style="fill:none;stroke:#000;stroke-width:1;stroke-linecap:butt;stroke-linejoin:miter;stroke-miterlimit:10;stroke-dasharray:none;stroke-opacity:1" id="path40" d="M 95.871331,363.38693 H 130.26306"/><path style="fill:none;stroke:#000;stroke-width:1;stroke-linecap:butt;stroke-linejoin:miter;stroke-miterlimit:10;stroke-dasharray:none;stroke-opacity:1" id="path42" d="M 95.871331,219.45067 H 130.26306"/><path style="fill:none;stroke:#000;stroke-width:1;stroke-linecap:butt;stroke-linejoin:miter;stroke-miterlimit:10;stroke-dasharray:none;stroke-opacity:1" id="path44" d="M 95.871331,172.32134 H 130.26306"/><path style="fill:none;stroke:#000;stroke-width:1;stroke-linecap:butt;stroke-linejoin:miter;stroke-miterlimit:10;stroke-dasharray:none;stroke-opacity:1" id="path46" d="M 95.871331,267.85467 H 130.26306"/><path style="fill:none;stroke:#000;stroke-width:1;stroke-linecap:butt;stroke-linejoin:miter;stroke-miterlimit:10;stroke-dasharray:none;stroke-opacity:1" id="path48" d="M 95.871331,316.25733 H 130.26306"/><text id="text54" x="173.724" y="13.473" style="font-style:oblique;font-variant:normal;font-weight:700;font-size:15.28519917px;font-family:Helvetica;-inkscape-font-specification:Helvetica-BoldOblique;writing-mode:lr-tb;fill:#000;fill-opacity:1;fill-rule:nonzero;stroke:none;stroke-width:1.33333325"><tspan style="stroke-width:1.33333325" id="tspan52" x="173.724 184.76 194.099 202.598 211.937 225.526 234.024 243.363 248.453 252.703 267.132 271.381 280.72 290.06 299.399" y="13.473">Document Window</tspan></text><text id="text62" x="83.134" y="17.829" style="font-variant:normal;font-weight:400;font-size:14.01146698px;font-family:Helvetica;-inkscape-font-specification:Helvetica;writing-mode:lr-tb;fill:#000;fill-opacity:1;fill-rule:nonzero;stroke:none;stroke-width:1.33333325"><tspan style="stroke-width:1.33333325" id="tspan56" x="83.134 87.8 95.59 99.485 107.276" y="17.829">(0,0)</tspan><tspan style="stroke-width:1.33333325" id="tspan58" x="360.815 365.481 373.271 377.167 381.062 388.852 396.643 404.433" y="15.281">(0, 400)</tspan><tspan style="stroke-width:1.33333325" id="tspan60" x="74.218 78.884 86.674 94.464 102.255 106.15 110.045 117.836 354.446 359.112 366.902 374.692 382.483 386.378 390.273 398.064 405.854 413.644" y="430.529">(400, 0)(400, 400)</tspan></text><path style="fill:none;stroke:#000;stroke-width:1;stroke-linecap:butt;stroke-linejoin:miter;stroke-miterlimit:10;stroke-dasharray:none;stroke-opacity:1" id="path64" d="M 55.110932,75.516006 H 38.551599 V 121.372 h 19.1068"/><text id="text70" x="1.613" y="103.38" style="font-style:oblique;font-variant:normal;font-size:14.01146698px;font-family:Helvetica;-inkscape-font-specification:Helvetica-Oblique;writing-mode:lr-tb;fill:#000;fill-opacity:1;fill-rule:nonzero;stroke:none;stroke-width:1.33333325"><tspan style="stroke-width:1.33333325" id="tspan68" x="1.613 9.403 17.193 21.088 28.879" y="103.38">24 px</tspan></text><text id="text76" x="108.609" y="71.457" style="font-variant:normal;font-weight:400;font-size:17.8326664px;font-family:Helvetica;-inkscape-font-specification:Helvetica;writing-mode:lr-tb;fill:#000;fill-opacity:1;fill-rule:nonzero;stroke:none;stroke-width:1.33333325"><tspan style="stroke-width:1.33333325" id="tspan72" x="108.609 120.503 130.418 140.333 144.292 154.207 164.122 168.081 177.996 187.911 192.868 202.783 207.741 212.698 222.613 232.528 242.443 251.359 256.317 265.233 275.148 285.063 290.021 299.936 309.851 314.808 323.724 328.682 333.639 345.534 355.449 365.364 370.321 380.236" y="71.457">Beginning of body contents. End of</tspan><tspan style="stroke-width:1.33333325" id="tspan74" x="108.609 118.524 128.439 138.354 147.27 152.228 161.144 171.059 180.974 185.931 195.846 205.761 210.719 219.635" y="118.586">body contents.</tspan></text><path style="fill:none;stroke:#000;stroke-width:1;stroke-linecap:butt;stroke-linejoin:miter;stroke-miterlimit:10;stroke-dasharray:15.28519962,5.09506654;stroke-dashoffset:0;stroke-opacity:1" id="path78" d="M 241.03866,407.78173 H 390.11199 V 222.44974 H 241.03866 Z"/><text id="text84" x="206.689" y="218.019" style="font-style:oblique;font-variant:normal;font-size:14.01146698px;font-family:Helvetica;-inkscape-font-specification:Helvetica-Oblique;writing-mode:lr-tb;fill:#000;fill-opacity:1;fill-rule:nonzero;stroke:none;stroke-width:1.33333325"><tspan style="stroke-width:1.33333325" id="tspan82" x="206.689 211.355 219.146 226.936 234.726 238.621 242.517 250.307 258.097 265.888" y="218.019">(200, 200)</tspan></text><text id="text92" x="243.628" y="266.344" style="font-variant:normal;font-weight:400;font-size:17.8326664px;font-family:Helvetica;-inkscape-font-specification:Helvetica;writing-mode:lr-tb;fill:#f91340;fill-opacity:1;fill-rule:nonzero;stroke:none;stroke-width:1.33333325"><tspan style="stroke-width:1.33333325" id="tspan88" x="243.628 255.522 260.48 270.395 276.333 281.291 286.248 296.163 301.121 306.078 315.993 325.908 330.865 340.78" y="266.344">Start of outer</tspan><tspan style="stroke-width:1.33333325" id="tspan90" x="243.628 252.544 262.459 272.374 277.332 287.247 297.162 302.119 311.035" y="312.2">contents.</tspan></text><text id="text100" x="328.971" y="312.199" style="font-variant:normal;font-weight:400;font-size:17.8326664px;font-family:Helvetica;-inkscape-font-specification:Helvetica;writing-mode:lr-tb;fill:#5151fa;fill-opacity:1;fill-rule:nonzero;stroke:none;stroke-width:1.33333325"><tspan style="stroke-width:1.33333325" id="tspan96" x="328.971 333.928 343.843 353.758 363.673" y="312.199">Inner</tspan><tspan style="stroke-width:1.33333325" id="tspan98" x="243.628 252.544 262.459 272.374 277.332 287.247 297.162 302.119 311.035" y="354.233">contents.</tspan></text><text id="text108" x="328.971" y="354.233" style="font-variant:normal;font-weight:400;font-size:17.8326664px;font-family:Helvetica;-inkscape-font-specification:Helvetica;writing-mode:lr-tb;fill:#f91340;fill-opacity:1;fill-rule:nonzero;stroke:none;stroke-width:1.33333325"><tspan style="stroke-width:1.33333325" id="tspan104" x="328.971 340.865 350.78 360.695 365.652 375.567" y="354.233">End of</tspan><tspan style="stroke-width:1.33333325" id="tspan106" x="243.628 253.543 263.458 268.415 278.33 284.269 289.226 298.142 308.057 317.972 322.93 332.845 342.76 347.717 356.634" y="397.542">outer contents.</tspan></text></svg>