<svg xmlns="http://www.w3.org/2000/svg" xmlns:svg="http://www.w3.org/2000/svg" id="svg2" width="385" height="345" preserveAspectRatio="xMidYMid slice" version="1.1" viewBox="0 0 493.333 441.333" xml:space="preserve"><metadata id="metadata8"/><g id="g10" transform="matrix(1.3333333,0,0,-1.3333333,0,441.33333)"><g id="g12" transform="scale(0.1)"><path style="fill:none;stroke:#000;stroke-width:7.5;stroke-linecap:butt;stroke-linejoin:miter;stroke-miterlimit:10;stroke-dasharray:none;stroke-opacity:1" id="path14" d="m 739.035,201.574 h 2227.75 v 2875.53 H 739.035 Z"/><g id="g16" transform="scale(10)"><text style="font-variant:normal;font-weight:400;font-size:11.46389961px;font-family:Helvetica;-inkscape-font-specification:Helvetica;writing-mode:lr-tb;fill:#000;fill-opacity:1;fill-rule:nonzero;stroke:none" id="text34" transform="matrix(1,0,0,-1,59.5734,274.836)"><tspan id="tspan18" x="0" y="0">1</tspan><tspan id="tspan20" x="0" y="34.392">2</tspan><tspan id="tspan22" x="0" y="70.694">3</tspan><tspan id="tspan24" x="0" y="106.996">4</tspan><tspan id="tspan26" x="0" y="142.344">5</tspan><tspan id="tspan28" x="0" y="178.646">6</tspan><tspan id="tspan30" x="0" y="213.993">7</tspan><tspan id="tspan32" x="0" y="247.429">8</tspan></text></g><path style="fill:none;stroke:#000;stroke-width:7.5;stroke-linecap:butt;stroke-linejoin:miter;stroke-miterlimit:10;stroke-dasharray:none;stroke-opacity:1" id="path36" d="M 739.035,2723.63 H 996.973"/><path style="fill:none;stroke:#000;stroke-width:7.5;stroke-linecap:butt;stroke-linejoin:miter;stroke-miterlimit:10;stroke-dasharray:none;stroke-opacity:1" id="path38" d="M 739.035,2360.61 H 996.973"/><path style="fill:none;stroke:#000;stroke-width:7.5;stroke-linecap:butt;stroke-linejoin:miter;stroke-miterlimit:10;stroke-dasharray:none;stroke-opacity:1" id="path40" d="M 739.035,564.598 H 996.973"/><path style="fill:none;stroke:#000;stroke-width:7.5;stroke-linecap:butt;stroke-linejoin:miter;stroke-miterlimit:10;stroke-dasharray:none;stroke-opacity:1" id="path42" d="M 739.035,1644.12 H 996.973"/><path style="fill:none;stroke:#000;stroke-width:7.5;stroke-linecap:butt;stroke-linejoin:miter;stroke-miterlimit:10;stroke-dasharray:none;stroke-opacity:1" id="path44" d="M 739.035,1997.59 H 996.973"/><path style="fill:none;stroke:#000;stroke-width:7.5;stroke-linecap:butt;stroke-linejoin:miter;stroke-miterlimit:10;stroke-dasharray:none;stroke-opacity:1" id="path46" d="M 739.035,1281.09 H 996.973"/><path style="fill:none;stroke:#000;stroke-width:7.5;stroke-linecap:butt;stroke-linejoin:miter;stroke-miterlimit:10;stroke-dasharray:none;stroke-opacity:1" id="path48" d="M 739.035,918.07 H 996.973"/><g id="g50" transform="scale(10)"><text style="font-style:oblique;font-variant:normal;font-weight:700;font-size:11.46389961px;font-family:Helvetica;-inkscape-font-specification:Helvetica-BoldOblique;writing-mode:lr-tb;fill:#000;fill-opacity:1;fill-rule:nonzero;stroke:none" id="text54" transform="matrix(1,0,0,-1,132.293,318.895)"><tspan id="tspan52" x="0 8.277 15.281 21.655 28.66 38.851 45.225 52.23 56.047 59.234 70.056 73.243 80.247 87.252 94.256" y="0">Document Window</tspan></text><text style="font-variant:normal;font-weight:400;font-size:10.50860023px;font-family:Helvetica;-inkscape-font-specification:Helvetica;writing-mode:lr-tb;fill:#000;fill-opacity:1;fill-rule:nonzero;stroke:none" id="text62" transform="matrix(1,0,0,-1,64.3504,315.62859)"><tspan id="tspan56" x="0 3.499 9.342 12.264 18.106" y="0">(0,0)</tspan><tspan id="tspan58" x="208.261 211.76 217.603 220.525 223.446 229.289 235.131 240.974" y="-1.911">(0, 400)</tspan><tspan id="tspan60" x="-6.687 -3.188 2.655 8.498 14.341 17.262 20.183 26.026 203.484 206.983 212.826 218.669 224.512 227.433 230.354 236.197 242.04 247.883" y="309.525">(400, 0)(400, 400)</tspan></text><text style="font-variant:normal;font-weight:400;font-size:13.37450027px;font-family:Helvetica;-inkscape-font-specification:Helvetica;writing-mode:lr-tb;fill:#000;fill-opacity:1;fill-rule:nonzero;stroke:none" id="text66" transform="matrix(1,0,0,-1,83.4564,275.40653)"><tspan id="tspan64" x="0 8.921 16.357 23.793 26.762 34.199 41.635 44.604 52.04 59.476 63.195 70.631 74.349 78.067 85.503 92.939 100.376 107.063 110.781 117.468 124.904 132.341 136.059 143.495 150.931 154.649 161.337" y="0">Beginning of body contents.</tspan></text></g><g id="g68" transform="scale(10)"><text style="font-variant:normal;font-weight:400;font-size:13.37450027px;font-family:Helvetica;-inkscape-font-specification:Helvetica;writing-mode:lr-tb;fill:#f91340;fill-opacity:1;fill-rule:nonzero;stroke:none" id="text72" transform="matrix(1,0,0,-1,256.371,275.407)"><tspan id="tspan70" x="0 8.921 12.639 20.075 24.529" y="0">Start</tspan></text></g><path style="fill:none;stroke:#000;stroke-width:7.5;stroke-linecap:butt;stroke-linejoin:miter;stroke-miterlimit:10;stroke-dasharray:none;stroke-opacity:1" id="path74" d="M 433.332,2723.63 H 309.137 v -343.92 h 143.301"/><g id="g76" transform="scale(10)"><text style="font-style:oblique;font-variant:normal;font-size:10.50860023px;font-family:Helvetica;-inkscape-font-specification:Helvetica-Oblique;writing-mode:lr-tb;fill:#000;fill-opacity:1;fill-rule:nonzero;stroke:none" id="text80" transform="matrix(1,0,0,-1,3.20938,251.465)"><tspan id="tspan78" x="0 5.843 11.686 14.607 20.45" y="0">24 px</tspan></text></g><g id="g82" transform="scale(10)"><text style="font-variant:normal;font-weight:400;font-size:13.37450027px;font-family:Helvetica;-inkscape-font-specification:Helvetica;writing-mode:lr-tb;fill:#f91340;fill-opacity:1;fill-rule:nonzero;stroke:none" id="text88" transform="matrix(1,0,0,-1,83.4566,241.015)"><tspan id="tspan84" x="0 7.436 11.154 14.872 22.309 29.745 33.463 40.899 45.353 49.071 55.758 63.195 70.631 74.349 81.785 89.221 92.939 99.627 103.345 107.063 115.984 123.42 130.856 134.574 142.01 145.729 149.447 156.883 164.319 168.037 175.473" y="0">of outer contents. End of outer</tspan><tspan id="tspan86" x="0 6.687 14.123 21.56 25.278 32.714 40.15 43.868 50.556" y="37.257">contents.</tspan></text></g><path style="fill:none;stroke:#000;stroke-width:7.5;stroke-linecap:butt;stroke-linejoin:miter;stroke-miterlimit:10;stroke-dasharray:114.639,38.213;stroke-dashoffset:0;stroke-opacity:1" id="path90" d="m 1990.51,864.07 h 926.664 v 757.523 H 1990.51 Z"/><g id="g92" transform="scale(10)"><text style="font-variant:normal;font-weight:400;font-size:13.37450027px;font-family:Helvetica;-inkscape-font-specification:Helvetica;writing-mode:lr-tb;fill:#5151fa;fill-opacity:1;fill-rule:nonzero;stroke:none" id="text98" transform="matrix(1,0,0,-1,200.962,133.064)"><tspan id="tspan94" x="0 3.718 11.154 18.591 26.027" y="0">Inner</tspan><tspan id="tspan96" x="0 9.656 17.093 24.529 28.247 35.683 43.119 46.837 53.525" y="26.749">Contents.</tspan></text></g><g id="g100" transform="scale(10)"><text style="font-style:oblique;font-variant:normal;font-size:10.50860023px;font-family:Helvetica;-inkscape-font-specification:Helvetica-Oblique;writing-mode:lr-tb;fill:#000;fill-opacity:1;fill-rule:nonzero;stroke:none" id="text108" transform="matrix(1,0,0,-1,216.247,74.7297)"><tspan id="tspan102" x="0 7.587 9.92 15.763 18.684 24.527 27.448 33.585 36.507 42.35 48.192 54.035 56.957 62.799" y="0">width = 130 px</tspan><tspan id="tspan104" x="85.979 91.822 97.665 99.998 105.841 111.683 114.605 117.526 123.663 126.585 132.427 138.27 144.113 149.956" y="-51.588">height = 130px</tspan><tspan id="tspan106" x="-57.32 -53.82 -47.683 -41.841 -35.998 -30.155 -27.234 -24.312 -18.175 -12.332 -6.49 -.647" y="-92.666">(+200, −100)</tspan></text><text style="font-variant:normal;font-weight:400;font-size:13.37450027px;font-family:Helvetica;-inkscape-font-specification:Helvetica;writing-mode:lr-tb;fill:#000;fill-opacity:1;fill-rule:nonzero;stroke:none" id="text112" transform="matrix(1,0,0,-1,144.5976,203.7578)"><tspan id="tspan110" x="0 8.921 16.357 23.793 27.511 34.948 38.666 42.384 49.82 57.256 64.692 71.38 75.098 81.785 89.221 96.658 100.376 107.812 115.248 118.966 125.653" y="0">End of body contents.</tspan></text></g><path style="fill:none;stroke:#000;stroke-width:28.65979958;stroke-linecap:butt;stroke-linejoin:miter;stroke-miterlimit:10;stroke-dasharray:114.639,38.213;stroke-dashoffset:0;stroke-opacity:1" id="path114" d="M 2792.98,3058 H 2544.6 v -305.71"/></g></g></svg>