<svg xmlns="http://www.w3.org/2000/svg" xmlns:svg="http://www.w3.org/2000/svg" id="svg2" width="326" height="342" preserveAspectRatio="xMidYMid slice" version="1.1" viewBox="0 0 417.333 437.333" xml:space="preserve"><metadata id="metadata8"/><path style="fill:none;stroke:#000;stroke-width:1;stroke-linecap:butt;stroke-linejoin:miter;stroke-miterlimit:10;stroke-dasharray:none;stroke-opacity:1" id="path14" d="M 95.871331,411.79013 H 392.90466 V 28.38614 H 95.871331 Z"/><text id="text34" x="76.765" y="72.219" style="font-variant:normal;font-weight:400;font-size:15.28519917px;font-family:Helvetica;-inkscape-font-specification:Helvetica;writing-mode:lr-tb;fill:#000;fill-opacity:1;fill-rule:nonzero;stroke:none;stroke-width:1.33333325"><tspan style="stroke-width:1.33333325" id="tspan18" x="76.765" y="72.219">1</tspan><tspan style="stroke-width:1.33333325" id="tspan20" x="76.765" y="118.074">2</tspan><tspan style="stroke-width:1.33333325" id="tspan22" x="76.765" y="166.477">3</tspan><tspan style="stroke-width:1.33333325" id="tspan24" x="76.765" y="214.881">4</tspan><tspan style="stroke-width:1.33333325" id="tspan26" x="76.765" y="262.01">5</tspan><tspan style="stroke-width:1.33333325" id="tspan28" x="76.765" y="310.413">6</tspan><tspan style="stroke-width:1.33333325" id="tspan30" x="76.765" y="357.543">7</tspan><tspan style="stroke-width:1.33333325" id="tspan32" x="76.765" y="402.124">8</tspan></text><path style="fill:none;stroke:#000;stroke-width:1;stroke-linecap:butt;stroke-linejoin:miter;stroke-miterlimit:10;stroke-dasharray:none;stroke-opacity:1" id="path36" d="M 95.871331,75.516006 H 130.26306"/><path style="fill:none;stroke:#000;stroke-width:1;stroke-linecap:butt;stroke-linejoin:miter;stroke-miterlimit:10;stroke-dasharray:none;stroke-opacity:1" id="path38" d="M 95.871331,123.91867 H 130.26306"/><path style="fill:none;stroke:#000;stroke-width:1;stroke-linecap:butt;stroke-linejoin:miter;stroke-miterlimit:10;stroke-dasharray:none;stroke-opacity:1" id="path40" d="M 95.871331,363.38693 H 130.26306"/><path style="fill:none;stroke:#000;stroke-width:1;stroke-linecap:butt;stroke-linejoin:miter;stroke-miterlimit:10;stroke-dasharray:none;stroke-opacity:1" id="path42" d="M 95.871331,219.45067 H 130.26306"/><path style="fill:none;stroke:#000;stroke-width:1;stroke-linecap:butt;stroke-linejoin:miter;stroke-miterlimit:10;stroke-dasharray:none;stroke-opacity:1" id="path44" d="M 95.871331,172.32134 H 130.26306"/><path style="fill:none;stroke:#000;stroke-width:1;stroke-linecap:butt;stroke-linejoin:miter;stroke-miterlimit:10;stroke-dasharray:none;stroke-opacity:1" id="path46" d="M 95.871331,267.85467 H 130.26306"/><path style="fill:none;stroke:#000;stroke-width:1;stroke-linecap:butt;stroke-linejoin:miter;stroke-miterlimit:10;stroke-dasharray:none;stroke-opacity:1" id="path48" d="M 95.871331,316.25733 H 130.26306"/><text id="text54" x="173.724" y="13.473" style="font-style:oblique;font-variant:normal;font-weight:700;font-size:15.28519917px;font-family:Helvetica;-inkscape-font-specification:Helvetica-BoldOblique;writing-mode:lr-tb;fill:#000;fill-opacity:1;fill-rule:nonzero;stroke:none;stroke-width:1.33333325"><tspan style="stroke-width:1.33333325" id="tspan52" x="173.724 184.76 194.099 202.598 211.937 225.526 234.024 243.363 248.453 252.703 267.132 271.381 280.72 290.06 299.399" y="13.473">Document Window</tspan></text><text id="text62" x="83.134" y="17.829" style="font-variant:normal;font-weight:400;font-size:14.01146698px;font-family:Helvetica;-inkscape-font-specification:Helvetica;writing-mode:lr-tb;fill:#000;fill-opacity:1;fill-rule:nonzero;stroke:none;stroke-width:1.33333325"><tspan style="stroke-width:1.33333325" id="tspan56" x="83.134 87.8 95.59 99.485 107.276" y="17.829">(0,0)</tspan><tspan style="stroke-width:1.33333325" id="tspan58" x="360.815 365.481 373.271 377.167 381.062 388.852 396.643 404.433" y="15.281">(0, 400)</tspan><tspan style="stroke-width:1.33333325" id="tspan60" x="74.218 78.884 86.674 94.464 102.255 106.15 110.045 117.836 354.446 359.112 366.902 374.692 382.483 386.378 390.273 398.064 405.854 413.644" y="430.529">(400, 0)(400, 400)</tspan></text><text id="text66" x="108.609" y="71.458" style="font-variant:normal;font-weight:400;font-size:17.8326664px;font-family:Helvetica;-inkscape-font-specification:Helvetica;writing-mode:lr-tb;fill:#000;fill-opacity:1;fill-rule:nonzero;stroke:none;stroke-width:1.33333325"><tspan style="stroke-width:1.33333325" id="tspan64" x="108.609 120.503 130.418 140.333 144.292 154.207 164.122 168.08 177.995 187.91 192.868 202.783 207.74 212.698 222.613 232.528 242.443 251.359 256.317 265.233 275.148 285.063 290.02 299.935 309.85 314.808 323.724" y="71.458">Beginning of body contents.</tspan></text><text id="text72" x="339.161" y="71.457" style="font-variant:normal;font-weight:400;font-size:17.8326664px;font-family:Helvetica;-inkscape-font-specification:Helvetica;writing-mode:lr-tb;fill:#f91340;fill-opacity:1;fill-rule:nonzero;stroke:none;stroke-width:1.33333325"><tspan style="stroke-width:1.33333325" id="tspan70" x="339.161 351.056 356.013 365.928 371.866" y="71.457">Start</tspan></text><path style="fill:none;stroke:#000;stroke-width:1;stroke-linecap:butt;stroke-linejoin:miter;stroke-miterlimit:10;stroke-dasharray:none;stroke-opacity:1" id="path74" d="M 55.110932,75.516006 H 38.551599 V 121.372 h 19.1068"/><text id="text80" x="1.613" y="103.38" style="font-style:oblique;font-variant:normal;font-size:14.01146698px;font-family:Helvetica;-inkscape-font-specification:Helvetica-Oblique;writing-mode:lr-tb;fill:#000;fill-opacity:1;fill-rule:nonzero;stroke:none;stroke-width:1.33333325"><tspan style="stroke-width:1.33333325" id="tspan78" x="1.613 9.403 17.193 21.088 28.879" y="103.38">24 px</tspan></text><path style="fill:none;stroke:#000;stroke-width:1;stroke-linecap:butt;stroke-linejoin:miter;stroke-miterlimit:10;stroke-dasharray:15.28519962,5.09506654;stroke-dashoffset:0;stroke-opacity:1" id="path82" d="m 288.20933,75.516006 v 0 h 2.548 v 0 z"/><path style="fill:none;stroke:#000;stroke-width:1;stroke-linecap:butt;stroke-linejoin:miter;stroke-miterlimit:10;stroke-dasharray:15.28519962,5.09506654;stroke-dashoffset:0;stroke-opacity:1" id="path84" d="m 294.57866,171.048 h 95.53226 V 75.515739 h -95.53226 z"/><text id="text92" x="303.495" y="118.587" style="font-variant:normal;font-weight:400;font-size:17.8326664px;font-family:Helvetica;-inkscape-font-specification:Helvetica;writing-mode:lr-tb;fill:#5151fa;fill-opacity:1;fill-rule:nonzero;stroke:none;stroke-width:1.33333325"><tspan style="stroke-width:1.33333325" id="tspan88" x="303.495 308.452 318.367 328.282 338.197" y="118.587">Inner</tspan><tspan style="stroke-width:1.33333325" id="tspan90" x="303.495 312.411 322.326 332.241 337.198 347.113 357.028 361.986 370.902" y="165.716">contents.</tspan></text><text id="text98" x="303.495" y="184.901" style="font-style:oblique;font-variant:normal;font-size:14.01146698px;font-family:Helvetica;-inkscape-font-specification:Helvetica-Oblique;writing-mode:lr-tb;fill:#000;fill-opacity:1;fill-rule:nonzero;stroke:none;stroke-width:1.33333325"><tspan style="stroke-width:1.33333325" id="tspan96" x="303.495 313.611 316.721 324.512 328.407 336.197 344.38 348.275 356.066 363.856 371.646 375.542 383.332" y="184.901">width= 130 px</tspan></text><text id="text106" x="108.609" y="117.313" style="font-variant:normal;font-weight:400;font-size:17.8326664px;font-family:Helvetica;-inkscape-font-specification:Helvetica;writing-mode:lr-tb;fill:#f91340;fill-opacity:1;fill-rule:nonzero;stroke:none;stroke-width:1.33333325"><tspan style="stroke-width:1.33333325" id="tspan102" x="108.609 118.524 123.481 128.439 138.354 148.269 153.226 163.141 169.079 174.037 182.953 192.868 202.783 207.741 217.656 227.571 232.528 241.444" y="117.313">of outer contents.</tspan><tspan style="stroke-width:1.33333325" id="tspan104" x="108.609 117.525 127.44 137.355 142.313 152.228 162.142 167.1 176.016" y="262.523">contents.</tspan></text><text id="text112" x="188.856" y="262.523" style="font-variant:normal;font-weight:400;font-size:17.8326664px;font-family:Helvetica;-inkscape-font-specification:Helvetica;writing-mode:lr-tb;fill:#000;fill-opacity:1;fill-rule:nonzero;stroke:none;stroke-width:1.33333325"><tspan style="stroke-width:1.33333325" id="tspan110" x="188.856 200.75 210.665 220.58 225.538 235.453 240.41 245.368 255.283 265.198 275.113 284.029 288.986 297.903 307.818 317.733 322.69 332.605 342.52 347.478 356.394" y="262.523">End of body contents.</tspan></text><text id="text118" x="108.609" y="212.845" style="font-variant:normal;font-weight:400;font-size:17.8326664px;font-family:Helvetica;-inkscape-font-specification:Helvetica;writing-mode:lr-tb;fill:#f91340;fill-opacity:1;fill-rule:nonzero;stroke:none;stroke-width:1.33333325"><tspan style="stroke-width:1.33333325" id="tspan116" x="108.609 120.503 124.462 134.377 138.336 142.295 152.21 162.125 167.082 175.998 185.913 195.828 200.786 210.701 220.616 225.573 234.49 239.447 244.405 256.299 266.214 276.129 281.086 291.001 295.959 300.916 310.831 320.746 325.704 335.619" y="212.845">Sibling contents. End of outer</tspan></text></svg>