<svg xmlns="http://www.w3.org/2000/svg" xmlns:svg="http://www.w3.org/2000/svg" id="svg2" width="326" height="342" preserveAspectRatio="xMidYMid slice" version="1.1" viewBox="0 0 417.333 437.333" xml:space="preserve"><metadata id="metadata8"/><path style="fill:none;stroke:#000;stroke-width:1;stroke-linecap:butt;stroke-linejoin:miter;stroke-miterlimit:10;stroke-dasharray:none;stroke-opacity:1" id="path14" d="M 95.871331,411.79013 H 392.90466 V 28.38614 H 95.871331 Z"/><text id="text32" x="76.765" y="72.219" style="font-variant:normal;font-weight:400;font-size:15.28519917px;font-family:Helvetica;-inkscape-font-specification:Helvetica;writing-mode:lr-tb;fill:#000;fill-opacity:1;fill-rule:nonzero;stroke:none;stroke-width:1.33333325"><tspan style="stroke-width:1.33333325" id="tspan18" x="76.765" y="72.219">1</tspan><tspan style="stroke-width:1.33333325" id="tspan20" x="76.765" y="118.074">2</tspan><tspan style="stroke-width:1.33333325" id="tspan22" x="76.765" y="166.477">3</tspan><tspan style="stroke-width:1.33333325" id="tspan24" x="76.765" y="262.01">5</tspan><tspan style="stroke-width:1.33333325" id="tspan26" x="76.765" y="310.413">6</tspan><tspan style="stroke-width:1.33333325" id="tspan28" x="76.765" y="357.543">7</tspan><tspan style="stroke-width:1.33333325" id="tspan30" x="76.765" y="402.124">8</tspan></text><path style="fill:none;stroke:#000;stroke-width:1;stroke-linecap:butt;stroke-linejoin:miter;stroke-miterlimit:10;stroke-dasharray:none;stroke-opacity:1" id="path34" d="M 95.871331,75.516006 H 130.26306"/><path style="fill:none;stroke:#000;stroke-width:1;stroke-linecap:butt;stroke-linejoin:miter;stroke-miterlimit:10;stroke-dasharray:none;stroke-opacity:1" id="path36" d="M 95.871331,123.91867 H 130.26306"/><path style="fill:none;stroke:#000;stroke-width:1;stroke-linecap:butt;stroke-linejoin:miter;stroke-miterlimit:10;stroke-dasharray:none;stroke-opacity:1" id="path38" d="M 95.871331,363.38693 H 130.26306"/><path style="fill:none;stroke:#000;stroke-width:1;stroke-linecap:butt;stroke-linejoin:miter;stroke-miterlimit:10;stroke-dasharray:none;stroke-opacity:1" id="path40" d="M 95.871331,172.32134 H 130.26306"/><text id="text46" x="173.724" y="13.473" style="font-style:oblique;font-variant:normal;font-weight:700;font-size:15.28519917px;font-family:Helvetica;-inkscape-font-specification:Helvetica-BoldOblique;writing-mode:lr-tb;fill:#000;fill-opacity:1;fill-rule:nonzero;stroke:none;stroke-width:1.33333325"><tspan style="stroke-width:1.33333325" id="tspan44" x="173.724 184.76 194.099 202.598 211.937 225.526 234.024 243.363 248.453 252.703 267.132 271.381 280.72 290.06 299.399" y="13.473">Document Window</tspan></text><text id="text54" x="83.134" y="17.829" style="font-variant:normal;font-weight:400;font-size:14.01146698px;font-family:Helvetica;-inkscape-font-specification:Helvetica;writing-mode:lr-tb;fill:#000;fill-opacity:1;fill-rule:nonzero;stroke:none;stroke-width:1.33333325"><tspan style="stroke-width:1.33333325" id="tspan48" x="83.134 87.8 95.59 99.485 107.276" y="17.829">(0,0)</tspan><tspan style="stroke-width:1.33333325" id="tspan50" x="360.815 365.481 373.271 377.167 381.062 388.852 396.643 404.433" y="15.281">(0, 400)</tspan><tspan style="stroke-width:1.33333325" id="tspan52" x="74.218 78.884 86.674 94.464 102.255 106.15 110.045 117.836 354.446 359.112 366.902 374.692 382.483 386.378 390.273 398.064 405.854 413.644" y="430.529">(400, 0)(400, 400)</tspan></text><text id="text58" x="108.609" y="71.458" style="font-variant:normal;font-weight:400;font-size:17.8326664px;font-family:Helvetica;-inkscape-font-specification:Helvetica;writing-mode:lr-tb;fill:#000;fill-opacity:1;fill-rule:nonzero;stroke:none;stroke-width:1.33333325"><tspan style="stroke-width:1.33333325" id="tspan56" x="108.609 120.503 130.418 140.333 144.292 154.207 164.122 168.08 177.995 187.91 192.868 202.783 207.74 212.698 222.613 232.528 242.443 251.359 256.317 265.233 275.148 285.063 290.02 299.935 309.85 314.808 323.724" y="71.458">Beginning of body contents.</tspan></text><text id="text64" x="339.161" y="71.457" style="font-variant:normal;font-weight:400;font-size:17.8326664px;font-family:Helvetica;-inkscape-font-specification:Helvetica;writing-mode:lr-tb;fill:#f91340;fill-opacity:1;fill-rule:nonzero;stroke:none;stroke-width:1.33333325"><tspan style="stroke-width:1.33333325" id="tspan62" x="339.161 351.056 356.013 365.928 371.866" y="71.457">Start</tspan></text><path style="fill:none;stroke:#000;stroke-width:1;stroke-linecap:butt;stroke-linejoin:miter;stroke-miterlimit:10;stroke-dasharray:none;stroke-opacity:1" id="path66" d="M 55.110932,75.516006 H 38.551599 V 121.372 h 19.1068"/><text id="text72" x="1.613" y="103.38" style="font-style:oblique;font-variant:normal;font-size:14.01146698px;font-family:Helvetica;-inkscape-font-specification:Helvetica-Oblique;writing-mode:lr-tb;fill:#000;fill-opacity:1;fill-rule:nonzero;stroke:none;stroke-width:1.33333325"><tspan style="stroke-width:1.33333325" id="tspan70" x="1.613 9.403 17.193 21.088 28.879" y="103.38">24 px</tspan></text><text id="text80" x="108.609" y="117.313" style="font-variant:normal;font-weight:400;font-size:17.8326664px;font-family:Helvetica;-inkscape-font-specification:Helvetica;writing-mode:lr-tb;fill:#f91340;fill-opacity:1;fill-rule:nonzero;stroke:none;stroke-width:1.33333325"><tspan style="stroke-width:1.33333325" id="tspan76" x="108.609 118.524 123.481 128.439 138.354 148.269 153.226 163.141 169.079 174.037 182.953 192.868 202.783 207.741 217.656 227.571 232.528 241.444 246.402 251.359 263.254 273.169 283.084 288.041 297.956 302.914 307.871 317.786 327.701 332.658 342.573" y="117.313">of outer contents. End of outer</tspan><tspan style="stroke-width:1.33333325" id="tspan78" x="108.609 117.525 127.44 137.355 142.313 152.228 162.142 167.1 176.016" y="166.99">contents.</tspan></text><text id="text86" x="190.131" y="166.989" style="font-variant:normal;font-weight:400;font-size:17.8326664px;font-family:Helvetica;-inkscape-font-specification:Helvetica;writing-mode:lr-tb;fill:#000;fill-opacity:1;fill-rule:nonzero;stroke:none;stroke-width:1.33333325"><tspan style="stroke-width:1.33333325" id="tspan84" x="190.131 202.025 211.94 221.855 226.812 236.727 241.685 246.642 256.557 266.472 276.387 285.304 290.261 299.177 309.092 319.007 323.965 333.88 343.795 348.752 357.669" y="166.989">End of body contents.</tspan></text><path style="fill:none;stroke:#000;stroke-width:1;stroke-linecap:butt;stroke-linejoin:miter;stroke-miterlimit:10;stroke-dasharray:15.28519962,5.09506654;stroke-dashoffset:0;stroke-opacity:1" id="path88" d="M 94.597331,219.45334 H 125.06613 V 329.88747 H 97.246931"/><text id="text94" x="98.419" y="298.188" style="font-variant:normal;font-weight:400;font-size:17.8326664px;font-family:Helvetica;-inkscape-font-specification:Helvetica;writing-mode:lr-tb;fill:#5151fa;fill-opacity:1;fill-rule:nonzero;stroke:none;stroke-width:1.33333325"><tspan style="stroke-width:1.33333325" id="tspan92" x="98.419 108.334 113.291 122.208" y="298.188">nts.</tspan></text><path style="fill:#bfbfbf;fill-opacity:1;fill-rule:evenodd;stroke:none;stroke-width:.13333333" id="path96" d="M 94.916131,220.72667 H 44.283866 V 329.8292 h 51.587465"/><path style="fill:none;stroke:#000;stroke-width:1;stroke-linecap:butt;stroke-linejoin:miter;stroke-miterlimit:10;stroke-dasharray:15.28519962,5.09506654;stroke-dashoffset:0;stroke-opacity:1" id="path98" d="M 94.916131,220.72667 H 44.283866 V 329.8292 h 51.587465"/><text id="text106" x="46.194" y="256.153" style="font-variant:normal;font-weight:400;font-size:17.8326664px;font-family:Helvetica;-inkscape-font-specification:Helvetica;writing-mode:lr-tb;fill:#000;fill-opacity:1;fill-rule:nonzero;stroke:none;stroke-width:1.33333325"><tspan style="stroke-width:1.33333325" id="tspan102" x="46.194 51.152 61.067 70.982 80.897" y="256.153">Inner</tspan><tspan style="stroke-width:1.33333325" id="tspan104" x="46.194 59.069 68.984 78.899 83.857" y="298.188">Conte</tspan></text><text id="text110" x="10.529" y="211.65" style="font-style:oblique;font-variant:normal;font-size:14.01146698px;font-family:Helvetica;-inkscape-font-specification:Helvetica-Oblique;writing-mode:lr-tb;fill:#000;fill-opacity:1;fill-rule:nonzero;stroke:none;stroke-width:1.33333325"><tspan style="stroke-width:1.33333325" id="tspan108" x="10.529 15.195 23.378 31.168 38.958 46.749 50.644 54.539 62.33 70.12 77.91" y="211.65">(−100, 200)</tspan></text></svg>