<svg xmlns="http://www.w3.org/2000/svg" xmlns:svg="http://www.w3.org/2000/svg" id="svg2" width="326" height="342" preserveAspectRatio="xMidYMid slice" version="1.1" viewBox="0 0 417.333 437.333" xml:space="preserve"><metadata id="metadata8"/><path style="fill:none;stroke:#000;stroke-width:1;stroke-linecap:butt;stroke-linejoin:miter;stroke-miterlimit:10;stroke-dasharray:none;stroke-opacity:1" id="path14" d="M 95.871331,411.79013 H 392.90466 V 28.38614 H 95.871331 Z"/><text id="text34" x="76.765" y="72.219" style="font-variant:normal;font-weight:400;font-size:15.28519917px;font-family:Helvetica;-inkscape-font-specification:Helvetica;writing-mode:lr-tb;fill:#000;fill-opacity:1;fill-rule:nonzero;stroke:none;stroke-width:1.33333325"><tspan style="stroke-width:1.33333325" id="tspan18" x="76.765" y="72.219">1</tspan><tspan style="stroke-width:1.33333325" id="tspan20" x="76.765" y="118.074">2</tspan><tspan style="stroke-width:1.33333325" id="tspan22" x="76.765" y="166.477">3</tspan><tspan style="stroke-width:1.33333325" id="tspan24" x="76.765" y="214.881">4</tspan><tspan style="stroke-width:1.33333325" id="tspan26" x="76.765" y="262.01">5</tspan><tspan style="stroke-width:1.33333325" id="tspan28" x="76.765" y="310.413">6</tspan><tspan style="stroke-width:1.33333325" id="tspan30" x="76.765" y="357.543">7</tspan><tspan style="stroke-width:1.33333325" id="tspan32" x="76.765" y="402.124">8</tspan></text><path style="fill:none;stroke:#000;stroke-width:1;stroke-linecap:butt;stroke-linejoin:miter;stroke-miterlimit:10;stroke-dasharray:none;stroke-opacity:1" id="path36" d="M 95.871331,75.516006 H 130.26306"/><path style="fill:none;stroke:#000;stroke-width:1;stroke-linecap:butt;stroke-linejoin:miter;stroke-miterlimit:10;stroke-dasharray:none;stroke-opacity:1" id="path38" d="M 95.871331,123.91867 H 130.26306"/><path style="fill:none;stroke:#000;stroke-width:1;stroke-linecap:butt;stroke-linejoin:miter;stroke-miterlimit:10;stroke-dasharray:none;stroke-opacity:1" id="path40" d="M 95.871331,363.38693 H 130.26306"/><path style="fill:none;stroke:#000;stroke-width:1;stroke-linecap:butt;stroke-linejoin:miter;stroke-miterlimit:10;stroke-dasharray:none;stroke-opacity:1" id="path42" d="M 95.871331,219.45067 H 130.26306"/><path style="fill:none;stroke:#000;stroke-width:1;stroke-linecap:butt;stroke-linejoin:miter;stroke-miterlimit:10;stroke-dasharray:none;stroke-opacity:1" id="path44" d="M 95.871331,172.32134 H 130.26306"/><path style="fill:none;stroke:#000;stroke-width:1;stroke-linecap:butt;stroke-linejoin:miter;stroke-miterlimit:10;stroke-dasharray:none;stroke-opacity:1" id="path46" d="M 95.871331,267.85467 H 130.26306"/><path style="fill:none;stroke:#000;stroke-width:1;stroke-linecap:butt;stroke-linejoin:miter;stroke-miterlimit:10;stroke-dasharray:none;stroke-opacity:1" id="path48" d="M 95.871331,316.25733 H 130.26306"/><text id="text54" x="173.724" y="13.473" style="font-style:oblique;font-variant:normal;font-weight:700;font-size:15.28519917px;font-family:Helvetica;-inkscape-font-specification:Helvetica-BoldOblique;writing-mode:lr-tb;fill:#000;fill-opacity:1;fill-rule:nonzero;stroke:none;stroke-width:1.33333325"><tspan style="stroke-width:1.33333325" id="tspan52" x="173.724 184.76 194.099 202.598 211.937 225.526 234.024 243.363 248.453 252.703 267.132 271.381 280.72 290.06 299.399" y="13.473">Document Window</tspan></text><text id="text62" x="83.134" y="17.829" style="font-variant:normal;font-weight:400;font-size:14.01146698px;font-family:Helvetica;-inkscape-font-specification:Helvetica;writing-mode:lr-tb;fill:#000;fill-opacity:1;fill-rule:nonzero;stroke:none;stroke-width:1.33333325"><tspan style="stroke-width:1.33333325" id="tspan56" x="83.134 87.8 95.59 99.485 107.276" y="17.829">(0,0)</tspan><tspan style="stroke-width:1.33333325" id="tspan58" x="360.815 365.481 373.271 377.167 381.062 388.852 396.643 404.433" y="15.281">(0, 400)</tspan><tspan style="stroke-width:1.33333325" id="tspan60" x="74.218 78.884 86.674 94.464 102.255 106.15 110.045 117.836 354.446 359.112 366.902 374.692 382.483 386.378 390.273 398.064 405.854 413.644" y="430.529">(400, 0)(400, 400)</tspan></text><text id="text68" x="108.609" y="214.119" style="font-variant:normal;font-weight:400;font-size:17.8326664px;font-family:Helvetica;-inkscape-font-specification:Helvetica;writing-mode:lr-tb;fill:#000;fill-opacity:1;fill-rule:nonzero;stroke:none;stroke-width:1.33333325"><tspan style="stroke-width:1.33333325" id="tspan64" x="108.609 117.525 127.44 137.355 142.312 152.227 162.142 167.1 176.016" y="214.119">contents.</tspan><tspan style="stroke-width:1.33333325" id="tspan66" x="108.609 120.503 130.418 140.333 144.292 154.207 164.122 168.08 177.995 187.91 192.868 202.783 207.74 212.698 222.613 232.528 242.443 251.359 256.317 265.233 275.148 285.063 290.02 299.935 309.85 314.808 323.724" y="71.458">Beginning of body contents.</tspan></text><text id="text74" x="339.161" y="71.457" style="font-variant:normal;font-weight:400;font-size:17.8326664px;font-family:Helvetica;-inkscape-font-specification:Helvetica;writing-mode:lr-tb;fill:#f91340;fill-opacity:1;fill-rule:nonzero;stroke:none;stroke-width:1.33333325"><tspan style="stroke-width:1.33333325" id="tspan72" x="339.161 351.056 356.013 365.928 371.866" y="71.457">Start</tspan></text><text id="text80" x="258.913" y="117.313" style="font-variant:normal;font-weight:400;font-size:17.8326664px;font-family:Helvetica;-inkscape-font-specification:Helvetica;writing-mode:lr-tb;fill:#5151fa;fill-opacity:1;fill-rule:nonzero;stroke:none;stroke-width:1.33333325"><tspan style="stroke-width:1.33333325" id="tspan78" x="258.913 263.871 273.786 283.701 293.616 299.554 304.511 313.428 323.343 333.258 338.215 348.13 358.045 363.003 371.919" y="117.313">Inner contents.</tspan></text><text id="text86" x="287.078" y="165.716" style="font-variant:normal;font-weight:400;font-size:17.8326664px;font-family:Helvetica;-inkscape-font-specification:Helvetica;writing-mode:lr-tb;fill:#000;fill-opacity:1;fill-rule:nonzero;stroke:none;stroke-width:1.33333325"><tspan style="stroke-width:1.33333325" id="tspan84" x="287.078 298.973 308.887 318.802 323.76 333.675 338.632 343.59 353.505 363.42 373.335" y="165.716">End of body</tspan></text><text id="text94" x="108.609" y="117.313" style="font-variant:normal;font-weight:400;font-size:17.8326664px;font-family:Helvetica;-inkscape-font-specification:Helvetica;writing-mode:lr-tb;fill:#f91340;fill-opacity:1;fill-rule:nonzero;stroke:none;stroke-width:1.33333325"><tspan style="stroke-width:1.33333325" id="tspan90" x="108.609 118.524 123.481 128.439 138.354 148.269 153.226 163.141 169.079 174.037 182.953 192.868 202.783 207.741 217.656 227.571 232.528 241.444" y="117.313">of outer contents.</tspan><tspan style="stroke-width:1.33333325" id="tspan92" x="109.883 121.777 131.692 141.607 146.565 156.48 161.437 166.394 176.309 186.224 191.182 201.097 207.035 211.993 220.909 230.824 240.739 245.696 255.611 265.526 270.484 279.4" y="165.716">End of outer contents.</tspan></text><path style="fill:none;stroke:#000;stroke-width:1;stroke-linecap:butt;stroke-linejoin:miter;stroke-miterlimit:10;stroke-dasharray:none;stroke-opacity:1" id="path96" d="M 55.110932,75.516006 H 38.551599 V 121.372 h 19.1068"/><text id="text102" x="1.613" y="103.38" style="font-style:oblique;font-variant:normal;font-size:14.01146698px;font-family:Helvetica;-inkscape-font-specification:Helvetica-Oblique;writing-mode:lr-tb;fill:#000;fill-opacity:1;fill-rule:nonzero;stroke:none;stroke-width:1.33333325"><tspan style="stroke-width:1.33333325" id="tspan100" x="1.613 9.403 17.193 21.088 28.879" y="103.38">24 px</tspan></text></svg>