<svg xmlns="http://www.w3.org/2000/svg" xmlns:svg="http://www.w3.org/2000/svg" id="svg2" width="364" height="96" preserveAspectRatio="xMidYMid slice" version="1.1" viewBox="0 0 468 125.333" xml:space="preserve"><metadata id="metadata8"/><text id="text22" x="1.2" y="70" style="font-variant:normal;font-weight:400;font-size:21.60000038px;font-family:Times;-inkscape-font-specification:Times-Roman;writing-mode:lr-tb;fill:#000;fill-opacity:1;fill-rule:nonzero;stroke:none;stroke-width:1.33333325"><tspan style="stroke-width:1.33333325" id="tspan16" x="1.2 14.398 21.59 32.39 41.981 49.174 56.366 65.957 82.762 88.766 94.166 104.966 115.766 125.357 132.55 137.95 154.754 165.554 170.954 180.545 191.345 196.745 213.55 219.554 225.559 236.359 241.759 252.559 262.15 272.95 282.54 292.13 302.93 318.526 329.326 338.916 344.316 355.116 364.706 373.109 379.114 388.704" y="70">Erbarremt over my en mijn benaeuwde vesten</tspan><tspan style="stroke-width:1.33333325" id="tspan18" x="1.2 14.398 25.198 30.598 40.188 47.381 64.186 73.776 79.176 89.976 100.776 107.969 118.769 128.359 135.552 146.352 151.752 157.152 166.742 177.542 182.942 193.742 204.542 209.942 226.747 232.752 238.757 249.557 254.957 265.757 276.557 282.562 292.152 302.952 308.352 319.152 328.742 339.542 349.133" y="94">En arme burgery, en op mijn volcx gebed</tspan><tspan style="stroke-width:1.33333325" id="tspan20" x="1.2 14.398 25.198 30.598 41.398 50.988 61.788 71.378 77.383 83.388 94.188 99.588 110.388 119.978 128.381 137.971 148.771 155.964 165.554 176.354 181.754 192.554 202.145 207.545 218.345 227.935 238.735 249.535 259.126 264.526 272.928 278.933 288.523 299.323 304.723 315.523 326.323 332.328 341.918 351.509 357.514" y="118">En dagelix geschrey de bange stad ontzet.</tspan></text><text id="text26" x="1.2" y="46" style="font-variant:normal;font-weight:400;font-size:64.79999542px;font-family:Times;-inkscape-font-specification:Times-Roman;writing-mode:lr-tb;fill:#000;fill-opacity:1;fill-rule:nonzero;stroke:none;stroke-width:1.33333325"><tspan style="stroke-width:1.33333325" id="tspan24" x="1.2" y="46">H</tspan></text><text id="text30" x="49.2" y="46" style="font-variant:normal;font-weight:700;font-size:21.60000038px;font-family:Times;-inkscape-font-specification:Times-Bold;writing-mode:lr-tb;fill:#000;fill-opacity:1;fill-rule:nonzero;stroke:none;stroke-width:1.33333325"><tspan style="stroke-width:1.33333325" id="tspan28" x="49.2 58.79 65.983 71.383 83.393 92.983 110.976 120.566 126.571 134.974 144.564 156.574" y="46">et hemelsche</tspan></text><text id="text34" x="169.2" y="46" style="font-variant:normal;font-weight:400;font-size:21.60000038px;font-family:Times;-inkscape-font-specification:Times-Roman;writing-mode:lr-tb;fill:#000;fill-opacity:1;fill-rule:nonzero;stroke:none;stroke-width:1.33333325"><tspan style="stroke-width:1.33333325" id="tspan32" x="169.2 180 189.59 196.783 206.374 215.964 226.764 232.769 238.169 248.969 258.559 268.15 275.342 281.347 286.747 296.338 302.342 311.933 322.733 328.133 334.138 343.728 354.528 359.928 365.933 375.523 386.323 397.123 406.714 412.114 418.118 427.709 436.111 442.116 451.706" y="46">gerecht heeft zich ten lange lesten</tspan></text></svg>