<svg xmlns="http://www.w3.org/2000/svg" xmlns:svg="http://www.w3.org/2000/svg" id="svg2" width="204" height="219" preserveAspectRatio="xMidYMid slice" version="1.1" viewBox="0 0 261.333 280" xml:space="preserve"><metadata id="metadata8"/><text id="text24" x="82.813" y="13.785" style="font-variant:normal;font-weight:400;font-size:15.28519917px;font-family:Helvetica;-inkscape-font-specification:Helvetica;writing-mode:lr-tb;fill:#000;fill-opacity:1;fill-rule:nonzero;stroke:none;stroke-width:1.33333325"><tspan style="stroke-width:1.33333325" id="tspan16" x="82.813 87.062 90.456 95.546 103.188 107.438 111.687 115.08 118.473 126.116 130.365 134.615 138.008 142.257 150.756" y="13.785">first list item</tspan><tspan style="stroke-width:1.33333325" id="tspan18" x="82.813 90.456 98.954 111.687 120.185 127.828 132.077 136.327 139.72 144.81 152.452" y="29.07">comes first</tspan><tspan style="stroke-width:1.33333325" id="tspan20" x="82.813 90.456 98.954 106.597 115.095 123.594 132.093 136.342 139.735 143.128 150.771 155.02 159.27 162.663 166.912 175.411" y="59.641">second list item</tspan><tspan style="stroke-width:1.33333325" id="tspan22" x="82.813 90.456 98.954 111.687 120.185 127.828 132.077 139.72 148.218 155.861 164.36 172.858" y="74.926">comes second</tspan></text><path style="fill:#000;fill-opacity:1;fill-rule:evenodd;stroke:none;stroke-width:.13333333" id="path26" d="m 73.896398,56.569339 c 0,-1.406667 -1.140666,-2.548 -2.547466,-2.548 -1.4068,0 -2.547334,1.141333 -2.547334,2.548 0,1.406667 1.140534,2.546667 2.547334,2.546667 1.4068,0 2.547466,-1.14 2.547466,-2.546667"/><path style="fill:none;stroke:#000;stroke-width:1;stroke-linecap:butt;stroke-linejoin:miter;stroke-miterlimit:10;stroke-dasharray:none;stroke-opacity:1" id="path28" d="m 73.896398,56.569339 c 0,-1.406667 -1.140666,-2.548 -2.547466,-2.548 -1.4068,0 -2.547334,1.141333 -2.547334,2.548 0,1.406667 1.140534,2.546667 2.547334,2.546667 1.4068,0 2.547466,-1.14 2.547466,-2.546667"/><path style="fill:#000;fill-opacity:1;fill-rule:evenodd;stroke:none;stroke-width:.13333333" id="path30" d="m 73.896398,9.4400068 c 0,-1.4066667 -1.140666,-2.548 -2.547466,-2.548 -1.4068,0 -2.547334,1.1413333 -2.547334,2.548 0,1.4066662 1.140534,2.5480002 2.547334,2.5480002 1.4068,0 2.547466,-1.141334 2.547466,-2.5480002"/><path style="fill:none;stroke:#000;stroke-width:1;stroke-linecap:butt;stroke-linejoin:miter;stroke-miterlimit:10;stroke-dasharray:none;stroke-opacity:1" id="path32" d="m 73.896398,9.4400068 c 0,-1.4066667 -1.140666,-2.548 -2.547466,-2.548 -1.4068,0 -2.547334,1.1413333 -2.547334,2.548 0,1.4066662 1.140534,2.5480002 2.547334,2.5480002 1.4068,0 2.547466,-1.141334 2.547466,-2.5480002"/><path style="fill:#000;fill-opacity:1;fill-rule:evenodd;stroke:none;stroke-width:.13333333" id="path34" d="m 87.907864,172.48174 c 0,-1.4068 -1.140666,-2.54734 -2.547466,-2.54734 -1.4068,0 -2.547333,1.14054 -2.547333,2.54734 0,1.4068 1.140533,2.548 2.547333,2.548 1.4068,0 2.547466,-1.1412 2.547466,-2.548"/><path style="fill:none;stroke:#000;stroke-width:1;stroke-linecap:butt;stroke-linejoin:miter;stroke-miterlimit:10;stroke-dasharray:none;stroke-opacity:1" id="path36" d="m 87.907864,172.48174 c 0,-1.4068 -1.140666,-2.54734 -2.547466,-2.54734 -1.4068,0 -2.547333,1.14054 -2.547333,2.54734 0,1.4068 1.140533,2.548 2.547333,2.548 1.4068,0 2.547466,-1.1412 2.547466,-2.548"/><path style="fill:#000;fill-opacity:1;fill-rule:evenodd;stroke:none;stroke-width:.13333333" id="path38" d="m 87.907864,126.62667 c 0,-1.408 -1.140666,-2.548 -2.547466,-2.548 -1.4068,0 -2.547333,1.14 -2.547333,2.548 0,1.40667 1.140533,2.54667 2.547333,2.54667 1.4068,0 2.547466,-1.14 2.547466,-2.54667"/><path style="fill:none;stroke:#000;stroke-width:1;stroke-linecap:butt;stroke-linejoin:miter;stroke-miterlimit:10;stroke-dasharray:none;stroke-opacity:1" id="path40" d="m 87.907864,126.62667 c 0,-1.408 -1.140666,-2.548 -2.547466,-2.548 -1.4068,0 -2.547333,1.14 -2.547333,2.548 0,1.40667 1.140533,2.54667 2.547333,2.54667 1.4068,0 2.547466,-1.14 2.547466,-2.54667"/><text id="text52" x="95.561" y="130.972" style="font-variant:normal;font-weight:400;font-size:15.28519917px;font-family:Helvetica;-inkscape-font-specification:Helvetica;writing-mode:lr-tb;fill:#000;fill-opacity:1;fill-rule:nonzero;stroke:none;stroke-width:1.33333325"><tspan style="stroke-width:1.33333325" id="tspan44" x="95.561 99.81 103.204 108.293 115.936 120.185 124.435 127.828 131.221 138.864 143.113" y="130.972">first list </tspan><tspan style="stroke-width:1.33333325" id="tspan46" x="82.813 86.206 90.456 98.954 111.687 115.936 123.579 132.077 144.81 153.308 160.951 165.2 169.45 172.843 177.933 185.575" y="146.257">item comes first</tspan><tspan style="stroke-width:1.33333325" id="tspan48" x="82.813 95.561 103.204 111.702 119.345 127.843 136.342 144.84 149.09 152.483 155.876 163.519" y="176.828"> second list</tspan><tspan style="stroke-width:1.33333325" id="tspan50" x="82.813 86.206 90.456 98.954 111.687 115.936 123.579 132.077 144.81 153.308 160.951 165.2 172.843 181.341 188.984 197.483 205.981" y="192.113">item comes second</tspan></text><path style="fill:none;stroke:#000;stroke-width:1;stroke-linecap:butt;stroke-linejoin:miter;stroke-miterlimit:10;stroke-dasharray:none;stroke-opacity:1" id="path54" d="M 257.31866,94.782671 H 2.5656266"/><path style="fill:none;stroke:#000;stroke-width:1;stroke-linecap:butt;stroke-linejoin:miter;stroke-miterlimit:10;stroke-dasharray:none;stroke-opacity:1" id="path56" d="m 84.086398,217.0636 v 61.14109"/><path style="fill:#000;fill-opacity:1;fill-rule:evenodd;stroke:none;stroke-width:.13333333" id="path58" d="m 81.539065,227.2536 2.547333,-10.19 2.548,10.19"/><path style="fill:none;stroke:#000;stroke-width:1;stroke-linecap:butt;stroke-linejoin:miter;stroke-miterlimit:10;stroke-dasharray:none;stroke-opacity:1" id="path60" d="m 81.539065,227.2536 2.547333,-10.19 2.548,10.19"/><text id="text70" x="94.277" y="243.655" style="font-style:oblique;font-variant:normal;font-size:14.01146698px;font-family:Helvetica;-inkscape-font-specification:Helvetica-Oblique;writing-mode:lr-tb;fill:#000;fill-opacity:1;fill-rule:nonzero;stroke:none;stroke-width:1.33333325"><tspan style="stroke-width:1.33333325" id="tspan64" x="94.277 102.838 110.628 118.418 122.313 125.424 133.214 137.11 141.005 144.9 151.906 155.016 162.807 170.597 177.603 181.498 189.288 193.183 197.079 200.974 208.764" y="243.655">The left sides of the</tspan><tspan style="stroke-width:1.33333325" id="tspan66" x="94.277 97.387 100.498 107.503 111.399 115.294 118.404 122.299 130.09 141.761 145.657 153.447 161.237 168.243 176.033 183.039 186.934 194.725 199.391 207.181 211.076 218.867 226.657 230.552" y="257.666">list item boxes are not </tspan><tspan style="stroke-width:1.33333325" id="tspan68" x="94.277 102.067 105.962 109.857 117.648 124.653 128.549 136.339 144.129 148.025 155.815 162.821 166.716 178.387 186.178 190.844 197.849 205.64 210.305 214.201 221.991 225.102 232.892 239.898 247.688 259.36 267.15 274.94" y="271.678">affected by marker placement</tspan></text></svg>