<svg xmlns="http://www.w3.org/2000/svg" xmlns:svg="http://www.w3.org/2000/svg" id="svg2" width="177" height="173" preserveAspectRatio="xMidYMid slice" version="1.1" viewBox="0 0 226.667 221.333" xml:space="preserve"><metadata id="metadata8"/><path style="fill:none;stroke:#f91340;stroke-width:2.54753327;stroke-linecap:butt;stroke-linejoin:miter;stroke-miterlimit:10;stroke-dasharray:none;stroke-opacity:1" id="path14" d="M 4.2427066,129.47187 H 131.61924 V 2.0948021 H 4.2427066 Z"/><text id="text22" x="2.969" y="151.88" style="font-style:oblique;font-variant:normal;font-size:15.28519917px;font-family:Helvetica;-inkscape-font-specification:Helvetica-Oblique;writing-mode:lr-tb;fill:#000;fill-opacity:1;fill-rule:nonzero;stroke:none;stroke-width:1.33333325"><tspan style="stroke-width:1.33333325" id="tspan18" x="2.969 14.005 18.254" y="151.88">DIV</tspan><tspan style="stroke-width:1.33333325" id="tspan20" x="66.657 76.853 85.351 97.243 108.279 118.474 130.366 141.402 153.294 162.633" y="214.294">BLOCKQUOTE</tspan></text><path style="fill:none;stroke:#000;stroke-width:2.54753327;stroke-linecap:butt;stroke-linejoin:miter;stroke-miterlimit:10;stroke-dasharray:15.28519962,5.09506654;stroke-dashoffset:0;stroke-opacity:1" id="path24" d="M 67.930265,193.15933 H 225.07559 V 69.813467 H 67.930265 Z"/><text id="text40" x="71.752" y="85.624" style="font-variant:normal;font-weight:400;font-size:15.28519917px;font-family:Helvetica;-inkscape-font-specification:Helvetica;writing-mode:lr-tb;fill:#000;fill-opacity:1;fill-rule:nonzero;stroke:none;stroke-width:1.33333325"><tspan style="stroke-width:1.33333325" id="tspan28" x="71.752 76.001 80.251 88.749 92.143 100.641 109.14 112.533 116.782 121.032 124.425 127.818 135.461 143.959 148.209 152.458 160.957 169.455 173.704 182.203 185.596 194.095 201.737" y="85.624">I didn’t like the play,</tspan><tspan style="stroke-width:1.33333325" id="tspan30" x="71.752 80.251 88.749 92.999 97.248 101.497 109.996 118.494 126.993 131.242 135.491 139.741 147.383 155.882 166.918 171.167 174.56" y="100.909">but then I saw it</tspan><tspan style="stroke-width:1.33333325" id="tspan32" x="71.752 80.251 88.749 97.248 105.746 110.836 115.086 123.584 132.083 139.725 148.224 153.314 160.957 169.455" y="116.195">under adverse </tspan><tspan style="stroke-width:1.33333325" id="tspan34" x="71.752 79.395 87.893 96.392 104.89 108.284 112.533 115.926 124.425 132.924 140.566 144.815 153.742 157.991 162.241 170.739 179.238" y="131.48">conditions − the </tspan><tspan style="stroke-width:1.33333325" id="tspan36" x="71.752 79.395 87.893 92.983 97.233 105.731 109.124 117.623 121.872 132.908 141.407 149.049 153.299 161.797 170.296" y="146.766">curtain was up.</tspan><tspan style="stroke-width:1.33333325" id="tspan38" x="71.752 101.497 110.424 114.673 126.565 131.655 140.153 148.652 156.295 164.793 173.292 177.541 190.274 198.772 203.862" y="162.051"> − Groucho Marx</tspan></text></svg>