<svg xmlns="http://www.w3.org/2000/svg" xmlns:svg="http://www.w3.org/2000/svg" id="svg2" width="111" height="111" preserveAspectRatio="xMidYMid slice" version="1.1" viewBox="0 0 142.667 142.667" xml:space="preserve"><metadata id="metadata8"/><path style="fill:#fff;fill-opacity:1;fill-rule:evenodd;stroke:none;stroke-width:.13333333" id="path14" d="M 65.840665,129.65782 H 129.68133 V 71.684885 H 65.840665 Z"/><path style="fill:none;stroke:#000;stroke-width:2.54753327;stroke-linecap:butt;stroke-linejoin:miter;stroke-miterlimit:10;stroke-dasharray:15.28519962,5.09506654;stroke-dashoffset:0;stroke-opacity:1" id="path16" d="M 65.840665,129.65782 H 129.68133 V 71.684885 H 65.840665 Z"/><text id="text28" x="70.418" y="88.171" style="font-variant:normal;font-weight:400;font-size:15.28519917px;font-family:Helvetica;-inkscape-font-specification:Helvetica;writing-mode:lr-tb;fill:#000;fill-opacity:1;fill-rule:nonzero;stroke:none;stroke-width:1.33333325"><tspan style="stroke-width:1.33333325" id="tspan20" x="70.418 74.667 78.916 87.415 90.808 99.307 107.805 111.199 115.448 119.697 123.091" y="88.171">I didn’t li</tspan><tspan style="stroke-width:1.33333325" id="tspan22" x="70.418 78.916 87.415 91.664 95.913 100.163 108.661 117.16 125.658" y="103.456">but then </tspan><tspan style="stroke-width:1.33333325" id="tspan24" x="70.418 78.916 87.415 95.913 104.412 109.502 113.751 122.25 130.748" y="118.742">under ad </tspan><tspan style="stroke-width:1.33333325" id="tspan26" x="70.418 78.06 86.559 95.057 103.556 106.949 111.199 114.592 123.091" y="134.027">condition</tspan></text><path style="fill:none;stroke:#f91340;stroke-width:2.54753327;stroke-linecap:butt;stroke-linejoin:miter;stroke-miterlimit:10;stroke-dasharray:none;stroke-opacity:1" id="path30" d="M 2.9093733,129.47188 H 130.2859 V 2.0948202 H 2.9093733 Z"/><path style="fill:#fff;fill-opacity:1;fill-rule:evenodd;stroke:none;stroke-width:.13333333" id="path32" d="m 58.954665,139.66198 h 76.425995 v -8.91667 H 58.954665 Z"/><path style="fill:#fff;fill-opacity:1;fill-rule:evenodd;stroke:none;stroke-width:.13333333" id="path34" d="m 132.1964,128.83494 h 8.91666 V 52.408939 h -8.91666 z"/></svg>