<svg xmlns="http://www.w3.org/2000/svg" xmlns:svg="http://www.w3.org/2000/svg" id="svg2" width="322" height="355" preserveAspectRatio="xMidYMid slice" version="1.1" viewBox="0 0 412 454.667" xml:space="preserve"><metadata id="metadata8"/><path style="fill:#fff;fill-opacity:1;fill-rule:evenodd;stroke:none;stroke-width:.13333333" id="path14" d="M 2.5291733,313.58534 H 189.77184 V 135.25868 H 2.5291733 Z"/><path style="fill:none;stroke:#000;stroke-width:1;stroke-linecap:butt;stroke-linejoin:miter;stroke-miterlimit:10;stroke-dasharray:none;stroke-opacity:1" id="path16" d="M 2.5291733,313.58534 H 189.77184 V 135.25868 H 2.5291733 Z"/><path style="fill:#fff;fill-opacity:1;fill-rule:evenodd;stroke:none;stroke-width:.13333333" id="path18" d="M 37.557332,249.89734 H 154.74426 v -81.5208 H 37.557332 Z"/><path style="fill:none;stroke:#000;stroke-width:1;stroke-linecap:butt;stroke-linejoin:miter;stroke-miterlimit:10;stroke-dasharray:none;stroke-opacity:1" id="path20" d="M 37.557332,249.89734 H 154.74426 v -81.5208 H 37.557332 Z"/><text id="text30" x="2.529" y="128.14" style="font-variant:normal;font-weight:400;font-size:15.28519917px;font-family:Helvetica;-inkscape-font-specification:Helvetica;writing-mode:lr-tb;fill:#000;fill-opacity:1;fill-rule:nonzero;stroke:none;stroke-width:1.33333325"><tspan style="stroke-width:1.33333325" id="tspan24" x="2.529 12.724 21.223 29.722 38.22 42.469 50.968 59.467" y="128.14">Page box</tspan><tspan style="stroke-width:1.33333325" id="tspan26" x="40.105 50.3 58.799 67.298 75.796 80.045 88.544 93.634 102.133" y="185.46">Page area</tspan><tspan style="stroke-width:1.33333325" id="tspan28" x="5.077 17.809 26.308 31.398 39.896 43.29 51.788 56.037 64.536 69.626 78.124" y="302.646">Margin area</tspan></text><path style="fill:#fff;fill-opacity:1;fill-rule:evenodd;stroke:none;stroke-width:.13333333" id="path32" d="M 264.92533,258.81467 H 411.40799 V 142.90161 H 264.92533 Z"/><path style="fill:none;stroke:#000;stroke-width:1;stroke-linecap:butt;stroke-linejoin:miter;stroke-miterlimit:10;stroke-dasharray:none;stroke-opacity:1" id="path34" d="M 264.92533,258.81467 H 411.40799 V 142.90161 H 264.92533 Z"/><text id="text40" x="264.925" y="134.509" style="font-variant:normal;font-weight:400;font-size:15.28519917px;font-family:Helvetica;-inkscape-font-specification:Helvetica;writing-mode:lr-tb;fill:#000;fill-opacity:1;fill-rule:nonzero;stroke:none;stroke-width:1.33333325"><tspan style="stroke-width:1.33333325" id="tspan38" x="264.925 275.121 283.619 292.118 300.616" y="134.509">Sheet</tspan></text><path style="fill:#fff;fill-opacity:1;fill-rule:evenodd;stroke:none;stroke-width:.13333333" id="path42" d="m 264.92533,66.47468 h 42.0344 V 21.892947 h -42.0344 z"/><path style="fill:none;stroke:#000;stroke-width:1;stroke-linecap:butt;stroke-linejoin:miter;stroke-miterlimit:10;stroke-dasharray:none;stroke-opacity:1" id="path44" d="m 264.92533,66.47468 h 42.0344 V 21.892947 h -42.0344 z"/><text id="text50" x="264.925" y="13.501" style="font-variant:normal;font-weight:400;font-size:15.28519917px;font-family:Helvetica;-inkscape-font-specification:Helvetica;writing-mode:lr-tb;fill:#000;fill-opacity:1;fill-rule:nonzero;stroke:none;stroke-width:1.33333325"><tspan style="stroke-width:1.33333325" id="tspan48" x="264.925 275.121 283.619 292.118 300.616" y="13.501">Sheet</tspan></text><path style="fill:none;stroke:#000;stroke-width:1;stroke-linecap:butt;stroke-linejoin:miter;stroke-miterlimit:10;stroke-dasharray:none;stroke-opacity:1" id="path52" d="M 196.14133,127.61601 254.73466,55.012013"/><path style="fill:#fff;fill-opacity:1;fill-rule:evenodd;stroke:none;stroke-width:.13333333" id="path54" d="m 246.35199,61.341346 8.38267,-6.329333 -4.41733,9.529333"/><path style="fill:none;stroke:#000;stroke-width:1;stroke-linecap:butt;stroke-linejoin:miter;stroke-miterlimit:10;stroke-dasharray:none;stroke-opacity:1" id="path56" d="m 246.35199,61.341346 8.38267,-6.329333 -4.41733,9.529333"/><path style="fill:none;stroke:#000;stroke-width:1;stroke-linecap:butt;stroke-linejoin:miter;stroke-miterlimit:10;stroke-dasharray:none;stroke-opacity:1" id="path58" d="m 197.41466,206.58934 h 57.32"/><path style="fill:#fff;fill-opacity:1;fill-rule:evenodd;stroke:none;stroke-width:.13333333" id="path60" d="m 244.54533,204.04268 10.18933,2.54666 -10.18933,2.548"/><path style="fill:none;stroke:#000;stroke-width:1;stroke-linecap:butt;stroke-linejoin:miter;stroke-miterlimit:10;stroke-dasharray:none;stroke-opacity:1" id="path62" d="m 244.54533,204.04268 10.18933,2.54666 -10.18933,2.548"/><text id="text72" x="171.94" y="90.519" style="font-style:oblique;font-variant:normal;font-size:14.01146698px;font-family:Helvetica;-inkscape-font-specification:Helvetica-Oblique;writing-mode:lr-tb;fill:#000;fill-opacity:1;fill-rule:nonzero;stroke:none;stroke-width:1.33333325"><tspan style="stroke-width:1.33333325" id="tspan66" x="171.94 175.835 180.501 188.291 196.082 203.087 206.983 214.773" y="90.519">transfer</tspan><tspan style="stroke-width:1.33333325" id="tspan68" x="205.058 208.953 213.619 221.409 229.199 236.205 240.1 247.891" y="221.717">transfer</tspan><tspan style="stroke-width:1.33333325" id="tspan70" x="177.035 180.93 185.596 193.386 201.177 208.182 212.077 219.868" y="351.641">transfer</tspan></text><path style="fill:#fff;fill-opacity:1;fill-rule:evenodd;stroke:none;stroke-width:.13333333" id="path74" d="m 264.92533,432.0464 h 57.31933 V 289.38507 h -57.31933 z"/><path style="fill:none;stroke:#000;stroke-width:1;stroke-linecap:butt;stroke-linejoin:miter;stroke-miterlimit:10;stroke-dasharray:none;stroke-opacity:1" id="path76" d="m 264.92533,432.0464 h 57.31933 V 289.38507 h -57.31933 z"/><text id="text82" x="264.925" y="447.856" style="font-variant:normal;font-weight:400;font-size:15.28519917px;font-family:Helvetica;-inkscape-font-specification:Helvetica;writing-mode:lr-tb;fill:#000;fill-opacity:1;fill-rule:nonzero;stroke:none;stroke-width:1.33333325"><tspan style="stroke-width:1.33333325" id="tspan80" x="264.925 275.121 283.619 292.118 300.616" y="447.856">Sheet</tspan></text><path style="fill:none;stroke:#000;stroke-width:1;stroke-linecap:butt;stroke-linejoin:miter;stroke-miterlimit:10;stroke-dasharray:none;stroke-opacity:1" id="path84" d="m 194.868,317.40667 52.22399,35.66627"/><path style="fill:#fff;fill-opacity:1;fill-rule:evenodd;stroke:none;stroke-width:.13333333" id="path86" d="m 240.11466,345.22241 6.97733,7.85053 -9.852,-3.6432"/><path style="fill:none;stroke:#000;stroke-width:1;stroke-linecap:butt;stroke-linejoin:miter;stroke-miterlimit:10;stroke-dasharray:none;stroke-opacity:1" id="path88" d="m 240.11466,345.22241 6.97733,7.85053 -9.852,-3.6432"/></svg>