<svg xmlns="http://www.w3.org/2000/svg" xmlns:svg="http://www.w3.org/2000/svg" id="svg2" width="322" height="251" preserveAspectRatio="xMidYMid slice" version="1.1" viewBox="0 0 412 321.333" xml:space="preserve"><metadata id="metadata8"/><g id="g10" transform="matrix(1.3333333,0,0,-1.3333333,0,321.33333)"><g id="g12" transform="scale(0.1)"><path style="fill:#ff1441;fill-opacity:1;fill-rule:evenodd;stroke:none" id="path14" d="m 679.801,1598.8 c 0,22.86 -18.539,41.4 -41.403,41.4 -22.863,0 -41.398,-18.54 -41.398,-41.4 0,-22.86 18.535,-41.4 41.398,-41.4 22.864,0 41.403,18.54 41.403,41.4"/><path style="fill:none;stroke:#ff1441;stroke-width:7.19999981;stroke-linecap:butt;stroke-linejoin:miter;stroke-miterlimit:10;stroke-dasharray:none;stroke-opacity:1" id="path16" d="m 679.801,1598.8 c 0,22.86 -18.539,41.4 -41.403,41.4 -22.863,0 -41.398,-18.54 -41.398,-41.4 0,-22.86 18.535,-41.4 41.398,-41.4 22.864,0 41.403,18.54 41.403,41.4"/><path style="fill:#ff1441;fill-opacity:1;fill-rule:evenodd;stroke:none" id="path18" d="m 678,1512.4 c 0,22.86 -18.535,41.4 -41.398,41.4 -22.864,0 -41.403,-18.54 -41.403,-41.4 0,-22.86 18.539,-41.4 41.403,-41.4 22.863,0 41.398,18.54 41.398,41.4"/><path style="fill:none;stroke:#ff1441;stroke-width:7.19999981;stroke-linecap:butt;stroke-linejoin:miter;stroke-miterlimit:10;stroke-dasharray:none;stroke-opacity:1" id="path20" d="m 678,1512.4 c 0,22.86 -18.535,41.4 -41.398,41.4 -22.864,0 -41.403,-18.54 -41.403,-41.4 0,-22.86 18.539,-41.4 41.403,-41.4 22.863,0 41.398,18.54 41.398,41.4"/><path style="fill:#ff1441;fill-opacity:1;fill-rule:evenodd;stroke:none" id="path22" d="m 678,1424.2 c 0,22.86 -18.535,41.4 -41.398,41.4 -22.864,0 -41.403,-18.54 -41.403,-41.4 0,-22.86 18.539,-41.4 41.403,-41.4 22.863,0 41.398,18.54 41.398,41.4"/><path style="fill:none;stroke:#ff1441;stroke-width:7.19999981;stroke-linecap:butt;stroke-linejoin:miter;stroke-miterlimit:10;stroke-dasharray:none;stroke-opacity:1" id="path24" d="m 678,1424.2 c 0,22.86 -18.535,41.4 -41.398,41.4 -22.864,0 -41.403,-18.54 -41.403,-41.4 0,-22.86 18.539,-41.4 41.403,-41.4 22.863,0 41.398,18.54 41.398,41.4"/><path style="fill:#ff1441;fill-opacity:1;fill-rule:evenodd;stroke:none" id="path26" d="m 676.199,1339.6 c 0,22.86 -18.535,41.4 -41.398,41.4 -22.863,0 -41.403,-18.54 -41.403,-41.4 0,-22.86 18.54,-41.4 41.403,-41.4 22.863,0 41.398,18.54 41.398,41.4"/><path style="fill:none;stroke:#ff1441;stroke-width:7.19999981;stroke-linecap:butt;stroke-linejoin:miter;stroke-miterlimit:10;stroke-dasharray:none;stroke-opacity:1" id="path28" d="m 676.199,1339.6 c 0,22.86 -18.535,41.4 -41.398,41.4 -22.863,0 -41.403,-18.54 -41.403,-41.4 0,-22.86 18.54,-41.4 41.403,-41.4 22.863,0 41.398,18.54 41.398,41.4"/><path style="fill:#ff1441;fill-opacity:1;fill-rule:evenodd;stroke:none" id="path30" d="m 593.398,1341.4 c 0,22.86 -18.535,41.4 -41.398,41.4 -22.863,0 -41.398,-18.54 -41.398,-41.4 0,-22.86 18.535,-41.4 41.398,-41.4 22.863,0 41.398,18.54 41.398,41.4"/><path style="fill:none;stroke:#ff1441;stroke-width:7.19999981;stroke-linecap:butt;stroke-linejoin:miter;stroke-miterlimit:10;stroke-dasharray:none;stroke-opacity:1" id="path32" d="m 593.398,1341.4 c 0,22.86 -18.535,41.4 -41.398,41.4 -22.863,0 -41.398,-18.54 -41.398,-41.4 0,-22.86 18.535,-41.4 41.398,-41.4 22.863,0 41.398,18.54 41.398,41.4"/><path style="fill:#ff1441;fill-opacity:1;fill-rule:evenodd;stroke:none" id="path34" d="m 595.199,1426 c 0,22.86 -18.535,41.4 -41.398,41.4 -22.863,0 -41.403,-18.54 -41.403,-41.4 0,-22.86 18.54,-41.4 41.403,-41.4 22.863,0 41.398,18.54 41.398,41.4"/><path style="fill:none;stroke:#ff1441;stroke-width:7.19999981;stroke-linecap:butt;stroke-linejoin:miter;stroke-miterlimit:10;stroke-dasharray:none;stroke-opacity:1" id="path36" d="m 595.199,1426 c 0,22.86 -18.535,41.4 -41.398,41.4 -22.863,0 -41.403,-18.54 -41.403,-41.4 0,-22.86 18.54,-41.4 41.403,-41.4 22.863,0 41.398,18.54 41.398,41.4"/><path style="fill:#ff1441;fill-opacity:1;fill-rule:evenodd;stroke:none" id="path38" d="m 595.199,1514.2 c 0,22.86 -18.535,41.4 -41.398,41.4 -22.863,0 -41.403,-18.54 -41.403,-41.4 0,-22.86 18.54,-41.4 41.403,-41.4 22.863,0 41.398,18.54 41.398,41.4"/><path style="fill:none;stroke:#ff1441;stroke-width:7.19999981;stroke-linecap:butt;stroke-linejoin:miter;stroke-miterlimit:10;stroke-dasharray:none;stroke-opacity:1" id="path40" d="m 595.199,1514.2 c 0,22.86 -18.535,41.4 -41.398,41.4 -22.863,0 -41.403,-18.54 -41.403,-41.4 0,-22.86 18.54,-41.4 41.403,-41.4 22.863,0 41.398,18.54 41.398,41.4"/><path style="fill:#ff1441;fill-opacity:1;fill-rule:evenodd;stroke:none" id="path42" d="m 597,1600.6 c 0,22.86 -18.535,41.4 -41.398,41.4 -22.864,0 -41.403,-18.54 -41.403,-41.4 0,-22.86 18.539,-41.4 41.403,-41.4 22.863,0 41.398,18.54 41.398,41.4"/><path style="fill:none;stroke:#ff1441;stroke-width:7.19999981;stroke-linecap:butt;stroke-linejoin:miter;stroke-miterlimit:10;stroke-dasharray:none;stroke-opacity:1" id="path44" d="m 597,1600.6 c 0,22.86 -18.535,41.4 -41.398,41.4 -22.864,0 -41.403,-18.54 -41.403,-41.4 0,-22.86 18.539,-41.4 41.403,-41.4 22.863,0 41.398,18.54 41.398,41.4"/><path style="fill:#ff1441;fill-opacity:1;fill-rule:evenodd;stroke:none" id="path46" d="m 510.602,1597 c 0,22.86 -18.539,41.4 -41.403,41.4 -22.863,0 -41.398,-18.54 -41.398,-41.4 0,-22.86 18.535,-41.4 41.398,-41.4 22.864,0 41.403,18.54 41.403,41.4"/><path style="fill:none;stroke:#ff1441;stroke-width:7.19999981;stroke-linecap:butt;stroke-linejoin:miter;stroke-miterlimit:10;stroke-dasharray:none;stroke-opacity:1" id="path48" d="m 510.602,1597 c 0,22.86 -18.539,41.4 -41.403,41.4 -22.863,0 -41.398,-18.54 -41.398,-41.4 0,-22.86 18.535,-41.4 41.398,-41.4 22.864,0 41.403,18.54 41.403,41.4"/><path style="fill:#ff1441;fill-opacity:1;fill-rule:evenodd;stroke:none" id="path50" d="m 508.801,1510.6 c 0,22.86 -18.539,41.4 -41.403,41.4 -22.863,0 -41.398,-18.54 -41.398,-41.4 0,-22.86 18.535,-41.4 41.398,-41.4 22.864,0 41.403,18.54 41.403,41.4"/><path style="fill:none;stroke:#ff1441;stroke-width:7.19999981;stroke-linecap:butt;stroke-linejoin:miter;stroke-miterlimit:10;stroke-dasharray:none;stroke-opacity:1" id="path52" d="m 508.801,1510.6 c 0,22.86 -18.539,41.4 -41.403,41.4 -22.863,0 -41.398,-18.54 -41.398,-41.4 0,-22.86 18.535,-41.4 41.398,-41.4 22.864,0 41.403,18.54 41.403,41.4"/><path style="fill:#ff1441;fill-opacity:1;fill-rule:evenodd;stroke:none" id="path54" d="m 508.801,1422.4 c 0,22.86 -18.539,41.4 -41.403,41.4 -22.863,0 -41.398,-18.54 -41.398,-41.4 0,-22.86 18.535,-41.4 41.398,-41.4 22.864,0 41.403,18.54 41.403,41.4"/><path style="fill:none;stroke:#ff1441;stroke-width:7.19999981;stroke-linecap:butt;stroke-linejoin:miter;stroke-miterlimit:10;stroke-dasharray:none;stroke-opacity:1" id="path56" d="m 508.801,1422.4 c 0,22.86 -18.539,41.4 -41.403,41.4 -22.863,0 -41.398,-18.54 -41.398,-41.4 0,-22.86 18.535,-41.4 41.398,-41.4 22.864,0 41.403,18.54 41.403,41.4"/><path style="fill:#ff1441;fill-opacity:1;fill-rule:evenodd;stroke:none" id="path58" d="m 507,1337.8 c 0,22.86 -18.535,41.4 -41.398,41.4 -22.864,0 -41.403,-18.54 -41.403,-41.4 0,-22.86 18.539,-41.4 41.403,-41.4 22.863,0 41.398,18.54 41.398,41.4"/><path style="fill:none;stroke:#ff1441;stroke-width:7.19999981;stroke-linecap:butt;stroke-linejoin:miter;stroke-miterlimit:10;stroke-dasharray:none;stroke-opacity:1" id="path60" d="m 507,1337.8 c 0,22.86 -18.535,41.4 -41.398,41.4 -22.864,0 -41.403,-18.54 -41.403,-41.4 0,-22.86 18.539,-41.4 41.403,-41.4 22.863,0 41.398,18.54 41.398,41.4"/><path style="fill:#ff1441;fill-opacity:1;fill-rule:evenodd;stroke:none" id="path62" d="m 427.801,1598.8 c 0,22.86 -18.539,41.4 -41.403,41.4 -22.863,0 -41.398,-18.54 -41.398,-41.4 0,-22.86 18.535,-41.4 41.398,-41.4 22.864,0 41.403,18.54 41.403,41.4"/><path style="fill:none;stroke:#ff1441;stroke-width:7.19999981;stroke-linecap:butt;stroke-linejoin:miter;stroke-miterlimit:10;stroke-dasharray:none;stroke-opacity:1" id="path64" d="m 427.801,1598.8 c 0,22.86 -18.539,41.4 -41.403,41.4 -22.863,0 -41.398,-18.54 -41.398,-41.4 0,-22.86 18.535,-41.4 41.398,-41.4 22.864,0 41.403,18.54 41.403,41.4"/><path style="fill:#ff1441;fill-opacity:1;fill-rule:evenodd;stroke:none" id="path66" d="m 426,1512.4 c 0,22.86 -18.535,41.4 -41.398,41.4 -22.864,0 -41.403,-18.54 -41.403,-41.4 0,-22.86 18.539,-41.4 41.403,-41.4 22.863,0 41.398,18.54 41.398,41.4"/><path style="fill:none;stroke:#ff1441;stroke-width:7.19999981;stroke-linecap:butt;stroke-linejoin:miter;stroke-miterlimit:10;stroke-dasharray:none;stroke-opacity:1" id="path68" d="m 426,1512.4 c 0,22.86 -18.535,41.4 -41.398,41.4 -22.864,0 -41.403,-18.54 -41.403,-41.4 0,-22.86 18.539,-41.4 41.403,-41.4 22.863,0 41.398,18.54 41.398,41.4"/><path style="fill:#ff1441;fill-opacity:1;fill-rule:evenodd;stroke:none" id="path70" d="m 426,1424.2 c 0,22.86 -18.535,41.4 -41.398,41.4 -22.864,0 -41.403,-18.54 -41.403,-41.4 0,-22.86 18.539,-41.4 41.403,-41.4 22.863,0 41.398,18.54 41.398,41.4"/><path style="fill:none;stroke:#ff1441;stroke-width:7.19999981;stroke-linecap:butt;stroke-linejoin:miter;stroke-miterlimit:10;stroke-dasharray:none;stroke-opacity:1" id="path72" d="m 426,1424.2 c 0,22.86 -18.535,41.4 -41.398,41.4 -22.864,0 -41.403,-18.54 -41.403,-41.4 0,-22.86 18.539,-41.4 41.403,-41.4 22.863,0 41.398,18.54 41.398,41.4"/><path style="fill:#ff1441;fill-opacity:1;fill-rule:evenodd;stroke:none" id="path74" d="m 424.199,1339.6 c 0,22.86 -18.535,41.4 -41.398,41.4 -22.863,0 -41.403,-18.54 -41.403,-41.4 0,-22.86 18.54,-41.4 41.403,-41.4 22.863,0 41.398,18.54 41.398,41.4"/><path style="fill:none;stroke:#ff1441;stroke-width:7.19999981;stroke-linecap:butt;stroke-linejoin:miter;stroke-miterlimit:10;stroke-dasharray:none;stroke-opacity:1" id="path76" d="m 424.199,1339.6 c 0,22.86 -18.535,41.4 -41.398,41.4 -22.863,0 -41.403,-18.54 -41.403,-41.4 0,-22.86 18.54,-41.4 41.403,-41.4 22.863,0 41.398,18.54 41.398,41.4"/><g id="g78" transform="scale(10)"><text style="font-variant:normal;font-weight:400;font-size:10.07999992px;font-family:Helvetica;-inkscape-font-specification:Helvetica;writing-mode:lr-tb;fill:#000;fill-opacity:1;fill-rule:nonzero;stroke:none" id="text84" transform="matrix(1,0,0,-1,22.4398,227.055)"><tspan id="tspan80" x="0 2.238 7.842 12.882 18.487 21.843 27.448 30.804 33.042 38.647" y="0">laserprint</tspan><tspan id="tspan82" x="156.24 164.637 170.241 175.846 178.083 180.886 186.49 189.847 192.649 197.689 202.729 206.086 211.69 217.295" y="25.2">monitor screen</tspan></text></g><path style="fill:none;stroke:#000;stroke-width:7.19999981;stroke-linecap:butt;stroke-linejoin:miter;stroke-miterlimit:10;stroke-dasharray:none;stroke-opacity:1" id="path86" d="m 1866,1217.2 h 338.398 v 345.602 H 1866 Z"/><path style="fill:none;stroke:#000;stroke-width:7.19999981;stroke-linecap:butt;stroke-linejoin:miter;stroke-miterlimit:10;stroke-dasharray:none;stroke-opacity:1" id="path88" d="M 339.602,1296.4 H 678 v 345.602 H 339.602 Z"/><path style="fill:none;stroke:#000;stroke-width:7.19999981;stroke-linecap:butt;stroke-linejoin:miter;stroke-miterlimit:10;stroke-dasharray:none;stroke-opacity:1" id="path90" d="M 332.398,1786 H 678"/><path style="fill:#000;fill-opacity:1;fill-rule:evenodd;stroke:none" id="path92" d="m 317.559,1786 76.043,-19.01 v 38.02"/><path style="fill:none;stroke:#000;stroke-width:7.19999981;stroke-linecap:butt;stroke-linejoin:miter;stroke-miterlimit:10;stroke-dasharray:none;stroke-opacity:1" id="path94" d="M 332.398,1786 390,1771.6 v 28.8 z"/><path style="fill:#000;fill-opacity:1;fill-rule:evenodd;stroke:none" id="path96" d="m 692.844,1786 -76.043,19.01 v -38.02"/><path style="fill:none;stroke:#000;stroke-width:7.19999981;stroke-linecap:butt;stroke-linejoin:miter;stroke-miterlimit:10;stroke-dasharray:none;stroke-opacity:1" id="path98" d="m 678,1786 -57.602,14.4 v -28.8 z"/><g id="g100" transform="scale(10)"><text style="font-variant:normal;font-weight:400;font-size:10.07999992px;font-family:Helvetica;-inkscape-font-specification:Helvetica;writing-mode:lr-tb;fill:#000;fill-opacity:1;fill-rule:nonzero;stroke:none" id="text104" transform="matrix(1,0,0,-1,41.8801,182.415)"><tspan id="tspan102" x="0 5.604 11.209" y="0">1px</tspan></text></g><path style="fill:none;stroke:#000;stroke-width:7.19999981;stroke-linecap:butt;stroke-linejoin:miter;stroke-miterlimit:10;stroke-dasharray:none;stroke-opacity:1" id="path106" d="m 1858.8,1678 h 345.6"/><path style="fill:#000;fill-opacity:1;fill-rule:evenodd;stroke:none" id="path108" d="m 1843.96,1678 76.04,-19.01 v 38.02"/><path style="fill:none;stroke:#000;stroke-width:7.19999981;stroke-linecap:butt;stroke-linejoin:miter;stroke-miterlimit:10;stroke-dasharray:none;stroke-opacity:1" id="path110" d="m 1858.8,1678 57.6,-14.4 v 28.8 z"/><path style="fill:#000;fill-opacity:1;fill-rule:evenodd;stroke:none" id="path112" d="m 2219.24,1678 -76.04,19.01 v -38.02"/><path style="fill:none;stroke:#000;stroke-width:7.19999981;stroke-linecap:butt;stroke-linejoin:miter;stroke-miterlimit:10;stroke-dasharray:none;stroke-opacity:1" id="path114" d="m 2204.4,1678 -57.6,14.4 v -28.8 z"/><g id="g116" transform="scale(10)"><text style="font-variant:normal;font-weight:400;font-size:10.07999992px;font-family:Helvetica;-inkscape-font-specification:Helvetica;writing-mode:lr-tb;fill:#000;fill-opacity:1;fill-rule:nonzero;stroke:none" id="text120" transform="matrix(1,0,0,-1,194.52,172.335)"><tspan id="tspan118" x="0 5.604 11.209" y="0">1px</tspan></text></g><path style="fill:#ff1441;fill-opacity:1;fill-rule:evenodd;stroke:none" id="path122" d="m 2197.2,1390.6 c 0,99.08 -74.14,179.4 -165.6,179.4 -91.46,0 -165.6,-80.32 -165.6,-179.4 0,-99.08 74.14,-179.41 165.6,-179.41 91.46,0 165.6,80.33 165.6,179.41"/><path style="fill:none;stroke:#ff1441;stroke-width:7.19999981;stroke-linecap:butt;stroke-linejoin:miter;stroke-miterlimit:10;stroke-dasharray:none;stroke-opacity:1" id="path124" d="m 2197.2,1390.6 c 0,99.08 -74.14,179.4 -165.6,179.4 -91.46,0 -165.6,-80.32 -165.6,-179.4 0,-99.08 74.14,-179.41 165.6,-179.41 91.46,0 165.6,80.33 165.6,179.41"/><path style="fill:#ff1441;fill-opacity:1;fill-rule:evenodd;stroke:none" id="path126" d="m 202.801,122.801 c 0,47.715 -38.688,86.398 -86.403,86.398 C 68.6836,209.199 30,170.516 30,122.801 30,75.0859 68.6836,36.3984 116.398,36.3984 c 47.715,0 86.403,38.6875 86.403,86.4026"/><path style="fill:none;stroke:#ff1441;stroke-width:7.19999981;stroke-linecap:butt;stroke-linejoin:miter;stroke-miterlimit:10;stroke-dasharray:none;stroke-opacity:1" id="path128" d="m 202.801,122.801 c 0,47.715 -38.688,86.398 -86.403,86.398 C 68.6836,209.199 30,170.516 30,122.801 30,75.0859 68.6836,36.3984 116.398,36.3984 c 47.715,0 86.403,38.6875 86.403,86.4026"/><g id="g130" transform="scale(10)"><text style="font-variant:normal;font-weight:400;font-size:10.07999992px;font-family:Helvetica;-inkscape-font-specification:Helvetica;writing-mode:lr-tb;fill:#000;fill-opacity:1;fill-rule:nonzero;stroke:none" id="text134" transform="matrix(1,0,0,-1,31.0801,3.85547)"><tspan id="tspan132" x="0 5.887 8.689 14.293 17.096 22.7 28.305 33.345 35.582 40.622 46.227 49.029 54.634 56.871 61.911 67.516" y="0">= 1 device pixel</tspan></text></g><path style="fill:#ff1441;fill-opacity:1;fill-rule:evenodd;stroke:none" id="path136" d="m 676.199,1339.6 c 0,22.86 -18.535,41.4 -41.398,41.4 -22.863,0 -41.403,-18.54 -41.403,-41.4 0,-22.86 18.54,-41.4 41.403,-41.4 22.863,0 41.398,18.54 41.398,41.4"/><path style="fill:none;stroke:#ff1441;stroke-width:7.19999981;stroke-linecap:butt;stroke-linejoin:miter;stroke-miterlimit:10;stroke-dasharray:none;stroke-opacity:1" id="path138" d="m 676.199,1339.6 c 0,22.86 -18.535,41.4 -41.398,41.4 -22.863,0 -41.403,-18.54 -41.403,-41.4 0,-22.86 18.54,-41.4 41.403,-41.4 22.863,0 41.398,18.54 41.398,41.4"/><path style="fill:none;stroke:#000;stroke-width:7.19999981;stroke-linecap:butt;stroke-linejoin:miter;stroke-miterlimit:10;stroke-dasharray:none;stroke-opacity:1" id="path140" d="M 825.602,1638.4 V 1300"/><path style="fill:#000;fill-opacity:1;fill-rule:evenodd;stroke:none" id="path142" d="M 825.602,1653.24 806.59,1577.2 h 38.019"/><path style="fill:none;stroke:#000;stroke-width:7.19999981;stroke-linecap:butt;stroke-linejoin:miter;stroke-miterlimit:10;stroke-dasharray:none;stroke-opacity:1" id="path144" d="m 825.602,1638.4 -14.403,-57.6 H 840 Z"/><path style="fill:#000;fill-opacity:1;fill-rule:evenodd;stroke:none" id="path146" d="m 825.602,1285.16 19.007,76.04 H 806.59"/><path style="fill:none;stroke:#000;stroke-width:7.19999981;stroke-linecap:butt;stroke-linejoin:miter;stroke-miterlimit:10;stroke-dasharray:none;stroke-opacity:1" id="path148" d="M 825.602,1300 840,1357.6 h -28.801 z"/><path style="fill:none;stroke:#000;stroke-width:7.19999981;stroke-linecap:butt;stroke-linejoin:miter;stroke-miterlimit:10;stroke-dasharray:none;stroke-opacity:1" id="path150" d="M 2344.8,1573.6 V 1235.2"/><path style="fill:#000;fill-opacity:1;fill-rule:evenodd;stroke:none" id="path152" d="m 2344.8,1588.44 -19.01,-76.04 h 38.02"/><path style="fill:none;stroke:#000;stroke-width:7.19999981;stroke-linecap:butt;stroke-linejoin:miter;stroke-miterlimit:10;stroke-dasharray:none;stroke-opacity:1" id="path154" d="m 2344.8,1573.6 -14.4,-57.6 h 28.8 z"/><path style="fill:#000;fill-opacity:1;fill-rule:evenodd;stroke:none" id="path156" d="m 2344.8,1220.36 19.01,76.04 h -38.02"/><path style="fill:none;stroke:#000;stroke-width:7.19999981;stroke-linecap:butt;stroke-linejoin:miter;stroke-miterlimit:10;stroke-dasharray:none;stroke-opacity:1" id="path158" d="m 2344.8,1235.2 14.4,57.6 h -28.8 z"/><path style="fill:none;stroke:#000;stroke-width:7.19999981;stroke-linecap:butt;stroke-linejoin:miter;stroke-miterlimit:10;stroke-dasharray:none;stroke-opacity:1" id="path160" d="m 1866,871.602 h 338.398 V 1217.2 H 1866 Z"/><path style="fill:#39fb31;fill-opacity:1;fill-rule:evenodd;stroke:none" id="path162" d="m 2197.2,1045 c 0,99.08 -74.14,179.4 -165.6,179.4 -91.46,0 -165.6,-80.32 -165.6,-179.4 0,-99.082 74.14,-179.406 165.6,-179.406 91.46,0 165.6,80.324 165.6,179.406"/><path style="fill:none;stroke:#39fb31;stroke-width:7.19999981;stroke-linecap:butt;stroke-linejoin:miter;stroke-miterlimit:10;stroke-dasharray:none;stroke-opacity:1" id="path164" d="m 2197.2,1045 c 0,99.08 -74.14,179.4 -165.6,179.4 -91.46,0 -165.6,-80.32 -165.6,-179.4 0,-99.082 74.14,-179.406 165.6,-179.406 91.46,0 165.6,80.324 165.6,179.406"/><path style="fill:none;stroke:#000;stroke-width:7.19999981;stroke-linecap:butt;stroke-linejoin:miter;stroke-miterlimit:10;stroke-dasharray:none;stroke-opacity:1" id="path166" d="m 2204.4,871.602 h 338.402 V 1217.2 H 2204.4 Z"/><path style="fill:#5151ff;fill-opacity:1;fill-rule:evenodd;stroke:none" id="path168" d="m 2535.6,1045 c 0,99.08 -74.14,179.4 -165.6,179.4 -91.46,0 -165.6,-80.32 -165.6,-179.4 0,-99.082 74.14,-179.406 165.6,-179.406 91.46,0 165.6,80.324 165.6,179.406"/><path style="fill:none;stroke:#5151ff;stroke-width:7.19999981;stroke-linecap:butt;stroke-linejoin:miter;stroke-miterlimit:10;stroke-dasharray:none;stroke-opacity:1" id="path170" d="m 2535.6,1045 c 0,99.08 -74.14,179.4 -165.6,179.4 -91.46,0 -165.6,-80.32 -165.6,-179.4 0,-99.082 74.14,-179.406 165.6,-179.406 91.46,0 165.6,80.324 165.6,179.406"/><path style="fill:#5151ff;fill-opacity:1;fill-rule:evenodd;stroke:none" id="path172" d="m 1018.2,1253.2 c 0,22.86 -18.536,41.4 -41.399,41.4 -22.863,0 -41.403,-18.54 -41.403,-41.4 0,-22.86 18.54,-41.4 41.403,-41.4 22.863,0 41.399,18.54 41.399,41.4"/><path style="fill:none;stroke:#5151ff;stroke-width:7.19999981;stroke-linecap:butt;stroke-linejoin:miter;stroke-miterlimit:10;stroke-dasharray:none;stroke-opacity:1" id="path174" d="m 1018.2,1253.2 c 0,22.86 -18.536,41.4 -41.399,41.4 -22.863,0 -41.403,-18.54 -41.403,-41.4 0,-22.86 18.54,-41.4 41.403,-41.4 22.863,0 41.399,18.54 41.399,41.4"/><path style="fill:#5151ff;fill-opacity:1;fill-rule:evenodd;stroke:none" id="path176" d="m 1016.4,1166.8 c 0,22.86 -18.537,41.4 -41.4,41.4 -22.863,0 -41.398,-18.54 -41.398,-41.4 0,-22.86 18.535,-41.4 41.398,-41.4 22.863,0 41.4,18.54 41.4,41.4"/><path style="fill:none;stroke:#5151ff;stroke-width:7.19999981;stroke-linecap:butt;stroke-linejoin:miter;stroke-miterlimit:10;stroke-dasharray:none;stroke-opacity:1" id="path178" d="m 1016.4,1166.8 c 0,22.86 -18.537,41.4 -41.4,41.4 -22.863,0 -41.398,-18.54 -41.398,-41.4 0,-22.86 18.535,-41.4 41.398,-41.4 22.863,0 41.4,18.54 41.4,41.4"/><path style="fill:#5151ff;fill-opacity:1;fill-rule:evenodd;stroke:none" id="path180" d="m 1016.4,1078.6 c 0,22.86 -18.537,41.4 -41.4,41.4 -22.863,0 -41.398,-18.54 -41.398,-41.4 0,-22.86 18.535,-41.4 41.398,-41.4 22.863,0 41.4,18.54 41.4,41.4"/><path style="fill:none;stroke:#5151ff;stroke-width:7.19999981;stroke-linecap:butt;stroke-linejoin:miter;stroke-miterlimit:10;stroke-dasharray:none;stroke-opacity:1" id="path182" d="m 1016.4,1078.6 c 0,22.86 -18.537,41.4 -41.4,41.4 -22.863,0 -41.398,-18.54 -41.398,-41.4 0,-22.86 18.535,-41.4 41.398,-41.4 22.863,0 41.4,18.54 41.4,41.4"/><path style="fill:#ff1441;fill-opacity:1;fill-rule:evenodd;stroke:none" id="path184" d="m 676.199,1339.6 c 0,22.86 -18.535,41.4 -41.398,41.4 -22.863,0 -41.403,-18.54 -41.403,-41.4 0,-22.86 18.54,-41.4 41.403,-41.4 22.863,0 41.398,18.54 41.398,41.4"/><path style="fill:none;stroke:#ff1441;stroke-width:7.19999981;stroke-linecap:butt;stroke-linejoin:miter;stroke-miterlimit:10;stroke-dasharray:none;stroke-opacity:1" id="path186" d="m 676.199,1339.6 c 0,22.86 -18.535,41.4 -41.398,41.4 -22.863,0 -41.403,-18.54 -41.403,-41.4 0,-22.86 18.54,-41.4 41.403,-41.4 22.863,0 41.398,18.54 41.398,41.4"/><path style="fill:#5151ff;fill-opacity:1;fill-rule:evenodd;stroke:none" id="path188" d="m 931.801,995.801 c 0,22.859 -18.539,41.399 -41.403,41.399 -22.863,0 -41.398,-18.54 -41.398,-41.399 0,-22.863 18.535,-41.403 41.398,-41.403 22.864,0 41.403,18.54 41.403,41.403"/><path style="fill:none;stroke:#5151ff;stroke-width:7.19999981;stroke-linecap:butt;stroke-linejoin:miter;stroke-miterlimit:10;stroke-dasharray:none;stroke-opacity:1" id="path190" d="m 931.801,995.801 c 0,22.859 -18.539,41.399 -41.403,41.399 -22.863,0 -41.398,-18.54 -41.398,-41.399 0,-22.863 18.535,-41.403 41.398,-41.403 22.864,0 41.403,18.54 41.403,41.403"/><path style="fill:#5151ff;fill-opacity:1;fill-rule:evenodd;stroke:none" id="path192" d="m 933.602,1080.4 c 0,22.86 -18.539,41.4 -41.403,41.4 -22.863,0 -41.398,-18.54 -41.398,-41.4 0,-22.86 18.535,-41.4 41.398,-41.4 22.864,0 41.403,18.54 41.403,41.4"/><path style="fill:none;stroke:#5151ff;stroke-width:7.19999981;stroke-linecap:butt;stroke-linejoin:miter;stroke-miterlimit:10;stroke-dasharray:none;stroke-opacity:1" id="path194" d="m 933.602,1080.4 c 0,22.86 -18.539,41.4 -41.403,41.4 -22.863,0 -41.398,-18.54 -41.398,-41.4 0,-22.86 18.535,-41.4 41.398,-41.4 22.864,0 41.403,18.54 41.403,41.4"/><path style="fill:#5151ff;fill-opacity:1;fill-rule:evenodd;stroke:none" id="path196" d="m 933.602,1168.6 c 0,22.86 -18.539,41.4 -41.403,41.4 -22.863,0 -41.398,-18.54 -41.398,-41.4 0,-22.86 18.535,-41.4 41.398,-41.4 22.864,0 41.403,18.54 41.403,41.4"/><path style="fill:none;stroke:#5151ff;stroke-width:7.19999981;stroke-linecap:butt;stroke-linejoin:miter;stroke-miterlimit:10;stroke-dasharray:none;stroke-opacity:1" id="path198" d="m 933.602,1168.6 c 0,22.86 -18.539,41.4 -41.403,41.4 -22.863,0 -41.398,-18.54 -41.398,-41.4 0,-22.86 18.535,-41.4 41.398,-41.4 22.864,0 41.403,18.54 41.403,41.4"/><path style="fill:#5151ff;fill-opacity:1;fill-rule:evenodd;stroke:none" id="path200" d="m 935.398,1255 c 0,22.86 -18.535,41.4 -41.398,41.4 -22.863,0 -41.398,-18.54 -41.398,-41.4 0,-22.86 18.535,-41.4 41.398,-41.4 22.863,0 41.398,18.54 41.398,41.4"/><path style="fill:none;stroke:#5151ff;stroke-width:7.19999981;stroke-linecap:butt;stroke-linejoin:miter;stroke-miterlimit:10;stroke-dasharray:none;stroke-opacity:1" id="path202" d="m 935.398,1255 c 0,22.86 -18.535,41.4 -41.398,41.4 -22.863,0 -41.398,-18.54 -41.398,-41.4 0,-22.86 18.535,-41.4 41.398,-41.4 22.863,0 41.398,18.54 41.398,41.4"/><path style="fill:#5151ff;fill-opacity:1;fill-rule:evenodd;stroke:none" id="path204" d="m 849,1251.4 c 0,22.86 -18.535,41.4 -41.398,41.4 -22.864,0 -41.403,-18.54 -41.403,-41.4 0,-22.86 18.539,-41.4 41.403,-41.4 22.863,0 41.398,18.54 41.398,41.4"/><path style="fill:none;stroke:#5151ff;stroke-width:7.19999981;stroke-linecap:butt;stroke-linejoin:miter;stroke-miterlimit:10;stroke-dasharray:none;stroke-opacity:1" id="path206" d="m 849,1251.4 c 0,22.86 -18.535,41.4 -41.398,41.4 -22.864,0 -41.403,-18.54 -41.403,-41.4 0,-22.86 18.539,-41.4 41.403,-41.4 22.863,0 41.398,18.54 41.398,41.4"/><path style="fill:#5151ff;fill-opacity:1;fill-rule:evenodd;stroke:none" id="path208" d="m 847.199,1165 c 0,22.86 -18.535,41.4 -41.398,41.4 -22.863,0 -41.403,-18.54 -41.403,-41.4 0,-22.86 18.54,-41.4 41.403,-41.4 22.863,0 41.398,18.54 41.398,41.4"/><path style="fill:none;stroke:#5151ff;stroke-width:7.19999981;stroke-linecap:butt;stroke-linejoin:miter;stroke-miterlimit:10;stroke-dasharray:none;stroke-opacity:1" id="path210" d="m 847.199,1165 c 0,22.86 -18.535,41.4 -41.398,41.4 -22.863,0 -41.403,-18.54 -41.403,-41.4 0,-22.86 18.54,-41.4 41.403,-41.4 22.863,0 41.398,18.54 41.398,41.4"/><path style="fill:#5151ff;fill-opacity:1;fill-rule:evenodd;stroke:none" id="path212" d="m 847.199,1076.8 c 0,22.86 -18.535,41.4 -41.398,41.4 -22.863,0 -41.403,-18.54 -41.403,-41.4 0,-22.86 18.54,-41.4 41.403,-41.4 22.863,0 41.398,18.54 41.398,41.4"/><path style="fill:none;stroke:#5151ff;stroke-width:7.19999981;stroke-linecap:butt;stroke-linejoin:miter;stroke-miterlimit:10;stroke-dasharray:none;stroke-opacity:1" id="path214" d="m 847.199,1076.8 c 0,22.86 -18.535,41.4 -41.398,41.4 -22.863,0 -41.403,-18.54 -41.403,-41.4 0,-22.86 18.54,-41.4 41.403,-41.4 22.863,0 41.398,18.54 41.398,41.4"/><path style="fill:#5151ff;fill-opacity:1;fill-rule:evenodd;stroke:none" id="path216" d="m 845.398,992.199 c 0,22.861 -18.535,41.401 -41.398,41.401 -22.863,0 -41.398,-18.54 -41.398,-41.401 0,-22.863 18.535,-41.398 41.398,-41.398 22.863,0 41.398,18.535 41.398,41.398"/><path style="fill:none;stroke:#5151ff;stroke-width:7.19999981;stroke-linecap:butt;stroke-linejoin:miter;stroke-miterlimit:10;stroke-dasharray:none;stroke-opacity:1" id="path218" d="m 845.398,992.199 c 0,22.861 -18.535,41.401 -41.398,41.401 -22.863,0 -41.398,-18.54 -41.398,-41.401 0,-22.863 18.535,-41.398 41.398,-41.398 22.863,0 41.398,18.535 41.398,41.398"/><path style="fill:#5151ff;fill-opacity:1;fill-rule:evenodd;stroke:none" id="path220" d="m 766.199,1253.2 c 0,22.86 -18.535,41.4 -41.398,41.4 -22.863,0 -41.403,-18.54 -41.403,-41.4 0,-22.86 18.54,-41.4 41.403,-41.4 22.863,0 41.398,18.54 41.398,41.4"/><path style="fill:none;stroke:#5151ff;stroke-width:7.19999981;stroke-linecap:butt;stroke-linejoin:miter;stroke-miterlimit:10;stroke-dasharray:none;stroke-opacity:1" id="path222" d="m 766.199,1253.2 c 0,22.86 -18.535,41.4 -41.398,41.4 -22.863,0 -41.403,-18.54 -41.403,-41.4 0,-22.86 18.54,-41.4 41.403,-41.4 22.863,0 41.398,18.54 41.398,41.4"/><path style="fill:#5151ff;fill-opacity:1;fill-rule:evenodd;stroke:none" id="path224" d="m 764.398,1166.8 c 0,22.86 -18.535,41.4 -41.398,41.4 -22.863,0 -41.398,-18.54 -41.398,-41.4 0,-22.86 18.535,-41.4 41.398,-41.4 22.863,0 41.398,18.54 41.398,41.4"/><path style="fill:none;stroke:#5151ff;stroke-width:7.19999981;stroke-linecap:butt;stroke-linejoin:miter;stroke-miterlimit:10;stroke-dasharray:none;stroke-opacity:1" id="path226" d="m 764.398,1166.8 c 0,22.86 -18.535,41.4 -41.398,41.4 -22.863,0 -41.398,-18.54 -41.398,-41.4 0,-22.86 18.535,-41.4 41.398,-41.4 22.863,0 41.398,18.54 41.398,41.4"/><path style="fill:#5151ff;fill-opacity:1;fill-rule:evenodd;stroke:none" id="path228" d="m 764.398,1078.6 c 0,22.86 -18.535,41.4 -41.398,41.4 -22.863,0 -41.398,-18.54 -41.398,-41.4 0,-22.86 18.535,-41.4 41.398,-41.4 22.863,0 41.398,18.54 41.398,41.4"/><path style="fill:none;stroke:#5151ff;stroke-width:7.19999981;stroke-linecap:butt;stroke-linejoin:miter;stroke-miterlimit:10;stroke-dasharray:none;stroke-opacity:1" id="path230" d="m 764.398,1078.6 c 0,22.86 -18.535,41.4 -41.398,41.4 -22.863,0 -41.398,-18.54 -41.398,-41.4 0,-22.86 18.535,-41.4 41.398,-41.4 22.863,0 41.398,18.54 41.398,41.4"/><path style="fill:#5151ff;fill-opacity:1;fill-rule:evenodd;stroke:none" id="path232" d="m 762.602,994 c 0,22.86 -18.539,41.4 -41.403,41.4 -22.863,0 -41.398,-18.54 -41.398,-41.4 0,-22.863 18.535,-41.398 41.398,-41.398 22.864,0 41.403,18.535 41.403,41.398"/><path style="fill:none;stroke:#5151ff;stroke-width:7.19999981;stroke-linecap:butt;stroke-linejoin:miter;stroke-miterlimit:10;stroke-dasharray:none;stroke-opacity:1" id="path234" d="m 762.602,994 c 0,22.86 -18.539,41.4 -41.403,41.4 -22.863,0 -41.398,-18.54 -41.398,-41.4 0,-22.863 18.535,-41.398 41.398,-41.398 22.864,0 41.403,18.535 41.403,41.398"/><path style="fill:none;stroke:#000;stroke-width:7.19999981;stroke-linecap:butt;stroke-linejoin:miter;stroke-miterlimit:10;stroke-dasharray:none;stroke-opacity:1" id="path236" d="m 678,950.801 h 338.398 v 345.598 H 678 Z"/><path style="fill:#5151ff;fill-opacity:1;fill-rule:evenodd;stroke:none" id="path238" d="m 1014.6,994 c 0,22.86 -18.537,41.4 -41.401,41.4 -22.863,0 -41.398,-18.54 -41.398,-41.4 0,-22.863 18.535,-41.398 41.398,-41.398 22.864,0 41.401,18.535 41.401,41.398"/><path style="fill:none;stroke:#5151ff;stroke-width:7.19999981;stroke-linecap:butt;stroke-linejoin:miter;stroke-miterlimit:10;stroke-dasharray:none;stroke-opacity:1" id="path240" d="m 1014.6,994 c 0,22.86 -18.537,41.4 -41.401,41.4 -22.863,0 -41.398,-18.54 -41.398,-41.4 0,-22.863 18.535,-41.398 41.398,-41.398 22.864,0 41.401,18.535 41.401,41.398"/><path style="fill:#39fb31;fill-opacity:1;fill-rule:evenodd;stroke:none" id="path242" d="m 679.801,1253.2 c 0,22.86 -18.539,41.4 -41.403,41.4 -22.863,0 -41.398,-18.54 -41.398,-41.4 0,-22.86 18.535,-41.4 41.398,-41.4 22.864,0 41.403,18.54 41.403,41.4"/><path style="fill:none;stroke:#39fb31;stroke-width:7.19999981;stroke-linecap:butt;stroke-linejoin:miter;stroke-miterlimit:10;stroke-dasharray:none;stroke-opacity:1" id="path244" d="m 679.801,1253.2 c 0,22.86 -18.539,41.4 -41.403,41.4 -22.863,0 -41.398,-18.54 -41.398,-41.4 0,-22.86 18.535,-41.4 41.398,-41.4 22.864,0 41.403,18.54 41.403,41.4"/><path style="fill:#39fb31;fill-opacity:1;fill-rule:evenodd;stroke:none" id="path246" d="m 678,1166.8 c 0,22.86 -18.535,41.4 -41.398,41.4 -22.864,0 -41.403,-18.54 -41.403,-41.4 0,-22.86 18.539,-41.4 41.403,-41.4 22.863,0 41.398,18.54 41.398,41.4"/><path style="fill:none;stroke:#39fb31;stroke-width:7.19999981;stroke-linecap:butt;stroke-linejoin:miter;stroke-miterlimit:10;stroke-dasharray:none;stroke-opacity:1" id="path248" d="m 678,1166.8 c 0,22.86 -18.535,41.4 -41.398,41.4 -22.864,0 -41.403,-18.54 -41.403,-41.4 0,-22.86 18.539,-41.4 41.403,-41.4 22.863,0 41.398,18.54 41.398,41.4"/><path style="fill:#39fb31;fill-opacity:1;fill-rule:evenodd;stroke:none" id="path250" d="m 678,1078.6 c 0,22.86 -18.535,41.4 -41.398,41.4 -22.864,0 -41.403,-18.54 -41.403,-41.4 0,-22.86 18.539,-41.4 41.403,-41.4 22.863,0 41.398,18.54 41.398,41.4"/><path style="fill:none;stroke:#39fb31;stroke-width:7.19999981;stroke-linecap:butt;stroke-linejoin:miter;stroke-miterlimit:10;stroke-dasharray:none;stroke-opacity:1" id="path252" d="m 678,1078.6 c 0,22.86 -18.535,41.4 -41.398,41.4 -22.864,0 -41.403,-18.54 -41.403,-41.4 0,-22.86 18.539,-41.4 41.403,-41.4 22.863,0 41.398,18.54 41.398,41.4"/><path style="fill:#ff1441;fill-opacity:1;fill-rule:evenodd;stroke:none" id="path254" d="m 676.199,994 c 0,22.86 -18.535,41.4 -41.398,41.4 -22.863,0 -41.403,-18.54 -41.403,-41.4 0,-22.863 18.54,-41.398 41.403,-41.398 22.863,0 41.398,18.535 41.398,41.398"/><path style="fill:none;stroke:#ff1441;stroke-width:7.19999981;stroke-linecap:butt;stroke-linejoin:miter;stroke-miterlimit:10;stroke-dasharray:none;stroke-opacity:1" id="path256" d="m 676.199,994 c 0,22.86 -18.535,41.4 -41.398,41.4 -22.863,0 -41.403,-18.54 -41.403,-41.4 0,-22.863 18.54,-41.398 41.403,-41.398 22.863,0 41.398,18.535 41.398,41.398"/><path style="fill:#39fb31;fill-opacity:1;fill-rule:evenodd;stroke:none" id="path258" d="m 593.398,995.801 c 0,22.859 -18.535,41.399 -41.398,41.399 -22.863,0 -41.398,-18.54 -41.398,-41.399 0,-22.863 18.535,-41.403 41.398,-41.403 22.863,0 41.398,18.54 41.398,41.403"/><path style="fill:none;stroke:#39fb31;stroke-width:7.19999981;stroke-linecap:butt;stroke-linejoin:miter;stroke-miterlimit:10;stroke-dasharray:none;stroke-opacity:1" id="path260" d="m 593.398,995.801 c 0,22.859 -18.535,41.399 -41.398,41.399 -22.863,0 -41.398,-18.54 -41.398,-41.399 0,-22.863 18.535,-41.403 41.398,-41.403 22.863,0 41.398,18.54 41.398,41.403"/><path style="fill:#39fb31;fill-opacity:1;fill-rule:evenodd;stroke:none" id="path262" d="m 595.199,1080.4 c 0,22.86 -18.535,41.4 -41.398,41.4 -22.863,0 -41.403,-18.54 -41.403,-41.4 0,-22.86 18.54,-41.4 41.403,-41.4 22.863,0 41.398,18.54 41.398,41.4"/><path style="fill:none;stroke:#39fb31;stroke-width:7.19999981;stroke-linecap:butt;stroke-linejoin:miter;stroke-miterlimit:10;stroke-dasharray:none;stroke-opacity:1" id="path264" d="m 595.199,1080.4 c 0,22.86 -18.535,41.4 -41.398,41.4 -22.863,0 -41.403,-18.54 -41.403,-41.4 0,-22.86 18.54,-41.4 41.403,-41.4 22.863,0 41.398,18.54 41.398,41.4"/><path style="fill:#39fb31;fill-opacity:1;fill-rule:evenodd;stroke:none" id="path266" d="m 595.199,1168.6 c 0,22.86 -18.535,41.4 -41.398,41.4 -22.863,0 -41.403,-18.54 -41.403,-41.4 0,-22.86 18.54,-41.4 41.403,-41.4 22.863,0 41.398,18.54 41.398,41.4"/><path style="fill:none;stroke:#39fb31;stroke-width:7.19999981;stroke-linecap:butt;stroke-linejoin:miter;stroke-miterlimit:10;stroke-dasharray:none;stroke-opacity:1" id="path268" d="m 595.199,1168.6 c 0,22.86 -18.535,41.4 -41.398,41.4 -22.863,0 -41.403,-18.54 -41.403,-41.4 0,-22.86 18.54,-41.4 41.403,-41.4 22.863,0 41.398,18.54 41.398,41.4"/><path style="fill:#39fb31;fill-opacity:1;fill-rule:evenodd;stroke:none" id="path270" d="m 597,1255 c 0,22.86 -18.535,41.4 -41.398,41.4 -22.864,0 -41.403,-18.54 -41.403,-41.4 0,-22.86 18.539,-41.4 41.403,-41.4 22.863,0 41.398,18.54 41.398,41.4"/><path style="fill:none;stroke:#39fb31;stroke-width:7.19999981;stroke-linecap:butt;stroke-linejoin:miter;stroke-miterlimit:10;stroke-dasharray:none;stroke-opacity:1" id="path272" d="m 597,1255 c 0,22.86 -18.535,41.4 -41.398,41.4 -22.864,0 -41.403,-18.54 -41.403,-41.4 0,-22.86 18.539,-41.4 41.403,-41.4 22.863,0 41.398,18.54 41.398,41.4"/><path style="fill:#39fb31;fill-opacity:1;fill-rule:evenodd;stroke:none" id="path274" d="m 510.602,1251.4 c 0,22.86 -18.539,41.4 -41.403,41.4 -22.863,0 -41.398,-18.54 -41.398,-41.4 0,-22.86 18.535,-41.4 41.398,-41.4 22.864,0 41.403,18.54 41.403,41.4"/><path style="fill:none;stroke:#39fb31;stroke-width:7.19999981;stroke-linecap:butt;stroke-linejoin:miter;stroke-miterlimit:10;stroke-dasharray:none;stroke-opacity:1" id="path276" d="m 510.602,1251.4 c 0,22.86 -18.539,41.4 -41.403,41.4 -22.863,0 -41.398,-18.54 -41.398,-41.4 0,-22.86 18.535,-41.4 41.398,-41.4 22.864,0 41.403,18.54 41.403,41.4"/><path style="fill:#39fb31;fill-opacity:1;fill-rule:evenodd;stroke:none" id="path278" d="m 508.801,1165 c 0,22.86 -18.539,41.4 -41.403,41.4 -22.863,0 -41.398,-18.54 -41.398,-41.4 0,-22.86 18.535,-41.4 41.398,-41.4 22.864,0 41.403,18.54 41.403,41.4"/><path style="fill:none;stroke:#39fb31;stroke-width:7.19999981;stroke-linecap:butt;stroke-linejoin:miter;stroke-miterlimit:10;stroke-dasharray:none;stroke-opacity:1" id="path280" d="m 508.801,1165 c 0,22.86 -18.539,41.4 -41.403,41.4 -22.863,0 -41.398,-18.54 -41.398,-41.4 0,-22.86 18.535,-41.4 41.398,-41.4 22.864,0 41.403,18.54 41.403,41.4"/><path style="fill:#39fb31;fill-opacity:1;fill-rule:evenodd;stroke:none" id="path282" d="m 508.801,1076.8 c 0,22.86 -18.539,41.4 -41.403,41.4 -22.863,0 -41.398,-18.54 -41.398,-41.4 0,-22.86 18.535,-41.4 41.398,-41.4 22.864,0 41.403,18.54 41.403,41.4"/><path style="fill:none;stroke:#39fb31;stroke-width:7.19999981;stroke-linecap:butt;stroke-linejoin:miter;stroke-miterlimit:10;stroke-dasharray:none;stroke-opacity:1" id="path284" d="m 508.801,1076.8 c 0,22.86 -18.539,41.4 -41.403,41.4 -22.863,0 -41.398,-18.54 -41.398,-41.4 0,-22.86 18.535,-41.4 41.398,-41.4 22.864,0 41.403,18.54 41.403,41.4"/><path style="fill:#39fb31;fill-opacity:1;fill-rule:evenodd;stroke:none" id="path286" d="m 507,992.199 c 0,22.861 -18.535,41.401 -41.398,41.401 -22.864,0 -41.403,-18.54 -41.403,-41.401 0,-22.863 18.539,-41.398 41.403,-41.398 22.863,0 41.398,18.535 41.398,41.398"/><path style="fill:none;stroke:#39fb31;stroke-width:7.19999981;stroke-linecap:butt;stroke-linejoin:miter;stroke-miterlimit:10;stroke-dasharray:none;stroke-opacity:1" id="path288" d="m 507,992.199 c 0,22.861 -18.535,41.401 -41.398,41.401 -22.864,0 -41.403,-18.54 -41.403,-41.401 0,-22.863 18.539,-41.398 41.403,-41.398 22.863,0 41.398,18.535 41.398,41.398"/><path style="fill:#39fb31;fill-opacity:1;fill-rule:evenodd;stroke:none" id="path290" d="m 427.801,1253.2 c 0,22.86 -18.539,41.4 -41.403,41.4 -22.863,0 -41.398,-18.54 -41.398,-41.4 0,-22.86 18.535,-41.4 41.398,-41.4 22.864,0 41.403,18.54 41.403,41.4"/><path style="fill:none;stroke:#39fb31;stroke-width:7.19999981;stroke-linecap:butt;stroke-linejoin:miter;stroke-miterlimit:10;stroke-dasharray:none;stroke-opacity:1" id="path292" d="m 427.801,1253.2 c 0,22.86 -18.539,41.4 -41.403,41.4 -22.863,0 -41.398,-18.54 -41.398,-41.4 0,-22.86 18.535,-41.4 41.398,-41.4 22.864,0 41.403,18.54 41.403,41.4"/><path style="fill:#39fb31;fill-opacity:1;fill-rule:evenodd;stroke:none" id="path294" d="m 426,1166.8 c 0,22.86 -18.535,41.4 -41.398,41.4 -22.864,0 -41.403,-18.54 -41.403,-41.4 0,-22.86 18.539,-41.4 41.403,-41.4 22.863,0 41.398,18.54 41.398,41.4"/><path style="fill:none;stroke:#39fb31;stroke-width:7.19999981;stroke-linecap:butt;stroke-linejoin:miter;stroke-miterlimit:10;stroke-dasharray:none;stroke-opacity:1" id="path296" d="m 426,1166.8 c 0,22.86 -18.535,41.4 -41.398,41.4 -22.864,0 -41.403,-18.54 -41.403,-41.4 0,-22.86 18.539,-41.4 41.403,-41.4 22.863,0 41.398,18.54 41.398,41.4"/><path style="fill:#39fb31;fill-opacity:1;fill-rule:evenodd;stroke:none" id="path298" d="m 426,1078.6 c 0,22.86 -18.535,41.4 -41.398,41.4 -22.864,0 -41.403,-18.54 -41.403,-41.4 0,-22.86 18.539,-41.4 41.403,-41.4 22.863,0 41.398,18.54 41.398,41.4"/><path style="fill:none;stroke:#39fb31;stroke-width:7.19999981;stroke-linecap:butt;stroke-linejoin:miter;stroke-miterlimit:10;stroke-dasharray:none;stroke-opacity:1" id="path300" d="m 426,1078.6 c 0,22.86 -18.535,41.4 -41.398,41.4 -22.864,0 -41.403,-18.54 -41.403,-41.4 0,-22.86 18.539,-41.4 41.403,-41.4 22.863,0 41.398,18.54 41.398,41.4"/><path style="fill:#39fb31;fill-opacity:1;fill-rule:evenodd;stroke:none" id="path302" d="m 424.199,994 c 0,22.86 -18.535,41.4 -41.398,41.4 -22.863,0 -41.403,-18.54 -41.403,-41.4 0,-22.863 18.54,-41.398 41.403,-41.398 22.863,0 41.398,18.535 41.398,41.398"/><path style="fill:none;stroke:#39fb31;stroke-width:7.19999981;stroke-linecap:butt;stroke-linejoin:miter;stroke-miterlimit:10;stroke-dasharray:none;stroke-opacity:1" id="path304" d="m 424.199,994 c 0,22.86 -18.535,41.4 -41.398,41.4 -22.863,0 -41.403,-18.54 -41.403,-41.4 0,-22.863 18.54,-41.398 41.403,-41.398 22.863,0 41.398,18.535 41.398,41.398"/><path style="fill:none;stroke:#000;stroke-width:7.19999981;stroke-linecap:butt;stroke-linejoin:miter;stroke-miterlimit:10;stroke-dasharray:none;stroke-opacity:1" id="path306" d="M 339.602,950.801 H 678 v 345.598 H 339.602 Z"/><path style="fill:#39fb31;fill-opacity:1;fill-rule:evenodd;stroke:none" id="path308" d="m 676.199,994 c 0,22.86 -18.535,41.4 -41.398,41.4 -22.863,0 -41.403,-18.54 -41.403,-41.4 0,-22.863 18.54,-41.398 41.403,-41.398 22.863,0 41.398,18.535 41.398,41.398"/><path style="fill:none;stroke:#39fb31;stroke-width:7.19999981;stroke-linecap:butt;stroke-linejoin:miter;stroke-miterlimit:10;stroke-dasharray:none;stroke-opacity:1" id="path310" d="m 676.199,994 c 0,22.86 -18.535,41.4 -41.398,41.4 -22.863,0 -41.403,-18.54 -41.403,-41.4 0,-22.863 18.54,-41.398 41.403,-41.398 22.863,0 41.398,18.535 41.398,41.398"/><path style="fill:none;stroke:#000;stroke-width:7.19999981;stroke-linecap:butt;stroke-linejoin:miter;stroke-miterlimit:10;stroke-dasharray:none;stroke-opacity:1" id="path312" d="m 1196.4,2196.4 169.2,-169.2 V 378.398 H 62.3984 V 2196.4 Z"/><path style="fill:none;stroke:#000;stroke-width:7.19999981;stroke-linecap:butt;stroke-linejoin:miter;stroke-miterlimit:10;stroke-dasharray:none;stroke-opacity:1" id="path314" d="m 1197.3,2196.4 v -170.1 h 169.2"/><path style="fill:none;stroke:#000;stroke-width:7.19999981;stroke-linecap:butt;stroke-linejoin:miter;stroke-miterlimit:10;stroke-dasharray:none;stroke-opacity:1" id="path316" d="m 1639.2,1949.8 h 1364.4 l 61.2,-61.2 V 805 L 3000,740.199 H 1657.2 l -86.4,86.403 V 1881.4 Z"/></g></g></svg>