<svg xmlns="http://www.w3.org/2000/svg" xmlns:svg="http://www.w3.org/2000/svg" id="svg2" width="327" height="235" preserveAspectRatio="xMidYMid slice" version="1.1" viewBox="0 0 326.667 234.667" xml:space="preserve"><metadata id="metadata8"/><g id="g10" transform="matrix(1.3333333,0,0,-1.3333333,0,234.66667)"><g id="g12" transform="scale(0.1)"><path style="fill:#c3c3c3;fill-opacity:1;fill-rule:evenodd;stroke:none" id="path14" d="M 2428,1734.13 V 373.645 L 2132.8,696.93 v 790.25 z"/><path style="fill:none;stroke:#c3c3c3;stroke-width:7.19999981;stroke-linecap:butt;stroke-linejoin:miter;stroke-miterlimit:10;stroke-dasharray:none;stroke-opacity:1" id="path16" d="M 2428,1734.13 V 373.645 L 2132.8,696.93 v 790.25 z"/><path style="fill:none;stroke:#000;stroke-width:7.19999981;stroke-linecap:butt;stroke-linejoin:miter;stroke-miterlimit:10;stroke-dasharray:none;stroke-opacity:1" id="path18" d="M 2168.8,1333.25 V 852.988"/><path style="fill:none;stroke:#000;stroke-width:7.19999981;stroke-linecap:butt;stroke-linejoin:miter;stroke-miterlimit:10;stroke-dasharray:none;stroke-opacity:1" id="path20" d="m 2334.4,833.199 -216,122.403"/><path style="fill:none;stroke:#000;stroke-width:7.19999981;stroke-linecap:butt;stroke-linejoin:miter;stroke-miterlimit:10;stroke-dasharray:none;stroke-opacity:1" id="path22" d="m 2334.4,1308.4 -216,-72"/><path style="fill:#ffc4d0;fill-opacity:1;fill-rule:evenodd;stroke:none" id="path24" d="M 2183.2,1250.8 275.199,1092.4 2183.2,934"/><path style="fill:none;stroke:#000;stroke-width:14.39999962;stroke-linecap:butt;stroke-linejoin:miter;stroke-miterlimit:10;stroke-dasharray:none;stroke-opacity:1" id="path26" d="M 354.398,1250.8 30.3984,1092.4 354.398,934"/><path style="fill:none;stroke:#000;stroke-width:14.39999962;stroke-linecap:butt;stroke-linejoin:miter;stroke-miterlimit:10;stroke-dasharray:none;stroke-opacity:1" id="path28" d="m 289.602,1222 c 0,0 0,0 10.796,-9.6 10.801,-9.6 32.403,-28.8 43.204,-61.2 10.796,-32.4 10.796,-78 0,-110.4 -10.801,-32.4 -32.403,-51.601 -43.204,-61.198 C 289.602,970 289.602,970 289.602,970"/><path style="fill:#c3c3c3;fill-opacity:1;fill-rule:evenodd;stroke:none" id="path30" d="M 1196.8,1459.6 V 689.199 l -172.8,216 V 1286.8 Z"/><path style="fill:none;stroke:#c3c3c3;stroke-width:7.19999981;stroke-linecap:butt;stroke-linejoin:miter;stroke-miterlimit:10;stroke-dasharray:none;stroke-opacity:1" id="path32" d="M 1196.8,1459.6 V 689.199 l -172.8,216 V 1286.8 Z"/><path style="fill:none;stroke:#000;stroke-width:7.19999981;stroke-linecap:butt;stroke-linejoin:miter;stroke-miterlimit:10;stroke-dasharray:none;stroke-opacity:1" id="path34" d="M 1056.4,1219.43 V 979.676"/><path style="fill:none;stroke:#000;stroke-width:7.19999981;stroke-linecap:butt;stroke-linejoin:miter;stroke-miterlimit:10;stroke-dasharray:none;stroke-opacity:1" id="path36" d="M 1124.8,1291.44 V 925.57"/><path style="fill:none;stroke:#000;stroke-width:7.19999981;stroke-linecap:butt;stroke-linejoin:miter;stroke-miterlimit:10;stroke-dasharray:none;stroke-opacity:1" id="path38" d="m 1038.4,1164.4 122.4,57.6"/><path style="fill:none;stroke:#000;stroke-width:7.19999981;stroke-linecap:butt;stroke-linejoin:miter;stroke-miterlimit:10;stroke-dasharray:none;stroke-opacity:1" id="path40" d="m 1038.4,1034.8 115.2,-50.402"/><path style="fill:#ffc4d0;fill-opacity:1;fill-rule:evenodd;stroke:none" id="path42" d="M 1067.2,1171.6 275.199,1092.4 1067.2,1013.2"/><path style="fill:none;stroke:#000;stroke-width:7.19999981;stroke-linecap:butt;stroke-linejoin:miter;stroke-miterlimit:10;stroke-dasharray:none;stroke-opacity:1" id="path44" d="M 2284,1394.26 V 773.711"/><path style="fill:none;stroke:#000;stroke-width:7.19999981;stroke-linecap:butt;stroke-linejoin:miter;stroke-miterlimit:10;stroke-dasharray:none;stroke-opacity:1" id="path46" d="M 275.199,674.801 H 1016.8"/><path style="fill:#000;fill-opacity:1;fill-rule:evenodd;stroke:none" id="path48" d="m 260.355,674.801 76.043,-19.012 v 38.024"/><path style="fill:none;stroke:#000;stroke-width:7.19999981;stroke-linecap:butt;stroke-linejoin:miter;stroke-miterlimit:10;stroke-dasharray:none;stroke-opacity:1" id="path50" d="m 275.199,674.801 57.602,-14.403 v 28.801 z"/><path style="fill:#000;fill-opacity:1;fill-rule:evenodd;stroke:none" id="path52" d="m 1031.64,674.801 -76.038,19.012 v -38.024"/><path style="fill:none;stroke:#000;stroke-width:7.19999981;stroke-linecap:butt;stroke-linejoin:miter;stroke-miterlimit:10;stroke-dasharray:none;stroke-opacity:1" id="path54" d="m 1016.8,674.801 -57.601,14.398 v -28.801 z"/><g id="g56" transform="scale(10)"><text style="font-variant:normal;font-weight:400;font-size:10.07999992px;font-family:Helvetica;-inkscape-font-specification:Helvetica;writing-mode:lr-tb;fill:#000;fill-opacity:1;fill-rule:nonzero;stroke:none" id="text62" transform="matrix(1,0,0,-1,46.9602,55.4555)"><tspan id="tspan58" x="0 5.604 11.209 14.011 16.249 21.853 26.893 32.498 38.102" y="0">28 inches</tspan><tspan id="tspan60" x="0 5.604 11.209 14.011 19.051" y="10.08">71 cm</tspan></text></g><path style="fill:none;stroke:#000;stroke-width:7.19999981;stroke-linecap:butt;stroke-linejoin:miter;stroke-miterlimit:10;stroke-dasharray:none;stroke-opacity:1" id="path64" d="M 282.398,300.398 H 2147.2"/><path style="fill:#000;fill-opacity:1;fill-rule:evenodd;stroke:none" id="path66" d="m 267.559,300.398 76.043,-19.007 v 38.019"/><path style="fill:none;stroke:#000;stroke-width:7.19999981;stroke-linecap:butt;stroke-linejoin:miter;stroke-miterlimit:10;stroke-dasharray:none;stroke-opacity:1" id="path68" d="M 282.398,300.398 340,286 v 28.801 z"/><path style="fill:#000;fill-opacity:1;fill-rule:evenodd;stroke:none" id="path70" d="M 2162.04,300.398 2086,319.41 v -38.019"/><path style="fill:none;stroke:#000;stroke-width:7.19999981;stroke-linecap:butt;stroke-linejoin:miter;stroke-miterlimit:10;stroke-dasharray:none;stroke-opacity:1" id="path72" d="m 2147.2,300.398 -57.6,14.403 V 286 Z"/><g id="g74" transform="scale(10)"><text style="font-variant:normal;font-weight:400;font-size:10.07999992px;font-family:Helvetica;-inkscape-font-specification:Helvetica;writing-mode:lr-tb;fill:#000;fill-opacity:1;fill-rule:nonzero;stroke:none" id="text80" transform="matrix(1,0,0,-1,95.9199,13.6953)"><tspan id="tspan76" x="0 5.604 11.209 16.813 19.616 21.853 27.458 32.498 38.102 43.707" y="0">140 inches</tspan><tspan id="tspan78" x="0 5.604 8.407 14.011 16.813" y="10.08">3.5 m</tspan></text></g><path style="fill:none;stroke:#000;stroke-width:7.19999981;stroke-linecap:butt;stroke-linejoin:miter;stroke-miterlimit:10;stroke-dasharray:none;stroke-opacity:1" id="path82" d="M 952,1187.73 V 994.531"/><path style="fill:#000;fill-opacity:1;fill-rule:evenodd;stroke:none" id="path84" d="m 952,1202.57 -19.012,-76.04 h 38.024"/><path style="fill:none;stroke:#000;stroke-width:7.19999981;stroke-linecap:butt;stroke-linejoin:miter;stroke-miterlimit:10;stroke-dasharray:none;stroke-opacity:1" id="path86" d="m 952,1187.73 -14.398,-57.6 h 28.796 z"/><path style="fill:#000;fill-opacity:1;fill-rule:evenodd;stroke:none" id="path88" d="m 952,979.688 19.012,76.042 h -38.024"/><path style="fill:none;stroke:#000;stroke-width:7.19999981;stroke-linecap:butt;stroke-linejoin:miter;stroke-miterlimit:10;stroke-dasharray:none;stroke-opacity:1" id="path90" d="m 952,994.531 14.398,57.599 h -28.796 z"/><g id="g92" transform="scale(10)"><text style="font-variant:normal;font-weight:400;font-size:10.07999992px;font-family:Helvetica;-inkscape-font-specification:Helvetica;writing-mode:lr-tb;fill:#000;fill-opacity:1;fill-rule:nonzero;stroke:none" id="text96" transform="matrix(1,0,0,-1,56.3199,121.695)"><tspan id="tspan94" x="0 5.604 8.407 14.011 19.616 22.418 30.815" y="0">0.26 mm</tspan></text></g><path style="fill:none;stroke:#000;stroke-width:7.19999981;stroke-linecap:butt;stroke-linejoin:miter;stroke-miterlimit:10;stroke-dasharray:none;stroke-opacity:1" id="path98" d="M 2024.8,1330 V 934"/><path style="fill:#000;fill-opacity:1;fill-rule:evenodd;stroke:none" id="path100" d="m 2024.8,1344.84 -19.01,-76.04 h 38.02"/><path style="fill:none;stroke:#000;stroke-width:7.19999981;stroke-linecap:butt;stroke-linejoin:miter;stroke-miterlimit:10;stroke-dasharray:none;stroke-opacity:1" id="path102" d="m 2024.8,1330 -14.4,-57.6 h 28.8 z"/><path style="fill:#000;fill-opacity:1;fill-rule:evenodd;stroke:none" id="path104" d="m 2024.8,919.156 19.01,76.043 h -38.02"/><path style="fill:none;stroke:#000;stroke-width:7.19999981;stroke-linecap:butt;stroke-linejoin:miter;stroke-miterlimit:10;stroke-dasharray:none;stroke-opacity:1" id="path106" d="m 2024.8,934 14.4,57.602 h -28.8 z"/><g id="g108" transform="scale(10)"><text style="font-variant:normal;font-weight:400;font-size:10.07999992px;font-family:Helvetica;-inkscape-font-specification:Helvetica;writing-mode:lr-tb;fill:#000;fill-opacity:1;fill-rule:nonzero;stroke:none" id="text114" transform="matrix(1,0,0,-1,170.08,133.935)"><tspan id="tspan110" x="0 5.604 8.407 14.011 16.813 25.21" y="0">1.3 mm</tspan><tspan id="tspan112" x="-167.04 -162 -159.762 -154.158 -146.88 -141.276" y="52.38">viewer</tspan></text></g></g></g></svg>