<svg xmlns="http://www.w3.org/2000/svg" xmlns:svg="http://www.w3.org/2000/svg" id="svg2" width="518" height="403" preserveAspectRatio="xMidYMid slice" version="1.1" viewBox="0 0 662.667 516" xml:space="preserve"><metadata id="metadata8"/><path style="fill:gray;fill-opacity:1;fill-rule:evenodd;stroke:none;stroke-width:.13333333" id="path14" d="M 577.21199,395.27294 354.66666,320 3.3937466,437.81827 227.03066,512 Z"/><path style="fill:none;stroke:gray;stroke-width:2.18181324;stroke-linecap:butt;stroke-linejoin:miter;stroke-miterlimit:10;stroke-dasharray:none;stroke-opacity:1" id="path16" d="M 577.21199,395.27294 354.66666,320 3.3937466,437.81827 227.03066,512 Z"/><path style="fill:none;stroke:#000;stroke-width:2.18181324;stroke-linecap:butt;stroke-linejoin:miter;stroke-miterlimit:10;stroke-dasharray:none;stroke-opacity:1" id="path18" d="M 577.62132,396.5 353.98532,321.22667 2.7119733,437.95467 227.43999,512.13645 Z"/><path style="fill:none;stroke:#000;stroke-width:2.18181324;stroke-linecap:butt;stroke-linejoin:miter;stroke-miterlimit:10;stroke-dasharray:none;stroke-opacity:1" id="path20" d="M 577.62132,332.136 355.07599,257.95467 3.8031199,374.68134 227.43999,447.77294 Z"/><path style="fill:gray;fill-opacity:1;fill-rule:evenodd;stroke:none;stroke-width:.13333333" id="path22" d="M 482.30265,237.09067 354.66666,192.36401 3.3937466,310.18134 131.03026,353.81867 Z"/><path style="fill:none;stroke:gray;stroke-width:2.18181324;stroke-linecap:butt;stroke-linejoin:miter;stroke-miterlimit:10;stroke-dasharray:none;stroke-opacity:1" id="path24" d="M 482.30265,237.09067 354.66666,192.36401 3.3937466,310.18134 131.03026,353.81867 Z"/><path style="fill:none;stroke:#000;stroke-width:2.18181324;stroke-linecap:butt;stroke-linejoin:miter;stroke-miterlimit:10;stroke-dasharray:none;stroke-opacity:1" id="path26" d="M 67.757865,333.09067 417.93999,216.36401"/><path style="fill:none;stroke:#000;stroke-width:2.18181324;stroke-linecap:butt;stroke-linejoin:miter;stroke-miterlimit:10;stroke-dasharray:none;stroke-opacity:1" id="path28" d="M 577.62132,268.86401 355.07599,194.68134 3.8031199,311.40934 227.43999,384.5 Z"/><path style="fill:none;stroke:#000;stroke-width:2.18181324;stroke-linecap:butt;stroke-linejoin:miter;stroke-miterlimit:10;stroke-dasharray:none;stroke-opacity:1" id="path30" d="m 131.03026,353.81867 350.18173,-116.728"/><path style="fill:#c3c3c3;fill-opacity:1;fill-rule:evenodd;stroke:none;stroke-width:.13333333" id="path32" d="M 577.21199,203.27201 354.66666,128.00001 3.3937466,245.81734 227.03066,320 Z"/><path style="fill:none;stroke:#c3c3c3;stroke-width:2.18181324;stroke-linecap:butt;stroke-linejoin:miter;stroke-miterlimit:10;stroke-dasharray:none;stroke-opacity:1" id="path34" d="M 577.21199,203.27201 354.66666,128.00001 3.3937466,245.81734 227.03066,320 Z"/><path style="fill:none;stroke:#000;stroke-width:2.18181324;stroke-linecap:butt;stroke-linejoin:miter;stroke-miterlimit:10;stroke-dasharray:none;stroke-opacity:1" id="path36" d="m 5.0302132,246.90934 222.5457768,74.18133 351.272,-116.72666 -223.636,-75.27333 z"/><path style="fill:none;stroke:#000;stroke-width:2.18181324;stroke-linecap:butt;stroke-linejoin:miter;stroke-miterlimit:10;stroke-dasharray:none;stroke-opacity:1" id="path38" d="m 227.03066,171.63601 222.54533,75.27333"/><path style="fill:gray;fill-opacity:1;fill-rule:evenodd;stroke:none;stroke-width:.13333333" id="path40" d="M 577.21199,141.09068 354.66666,65.818678 3.3937466,183.63601 227.03066,257.81867 Z"/><path style="fill:none;stroke:gray;stroke-width:2.18181324;stroke-linecap:butt;stroke-linejoin:miter;stroke-miterlimit:10;stroke-dasharray:none;stroke-opacity:1" id="path42" d="M 577.21199,141.09068 354.66666,65.818678 3.3937466,183.63601 227.03066,257.81867 Z"/><path style="fill:none;stroke:#000;stroke-width:2.18181324;stroke-linecap:butt;stroke-linejoin:miter;stroke-miterlimit:10;stroke-dasharray:none;stroke-opacity:1" id="path44" d="m 5.0302132,184.72667 222.5457768,74.18267 351.272,-116.728 -223.636,-75.271995 z"/><path style="fill:none;stroke:#000;stroke-width:2.18181324;stroke-linecap:butt;stroke-linejoin:miter;stroke-miterlimit:10;stroke-dasharray:none;stroke-opacity:1" id="path46" d="M 290.30266,236.54534 67.757865,162.36401"/><path style="fill:none;stroke:#000;stroke-width:2.18181324;stroke-linecap:butt;stroke-linejoin:miter;stroke-miterlimit:10;stroke-dasharray:none;stroke-opacity:1" id="path48" d="m 131.03026,142.18134 223.6364,74.18267"/><path style="fill:none;stroke:#000;stroke-width:2.18181324;stroke-linecap:butt;stroke-linejoin:miter;stroke-miterlimit:10;stroke-dasharray:none;stroke-opacity:1" id="path50" d="m 227.03066,109.45468 222.54533,75.27199"/><path style="fill:none;stroke:#000;stroke-width:2.18181324;stroke-linecap:butt;stroke-linejoin:miter;stroke-miterlimit:10;stroke-dasharray:none;stroke-opacity:1" id="path52" d="M 290.84799,89.272011 514.48532,162.36401"/><path style="fill:#c3c3c3;fill-opacity:1;fill-rule:evenodd;stroke:none;stroke-width:.13333333" id="path54" d="m 130.89373,161.95468 127.63693,-42.54534 -64.364,-20.727996 -63.27293,20.727996 63.27293,21.81734 -63.27293,20.728 L 3.2578133,119.40934 354.53066,2.6813462 577.07599,76.864011 226.89466,193.59067"/><path style="fill:none;stroke:#c3c3c3;stroke-width:2.18181324;stroke-linecap:butt;stroke-linejoin:miter;stroke-miterlimit:10;stroke-dasharray:none;stroke-opacity:1" id="path56" d="m 130.89373,161.95468 127.63693,-42.54534 -64.364,-20.727996 -63.27293,20.727996 63.27293,21.81734 -63.27293,20.728 L 3.2578133,119.40934 354.53066,2.6813462 577.07599,76.864011 226.89466,193.59067 Z"/><path style="fill:none;stroke:#000;stroke-width:2.18181324;stroke-linecap:butt;stroke-linejoin:miter;stroke-miterlimit:10;stroke-dasharray:none;stroke-opacity:1" id="path58" d="M 3.3937466,119.27201 227.03066,193.45467 577.21199,76.726678 354.66666,1.4546795 Z"/><path style="fill:none;stroke:#000;stroke-width:2.18181324;stroke-linecap:butt;stroke-linejoin:miter;stroke-miterlimit:10;stroke-dasharray:none;stroke-opacity:1" id="path60" d="M 227.03066,44.000012 449.57599,119.27201"/><path style="fill:none;stroke:#000;stroke-width:2.18181324;stroke-linecap:butt;stroke-linejoin:miter;stroke-miterlimit:10;stroke-dasharray:none;stroke-opacity:1" id="path62" d="M 67.757865,140.00001 417.93999,23.272012"/><path style="fill:none;stroke:#000;stroke-width:2.18181324;stroke-linecap:butt;stroke-linejoin:miter;stroke-miterlimit:10;stroke-dasharray:none;stroke-opacity:1" id="path64" d="M 131.03026,160.72668 354.66666,86.545344"/><path style="fill:none;stroke:#000;stroke-width:2.18181324;stroke-linecap:butt;stroke-linejoin:miter;stroke-miterlimit:10;stroke-dasharray:none;stroke-opacity:1" id="path66" d="m 131.03026,76.726678 223.6364,74.182662"/><path style="fill:none;stroke:#000;stroke-width:2.18181324;stroke-linecap:butt;stroke-linejoin:miter;stroke-miterlimit:10;stroke-dasharray:none;stroke-opacity:1" id="path68" d="M 355.21199,43.454678 514.48532,96.909344"/><path style="fill:none;stroke:#000;stroke-width:2.18181324;stroke-linecap:butt;stroke-linejoin:miter;stroke-miterlimit:10;stroke-dasharray:none;stroke-opacity:1" id="path70" d="M 290.30266,171.09068 67.757865,96.909344"/><text id="text86" x="545.985" y="59.073" style="font-variant:normal;font-weight:700;font-size:15.27266693px;font-family:Helvetica;-inkscape-font-specification:Helvetica-Bold;writing-mode:lr-tb;fill:#000;fill-opacity:1;fill-rule:nonzero;stroke:none;stroke-width:1.33333325"><tspan style="stroke-width:1.33333325" id="tspan74" x="545.985 554.477 562.969 567.214 571.46" y="59.073">cells</tspan><tspan style="stroke-width:1.33333325" id="tspan76" x="545.985 551.926 561.258 573.14" y="123.437">rows</tspan><tspan style="stroke-width:1.33333325" id="tspan78" x="545.985 551.926 561.258 573.14 577.386 586.718 592.659 601.99 611.322 620.653" y="187.801">row groups</tspan><tspan style="stroke-width:1.33333325" id="tspan80" x="544.895 553.386 562.718 566.964 576.295 589.873 599.204" y="249.982">columns</tspan><tspan style="stroke-width:1.33333325" id="tspan82" x="545.985 551.071 559.563 568.894 573.14" y="377.619">table</tspan><tspan style="stroke-width:1.33333325" id="tspan84" x="545.985 554.477 563.809 568.054 577.386 590.963 600.295 604.541 613.872 619.813 629.145 638.477 647.808" y="313.255">column groups</tspan></text></svg>