<svg xmlns="http://www.w3.org/2000/svg" xmlns:svg="http://www.w3.org/2000/svg" id="svg2" width="564" height="400" preserveAspectRatio="xMidYMid slice" version="1.1" viewBox="0 0 721.333 512" xml:space="preserve"><metadata id="metadata8"/><defs id="defs6"><clipPath id="clipPath94" clipPathUnits="userSpaceOnUse"><path id="path92" d="M 0,0 H 5410 V 3840 H 0 Z m 207.297,439.781 h 9.613 l 15.793,-98.183 h -41.199 z" style="clip-rule:evenodd"/></clipPath><clipPath id="clipPath108" clipPathUnits="userSpaceOnUse"><path id="path106" d="M 0,0 H 5410 V 3840 H 0 Z m 5179.66,439.781 h 9.61 l 15.79,-98.183 h -41.2 z" style="clip-rule:evenodd"/></clipPath></defs><path style="fill:#000;fill-opacity:1;fill-rule:evenodd;stroke:none;stroke-width:.13333333" id="path14" d="M 47.725955,385.41252 V 130.82199 H 24.473289 v 254.59053 h 23.252666"/><path style="fill:none;stroke:#000;stroke-width:.68659997;stroke-linecap:butt;stroke-linejoin:miter;stroke-miterlimit:10;stroke-dasharray:none;stroke-opacity:1" id="path16" d="M 47.725955,385.41252 V 130.82199 H 24.473289 v 254.59053 z"/><path style="fill:#000;fill-opacity:1;fill-rule:evenodd;stroke:none;stroke-width:.13333333" id="path18" d="M 267.43795,385.41252 V 130.82199 h -34.87866 v 254.59053 h 34.87866"/><path style="fill:none;stroke:#000;stroke-width:.68659997;stroke-linecap:butt;stroke-linejoin:miter;stroke-miterlimit:10;stroke-dasharray:none;stroke-opacity:1" id="path20" d="M 267.43795,385.41252 V 130.82199 h -34.87866 v 254.59053 z"/><path style="fill:#000;fill-opacity:1;fill-rule:evenodd;stroke:none;stroke-width:.13333333" id="path22" d="M 487.24195,385.41252 V 130.82199 h -23.34533 v 254.59053 h 23.34533"/><path style="fill:none;stroke:#000;stroke-width:.68659997;stroke-linecap:butt;stroke-linejoin:miter;stroke-miterlimit:10;stroke-dasharray:none;stroke-opacity:1" id="path24" d="M 487.24195,385.41252 V 130.82199 h -23.34533 v 254.59053 z"/><path style="fill:#000;fill-opacity:1;fill-rule:evenodd;stroke:none;stroke-width:.13333333" id="path26" d="M 708.05261,385.41252 V 130.82199 h -58.132 v 254.59053 h 58.132"/><path style="fill:none;stroke:#000;stroke-width:.68659997;stroke-linecap:butt;stroke-linejoin:miter;stroke-miterlimit:10;stroke-dasharray:none;stroke-opacity:1" id="path28" d="M 708.05261,385.41252 V 130.82199 h -58.132 v 254.59053 z"/><path style="fill:none;stroke:#000;stroke-width:.68659997;stroke-linecap:butt;stroke-linejoin:miter;stroke-miterlimit:10;stroke-dasharray:5.49279986,2.47175994,1.37319997,1.83093329,1.37319997,2.47175994;stroke-dashoffset:0;stroke-opacity:1" id="path30" d="m 197.67929,362.15932 v -219.712 H 70.887421 v 219.712 z"/><path style="fill:none;stroke:#000;stroke-width:.68659997;stroke-linecap:butt;stroke-linejoin:miter;stroke-miterlimit:10;stroke-dasharray:5.49279986,2.47175994,1.37319997,1.83093329,1.37319997,2.47175994;stroke-dashoffset:0;stroke-opacity:1" id="path32" d="m 441.83395,362.15932 v -219.712 H 290.69129 v 219.712 z"/><path style="fill:none;stroke:#000;stroke-width:.68659997;stroke-linecap:butt;stroke-linejoin:miter;stroke-miterlimit:10;stroke-dasharray:5.49279986,2.47175994,1.37319997,1.83093329,1.37319997,2.47175994;stroke-dashoffset:0;stroke-opacity:1" id="path34" d="m 615.04061,362.15932 v -219.712 h -92.92 v 219.712 z"/><path style="fill:#000;fill-opacity:1;fill-rule:evenodd;stroke:none;stroke-width:.13333333" id="path36" d="M 24.473289,397.03851 V 385.41252 H 708.05261 v 11.62599 H 24.473289"/><path style="fill:none;stroke:#000;stroke-width:.68659997;stroke-linecap:butt;stroke-linejoin:miter;stroke-miterlimit:10;stroke-dasharray:none;stroke-opacity:1" id="path38" d="M 24.473289,397.03851 V 385.41252 H 708.05261 v 11.62599 z"/><path style="fill:none;stroke:#000;stroke-width:.68659997;stroke-linecap:butt;stroke-linejoin:miter;stroke-miterlimit:10;stroke-dasharray:none;stroke-opacity:1" id="path40" d="M 24.473289,119.19532 V 84.315323"/><path style="fill:none;stroke:#000;stroke-width:.68659997;stroke-linecap:butt;stroke-linejoin:miter;stroke-miterlimit:10;stroke-dasharray:none;stroke-opacity:1" id="path42" d="M 47.725955,119.19532 V 84.315323"/><path style="fill:none;stroke:#000;stroke-width:.68659997;stroke-linecap:butt;stroke-linejoin:miter;stroke-miterlimit:10;stroke-dasharray:none;stroke-opacity:1" id="path44" d="M 70.887421,119.19532 V 84.315323"/><path style="fill:none;stroke:#000;stroke-width:.68659997;stroke-linecap:butt;stroke-linejoin:miter;stroke-miterlimit:10;stroke-dasharray:none;stroke-opacity:1" id="path46" d="M 197.67929,119.19532 V 84.315323"/><path style="fill:none;stroke:#000;stroke-width:.68659997;stroke-linecap:butt;stroke-linejoin:miter;stroke-miterlimit:10;stroke-dasharray:none;stroke-opacity:1" id="path48" d="M 232.55929,119.19532 V 84.315323"/><path style="fill:none;stroke:#000;stroke-width:.68659997;stroke-linecap:butt;stroke-linejoin:miter;stroke-miterlimit:10;stroke-dasharray:none;stroke-opacity:1" id="path50" d="M 267.43795,119.19532 V 84.315323"/><path style="fill:none;stroke:#000;stroke-width:.68659997;stroke-linecap:butt;stroke-linejoin:miter;stroke-miterlimit:10;stroke-dasharray:none;stroke-opacity:1" id="path52" d="M 708.05261,119.19532 V 84.315323"/><path style="fill:none;stroke:#000;stroke-width:.68659997;stroke-linecap:butt;stroke-linejoin:miter;stroke-miterlimit:10;stroke-dasharray:none;stroke-opacity:1" id="path54" d="M 649.92061,119.19532 V 84.315323"/><path style="fill:none;stroke:#000;stroke-width:.68659997;stroke-linecap:butt;stroke-linejoin:miter;stroke-miterlimit:10;stroke-dasharray:none;stroke-opacity:1" id="path56" d="M 615.04061,119.19532 V 84.315323"/><path style="fill:none;stroke:#000;stroke-width:.68659997;stroke-linecap:butt;stroke-linejoin:miter;stroke-miterlimit:10;stroke-dasharray:none;stroke-opacity:1" id="path58" d="M 522.12061,119.19532 V 84.315323"/><path style="fill:none;stroke:#000;stroke-width:.68659997;stroke-linecap:butt;stroke-linejoin:miter;stroke-miterlimit:10;stroke-dasharray:none;stroke-opacity:1" id="path60" d="M 487.24195,119.19532 V 84.315323"/><path style="fill:none;stroke:#000;stroke-width:.68659997;stroke-linecap:butt;stroke-linejoin:miter;stroke-miterlimit:10;stroke-dasharray:none;stroke-opacity:1" id="path62" d="M 463.89662,119.19532 V 84.315323"/><path style="fill:none;stroke:#000;stroke-width:.68659997;stroke-linecap:butt;stroke-linejoin:miter;stroke-miterlimit:10;stroke-dasharray:none;stroke-opacity:1" id="path64" d="M 441.83395,119.19532 V 84.315323"/><path style="fill:none;stroke:#000;stroke-width:.68659997;stroke-linecap:butt;stroke-linejoin:miter;stroke-miterlimit:10;stroke-dasharray:none;stroke-opacity:1" id="path66" d="M 290.69129,119.19532 V 84.315323"/><text id="text72" x="116.295" y="106.378" style="font-variant:normal;font-weight:400;font-size:16.47839928px;font-family:Helvetica;-inkscape-font-specification:Helvetica;writing-mode:lr-tb;fill:#000;fill-opacity:1;fill-rule:nonzero;stroke:none;stroke-width:1.33333325"><tspan style="stroke-width:1.33333325" id="tspan70" x="116.295 128.192 131.85 141.012 145.593 348.823 360.72 364.379 373.541 378.122 545.282 557.179 560.837 570 574.58" y="106.378">widthwidthwidth</tspan></text><text id="text76" x="-103.541" y="252.882" transform="rotate(-90)" style="font-variant:normal;font-weight:400;font-size:16.47839928px;font-family:Helvetica;-inkscape-font-specification:Helvetica;writing-mode:lr-tb;fill:#000;fill-opacity:1;fill-rule:nonzero;stroke:none;stroke-width:1.33333325"><tspan style="stroke-width:1.33333325" id="tspan74" x="-103.541 -94.379 -85.217 -79.729 -70.567 -61.405 -55.918 -46.295 -34.397 -30.739 -21.577 -16.996" y="252.882">border−width</tspan></text><text id="text80" x="-116.352" y="476.401" transform="rotate(-91.699997)" style="font-variant:normal;font-weight:400;font-size:16.47840118px;font-family:Helvetica;-inkscape-font-specification:Helvetica;writing-mode:lr-tb;fill:#000;fill-opacity:1;fill-rule:nonzero;stroke:none;stroke-width:1.33333325"><tspan style="stroke-width:1.33333325" id="tspan78" x="-116.352 -107.19 -98.028 -92.54 -83.378 -74.216 -68.729 -59.106 -47.208 -43.55 -34.388 -29.807" y="476.401">border−width</tspan></text><text id="text86" x="-103.541" y="681.87" transform="rotate(-90)" style="font-variant:normal;font-weight:400;font-size:16.47839928px;font-family:Helvetica;-inkscape-font-specification:Helvetica;writing-mode:lr-tb;fill:#000;fill-opacity:1;fill-rule:nonzero;stroke:none;stroke-width:1.33333325"><tspan style="stroke-width:1.33333325" id="tspan82" x="-103.541 -94.379 -85.217 -79.729 -70.567 -61.405 -55.918 -46.295 -34.397 -30.739 -21.577 -16.996" y="681.87">border−width</tspan><tspan style="stroke-width:1.33333325" id="tspan84" x="-103.541 -94.379 -85.217 -79.729 -70.567 -61.405 -55.918 -46.295 -34.397 -30.739 -21.577 -16.996" y="39.03">border−width</tspan></text><path style="fill:none;stroke:#000;stroke-width:.68659997;stroke-linecap:butt;stroke-linejoin:bevel;stroke-miterlimit:10;stroke-dasharray:none;stroke-opacity:1" id="path96" d="m 30.149289,456.54425 v 3.02093 l 0.0912,1.46453 0.09173,1.5568 0.183333,1.83067 0.2744,1.9224 0.366134,2.01413 0.457866,2.10574 0.640667,2.1052 0.732267,2.10573 1.007199,2.19733 1.281867,2.28854 1.556267,2.28853 2.014,2.28853 2.288533,2.38027 2.654667,2.28907 2.6552,1.9224 2.837599,1.73906 2.838,1.46507 2.746267,1.2812 2.7464,1.00733 2.746933,0.9156 2.746267,0.73227 2.563066,0.64067 2.654667,0.54946 2.5636,0.45787 2.563466,0.36613 2.380267,0.36614 2.288533,0.1828 2.105734,0.27506 1.9224,0.0911 1.556266,0.18333 1.281734,0.0917 h 0.915066 l 0.6412,0.0911 h 0.2744 0.1828"/><path style="fill:#000;fill-opacity:1;fill-rule:evenodd;stroke:none;stroke-width:.13333333" id="path98" d="m 32.895689,468.99425 -2.7464,-10.98534 -2.7468,10.98534 z"/><path style="fill:none;stroke:#000;stroke-width:.68659997;stroke-linecap:butt;stroke-linejoin:miter;stroke-miterlimit:10;stroke-dasharray:none;stroke-opacity:1" id="path100" d="m 32.895689,468.99425 -2.7464,-10.98534 -2.7468,10.98534 z"/><path style="fill:none;stroke:#000;stroke-width:.68659997;stroke-linecap:butt;stroke-linejoin:bevel;stroke-miterlimit:10;stroke-dasharray:none;stroke-opacity:1" id="path110" d="m 693.12994,456.54425 v 2.1052 l -0.092,1.28186 -0.0907,1.64787 -0.092,1.8308 -0.27467,2.014 -0.27467,2.10573 -0.36533,2.28854 -0.45867,2.28906 -0.64,2.28854 -0.824,2.38026 -1.09866,2.38014 -1.28134,2.38026 -1.55733,2.47187 -1.92133,2.38013 -2.38134,2.47147 -2.65466,2.28893 -2.92934,2.10534 -3.11333,1.73946 -3.112,1.46467 -3.02133,1.19013 -3.02,0.9156 -2.93067,0.73227 -2.92933,0.54947 -2.83734,0.36613 -2.83733,0.27453 -2.656,0.18334 -2.65467,0.1828 h -2.472 -2.196 -1.924 -1.64666 -1.09867 l -0.824,-0.0917 h -0.45733 -0.184"/><path style="fill:#000;fill-opacity:1;fill-rule:evenodd;stroke:none;stroke-width:.13333333" id="path112" d="m 695.87661,468.99425 -2.74667,-10.98534 -2.74666,10.98534 z"/><path style="fill:none;stroke:#000;stroke-width:.68659997;stroke-linecap:butt;stroke-linejoin:miter;stroke-miterlimit:10;stroke-dasharray:none;stroke-opacity:1" id="path114" d="m 695.87661,468.99425 -2.74667,-10.98534 -2.74666,10.98534 z"/><text id="text120" x="-99.421" y="58.162" transform="rotate(-90)" style="font-variant:normal;font-weight:400;font-size:16.47839928px;font-family:Helvetica;-inkscape-font-specification:Helvetica;writing-mode:lr-tb;fill:#000;fill-opacity:1;fill-rule:nonzero;stroke:none;stroke-width:1.33333325"><tspan style="stroke-width:1.33333325" id="tspan118" x="-99.421 -90.259 -81.097 -71.935 -62.773 -59.114 -49.953" y="58.162">padding</tspan></text><text id="text124" x="89.563" y="503.965" style="font-variant:normal;font-weight:400;font-size:16.47839928px;font-family:Helvetica;-inkscape-font-specification:Helvetica;writing-mode:lr-tb;fill:#000;fill-opacity:1;fill-rule:nonzero;stroke:none;stroke-width:1.33333325"><tspan style="stroke-width:1.33333325" id="tspan122" x="89.563 94.144 103.306 112.468 116.126 125.288 129.869 139.031 148.193 153.68 162.842 172.004 177.492 182.073 193.97 197.628 206.79 211.371 505.184 509.765 518.927 528.089 531.747 540.909 545.49 554.652 563.814 569.302 578.464 587.626 593.113 597.694 609.591 613.25 622.412 626.992" y="503.965">table border widthtable border width</tspan></text><text id="text136" x="-99.421" y="219.742" transform="rotate(-90)" style="font-variant:normal;font-weight:400;font-size:16.47839928px;font-family:Helvetica;-inkscape-font-specification:Helvetica;writing-mode:lr-tb;fill:#000;fill-opacity:1;fill-rule:nonzero;stroke:none;stroke-width:1.33333325"><tspan style="stroke-width:1.33333325" id="tspan126" x="-99.421 -90.259 -81.097 -71.935 -62.773 -59.114 -49.953" y="219.742">padding</tspan><tspan style="stroke-width:1.33333325" id="tspan128" x="-99.421 -90.259 -81.097 -71.935 -62.773 -59.114 -49.953" y="277.966">padding</tspan><tspan style="stroke-width:1.33333325" id="tspan130" x="-99.421 -90.259 -81.097 -71.935 -62.773 -59.114 -49.953" y="451.173">padding</tspan><tspan style="stroke-width:1.33333325" id="tspan132" x="-99.421 -90.259 -81.097 -71.935 -62.773 -59.114 -49.953" y="503.537">padding</tspan><tspan style="stroke-width:1.33333325" id="tspan134" x="-99.421 -90.259 -81.097 -71.935 -62.773 -59.114 -49.953" y="631.337">padding</tspan></text><path style="fill:none;stroke:#000;stroke-width:.68659997;stroke-linecap:butt;stroke-linejoin:miter;stroke-miterlimit:10;stroke-dasharray:none;stroke-opacity:1" id="path138" d="M 42.416488,443.63598 H 673.72194"/><path style="fill:#000;fill-opacity:1;fill-rule:evenodd;stroke:none;stroke-width:.13333333" id="path140" d="m 52.303555,446.65731 -12.2672,-3.02133 12.2672,-3.11253"/><path style="fill:none;stroke:#000;stroke-width:.68659997;stroke-linecap:butt;stroke-linejoin:miter;stroke-miterlimit:10;stroke-dasharray:none;stroke-opacity:1" id="path142" d="m 51.754088,445.92451 -9.3376,-2.28853 9.3376,-2.38027"/><path style="fill:#000;fill-opacity:1;fill-rule:evenodd;stroke:none;stroke-width:.13333333" id="path144" d="m 663.83528,440.52345 12.35866,3.11253 -12.35866,3.02133"/><path style="fill:none;stroke:#000;stroke-width:.68659997;stroke-linecap:butt;stroke-linejoin:miter;stroke-miterlimit:10;stroke-dasharray:none;stroke-opacity:1" id="path146" d="m 664.47528,441.25571 9.24666,2.38027 -9.24666,2.28853"/><text id="text152" x="313.943" y="462.678" style="font-variant:normal;font-weight:400;font-size:16.47839928px;font-family:Helvetica;-inkscape-font-specification:Helvetica;writing-mode:lr-tb;fill:#000;fill-opacity:1;fill-rule:nonzero;stroke:none;stroke-width:1.33333325"><tspan style="stroke-width:1.33333325" id="tspan150" x="313.943 319.431 328.593 340.49 345.071 356.968 360.627 369.789 374.37" y="462.678">row width</tspan></text><path style="fill:#000;fill-opacity:1;fill-rule:evenodd;stroke:none;stroke-width:.13333333" id="path154" d="m 244.18595,431.91825 v -34.87974 h 11.62534 v 34.87974 h -11.62534"/><path style="fill:none;stroke:#000;stroke-width:.68659997;stroke-linecap:butt;stroke-linejoin:miter;stroke-miterlimit:10;stroke-dasharray:none;stroke-opacity:1" id="path156" d="m 244.18595,431.91825 v -34.87974 h 11.62534 v 34.87974 z"/><path style="fill:#000;fill-opacity:1;fill-rule:evenodd;stroke:none;stroke-width:.13333333" id="path158" d="m 463.89662,431.91825 v -34.87974 h 23.34533 v 34.87974 h -23.34533"/><path style="fill:#000;fill-opacity:1;fill-rule:evenodd;stroke:none;stroke-width:.13333333" id="path160" d="M 59.352488,431.91825 V 391.27131 H 12.846742 v 40.64694 h 46.505746"/><path style="fill:none;stroke:#000;stroke-width:.68659997;stroke-linecap:butt;stroke-linejoin:miter;stroke-miterlimit:10;stroke-dasharray:none;stroke-opacity:1" id="path162" d="M 59.352488,431.91825 V 391.27131 H 12.846742 v 40.64694 z"/><path style="fill:#000;fill-opacity:1;fill-rule:evenodd;stroke:none;stroke-width:.13333333" id="path164" d="m 673.17261,431.91825 v -34.87974 h 11.62667 v 34.87974 h -11.62667"/><path style="fill:none;stroke:#000;stroke-width:.68659997;stroke-linecap:butt;stroke-linejoin:miter;stroke-miterlimit:10;stroke-dasharray:none;stroke-opacity:1" id="path166" d="m 673.17261,431.91825 v -34.87974 h 11.62667 v 34.87974 z"/><text id="text172" x="118.034" y="83.491" style="font-variant:normal;font-weight:400;font-size:16.47839928px;font-family:Helvetica;-inkscape-font-specification:Helvetica;writing-mode:lr-tb;fill:#000;fill-opacity:1;fill-rule:nonzero;stroke:none;stroke-width:1.33333325"><tspan style="stroke-width:1.33333325" id="tspan170" x="118.034 126.273 135.435 139.093" y="83.491">cell</tspan></text><path style="fill:none;stroke:#f9123f;stroke-width:1.37319994;stroke-linecap:butt;stroke-linejoin:miter;stroke-miterlimit:10;stroke-dasharray:8.23919979;stroke-dashoffset:0;stroke-opacity:1" id="path174" d="M 36.008222,438.05158 V 119.46866"/><path style="fill:none;stroke:#f9123f;stroke-width:1.37319994;stroke-linecap:butt;stroke-linejoin:miter;stroke-miterlimit:10;stroke-dasharray:8.23919979;stroke-dashoffset:0;stroke-opacity:1" id="path176" d="M 250.04462,119.46866 V 438.05158"/><path style="fill:none;stroke:#f9123f;stroke-width:1.37319994;stroke-linecap:butt;stroke-linejoin:miter;stroke-miterlimit:10;stroke-dasharray:8.23919979;stroke-dashoffset:0;stroke-opacity:1" id="path178" d="M 476.16461,118.92066 V 484.00838"/><path style="fill:none;stroke:#f9123f;stroke-width:1.37319994;stroke-linecap:butt;stroke-linejoin:miter;stroke-miterlimit:10;stroke-dasharray:8.23919979;stroke-dashoffset:0;stroke-opacity:1" id="path180" d="M 679.03128,438.05158 V 119.46866"/><path style="fill:none;stroke:#f9123f;stroke-width:1.37319994;stroke-linecap:butt;stroke-linejoin:miter;stroke-miterlimit:10;stroke-dasharray:8.23919979;stroke-dashoffset:0;stroke-opacity:1" id="path182" d="M 36.648888,390.90518 H 679.58061"/><text id="text188" x="481.933" y="473.664" style="font-variant:normal;font-weight:400;font-size:16.47839928px;font-family:Helvetica;-inkscape-font-specification:Helvetica;writing-mode:lr-tb;fill:#f9123f;fill-opacity:1;fill-rule:nonzero;stroke:none;stroke-width:1.33333325"><tspan style="stroke-width:1.33333325" id="tspan186" x="481.933 491.095 496.582 500.24 509.402 513.983 517.641 521.299 530.461" y="473.664">grid line</tspan></text><path style="fill:none;stroke:#000;stroke-width:1.37319994;stroke-linecap:butt;stroke-linejoin:miter;stroke-miterlimit:10;stroke-dasharray:none;stroke-opacity:1" id="path190" d="m 24.289955,458.37505 0.09173,-11.2604 v 6.5916 h 11.443199 v -6.22494 11.07707"/><path style="fill:none;stroke:#000;stroke-width:1.37319994;stroke-linecap:butt;stroke-linejoin:miter;stroke-miterlimit:10;stroke-dasharray:none;stroke-opacity:1" id="path192" d="m 678.75661,463.95945 v -20.23187 9.97867 h 29.38667 v -9.06294 19.31614"/></svg>