<svg xmlns="http://www.w3.org/2000/svg" xmlns:svg="http://www.w3.org/2000/svg" id="svg2" width="441" height="298" preserveAspectRatio="xMidYMid slice" version="1.1" viewBox="0 0 564 381.333" xml:space="preserve"><metadata id="metadata8"/><path style="fill:gray;fill-opacity:1;fill-rule:evenodd;stroke:none;stroke-width:.13333333" id="path14" d="m 398.92399,334.36093 52.224,-315.894258 v 0 L 83.029198,31.204005 125.0636,322.89693"/><path style="fill:#fff;fill-opacity:1;fill-rule:evenodd;stroke:none;stroke-width:.13333333" id="path16" d="m 390.66666,64.000005 v 0 0 L 379.99999,74.666671 H 166.66666 V 282.66667 L 156,293.33333 V 64.000005"/><path style="fill:#000;fill-opacity:1;fill-rule:evenodd;stroke:none;stroke-width:.13333333" id="path18" d="m 166.66666,282.66667 v 0 H 379.99999 V 74.666671 L 390.66666,64.000005 V 293.33333 H 156"/><path style="fill:#000;fill-opacity:1;fill-rule:evenodd;stroke:none;stroke-width:.13333333" id="path20" d="m 241.33333,90.666671 v 0 L 230.66666,101.33334 H 193.33333 V 160 l -10.66667,10.66667 V 90.666671"/><path style="fill:#000;fill-opacity:1;fill-rule:evenodd;stroke:none;stroke-width:.13333333" id="path22" d="m 363.99999,90.666671 v 0 l -5.33333,5.333333 h -42.66667 v 69.333336 l -5.33333,5.33333 V 90.666671"/><path style="fill:#000;fill-opacity:1;fill-rule:evenodd;stroke:none;stroke-width:.13333333" id="path24" d="m 294.66666,90.666671 v 0 l -5.33333,5.333333 h -26.66667 v 69.333336 l -5.33333,5.33333 V 90.666671"/><path style="fill:#000;fill-opacity:1;fill-rule:evenodd;stroke:none;stroke-width:.13333333" id="path26" d="m 241.33333,186.66667 v 0 L 235.99999,192 H 188 v 69.33333 l -5.33334,5.33334 v -80"/><path style="fill:#000;fill-opacity:1;fill-rule:evenodd;stroke:none;stroke-width:.13333333" id="path28" d="m 363.99999,186.66667 v 0 L 358.66666,192 h -42.66667 v 69.33333 l -5.33333,5.33334 v -80"/><path style="fill:#000;fill-opacity:1;fill-rule:evenodd;stroke:none;stroke-width:.13333333" id="path30" d="m 294.66666,186.66667 v 0 L 289.33333,192 h -26.66667 v 69.33333 l -5.33333,5.33334 v -80"/><path style="fill:#fff;fill-opacity:1;fill-rule:evenodd;stroke:none;stroke-width:.13333333" id="path32" d="m 193.33333,160 v 0 h 37.33333 v -58.66666 l 10.66667,-10.666669 v 79.999999 h -58.66667"/><path style="fill:#fff;fill-opacity:1;fill-rule:evenodd;stroke:none;stroke-width:.13333333" id="path34" d="m 315.99999,165.33334 v 0 h 42.66667 V 96.000004 l 5.33333,-5.333333 v 79.999999 h -53.33333"/><path style="fill:#fff;fill-opacity:1;fill-rule:evenodd;stroke:none;stroke-width:.13333333" id="path36" d="m 262.66666,165.33334 v 0 h 26.66667 V 96.000004 l 5.33333,-5.333333 v 79.999999 h -37.33333"/><path style="fill:#fff;fill-opacity:1;fill-rule:evenodd;stroke:none;stroke-width:.13333333" id="path38" d="m 188,261.33333 v 0 h 47.99999 V 192 l 5.33334,-5.33333 v 80 h -58.66667"/><path style="fill:#fff;fill-opacity:1;fill-rule:evenodd;stroke:none;stroke-width:.13333333" id="path40" d="m 315.99999,261.33333 v 0 h 42.66667 V 192 l 5.33333,-5.33333 v 80 h -53.33333"/><path style="fill:#fff;fill-opacity:1;fill-rule:evenodd;stroke:none;stroke-width:.13333333" id="path42" d="m 262.66666,261.33333 v 0 h 26.66667 V 192 l 5.33333,-5.33333 v 80 h -37.33333"/><path style="fill:none;stroke:#000;stroke-width:1.0666666;stroke-linecap:butt;stroke-linejoin:miter;stroke-miterlimit:10;stroke-dasharray:none;stroke-opacity:1" id="path44" d="m 188,261.33333 v 64"/><path style="fill:none;stroke:#000;stroke-width:1.0666666;stroke-linecap:butt;stroke-linejoin:miter;stroke-miterlimit:10;stroke-dasharray:none;stroke-opacity:1" id="path46" d="m 235.99999,261.33333 v 64"/><path style="fill:none;stroke:#000;stroke-width:1.0666666;stroke-linecap:butt;stroke-linejoin:miter;stroke-miterlimit:10;stroke-dasharray:none;stroke-opacity:1" id="path48" d="m 188,320 h 47.99999"/><path style="fill:none;stroke:#000;stroke-width:1.0666666;stroke-linecap:butt;stroke-linejoin:miter;stroke-miterlimit:10;stroke-dasharray:none;stroke-opacity:1" id="path50" d="m 294.66666,266.66667 v 58.66666"/><path style="fill:none;stroke:#000;stroke-width:1.0666666;stroke-linecap:butt;stroke-linejoin:miter;stroke-miterlimit:10;stroke-dasharray:none;stroke-opacity:1" id="path52" d="m 310.66666,266.66667 v 58.66666"/><path style="fill:none;stroke:#000;stroke-width:1.0666666;stroke-linecap:butt;stroke-linejoin:miter;stroke-miterlimit:10;stroke-dasharray:none;stroke-opacity:1" id="path54" d="m 294.66666,320 h 16"/><path style="fill:none;stroke:#000;stroke-width:1.0666666;stroke-linecap:butt;stroke-linejoin:miter;stroke-miterlimit:10;stroke-dasharray:none;stroke-opacity:1" id="path56" d="M 166.66666,74.666671 V 32.000005"/><path style="fill:none;stroke:#000;stroke-width:1.0666666;stroke-linecap:butt;stroke-linejoin:miter;stroke-miterlimit:10;stroke-dasharray:none;stroke-opacity:1" id="path58" d="M 379.99999,74.666671 V 32.000005"/><path style="fill:none;stroke:#000;stroke-width:1.0666666;stroke-linecap:butt;stroke-linejoin:miter;stroke-miterlimit:10;stroke-dasharray:none;stroke-opacity:1" id="path60" d="M 166.66666,37.333339 H 379.99999"/><text id="text66" x="233.297" y="12.664" style="font-variant:normal;font-weight:400;font-size:14.93333244px;font-family:Helvetica;-inkscape-font-specification:Helvetica;writing-mode:lr-tb;fill:#000;fill-opacity:1;fill-rule:nonzero;stroke:none;stroke-width:1.33333325"><tspan style="stroke-width:1.33333325" id="tspan64" x="233.297 237.449 245.752 254.055 257.37 265.673 269.824 280.606 283.921 292.224 296.376" y="12.664">table width</tspan></text><path style="fill:none;stroke:#000;stroke-width:1.0666666;stroke-linecap:butt;stroke-linejoin:miter;stroke-miterlimit:10;stroke-dasharray:none;stroke-opacity:1" id="path68" d="m 363.99999,170.66667 h 90.66667"/><path style="fill:none;stroke:#000;stroke-width:1.0666666;stroke-linecap:butt;stroke-linejoin:miter;stroke-miterlimit:10;stroke-dasharray:none;stroke-opacity:1" id="path70" d="m 363.99999,186.66667 h 90.66667"/><path style="fill:none;stroke:#000;stroke-width:1.0666666;stroke-linecap:butt;stroke-linejoin:miter;stroke-miterlimit:10;stroke-dasharray:none;stroke-opacity:1" id="path72" d="m 449.33332,170.66667 v 16"/><text id="text94" x="460" y="173.223" style="font-variant:normal;font-weight:400;font-size:14.93333244px;font-family:Helvetica;-inkscape-font-specification:Helvetica;writing-mode:lr-tb;fill:#000;fill-opacity:1;fill-rule:nonzero;stroke:none;stroke-width:1.33333325"><tspan style="stroke-width:1.33333325" id="tspan76" x="460 467.467 475.77 480.742 484.894 488.209 495.676 503.979" y="173.223">vertical</tspan><tspan style="stroke-width:1.33333325" id="tspan78" x="460 468.303 476.606 481.579 489.882 498.185 503.157 511.878 519.345 527.648 535.951 543.418 546.733 555.036" y="189.223">border−spacing</tspan><tspan style="stroke-width:1.33333325" id="tspan80" x="277.631 285.934 294.237 299.209 307.512 315.815 320.788 329.509 336.976 345.279 353.582 361.048 364.363 372.666" y="374.403">border−spacing</tspan><tspan style="stroke-width:1.33333325" id="tspan82" x="277.631 285.934 294.237 299.209 302.525 309.991 318.294 326.597 330.749 339.051" y="358.403">horizontal</tspan><tspan style="stroke-width:1.33333325" id="tspan84" x="2.524 6.675 14.978 23.281 26.597 34.899 39.051 47.354 55.657 60.63 68.933 77.235" y="100.784">table border</tspan><tspan style="stroke-width:1.33333325" id="tspan86" x="3.057 8.03 16.333 24.636 28.787 36.254 44.557 48.709" y="116.251">(outset)</tspan><tspan style="stroke-width:1.33333325" id="tspan88" x="183.437 190.904 199.207 202.522 205.837 209.989 220.771 224.086 232.389 236.54" y="358.404">cell width</tspan><tspan style="stroke-width:1.33333325" id="tspan90" x="28.155 35.621 43.924 47.239 50.555 54.706 63.009 71.312 76.285 84.588 92.891" y="200.449">cell border</tspan><tspan style="stroke-width:1.33333325" id="tspan92" x="28.688 33.661 36.976 45.279 52.746 61.049 65.2" y="215.916">(inset)</tspan></text><path style="fill:none;stroke:#000;stroke-width:1.0666666;stroke-linecap:butt;stroke-linejoin:miter;stroke-miterlimit:10;stroke-dasharray:none;stroke-opacity:1" id="path96" d="M 158.18133,94.258671 72.838532,112.09067"/><path style="fill:#000;fill-opacity:1;fill-rule:evenodd;stroke:none;stroke-width:.13333333" id="path98" d="m 148.73066,93.356004 11.60267,0.452 -10.45067,5.061333"/><path style="fill:none;stroke:#000;stroke-width:1.0666666;stroke-linecap:butt;stroke-linejoin:miter;stroke-miterlimit:10;stroke-dasharray:none;stroke-opacity:1" id="path100" d="m 149.392,93.916004 8.78933,0.342667 -7.91733,3.833333"/><path style="fill:none;stroke:#000;stroke-width:1.0666666;stroke-linecap:butt;stroke-linejoin:miter;stroke-miterlimit:10;stroke-dasharray:none;stroke-opacity:1" id="path102" d="M 187.47866,138.84 86.850531,179.60134"/><path style="fill:#000;fill-opacity:1;fill-rule:evenodd;stroke:none;stroke-width:.13333333" id="path104" d="m 178.01733,139.63334 11.49867,-1.61867 -9.384,6.84"/><path style="fill:none;stroke:#000;stroke-width:1.0666666;stroke-linecap:butt;stroke-linejoin:miter;stroke-miterlimit:10;stroke-dasharray:none;stroke-opacity:1" id="path106" d="m 178.768,140.06667 8.71066,-1.22667 -7.10933,5.18134"/><path style="fill:none;stroke:#000;stroke-width:1.0666666;stroke-linecap:butt;stroke-linejoin:miter;stroke-miterlimit:10;stroke-dasharray:none;stroke-opacity:1" id="path108" d="m 363.99999,74.666671 h 90.66667"/><path style="fill:none;stroke:#000;stroke-width:1.0666666;stroke-linecap:butt;stroke-linejoin:miter;stroke-miterlimit:10;stroke-dasharray:none;stroke-opacity:1" id="path110" d="m 363.99999,90.666671 h 90.66667"/><path style="fill:none;stroke:#000;stroke-width:1.0666666;stroke-linecap:butt;stroke-linejoin:miter;stroke-miterlimit:10;stroke-dasharray:none;stroke-opacity:1" id="path112" d="m 449.33332,74.666671 v 16"/><text id="text122" x="460" y="70.201" style="font-variant:normal;font-weight:400;font-size:14.93333244px;font-family:Helvetica;-inkscape-font-specification:Helvetica;writing-mode:lr-tb;fill:#000;fill-opacity:1;fill-rule:nonzero;stroke:none;stroke-width:1.33333325"><tspan style="stroke-width:1.33333325" id="tspan116" x="460 467.467 475.77 480.742 484.894 488.209 495.676 503.979" y="70.201">vertical</tspan><tspan style="stroke-width:1.33333325" id="tspan118" x="460 468.303 476.606 481.579 489.882 498.185 503.157 511.878 519.345 527.648 535.951 543.418 546.733 555.036" y="85.135">border−spacing</tspan><tspan style="stroke-width:1.33333325" id="tspan120" x="460 468.303 476.606 484.909 489.06 497.363 505.666 513.969 522.272 525.587 533.89" y="100.068">and padding</tspan></text></svg>