<svg xmlns="http://www.w3.org/2000/svg" width="420" height="270"><style>:root { transform: translate(.5px, .5px); font-size: 18px; } text,tspan { font-family: sans-serif; fill: currentColor; } .vertical &gt; tspan { text-anchor: start; } .direction { color: red; font-weight: bold; } .area-label &gt; text { color: #444; font-size: 15px} .area-label &gt; line { stroke: #444; stroke-width: 2px; }</style><rect width="100%" height="100%" x="0" y="0" fill="#fff"/><g transform="translate(60,60)"><rect width="360" height="210" x="-30" y="-30" fill="transparent" stroke="#ccc" stroke-dasharray="8" stroke-width="2"/><rect width="300" height="150" fill="#f3f3f3" stroke="#000" stroke-width="7"/><g transform="translate(30,30)"><rect width="240" height="90" fill="transparent" stroke="#aaa" stroke-dasharray="2 3" stroke-width="2"/><g><path fill="none" stroke="#ccc" stroke-width="2" d="M 0,6 c 3,3 6,6 9,6 c 3,0 6,-3 9,-6 c 3,-3 6,-6 9,-6 c 3,0 6,3 9,6 c 3,3 6,6 9,6 c 3,0 6,-3 9,-6 c 3,-3 6,-6 9,-6 c 3,0 6,3 9,6 c 3,3 6,6 9,6 c 3,0 6,-3 9,-6 c 3,-3 6,-6 2,-6 c 3,0 6,3 9,6 c 3,3 6,6 7,6 c 3,0 6,-3 9,-6 c 3,-3 6,-6 9,-6 c 3,0 6,3 9,6 c 3,3 6,6 15,6 c 3,0 6,-3 9,-6 c 3,-3 6,-6 9,-6 c 3,0 6,3 9,6 c 3,3 6,6 9,6 c 3,0 6,-3 5,-6 c 3,-3 6,-6 9,-6 c 3,0 6,3 9,6 c 3,3 6,6 9,6 c 3,0 6,-3 15,-6 c 3,-3 6,-6 9,-6 c 3,0 6,3 9,6 c 3,3 6,6 9,6 c 3,0 6,-3 9,-6 c 3,-3 6,-6 9,-6 c 3,0 6,3 9,6" transform="translate(10,10) scale(.7)" vector-effect="non-scaling-stroke"/><path fill="none" stroke="#ccc" stroke-width="2" d="M 0,35 c 3,0 6,-3 8,-6 c 3,-3 6,-6 9,-6 c 3,0 6,3 3,6 c 3,3 6,6 3,6 c 3,0 6,-3 9,-6 c 3,-3 6,-6 8,-6 c 3,0 6,3 9,6 c 3,3 6,6 9,6 c 3,0 6,-3 8,-6 c 3,-3 6,-6 12,-6 c 3,0 6,3 12,6 c 3,3 6,6 9,6 c 3,0 6,-3 9,-6 c 3,-3 6,-6 9,-6 c 3,0 6,3 9,6 c 3,3 6,6 9,6 c 3,0 6,-3 9,-6 c 3,-3 6,-6 9,-6 c 3,0 6,3 9,6" transform="translate(10,10) scale(.7)" vector-effect="non-scaling-stroke"/></g></g><g><g class="area-label"><text x="5" transform="translate(35,173) translate(0,-62)">content area</text></g><g class="area-label"><text x="5" transform="translate(35,173) translate(0,-34)">padding area</text></g><g class="area-label"><text x="5" transform="translate(35,173) translate(0,-2)">margin area</text></g></g><g class="direction"><g><path stroke="red" stroke-width="3" d="M 35 50 h 230 m 1 1"/><path stroke="red" stroke-width="3" d="M 250 35 v 80"/><path fill="currentcolor" d="M 260 50 v -5 l 10 5 l -10 5 v -5"/><path fill="currentcolor" d="M 40 50 v -5 l -10 5 l 10 5 v -5"/><path fill="currentcolor" d="M 250 40 h -5 l 5 -10 l 5 10 h -5"/><path fill="currentcolor" d="M 250 110 h -5 l 5 10 l 5 -10 h -5"/><text x="245" y="68" text-anchor="end">inner</text><text x="245" y="86" text-anchor="end">size</text></g></g></g></svg>