<svg xmlns="http://www.w3.org/2000/svg" width="420" height="240"><style>:root { transform: translate(.5px, .5px); font-size: 18px; } text,tspan { font-family: sans-serif; text-anchor: middle; fill: currentColor; } .vertical &gt; tspan { text-anchor: start; } .text-end text, .text-end tspan { text-anchor: end; } .text-start text, .text-start tspan { text-anchor: start; } .size { color: red; font-weight: bold; } .direction { color: black; }</style><defs><linearGradient id="direction-hg" x1="0" x2="100%" y1="0" y2="0"><stop offset="0" stop-color="#000" stop-opacity="1"/><stop offset=".1" stop-color="#000" stop-opacity="1"/><stop offset=".25" stop-color="#000" stop-opacity=".2"/><stop offset=".75" stop-color="#000" stop-opacity=".2"/><stop offset=".9" stop-color="#000" stop-opacity="1"/><stop offset="1" stop-color="#000" stop-opacity="1"/></linearGradient><linearGradient id="direction-vg" x1="0" x2="0" y1="0" y2="100%"><stop offset="0" stop-color="#000" stop-opacity="1"/><stop offset=".2" stop-color="#000" stop-opacity="1"/><stop offset=".35" stop-color="#000" stop-opacity=".2"/><stop offset=".8" stop-color="#000" stop-opacity=".2"/><stop offset=".9" stop-color="#000" stop-opacity="1"/><stop offset="1" stop-color="#000" stop-opacity="1"/></linearGradient></defs><rect width="100%" height="100%" x="0" y="0" fill="#fff"/><g transform="translate(40,60)"><rect width="300" height="150" fill="#f3f3f3" stroke="#000" stroke-width="7"/><g class="direction"><g><path stroke="url(#direction-hg)" stroke-width="3" d="M 30 25 h 235 m 1 1"/><path fill="currentcolor" d="M 265 25 v -5 l 10 5 l -10 5 v -5"/><text x="150" y="30">inline direction</text></g><g><path stroke="url(#direction-vg)" stroke-width="3" d="M 0 -60 v 110 m 1 1" transform="translate(45, 75)"/><path fill="currentcolor" d="M 0 50 h -5 l 5 10 l 5 -10 h -5" transform="translate(45, 75)"/><text transform="translate(45, 75)">block</text><text y="20" transform="translate(45, 75)">direction</text></g></g><g style="color:#444;font-style:italic" class="text-end"><text transform="translate(285, 115)">horizontal</text><text y="20" transform="translate(285, 115)">writing mode</text></g><g><text style="font-size:40px;font-weight:700;color:#ccc" transform="translate(170, 85)">English</text></g><g class="size"><g><path fill="transparent" stroke="currentcolor" stroke-width="3" d="M -150 18 v -10 h 300 v 10" transform="translate(150, -30)"/><text transform="translate(150, -30)">width / inline-size</text></g><g><path fill="transparent" stroke="currentcolor" stroke-width="3" d="M -18 0 h 10 v 150 h -10" transform="translate(330, 0)"/><g><text x="75" transform="translate(330, 0) rotate(90)">height / block-size</text></g></g></g></g></svg>