<svg xmlns="http://www.w3.org/2000/svg" xmlns:xlink="http://www.w3.org/1999/xlink" width="500" height="426" viewBox="0 0 500 426" style="background:#fff"><style>text{font-family:sans-serif;font-size:16px}</style><defs><path id="a" d="M0 0h500v400H0z"/><mask id="g" width="500" height="400" x="0" y="0" fill="#fff"><use xlink:href="#a"/></mask><path id="b" d="M0 112h173v214H0z"/><mask id="h" width="173" height="214" x="0" y="0" fill="#fff"><use xlink:href="#b"/></mask><path id="c" d="M0 0h352v102H0z"/><mask id="i" width="352" height="102" x="0" y="0" fill="#fff"><use xlink:href="#c"/></mask><path id="d" d="M183 224h80v102h-80z"/><mask id="j" width="80" height="102" x="0" y="0" fill="#fff"><use xlink:href="#d"/></mask><path id="e" d="M273 224h80v102h-80z"/><mask id="k" width="80" height="102" x="0" y="0" fill="#fff"><use xlink:href="#e"/></mask><path id="f" d="M183 112h170v102H183z"/><mask id="l" width="170" height="102" x="0" y="0" fill="#fff"><use xlink:href="#f"/></mask></defs><g fill="none" fill-rule="evenodd"><use fill="#FFF" stroke="#9B9B9B" stroke-width="4" mask="url(#g)" xlink:href="#a"/><text fill="#9B9B9B"><tspan x="403" y="422">grid container</tspan></text><use fill="#EEE" stroke="#000" stroke-dasharray="3 1" stroke-width="4" mask="url(#h)" xlink:href="#b"/><use fill="#EEE" stroke="#000" stroke-dasharray="3 1" stroke-width="4" mask="url(#i)" xlink:href="#c"/><use fill="#EEE" stroke="#000" stroke-dasharray="3 1" stroke-width="4" mask="url(#j)" xlink:href="#d"/><use fill="#EEE" stroke="#000" stroke-dasharray="3 1" stroke-width="4" mask="url(#k)" xlink:href="#e"/><use fill="#EEE" stroke="#000" stroke-dasharray="3 1" stroke-width="4" mask="url(#l)" xlink:href="#f"/><text fill="#000"><tspan x="278" y="346">grid areas</tspan></text></g></svg>