<svg xmlns="http://www.w3.org/2000/svg" xmlns:svg="http://www.w3.org/2000/svg" id="svg2" width="38.583" height="84.667" version="1.1" viewBox="0 0 36.172 79.376"><defs id="defs4"><marker id="TriangleOutL" orient="auto" refX="0" refY="0" style="overflow:visible"><path id="path4294" d="m 5.77,0 -8.65,5 0,-10 8.65,5 z" transform="scale(0.8,0.8)" style="fill:#000;fill-opacity:1;fill-rule:evenodd;stroke:#000;stroke-width:1pt;stroke-opacity:1"/></marker><marker id="Arrow1Lend" orient="auto" refX="0" refY="0" style="overflow:visible"><path id="path4155" d="M 0,0 5,-5 -12.5,0 5,5 0,0 Z" transform="matrix(-0.8,0,0,-0.8,-10,0)" style="fill:#000;fill-opacity:1;fill-rule:evenodd;stroke:#000;stroke-width:1pt;stroke-opacity:1"/></marker></defs><metadata id="metadata7"/><g id="layer1" transform="translate(-173.81055,-224.44368)"><g style="font-style:normal;font-weight:400;font-size:40px;line-height:125%;font-family:sans-serif;letter-spacing:0;word-spacing:0;fill:#000;fill-opacity:1;stroke:none;stroke-width:1px;stroke-linecap:butt;stroke-linejoin:miter;stroke-opacity:1" id="flowRoot3336"><path style="font-style:normal;font-variant:normal;font-weight:400;font-stretch:normal;font-size:80px;font-family:'Times New Roman';-inkscape-font-specification:'Times New Roman, '" id="path4156" d="m 183.49805,259.66657 q -3.28125,-1.60157 -5.03907,-4.45313 -1.75781,-2.89062 -1.75781,-6.36719 0,-5.3125 3.98438,-9.14062 4.02343,-3.82813 10.27343,-3.82813 5.11719,0 8.86719,2.5 l 7.57813,0 q 1.67968,0 1.95312,0.11719 0.27344,0.0781 0.39063,0.3125 0.23437,0.35156 0.23437,1.25 0,1.01563 -0.19531,1.40625 -0.11719,0.19531 -0.42969,0.3125 -0.27344,0.11719 -1.95312,0.11719 l -4.64844,0 q 2.1875,2.8125 2.1875,7.1875 0,5 -3.82813,8.55469 -3.82812,3.55468 -10.27343,3.55468 -2.65625,0 -5.42969,-0.78125 -1.71875,1.48438 -2.34375,2.61719 -0.58594,1.09375 -0.58594,1.875 0,0.66406 0.625,1.28906 0.66406,0.625 2.53906,0.89844 1.09375,0.15625 5.46875,0.27344 8.04688,0.19531 10.42969,0.54687 3.63281,0.50782 5.78125,2.69532 2.1875,2.1875 2.1875,5.39062 0,4.41406 -4.14062,8.28125 -6.09375,5.70313 -15.89844,5.70313 -7.53906,0 -12.73438,-3.39844 -2.92968,-1.95313 -2.92968,-4.0625 0,-0.9375 0.42968,-1.875 0.66407,-1.44531 2.73438,-4.02344 0.27344,-0.35156 3.98437,-4.21875 -2.03125,-1.21094 -2.89062,-2.14844 -0.82031,-0.97656 -0.82031,-2.1875 0,-1.36718 1.09375,-3.20312 1.13281,-1.83594 5.15625,-5.19531 z m 6.79687,-21.91407 q -2.89062,0 -4.84375,2.30469 -1.95312,2.30469 -1.95312,7.07031 0,6.17188 2.65625,9.57032 2.03125,2.57812 5.15625,2.57812 2.96875,0 4.88281,-2.22656 1.91406,-2.22656 1.91406,-6.99219 0,-6.21094 -2.69531,-9.72656 -1.99219,-2.57813 -5.11719,-2.57813 z m -7.1875,34.96094 q -1.83594,1.99219 -2.77344,3.71094 -0.9375,1.71875 -0.9375,3.16406 0,1.875 2.26563,3.28125 3.90625,2.42188 11.28906,2.42188 7.03125,0 10.35156,-2.5 3.35938,-2.46094 3.35938,-5.27344 0,-2.03125 -1.99219,-2.89063 -2.03125,-0.85937 -8.04687,-1.01562 -8.78907,-0.23438 -13.51563,-0.89844 z"/></g><ellipse id="path3344" cx="191.7" cy="227.779" rx="3.513" ry="3.336"/><path style="fill:none;fill-rule:evenodd;stroke:#000;stroke-width:1.04232192px;stroke-linecap:butt;stroke-linejoin:miter;stroke-opacity:1;marker-end:url(#TriangleOutL)" id="path4428" d="m 191.70346,230.21999 0.62544,67.74685"/></g></svg>