<svg xmlns="http://www.w3.org/2000/svg" xmlns:svg="http://www.w3.org/2000/svg" id="svg2" width="339.169" height="157.373" version="1.1"><defs id="defs4"><marker id="Arrow2Mend" orient="auto" refX="0" refY="0" style="overflow:visible"><path id="path3795" d="M 8.7185878,4.0337352 L -2.2072895,0.016013256 L 8.7185884,-4.0017078 C 6.9730900,-1.6296469 6.9831476,1.6157441 8.7185878,4.0337352 z" transform="scale(0.6) rotate(180) translate(0,0)" style="font-size:12;fill-rule:evenodd;stroke-width:.625;stroke-linejoin:round"/></marker><marker id="Arrow1Sstart" orient="auto" refX="0" refY="0" style="overflow:visible"><path id="path3780" d="M 0.0,0.0 L 5.0,-5.0 L -12.5,0.0 L 5.0,5.0 L 0.0,0.0 z" transform="scale(0.2) translate(6,0)" style="fill-rule:evenodd;stroke:#000;stroke-width:1pt;marker-start:none"/></marker><marker id="Arrow1Send" orient="auto" refX="0" refY="0" style="overflow:visible"><path id="path3783" d="M 0.0,0.0 L 5.0,-5.0 L -12.5,0.0 L 5.0,5.0 L 0.0,0.0 z" transform="scale(0.2) rotate(180) translate(6,0)" style="fill-rule:evenodd;stroke:#000;stroke-width:1pt;marker-start:none"/></marker><marker id="Arrow1Mend" orient="auto" refX="0" refY="0" style="overflow:visible"><path id="path3777" d="M 0.0,0.0 L 5.0,-5.0 L -12.5,0.0 L 5.0,5.0 L 0.0,0.0 z" transform="scale(0.4) rotate(180) translate(10,0)" style="fill-rule:evenodd;stroke:#000;stroke-width:1pt;marker-start:none"/></marker><marker id="Arrow1Lend" orient="auto" refX="0" refY="0" style="overflow:visible"><path id="path3771" d="M 0.0,0.0 L 5.0,-5.0 L -12.5,0.0 L 5.0,5.0 L 0.0,0.0 z" transform="scale(0.8) rotate(180) translate(12.5,0)" style="fill-rule:evenodd;stroke:#000;stroke-width:1pt;marker-start:none"/></marker><marker id="Arrow2Mend-6" orient="auto" refX="0" refY="0" style="overflow:visible"><path id="path3795-1" d="M 8.7185878,4.0337352 -2.2072895,0.01601326 8.7185884,-4.0017078 c -1.7454984,2.3720609 -1.7354408,5.6174519 -6e-7,8.035443 z" transform="scale(-0.6,-0.6)" style="font-size:12px;fill-rule:evenodd;stroke-width:.625;stroke-linejoin:round"/></marker><marker id="Arrow2Mend-8" orient="auto" refX="0" refY="0" style="overflow:visible"><path id="path3795-4" d="M 8.7185878,4.0337352 -2.2072895,0.01601326 8.7185884,-4.0017078 c -1.7454984,2.3720609 -1.7354408,5.6174519 -6e-7,8.035443 z" transform="scale(-0.6,-0.6)" style="font-size:12px;fill-rule:evenodd;stroke-width:.625;stroke-linejoin:round"/></marker></defs><metadata id="metadata7"/><g id="layer1" transform="translate(-163.51313,-221.95719)"><rect style="fill:#0f0;fill-opacity:1;stroke:none" id="rect3879" width="125.259" height="57.954" x="165.665" y="308.263"/><path style="fill:none;stroke:red;stroke-width:2.28347206;stroke-linecap:butt;stroke-linejoin:miter;stroke-miterlimit:4;stroke-opacity:1;stroke-dasharray:none" id="path2991" d="m 164.65487,223.09893 1.01015,155.08925"/><path style="fill:none;stroke:red;stroke-width:2.28347206;stroke-linecap:butt;stroke-linejoin:miter;stroke-miterlimit:4;stroke-opacity:1;stroke-dasharray:none" id="path2991-4" d="m 220.63414,223.09893 1.01015,155.08925"/><path style="fill:none;stroke:red;stroke-width:2.28347206;stroke-linecap:butt;stroke-linejoin:miter;stroke-miterlimit:4;stroke-opacity:1;stroke-dasharray:none" id="path2991-2" d="m 276.61344,223.09893 1.01015,155.08925"/><path style="fill:none;stroke:red;stroke-width:2.28347206;stroke-linecap:butt;stroke-linejoin:miter;stroke-miterlimit:4;stroke-opacity:1;stroke-dasharray:none" id="path2991-3" d="m 332.59274,223.09893 1.01015,155.08925"/><path style="fill:none;stroke:red;stroke-width:2.28347206;stroke-linecap:butt;stroke-linejoin:miter;stroke-miterlimit:4;stroke-opacity:1;stroke-dasharray:none" id="path2991-22" d="m 444.55132,223.09893 1.01015,155.08925"/><path style="fill:none;stroke:red;stroke-width:2.28347206;stroke-linecap:butt;stroke-linejoin:miter;stroke-miterlimit:4;stroke-opacity:1;stroke-dasharray:none" id="path2991-1" d="m 388.57203,223.09893 1.01015,155.08925"/><path style="fill:none;stroke:red;stroke-width:2.28347206;stroke-linecap:butt;stroke-linejoin:miter;stroke-miterlimit:4;stroke-opacity:1;stroke-dasharray:none" id="path2991-6" d="m 500.5306,223.09893 1.01015,155.08925"/><rect style="opacity:.5;fill:#00f;stroke:gray;stroke-width:1.86800003;stroke-miterlimit:4;stroke-opacity:1;stroke-dasharray:none;stroke-dashoffset:0" id="rect2987" width="278.874" height="56.638" x="165.665" y="235.149"/><rect style="opacity:.5;fill:#00f;stroke:gray;stroke-width:1.18436694;stroke-miterlimit:4;stroke-opacity:1;stroke-dasharray:none;stroke-dashoffset:0" id="rect2987-6" width="112.05" height="56.638" x="333.464" y="308.855"/><rect style="opacity:.5;fill:#000;fill-opacity:1;stroke:gray;stroke-width:1.86800003;stroke-miterlimit:4;stroke-opacity:1;stroke-dasharray:1.868,1.868;stroke-dashoffset:0" id="rect2987-3" width="31.336" height="56.638" x="444.987" y="235.149"/><rect style="opacity:.5;fill:#000;fill-opacity:1;stroke:gray;stroke-width:1.86800003;stroke-miterlimit:4;stroke-opacity:1;stroke-dasharray:1.868,1.868;stroke-dashoffset:0" id="rect2987-3-3" width="31.336" height="56.638" x="445.214" y="309.197"/><rect style="opacity:.5;fill:#000;fill-opacity:1;stroke:gray;stroke-width:1.86800003;stroke-miterlimit:4;stroke-opacity:1;stroke-dasharray:1.868,1.868;stroke-dashoffset:0" id="rect2987-3-3-2" width="31.336" height="56.638" x="301.772" y="309.197"/><path style="fill:none;stroke:#000;stroke-width:1px;stroke-linecap:butt;stroke-linejoin:miter;stroke-opacity:1;marker-end:url(#Arrow2Mend)" id="path2995" d="m 311,73.206059 c -5.16667,9.333333 -9.5,11.5 -26.5,0.166667" transform="translate(163.51313,221.95719)"/><path style="fill:none;stroke:#000;stroke-width:1px;stroke-linecap:butt;stroke-linejoin:miter;stroke-opacity:1;marker-end:url(#Arrow2Mend)" id="path2995-8" d="m 475.06676,369.09762 c -5.16667,9.33333 -9.5,11.5 -26.49999,0.16667"/><path style="fill:none;stroke:#000;stroke-width:1px;stroke-linecap:butt;stroke-linejoin:miter;stroke-opacity:1;marker-end:url(#Arrow2Mend)" id="path2995-0" d="m 303.79284,368.76429 c 5.16667,9.33333 9.5,11.5 26.49999,0.16667"/><text style="font-size:40px;font-style:oblique;font-variant:normal;font-weight:400;font-stretch:normal;text-align:start;line-height:125%;letter-spacing:0;word-spacing:0;writing-mode:lr-tb;text-anchor:start;fill:#000;fill-opacity:1;stroke:none;font-family:Sans;-inkscape-font-specification:Sans Oblique" id="text5554" x="182.015" y="351.322" xml:space="preserve"><tspan id="tspan5556" x="182.015" y="351.322">Float</tspan></text></g></svg>