<svg xmlns="http://www.w3.org/2000/svg" width="800" height="300"><style type="text/css">.background{fill-opacity:1;rx:0;ry:0;fill:#fff}line,rect{stroke-width:2}line{stroke:#333;stroke-dasharray:8 5}.implicit{stroke:red}text{font-size:20px;font-family:monospace;text-anchor:middle}rect{fill-opacity:.8;rx:10px;ry:10px}.item-1{fill:#d1dffa;stroke:#5e8eed}.bold{font-weight:700}.end{text-anchor:end}.implicit-text{fill:red}</style><rect width="800" height="600" x="0" y="0" class="background"/><g><g><text x="230" y="0" class="bold end" transform="translate(0, 50)">Line numbers:</text><text x="230" y="30" class="bold end" transform="translate(0, 50)">Negative numbers:</text><text x="230" y="60" class="bold end" transform="translate(0, 50)">Line names:</text></g><g><text x="5" y="0" class="end" transform="translate(400, 50)">1</text><text x="105" y="0" class="end" transform="translate(400, 50)">2</text><text x="200" y="0" class="implicit-text" transform="translate(400, 50)">3</text><text x="300" y="0" class="implicit-text" transform="translate(400, 50)">4</text></g><g><text x="0" y="0" class="implicit-text" transform="translate(300, 80)">-3</text><text x="105" y="0" class="end" transform="translate(300, 80)">-2</text><text x="205" y="0" class="end" transform="translate(300, 80)">-1</text></g><g><text x="0" y="0" class="implicit-text" transform="translate(300, 110)">[foo]</text></g><g transform="translate(300, 130)"><line x1="0" x2="0" y1="0" y2="100" class="dashed implicit"/><line x1="100" x2="100" y1="0" y2="100" class="dashed"/><line x1="200" x2="200" y1="0" y2="100" class="dashed"/><line x1="300" x2="300" y1="0" y2="100" class="dashed implicit"/><line x1="400" x2="400" y1="0" y2="100" class="dashed implicit"/><line x1="0" x2="100" y1="0" y2="0" class="dashed implicit"/><line x1="0" x2="100" y1="100" y2="100" class="dashed implicit"/><line x1="100" x2="200" y1="0" y2="0" class="dashed"/><line x1="100" x2="200" y1="100" y2="100" class="dashed"/><line x1="200" x2="400" y1="0" y2="0" class="dashed implicit"/><line x1="200" x2="400" y1="100" y2="100" class="dashed implicit"/><g transform="translate(0, 0)"><rect width="390" height="90" x="5" y="5" class="item-1"/><text x="200" y="50" fill="hsl(220, 80%, 65%)" class="bold">grid-column: span foo / 4;</text></g></g></g></svg>