<svg xmlns="http://www.w3.org/2000/svg" xmlns:svg="http://www.w3.org/2000/svg" id="Calque_1" width="500" height="360" x="0" y="0" enable-background="new 0 0 327 235" version="1.1" viewBox="0 0 327 235" xml:space="preserve"><metadata id="metadata95"/><polygon id="polygon3" points="161.431 148.434 137.083 117.482 137.083 100.898 137.395 84.732 137.395 68.665 161.431 44.989" clip-rule="evenodd" transform="translate(2.616,-1.308)" style="fill:#c2c2c2;fill-rule:evenodd"/><polygon id="polygon5" points="285.258 81.04 285.258 39.065 324.5 6.065 324.5 188.398 284.75 145.565 284.75 107.433" clip-rule="evenodd" transform="translate(-2.616,0)" style="fill:#c2c2c2;fill-rule:evenodd"/><path id="path7" d="m 49.793,196.498 c 10.317,0.046 20.635,0.129 30.953,0.131 64.916,0.012 129.833,0.007 194.75,0 1.995,0 3.99,-0.086 5.984,-0.132 0,0.757 0,1.514 0,2.271 -10.65,-0.046 -21.301,-0.129 -31.952,-0.131 -64.583,-0.012 -129.167,-0.007 -193.75,0 -1.995,0 -3.99,0.086 -5.985,0.132 0,-0.757 0,-1.514 0,-2.271 z" clip-rule="evenodd" style="fill:#777;fill-rule:evenodd"/><path id="path13" d="m 312.319,126.295 c 0.324,-0.467 0.658,-0.467 0.982,0 -0.324,0.467 -0.658,0.467 -0.982,0 z" clip-rule="evenodd" style="fill:#3e3e3e;fill-rule:evenodd"/><rect id="rect17" width="1.275" height="32.167" x="143.533" y="76.148"/><line id="line19" x1="144.199" x2="158.449" y1="82.232" y2="75.982" stroke-miterlimit="10" style="fill:none;stroke:#231f20;stroke-width:1;stroke-miterlimit:10"/><line id="line21" x1="288.226" x2="312.142" y1="70.398" y2="61.398" stroke-miterlimit="10" style="fill:none;stroke:#231f20;stroke-width:1;stroke-miterlimit:10"/><line id="line23" x1="144.163" x2="158.486" y1="101.817" y2="107.896" stroke-miterlimit="10" style="fill:none;stroke:#231f20;stroke-width:1;stroke-miterlimit:10"/><line id="line25" x1="288.021" x2="312.808" y1="112.817" y2="126.232" stroke-miterlimit="10" style="fill:none;stroke:#231f20;stroke-width:1;stroke-miterlimit:10"/><polygon id="polygon39" points="144.5 102.455 37.065 92.181 144.5 82.065" clip-rule="evenodd" transform="translate(2.616,0)" style="fill:#fec5d0;fill-rule:evenodd"/><g id="g27" transform="translate(2.616,0)"><path id="path29" d="m 46.625,91.711 c 0,-6.129 -2.799,-11.616 -7.185,-15.253 L 6.713,92.125 38.785,107.479 c 4.759,-3.623 7.84,-9.34 7.84,-15.768 z" style="fill:none"/><path id="path31" d="m 40.794,108.44 c -0.301,0.252 -0.607,0.497 -0.922,0.733 l -2.377,-0.783 c 0.197,-0.126 0.392,-0.256 0.584,-0.39 0.241,-0.167 0.474,-0.345 0.707,-0.522 L 6.713,92.125 39.44,76.458 C 39.169,76.233 38.894,76.014 38.611,75.804 37.806,75.205 40,75.18 40,75.18 l 0.999,-0.024 c 0.137,0.118 0.268,0.243 0.402,0.364 l 7.441,-3.563 -0.792,-1.653 -43.459,20.804 -2.028,1.017 2.028,1.016 43.46,20.806 0.792,-1.653 -8.049,-3.854 z"/><path id="path33" d="m 46.625,91.711 c 0,6.428 -3.081,12.145 -7.84,15.767 l 2.009,0.962 c 4.783,-4.005 7.831,-10.018 7.831,-16.729 0,-6.422 -2.794,-12.197 -7.224,-16.192 l -1.96,0.938 c 4.385,3.638 7.184,9.125 7.184,15.254 z"/><path id="path35" d="m 38.079,108 c -0.192,0.134 -0.387,0.264 -0.584,0.39 l 2.377,0.783 c 0.314,-0.236 0.621,-0.481 0.922,-0.733 l -2.009,-0.962 c -0.233,0.177 -0.466,0.355 -0.706,0.522 z"/><path id="path37" d="m 40,75.18 c 0,0 -2.194,0.025 -1.389,0.624 0.283,0.21 0.558,0.429 0.829,0.654 L 41.4,75.52 C 41.266,75.399 41.135,75.274 40.998,75.156 L 40,75.18 z"/></g><polygon id="polygon41" points="128.063 77.44 125.125 87.836 130.875 87.836" transform="matrix(0.70273692,0,0,0.70273692,45.725687,25.625552)"/><polygon id="polygon45" points="130.875 96.69 125.125 96.69 127.938 107.086" transform="matrix(0.70273692,0,0,0.70273692,45.725687,29.841974)"/><rect id="rect47" width="1.417" height="62.168" x="290.975" y="60.731"/><polygon id="polygon49" points="161.375 80.753 292.026 70.012 292.026 112.784 161.375 101.565" clip-rule="evenodd" transform="matrix(1,0,0,1.0920168,2.616,-7.0477856)" style="fill:#fec5d0;fill-rule:evenodd"/><polygon id="polygon43" points="271.063 57.94 268.125 68.336 273.875 68.336" transform="translate(8,10)"/><polygon id="polygon51" points="268.125 104.857 270.938 115.253 273.875 104.857" transform="translate(8,2)"/><rect id="rect53" width="1.581" height="14.066" x="134.856" y="85.462"/><rect id="rect55" width="2.25" height="31.028" x="277.834" y="76.156"/><polygon id="polygon57" points="126.261 145.055 126.261 150.805 136.657 147.992" transform="translate(6.616,0)"/><polygon id="polygon59" points="279.594 200.509 289.99 197.696 279.594 194.759" transform="translate(2.616,0)"/><polygon id="polygon61" points="46.407 145.055 36.01 147.867 46.407 150.805" transform="translate(2.616,0)"/><polygon id="polygon63" points="46.407 194.759 36.01 197.571 46.407 200.509" transform="translate(2.616,0)"/><rect id="rect65" width="86.872" height="2.25" x="47.773" y="146.764"/><rect id="rect67" width="235.905" height="2.25" x="47.774" y="196.509"/><rect id="rect69" width="1.275" height="48.417" x="152.699" y="66.731"/><rect id="rect71" width="1.417" height="80.834" x="306.058" y="52.231"/><text id="text73" x="227.311" y="63.287" font-size="13.5" style="font-size:13.5px;font-family:ArialMT">1.3 mm</text><text id="text75" x="74.781" y="76.565" font-size="13.5" style="font-size:13.5px;font-family:ArialMT">0.26 mm</text><text id="text77" x="139.782" y="215.974" style="font-size:12px"><tspan id="tspan79" x="139.782" y="215.974" font-size="13.5" style="font-size:13.5px;font-family:ArialMT">138 inch</tspan><tspan id="tspan81" x="139.782" y="229.974" font-size="13.5" style="font-size:13.5px;font-family:ArialMT">3.5 m</tspan></text><text id="text83" x="67.45" y="164.565" style="font-size:12px"><tspan id="tspan85" x="67.45" y="164.565" font-size="13.5" style="font-size:13.5px;font-family:ArialMT">28 inch</tspan><tspan id="tspan87" x="67.45" y="178.565" font-size="13.5" style="font-size:13.5px;font-family:ArialMT">71 cm</tspan></text><text id="text89" x="10.783" y="124.564" font-size="13.5" style="font-size:13.5px;font-family:ArialMT">viewer</text></svg>