<svg xmlns="http://www.w3.org/2000/svg" xmlns:svg="http://www.w3.org/2000/svg" style="fill-rule:evenodd" id="svg3543" width="100%" height="100%" clip-rule="evenodd" image-rendering="optimizeQuality" shape-rendering="geometricPrecision" text-rendering="geometricPrecision" version="1.1" viewBox="0 0 210.501 201.847" xml:space="preserve"><metadata id="metadata3601"/><defs id="defs3545"><linearGradient id="id0" x1="20" x2="20" y1="51.805" y2="8.197" gradientUnits="userSpaceOnUse"><stop id="stop3548" offset="0" stop-color="#fff"/><stop id="stop3550" offset="1" stop-color="#1e90ff"/></linearGradient><linearGradient id="id1" x1="49.999" x2="49.999" y1="51.805" y2="8.197" gradientUnits="userSpaceOnUse"><stop id="stop3553" offset="0" stop-color="#fff"/><stop id="stop3555" offset="1" stop-color="#1e90ff"/></linearGradient><linearGradient id="id2" x1="79.999" x2="79.999" y1="51.805" y2="8.197" gradientUnits="userSpaceOnUse"><stop id="stop3558" offset="0" stop-color="#fff"/><stop id="stop3560" offset="1" stop-color="#1e90ff"/></linearGradient><linearGradient id="id3" x1="108.194" x2="151.802" y1="80" y2="80" gradientUnits="userSpaceOnUse"><stop id="stop3563" offset="0" stop-color="#fff"/><stop id="stop3565" offset="1" stop-color="#1e90ff"/></linearGradient><linearGradient id="id4" x1="108.194" x2="151.802" y1="110" y2="110" gradientUnits="userSpaceOnUse"><stop id="stop3568" offset="0" stop-color="#fff"/><stop id="stop3570" offset="1" stop-color="#1e90ff"/></linearGradient><linearGradient id="id5" x1="108.194" x2="151.802" y1="140" y2="140" gradientUnits="userSpaceOnUse"><stop id="stop3573" offset="0" stop-color="#fff"/><stop id="stop3575" offset="1" stop-color="#1e90ff"/></linearGradient></defs><g id="Layer_x0020_1" transform="translate(1.3437504,40.502996)"><metadata id="CorelCorpID_0Corel-Layer"/><path id="path3579" d="m 76.5716,110 3.42727,0 c 0,-16.5641 -13.4354,-29.9996 -29.9996,-29.9996 l 0,1.04239 0,2.38488 c 14.6714,0 26.5723,11.901 26.5723,26.5723 z" style="fill:#1e90ff"/><polyline id="polyline3581" points="49.285 -30.503 49.28 109.273 199.157 109.273" style="fill:none;stroke:#000;stroke-width:2.00011992"/><path id="path3583" d="M 8.96427,51.8052 8.9589787,21.8033 19.994479,8.197 l 11.0407,13.5912 0.0053,30.0019 -22.0762,0.01512 z M 8.9612464,36.8035 M 14.476326,15.0002 m 11.0385,-0.0076 m 5.5234,21.7958 m -11.0362,15.0092" style="fill:url(#id0);fill-rule:nonzero;stroke:#87cefa;stroke-width:.57599902"/><path id="path3585" d="M 38.9639,51.8052 38.9586,21.8033 49.9941,8.197 61.0348,21.7882 61.0401,51.7901 38.9639,51.80522 z m -0.003,-15.0017 m 5.51508,-21.8033 m 11.0385,-0.0076 m 5.5234,21.7958 m -11.0362,15.0092" style="fill:url(#id1);fill-rule:nonzero;stroke:#87cefa;stroke-width:.57599902"/><path id="path3587" d="M 68.9634,51.8052 68.9581,21.8033 79.9936,8.197 91.0343,21.7882 91.0396,51.7901 68.9634,51.80522 z m -0.003,-15.0017 m 5.51508,-21.8033 m 11.0385,-0.0076 m 5.5234,21.7958 m -11.0362,15.0092" style="fill:url(#id2);fill-rule:nonzero;stroke:#87cefa;stroke-width:.57599902"/><path id="path3589" d="m 108.194,68.965 30.0019,-0.0053 13.6063,11.0355 -13.5912,11.0407 -30.0019,0.0053 -0.0151,-22.0762 z m 15.0017,-0.003 m 21.8033,5.51508 m 0.008,11.0385 m -21.7958,5.5234 M 108.202,80.00278" style="fill:url(#id3);fill-rule:nonzero;stroke:#87cefa;stroke-width:.57599902"/><path id="path3591" d="m 108.194,98.9645 30.0019,-0.0053 13.6063,11.0355 -13.5912,11.0407 -30.0019,0.005 -0.0151,-22.076199 z m 15.0017,-0.003 m 21.8033,5.51508 m 0.008,11.0385 m -21.7958,5.5234 m -15.0092,-11.0362" style="fill:url(#id4);fill-rule:nonzero;stroke:#87cefa;stroke-width:.57599902"/><path id="path3593" d="m 108.194,128.964 30.0019,-0.005 13.6063,11.0355 -13.5912,11.0407 -30.0019,0.005 -0.0151,-22.0762 z m 15.0017,-0.003 m 21.8033,5.51508 m 0.008,11.0385 m -21.7958,5.5234 m -15.0092,-11.0362" style="fill:url(#id5);fill-rule:nonzero;stroke:#87cefa;stroke-width:.57599902"/><path id="path3595" d="m 103.94,25.3273 c 12.5132,0 22.3581,10.6137 22.3581,23.9614 l -3.75609,0 6.76157,11.2721 6.75325,-11.2721 -3.74853,0 c 0,-16.5982 -12.808,-29.8477 -28.3683,-29.8477 l 0,5.88623 z" style="fill:tomato;stroke:red;stroke-width:2.66683006"/><text id="text3597" x="68.685" y="86.17" font-size="16" font-weight="normal" style="font-size:16.00020027px;font-weight:400;fill:#000;font-family:Arial">90°</text></g></svg>