<svg xmlns="http://www.w3.org/2000/svg" xmlns:svg="http://www.w3.org/2000/svg" id="svg4463" width="100%" height="100%" clip-rule="evenodd" version="1.1" viewBox="0 0 220 160" xml:space="preserve" style="fill:#fff;fill-rule:evenodd"><metadata id="metadata4514"/><defs id="defs4465"><linearGradient id="id0" x1="58.653" x2="58.653" y1="52.537" y2="25.183" gradientTransform="matrix(1.6,0,0,1.6,0.58821,-60.063712)" gradientUnits="userSpaceOnUse"><stop id="stop4468" offset="0" stop-color="#fff"/><stop id="stop4470" offset="1" stop-color="#1e90ff"/></linearGradient><linearGradient id="id1" x1="39.585" x2="39.585" y1="35.631" y2="96.789" gradientTransform="matrix(1.6,0,0,1.6,0.58821,-60.063712)" gradientUnits="userSpaceOnUse"><stop id="stop4473" offset="0" stop-color="#fff"/><stop id="stop4475" offset="1" stop-color="#3C3"/></linearGradient><linearGradient id="id2" x1="55.477" x2="112.599" y1="55.399" y2="55.399" gradientTransform="matrix(1.6,0,0,1.6,0.58821,-60.063712)" gradientUnits="userSpaceOnUse"><stop id="stop4478" offset="0" stop-color="#fff"/><stop id="stop4480" offset="1" stop-color="#F93"/></linearGradient></defs><g id="Layer_x0020_1" transform="translate(0,59.637001)"><metadata id="CorelCorpID_0Corel-Layer"/><path id="path4484" d="m 83.35733,23.995808 -0.0053,-30.11088 11.075584,-13.65576 11.080896,13.640592 0.005,30.11088 -22.15648,0.01517 z m -0.003,-15.05624 m 5.535136,-21.88256 m 11.078608,-0.0076 m 5.543486,21.87504 M 94.435192,23.988285" style="fill:url(#id0);fill-rule:nonzero;stroke:#87cefa;stroke-width:.57809436"/><g id="g4486" transform="matrix(1.5999056,0.01743744,-0.01743744,1.5999056,-26.95771,-94.578432)"><text id="text4488" x="69.044" y="73.6" font-size="23.418" font-weight="bold" style="font-size:23.41819954px;font-weight:700;fill:#000;font-family:Palatino Linotype">Text</text><text id="text4490" x="69.088" y="97.018" font-size="23.418" font-weight="bold" style="font-size:23.41819954px;font-weight:700;fill:#000;font-family:Palatino Linotype">Flow</text></g><path id="path4492" d="m 55.20677,-3.053952 0,55.91584 -9.992224,0 18.70992,41.936802 18.70912,-41.936802 -9.992224,0 0,-55.91584 -17.43456,0 z m 0,27.95712 m -4.995728,27.95872 m 4.358464,20.968482 m 18.70912,0 M 77.63709,52.861888 m -4.995728,-27.95872 m -8.716928,-27.95712" style="fill:url(#id1);fill-rule:nonzero;stroke:#cfc;stroke-width:.57809436"/><path id="path4494" d="m 89.35141,27.378688 66.25552,0 0,-2.923088 25.13952,4.119488 -25.13952,4.12024 0,-2.923088 -66.25552,0 0,-2.393552 z m 33.12736,0 m 33.12816,-1.461925 m 12.56938,0.598577 m 0,4.12024 m -12.56938,0.598578 M 122.47877,29.772233 M 89.35141,28.575078" style="fill:url(#id2);fill-rule:nonzero;stroke:#fc6;stroke-width:.57809436"/><text style="font-size:16.05760002px;font-weight:400;fill:#f93;font-family:Arial" id="text4498" x="10.124" y="-202.778" font-size="10.036" font-weight="normal" transform="matrix(0,1,-1,0,0,0)">inline</text><text style="font-size:16.05760002px;font-weight:400;fill:#f93;font-family:Arial" id="text4500" x="-19.141" y="-184.838" font-size="10.036" font-weight="normal" transform="matrix(0,1,-1,0,0,0)">base direction</text><text id="text4502" x="83.232" y="-43.24" font-size="10.036" font-weight="normal" style="font-size:16.05760002px;font-weight:400;fill:#1e90ff;font-family:Arial">line</text><text id="text4504" x="58.872" y="-25.301" font-size="10.036" font-weight="normal" style="font-size:16.05760002px;font-weight:400;fill:#1e90ff;font-family:Arial">orientation</text><text style="font-size:16.05760002px;font-weight:400;fill:#3c3;font-family:Arial" id="text4508" x="-48.91" y="19.262" font-size="10.036" font-weight="normal" transform="matrix(0,-1,1,0,0,0)">block</text><text style="font-size:16.05760002px;font-weight:400;fill:#3c3;font-family:Arial" id="text4510" x="-78.784" y="37.201" font-size="10.036" font-weight="normal" transform="matrix(0,-1,1,0,0,0)">flow direction</text></g></svg>