<svg xmlns="http://www.w3.org/2000/svg" overflow="visible" viewBox="-70 -70 140 140"><desc>Show the L=50 plane of the CIE Lab colorspace. Two colors to be mixed are visualized on this plane, with an arc to show where the intermediate colors lie. teal (#008080) is lch(47.9855% 31.6903 196.4524) lab(47.9855% -30.3927 -8.9753) olive (#808000) is lch(52.1496% 56.8124 99.5746) lab(52.1496% -9.4497 56.0210) mix is lch(49.4429% 40.4830 162.5452) which is rgb(7.7377% 52.5730% 37.3213%) lab(49.4429% -38.6189 12.1430)</desc><g fill="none" stroke="#000" stroke-width=".5"><polyline stroke="#777" stroke-dasharray="2" stroke-width=".7" points="-9.45 -56.021 -13.834 -53.806 -17.913 -51.26 -21.665 -48.418 -25.068 -45.317 -28.106 -41.994 -30.768 -38.49 -33.044 -34.843 -34.929 -31.093 -36.425 -27.279 -37.533 -23.441 -38.26 -19.615 -38.618 -15.837 -38.619 -12.143 -38.281 -8.564 -37.622 -5.132 -36.667 -1.872 -35.439 1.188 -33.964 4.029 -32.272 6.63"/><polyline points="0 -60 0 60"/><polyline points="-60 0 60 0"/><g stroke="#888"><path d="M-3,-60 h6 M-3,-50 h6 M-3,-40 h6 M-3,-30 h6 M-3,-20 h6 M-3,-10 h6 M-3,10 h6 M-3,20 h6 M-3,30 h6 M-3,40 h6 M-3,50 h6 M-3,60 h6"/><path d="M60,-3 v6 M50,-3 v6 M40,-3 v6 M30,-3 v6 M20,-3 v6 M10,-3 v6 M-10,-3 v6 M-20,-3 v6 M-30,-3 v6 M-40,-3 v6 M-50,-3 v6 M-60,-3 v6"/></g><polyline stroke="teal" points="0 0 -30.393 8.975"/><polyline stroke="olive" points="0 0 -9.45 -56.021"/><polyline stroke="rgb(7.7377% 52.5730% 37.3213%)" points="0 0 -38.619 -12.143"/></g><g stroke="none" stroke-width=".5"><circle cx="-30.393" cy="8.975" r="3" fill="teal"/><circle cx="-9.45" cy="-56.021" r="3" fill="olive"/><circle cx="-38.619" cy="-12.143" r="3" fill="rgb(7.7377% 52.5730% 37.3213%)"/></g><circle r="4"/><circle r="3" fill="#777"/><circle r="2" fill="#fff"/><g font-family="sans-serif" font-size="8"><text x="60" y="-4" text-anchor="middle">+a</text><text x="-60" y="-4" text-anchor="middle">-a</text><text x="4" y="62">-b</text><text x="4" y="-58">+b</text></g></svg>