<svg xmlns="http://www.w3.org/2000/svg" overflow="visible" viewBox="-60 -60 120 120"><desc>Show the L=50 plane of the CIE Lab colorspace. Two colors to be mixed are visualized on this plane, with an arc to show where the intermediate colors lie. peru lch(62.253% 54.011 63.677) rgb(80.39% 52.16% 24.71%) lab(62.253, 23.95015324432121, 48.41051828449609) lightgoldenrod lch(91.374% 31.415 98.821) rgb(93.33% 90.98% 66.67%) lab(91.374, -4.8174283819125385, 31.043431008590908) 40% mix is lch(79.7256% 40.4534 84.7634) rgb(87.41% 76.03% 47.64%) lab(79.7256, 3.69213016556943, 40.28455965255785)</desc><g fill="none" stroke="#000" stroke-width=".5"><polyline stroke="#777" stroke-dasharray="2" stroke-width=".7" points="-4.817 -31.043 -4.002 -32.298 -3.114 -33.53 -2.155 -34.738 -1.124 -35.917 -.023 -37.064 1.148 -38.177 2.387 -39.251 3.692 -40.285 5.063 -41.274 6.498 -42.216 7.996 -43.108 9.554 -43.946 11.171 -44.729 12.844 -45.452 14.573 -46.114 16.353 -46.712 18.184 -47.243 20.062 -47.705 21.985 -48.095"/>​<polyline points="0 -50 0 50"/><polyline points="-50 0 50 0"/><g stroke="#888"><path d="M-3,-40 h6 M-3,-30 h6 M-3,-20 h6 M-3,-10 h6 M-3,10 h6 M-3,20 h6 M-3,30 h6 M-3,40 h6"/><path d="M40,-3 v6 M30,-3 v6 M20,-3 v6 M10,-3 v6 M-10,-3 v6 M-20,-3 v6 M-30,-3 v6 M-40,-3 v6"/></g><polyline stroke="rgb(80.39% 52.16% 24.71%)" points="0 0 23.95 -48.41"/><polyline stroke="rgb(93.33% 90.98% 66.67%)" points="0 0 -4.81 -31.04"/><polyline stroke="rgb(87.41% 76.03% 47.64%)" points="0 0 3.692 -40.28"/></g><g stroke="none" stroke-width=".5"><circle cx="23.95" cy="-48.411" r="3" fill="rgb(80.39% 52.16% 24.71%)"/><circle cx="-4.817" cy="-31.043" r="3" fill="rgb(93.33% 90.98% 66.67%)"/><circle cx="3.692" cy="-40.285" r="3" fill="rgb(87.41% 76.03% 47.64%)"/></g><circle r="4"/><circle r="3" fill="#777"/><circle r="2" fill="#fff"/><g font-family="sans-serif" font-size="8"><text x="50" y="-2">+a</text><text x="-50" y="-2" text-anchor="end">-a</text><text x="4" y="52">-b</text><text x="4" y="-48">+b</text></g></svg>