<svg xmlns="http://www.w3.org/2000/svg" overflow="visible" viewBox="-160 -170 330 380"><desc>Show a top-down view of the Jzazbz colorspace. The rec2020 primaries and secondaries are shown, with an annotation indicating the J value. For comparison, the sRGB primaries and secondaries are also shown.</desc><g fill="none" stroke="#000" stroke-width=".7">​<polyline points="0 -160 0 190"/><polyline points="-190 0 180 0"/><g stroke="#888"><path d="M-3,-150 h6 M-3,-140 h6 M-3,-130 h6 M-3,-120 h6 M-3,-110 h6 M-3,-100 h6 M-3,-90 h6 M-3,-80 h6 M-3,-70 h6 M-3,-60 h6 M-3,-50 h6 M-3,-40 h6 M-3,-30 h6 M-3,-20 h6 M-3,-10 h6 M-3,10 h6 M-3,20 h6 M-3,30 h6 M-3,40 h6 M-3,50 h6 M-3,60 h6 M-3,70 h6 M-3,80 h6 M-3,90 h6 M-3,100 h6 M-3,110 h6 M-3,120 h6 M-3,130 h6 M-3,140 h6 M-3,150 h6 M-3,160 h6 M-3,170 h6 M-3,180 h6"/><path d="M170,-3 v6 M160,-3 v6 M150,-3 v6 M140,-3 v6 M130,-3 v6 M120,-3 v6 M110,-3 v6 M100,-3 v6 M90,-3 v6 M80,-3 v6 M70,-3 v6 M60,-3 v6 M50,-3 v6 M40,-3 v6 M30,-3 v6 M20,-3 v6 M10,-3 v6 M-10,-3 v6 M-20,-3 v6 M-30,-3 v6 M-40,-3 v6 M-50,-3 v6 M-60,-3 v6 M-70,-3 v6 M-80,-3 v6 M-90,-3 v6 M-100,-3 v6 M-110,-3 v6 M-120,-3 v6 M-130,-3 v6 M-140,-3 v6 M-150,-3 v6 M-160,-3 v6 M-170,-3 v6 M-180,-3 v6"/><g stroke="#bbb" stroke-dasharray="1 2"><polyline points="0 0 108.286 -100.872"/><polyline points="0 0 -26.227 -124.525"/><polyline points="0 0 -100.54 -109.282"/><polyline points="0 0 -65.203 28.685"/><polyline points="0 0 -35.468 170.257"/><polyline points="0 0 101.807 82.845"/></g><polyline points="0 0 151.845 -122.326"/><polyline points="0 0 -31.377 -154"/><polyline points="0 0 -189.87 -133.545"/><polyline points="0 0 -139.162 44.498"/><polyline points="0 0 -67.992 187.641"/><polyline points="0 0 146.719 75.255"/></g></g><g fill="#fff" stroke="#bbb" stroke-dasharray="1 2" stroke-width=".7"><circle cx="108.286" cy="-100.872" r="4" fill="#FF000040"/><circle cx="-100.54" cy="-109.282" r="4" fill="#00FF0040"/><circle cx="-35.468" cy="170.257" r="4" fill="#0000FF40"/><circle cx="-65.203" cy="28.685" r="4" fill="#00FFFF40"/><circle cx="101.807" cy="82.845" r="4" fill="#FF00FF40"/><circle cx="-26.227" cy="-124.525" r="4" fill="#FFFF0040"/></g><g stroke="none" stroke-width=".7"><circle cx="151.845" cy="-122.326" r="4" fill="red"/><circle cx="-189.87" cy="-133.545" r="4" fill="green"/><circle cx="-67.992" cy="187.641" r="4" fill="#00f"/><circle cx="-139.162" cy="44.498" r="4" fill="#0ff"/><circle cx="146.719" cy="75.255" r="4" fill="#f0f"/><circle cx="-31.377" cy="-154" r="4" fill="#ff0"/></g><circle r="5.4"/><circle r="4.2" fill="#777"/><circle r="3" fill="#fff"/><g font-family="sans-serif" font-size="6.5pt"><text x="180" y="-3">+az</text><text x="-190.5" y="-3" text-anchor="end">-az</text><text x="4" y="192">-bz</text><text x="4" y="-158">+bz</text></g><g font-family="sans-serif" font-size="8"><text x="128" y="-85">Jz: 0.135595<tspan x="128" dy="12">Cz: 0.197156<tspan x="128" dy="12">hz: 39.0981</tspan></tspan></text><text x="-196" y="-95">Jz: 0.138687<tspan x="-196" dy="12">Cz: 0.222759<tspan x="-196" dy="12">hz: 143.3325</tspan></tspan></text><text x="-115" y="140">Jz: 0.067736<tspan x="-115" dy="12">Cz: 0.186105<tspan x="-115" dy="12">hz: 249.6552</tspan></tspan></text><text x="-165" y="62">Jz: 0.149670<tspan x="-165" dy="12">Cz: 0.137087<tspan x="-165" dy="12">hz: 188.0807</tspan></tspan></text><text x="125" y="35">Jz: 0.148128<tspan x="125" dy="12">Cz: 0.163382<tspan x="125" dy="12">hz: 343.4944</tspan></tspan></text><text x="-95" y="-148">Jz: 0.184104<tspan x="-95" dy="12">Cz: 0.156390<tspan x="-95" dy="12">hz: 97.8016</tspan></tspan></text></g></svg>