<svg xmlns="http://www.w3.org/2000/svg" overflow="visible" viewBox="-180 -145 335 290"><desc>Show a top-down view of the CIE Lab colorspace. The rec2020 primaries and secondaries are shown, with an annotation indicating the L value. For comparison, the sRGB primaries and secondaries are also shown.</desc><g fill="none" stroke="#000" stroke-width=".5">​<polyline points="0 -140 0 140"/><polyline points="-160 0 140 0"/><g stroke="#888"><path d="M-3,-130 h6 M-3,-120 h6 M-3,-110 h6 M-3,-100 h6 M-3,-90 h6 M-3,-80 h6 M-3,-70 h6 M-3,-60 h6 M-3,-50 h6 M-3,-40 h6 M-3,-30 h6 M-3,-20 h6 M-3,-10 h6 M-3,10 h6 M-3,20 h6 M-3,30 h6 M-3,40 h6 M-3,50 h6 M-3,60 h6 M-3,70 h6 M-3,80 h6 M-3,90 h6 M-3,100 h6 M-3,110 h6 M-3,120 h6 M-3,130 h6"/><path d="M130,-3 v6 M120,-3 v6 M110,-3 v6 M100,-3 v6 M90,-3 v6 M80,-3 v6 M70,-3 v6 M60,-3 v6 M50,-3 v6 M40,-3 v6 M30,-3 v6 M20,-3 v6 M10,-3 v6 M-10,-3 v6 M-20,-3 v6 M-30,-3 v6 M-40,-3 v6 M-50,-3 v6 M-60,-3 v6 M-70,-3 v6 M-80,-3 v6 M-90,-3 v6 M-100,-3 v6 M-110,-3 v6 M-120,-3 v6 M-130,-3 v6 M-140,-3 v6 M-150,-3 v6"/><g stroke="#bbb" stroke-dasharray="1 2"><polyline points="0 0 80.81 -69.88"/><polyline points="0 0 -79.28 -80.99"/><polyline points="0 0 68.29 112.02"/><polyline points="0 0 -50.66 14.96"/><polyline points="0 0 93.54 60.49"/><polyline points="0 0 -15.75 -93.38"/></g><polyline points="0 0 116.89 -106.74"/><polyline points="0 0 -160.72 -109.23"/><polyline points="0 0 74.46 126.25"/><polyline points="0 0 -113.05 20.83"/><polyline points="0 0 125.9 60.1"/><polyline points="0 0 -14.92 -132.12"/></g></g><g fill="#fff" stroke="#bbb" stroke-dasharray="1 2" stroke-width=".5"><circle cx="80.812" cy="-69.885" r="3" fill="#FF000040"/><circle cx="-79.287" cy="-80.99" r="3" fill="#00FF0040"/><circle cx="68.299" cy="112.029" r="3" fill="#0000FF40"/><circle cx="-50.665" cy="14.962" r="3" fill="#00FFFF40"/><circle cx="93.55" cy="60.499" r="3" fill="#FF00FF40"/><circle cx="-15.753" cy="-93.388" r="3" fill="#FFFF0040"/></g><g stroke="none" stroke-width=".5"><circle cx="116.893" cy="-106.746" r="3" fill="red"/><circle cx="-160.726" cy="-109.232" r="3" fill="green"/><circle cx="74.461" cy="126.25" r="3" fill="#00f"/><circle cx="-113.048" cy="20.832" r="3" fill="#0ff"/><circle cx="125.901" cy="60.104" r="3" fill="#f0f"/><circle cx="-14.917" cy="-132.124" r="3" fill="#ff0"/></g><circle r="4"/><circle r="3" fill="#777"/><circle r="2" fill="#fff"/><g font-family="sans-serif" font-size="8"><text x="140" y="-3">+a</text><text x="-160.5" y="-3" text-anchor="end">-a</text><text x="4" y="142">-b</text><text x="4" y="-138">+b</text></g><g font-family="sans-serif" font-size="5pt"><text x="108" y="-90">L: 59.7998%<tspan x="108" dy="10">C: 158.2989<tspan x="108" dy="10">H: 42.4022</tspan></tspan></text><text x="-140" y="-125">L: 85.7729%<tspan x="-140" dy="10">C: 194.3307<tspan x="-140" dy="10">H: 145.7994</tspan></tspan></text><text x="75" y="97">L: 25.4539%<tspan x="75" dy="10">C: 146.5721<tspan x="75" dy="10">H: 300.5316</tspan></tspan></text><text x="-116" y="33">L: 88.0156%<tspan x="-116" dy="10">C: 114.9512<tspan x="-116" dy="10">H: 190.4412</tspan></tspan></text><text x="105" y="35">L: 63.7258%<tspan x="105" dy="10">C: 139.5122<tspan x="105" dy="10">H: 334.4806</tspan></tspan></text><text x="-63" y="-130">L: 98.2076%<tspan x="-63" dy="10">C: 132.9636<tspan x="-63" dy="10">H: 96.4416</tspan></tspan></text></g></svg>