<svg xmlns="http://www.w3.org/2000/svg" overflow="visible" viewBox="-170 -140 320 280"><desc>Show a top-down view of the CIE Lab colorspace. The a98-rgb primaries and secondaries are shown, with an annotation indicating the L value. For comparison, the sRGB primaries and secondaries are also shown.</desc><g fill="none" stroke="#000" stroke-width=".5">​<polyline points="0 -120 0 120"/><polyline points="-140 0 120 0"/><g stroke="#888"><path d="M-3,-110 h6 M-3,-100 h6 M-3,-90 h6 M-3,-80 h6 M-3,-70 h6 M-3,-60 h6 M-3,-50 h6 M-3,-40 h6 M-3,-30 h6 M-3,-20 h6 M-3,-10 h6 M-3,10 h6 M-3,20 h6 M-3,30 h6 M-3,40 h6 M-3,50 h6 M-3,60 h6 M-3,70 h6 M-3,80 h6 M-3,90 h6 M-3,100 h6 M-3,110 h6"/><path d="M110,-3 v6 M100,-3 v6 M90,-3 v6 M80,-3 v6 M70,-3 v6 M60,-3 v6 M50,-3 v6 M40,-3 v6 M30,-3 v6 M20,-3 v6 M10,-3 v6 M-10,-3 v6 M-20,-3 v6 M-30,-3 v6 M-40,-3 v6 M-50,-3 v6 M-60,-3 v6 M-70,-3 v6 M-80,-3 v6 M-90,-3 v6 M-100,-3 v6 M-110,-3 v6 M-120,-3 v6 M-130,-3 v6"/><g stroke="#bbb" stroke-dasharray="1 2"><polyline points="0 0 80.81 -69.88"/><polyline points="0 0 -79.28 -80.99"/><polyline points="0 0 68.29 112.02"/><polyline points="0 0 -50.66 14.96"/><polyline points="0 0 93.54 60.49"/><polyline points="0 0 -15.75 -93.38"/></g><polyline points="0 0 90.363 -78.14"/><polyline points="0 0 -129.107 -87.172"/><polyline points="0 0 69.268 113.619"/><polyline points="0 0 -83.4 21.79"/><polyline points="0 0 101.307 50.831"/><polyline points="0 0 -16.494 -103.674"/></g></g><g fill="#fff" stroke="#bbb" stroke-dasharray="1 2" stroke-width=".5"><circle cx="80.812" cy="-69.885" r="3" fill="#FF000040"/><circle cx="-79.287" cy="-80.99" r="3" fill="#00FF0040"/><circle cx="68.299" cy="112.029" r="3" fill="#0000FF40"/><circle cx="-50.665" cy="14.962" r="3" fill="#00FFFF40"/><circle cx="93.55" cy="60.499" r="3" fill="#FF00FF40"/><circle cx="-15.753" cy="-93.388" r="3" fill="#FFFF0040"/></g><g stroke="none" stroke-width=".5"><circle cx="90.364" cy="-78.145" r="3" fill="red"/><circle cx="-129.107" cy="-87.172" r="3" fill="green"/><circle cx="69.268" cy="113.619" r="3" fill="#00f"/><circle cx="-83.4" cy="21.79" r="3" fill="#0ff"/><circle cx="101.307" cy="50.831" r="3" fill="#f0f"/><circle cx="-16.494" cy="-103.674" r="3" fill="#ff0"/></g><circle r="4"/><circle r="3" fill="#777"/><circle r="2" fill="#fff"/><g font-family="sans-serif" font-size="8"><text x="120" y="-3">+a</text><text x="-140.5" y="-3" text-anchor="end">-a</text><text x="4" y="122">-b</text><text x="4" y="-118">+b</text></g><g font-family="sans-serif" font-size="5pt"><text x="95" y="-83">L: 62.5996%<tspan x="95" dy="10">C: 119.4665<tspan x="95" dy="10">H: 40.8526</tspan></tspan></text><text x="-154" y="-112">L: 83.2141%<tspan x="-154" dy="10">C: 155.7805<tspan x="-154" dy="10">H: 145.9732</tspan></tspan></text><text x="75" y="97">L: 30.2142%<tspan x="75" dy="10">C: 133.0690<tspan x="75" dy="10">H: 301.3685</tspan></tspan></text><text x="-126" y="12">L: 86.4498%<tspan x="-126" dy="10">C: 86.1998<tspan x="-126" dy="10">H: 194.6426</tspan></tspan></text><text x="105" y="35">L: 67.6003%<tspan x="105" dy="10">C: 113.3439<tspan x="105" dy="10">H: 333.3548</tspan></tspan></text><text x="-63" y="-120">L: 97.5013%<tspan x="-63" dy="10">C: 104.9774<tspan x="-63" dy="10">H: 99.0395</tspan></tspan></text></g></svg>