<svg xmlns="http://www.w3.org/2000/svg" viewBox="-14 -4 150 60"><desc>Show a gradient from sRGB blue, in JzCzHz, as Chroma is reduced from the max value (0.156) to near-zero demonstrating less purpling mid-way compared to LCH. 1.1 is an egregious hack to avoid limited subpixel precision compositing artifacts</desc><rect width="1.1" height="10" x="131.384" fill="rgb(0% 0% 100%)"/><rect width="1.1" height="10" x="130.384" fill="rgb(0.063% 2.514% 99.529%)"/><rect width="1.1" height="10" x="129.384" fill="rgb(0.142% 4.926% 99.058%)"/><rect width="1.1" height="10" x="128.384" fill="rgb(0.237% 6.816% 98.588%)"/><rect width="1.1" height="10" x="127.384" fill="rgb(0.348% 8.352% 98.119%)"/><rect width="1.1" height="10" x="126.384" fill="rgb(0.475% 9.665% 97.65%)"/><rect width="1.1" height="10" x="125.384" fill="rgb(0.617% 10.823% 97.183%)"/><rect width="1.1" height="10" x="124.384" fill="rgb(0.775% 11.865% 96.715%)"/><rect width="1.1" height="10" x="123.384" fill="rgb(0.948% 12.814% 96.249%)"/><rect width="1.1" height="10" x="122.384" fill="rgb(1.137% 13.69% 95.783%)"/><rect width="1.1" height="10" x="121.384" fill="rgb(1.34% 14.503% 95.318%)"/><rect width="1.1" height="10" x="120.384" fill="rgb(1.559% 15.264% 94.854%)"/><rect width="1.1" height="10" x="119.384" fill="rgb(1.793% 15.979% 94.39%)"/><rect width="1.1" height="10" x="118.384" fill="rgb(2.042% 16.654% 93.927%)"/><rect width="1.1" height="10" x="117.384" fill="rgb(2.306% 17.294% 93.465%)"/><rect width="1.1" height="10" x="116.384" fill="rgb(2.584% 17.902% 93.003%)"/><rect width="1.1" height="10" x="115.384" fill="rgb(2.877% 18.482% 92.542%)"/><rect width="1.1" height="10" x="114.384" fill="rgb(3.185% 19.036% 92.081%)"/><rect width="1.1" height="10" x="113.384" fill="rgb(3.507% 19.566% 91.621%)"/><rect width="1.1" height="10" x="112.384" fill="rgb(3.844% 20.075% 91.162%)"/><rect width="1.1" height="10" x="111.384" fill="rgb(4.191% 20.564% 90.704%)"/><rect width="1.1" height="10" x="110.384" fill="rgb(4.534% 21.035% 90.246%)"/><rect width="1.1" height="10" x="109.384" fill="rgb(4.874% 21.488% 89.788%)"/><rect width="1.1" height="10" x="108.384" fill="rgb(5.21% 21.926% 89.332%)"/><rect width="1.1" height="10" x="107.384" fill="rgb(5.544% 22.348% 88.876%)"/><rect width="1.1" height="10" x="106.384" fill="rgb(5.875% 22.756% 88.42%)"/><rect width="1.1" height="10" x="105.384" fill="rgb(6.203% 23.151% 87.965%)"/><rect width="1.1" height="10" x="104.384" fill="rgb(6.528% 23.534% 87.511%)"/><rect width="1.1" height="10" x="103.384" fill="rgb(6.851% 23.905% 87.057%)"/><rect width="1.1" height="10" x="102.384" fill="rgb(7.172% 24.264% 86.604%)"/><rect width="1.1" height="10" x="101.384" fill="rgb(7.49% 24.613% 86.152%)"/><rect width="1.1" height="10" x="100.384" fill="rgb(7.806% 24.952% 85.7%)"/><rect width="1.1" height="10" x="99.384" fill="rgb(8.119% 25.281% 85.249%)"/><rect width="1.1" height="10" x="98.384" fill="rgb(8.431% 25.6% 84.798%)"/><rect width="1.1" height="10" x="97.384" fill="rgb(8.74% 25.911% 84.348%)"/><rect width="1.1" height="10" x="96.384" fill="rgb(9.048% 26.213% 83.898%)"/><rect width="1.1" height="10" x="95.384" fill="rgb(9.353% 26.508% 83.449%)"/><rect width="1.1" height="10" x="94.384" fill="rgb(9.657% 26.794% 83.001%)"/><rect width="1.1" height="10" x="93.384" fill="rgb(9.959% 27.073% 82.553%)"/><rect width="1.1" height="10" x="92.384" fill="rgb(10.258% 27.345% 82.106%)"/><rect width="1.1" height="10" x="91.384" fill="rgb(10.557% 27.609% 81.659%)"/><rect width="1.1" height="10" x="90.384" fill="rgb(10.853% 27.867% 81.212%)"/><rect width="1.1" height="10" x="89.384" fill="rgb(11.148% 28.119% 80.767%)"/><rect width="1.1" height="10" x="88.384" fill="rgb(11.441% 28.364% 80.321%)"/><rect width="1.1" height="10" x="87.384" fill="rgb(11.732% 28.603% 79.877%)"/><rect width="1.1" height="10" x="86.384" fill="rgb(12.022% 28.836% 79.432%)"/><rect width="1.1" height="10" x="85.384" fill="rgb(12.31% 29.064% 78.989%)"/><rect width="1.1" height="10" x="84.384" fill="rgb(12.597% 29.286% 78.545%)"/><rect width="1.1" height="10" x="83.384" fill="rgb(12.883% 29.503% 78.103%)"/><rect width="1.1" height="10" x="82.384" fill="rgb(13.166% 29.714% 77.66%)"/><rect width="1.1" height="10" x="81.384" fill="rgb(13.449% 29.921% 77.218%)"/><rect width="1.1" height="10" x="80.384" fill="rgb(13.73% 30.122% 76.777%)"/><rect width="1.1" height="10" x="79.384" fill="rgb(14.009% 30.319% 76.336%)"/><rect width="1.1" height="10" x="78.384" fill="rgb(14.288% 30.511% 75.896%)"/><rect width="1.1" height="10" x="77.384" fill="rgb(14.565% 30.699% 75.456%)"/><rect width="1.1" height="10" x="76.384" fill="rgb(14.84% 30.882% 75.016%)"/><rect width="1.1" height="10" x="75.384" fill="rgb(15.115% 31.06% 74.577%)"/><rect width="1.1" height="10" x="74.384" fill="rgb(15.388% 31.235% 74.139%)"/><rect width="1.1" height="10" x="73.384" fill="rgb(15.659% 31.405% 73.7%)"/><rect width="1.1" height="10" x="72.384" fill="rgb(15.93% 31.572% 73.263%)"/><rect width="1.1" height="10" x="71.384" fill="rgb(16.199% 31.735% 72.825%)"/><rect width="1.1" height="10" x="70.384" fill="rgb(16.467% 31.893% 72.388%)"/><rect width="1.1" height="10" x="69.384" fill="rgb(16.734% 32.048% 71.952%)"/><rect width="1.1" height="10" x="68.384" fill="rgb(17% 32.2% 71.515%)"/><rect width="1.1" height="10" x="67.384" fill="rgb(17.265% 32.347% 71.08%)"/><rect width="1.1" height="10" x="66.384" fill="rgb(17.528% 32.491% 70.644%)"/><rect width="1.1" height="10" x="65.384" fill="rgb(17.791% 32.632% 70.209%)"/><rect width="1.1" height="10" x="64.384" fill="rgb(18.052% 32.77% 69.774%)"/><rect width="1.1" height="10" x="63.384" fill="rgb(18.312% 32.904% 69.34%)"/><rect width="1.1" height="10" x="62.384" fill="rgb(18.571% 33.035% 68.906%)"/><rect width="1.1" height="10" x="61.384" fill="rgb(18.829% 33.162% 68.472%)"/><rect width="1.1" height="10" x="60.384" fill="rgb(19.086% 33.287% 68.039%)"/><rect width="1.1" height="10" x="59.384" fill="rgb(19.342% 33.408% 67.606%)"/><rect width="1.1" height="10" x="58.384" fill="rgb(19.597% 33.527% 67.173%)"/><rect width="1.1" height="10" x="57.384" fill="rgb(19.851% 33.642% 66.74%)"/><rect width="1.1" height="10" x="56.384" fill="rgb(20.104% 33.755% 66.308%)"/><rect width="1.1" height="10" x="55.384" fill="rgb(20.356% 33.865% 65.876%)"/><rect width="1.1" height="10" x="54.384" fill="rgb(20.607% 33.972% 65.444%)"/><rect width="1.1" height="10" x="53.384" fill="rgb(20.857% 34.076% 65.013%)"/><rect width="1.1" height="10" x="52.384" fill="rgb(21.106% 34.178% 64.582%)"/><rect width="1.1" height="10" x="51.384" fill="rgb(21.354% 34.277% 64.151%)"/><rect width="1.1" height="10" x="50.384" fill="rgb(21.602% 34.373% 63.72%)"/><rect width="1.1" height="10" x="49.384" fill="rgb(21.848% 34.467% 63.289%)"/><rect width="1.1" height="10" x="48.384" fill="rgb(22.093% 34.558% 62.859%)"/><rect width="1.1" height="10" x="47.384" fill="rgb(22.338% 34.646% 62.429%)"/><rect width="1.1" height="10" x="46.384" fill="rgb(22.581% 34.733% 61.999%)"/><rect width="1.1" height="10" x="45.384" fill="rgb(22.824% 34.816% 61.569%)"/><rect width="1.1" height="10" x="44.384" fill="rgb(23.066% 34.898% 61.139%)"/><rect width="1.1" height="10" x="43.384" fill="rgb(23.306% 34.977% 60.71%)"/><rect width="1.1" height="10" x="42.384" fill="rgb(23.546% 35.053% 60.28%)"/><rect width="1.1" height="10" x="41.384" fill="rgb(23.786% 35.128% 59.851%)"/><rect width="1.1" height="10" x="40.384" fill="rgb(24.024% 35.2% 59.422%)"/><rect width="1.1" height="10" x="39.384" fill="rgb(24.261% 35.27% 58.993%)"/><rect width="1.1" height="10" x="38.384" fill="rgb(24.498% 35.337% 58.564%)"/><rect width="1.1" height="10" x="37.384" fill="rgb(24.734% 35.403% 58.135%)"/><rect width="1.1" height="10" x="36.384" fill="rgb(24.969% 35.466% 57.706%)"/><rect width="1.1" height="10" x="35.384" fill="rgb(25.203% 35.528% 57.277%)"/><rect width="1.1" height="10" x="34.384" fill="rgb(25.437% 35.587% 56.848%)"/><rect width="1.1" height="10" x="33.384" fill="rgb(25.669% 35.644% 56.419%)"/><rect width="1.1" height="10" x="32.384" fill="rgb(25.901% 35.699% 55.99%)"/><rect width="1.1" height="10" x="31.384" fill="rgb(26.132% 35.752% 55.561%)"/><rect width="1.1" height="10" x="30.384" fill="rgb(26.362% 35.803% 55.131%)"/><rect width="1.1" height="10" x="29.384" fill="rgb(26.592% 35.852% 54.702%)"/><rect width="1.1" height="10" x="28.384" fill="rgb(26.821% 35.899% 54.273%)"/><rect width="1.1" height="10" x="27.384" fill="rgb(27.049% 35.945% 53.844%)"/><rect width="1.1" height="10" x="26.384" fill="rgb(27.276% 35.988% 53.414%)"/><rect width="1.1" height="10" x="25.384" fill="rgb(27.502% 36.029% 52.984%)"/><rect width="1.1" height="10" x="24.384" fill="rgb(27.728% 36.069% 52.554%)"/><rect width="1.1" height="10" x="23.384" fill="rgb(27.953% 36.107% 52.124%)"/><rect width="1.1" height="10" x="22.384" fill="rgb(28.178% 36.143% 51.694%)"/><rect width="1.1" height="10" x="21.384" fill="rgb(28.401% 36.177% 51.263%)"/><rect width="1.1" height="10" x="20.384" fill="rgb(28.624% 36.209% 50.833%)"/><rect width="1.1" height="10" x="19.384" fill="rgb(28.846% 36.24% 50.401%)"/><rect width="1.1" height="10" x="18.384" fill="rgb(29.068% 36.268% 49.97%)"/><rect width="1.1" height="10" x="17.384" fill="rgb(29.288% 36.295% 49.538%)"/><rect width="1.1" height="10" x="16.384" fill="rgb(29.509% 36.321% 49.106%)"/><rect width="1.1" height="10" x="15.384" fill="rgb(29.728% 36.345% 48.673%)"/><rect width="1.1" height="10" x="14.384" fill="rgb(29.947% 36.367% 48.24%)"/><rect width="1.1" height="10" x="13.384" fill="rgb(30.165% 36.387% 47.807%)"/><rect width="1.1" height="10" x="12.384" fill="rgb(30.382% 36.406% 47.373%)"/><rect width="1.1" height="10" x="11.384" fill="rgb(30.599% 36.423% 46.938%)"/><rect width="1.1" height="10" x="10.384" fill="rgb(30.815% 36.438% 46.503%)"/><rect width="1.1" height="10" x="9.384" fill="rgb(31.03% 36.452% 46.068%)"/><rect width="1.1" height="10" x="8.384" fill="rgb(31.245% 36.464% 45.631%)"/><rect width="1.1" height="10" x="7.384" fill="rgb(31.459% 36.475% 45.195%)"/><rect width="1.1" height="10" x="6.384" fill="rgb(31.672% 36.484% 44.757%)"/><rect width="1.1" height="10" x="5.384" fill="rgb(31.885% 36.491% 44.318%)"/><rect width="1.1" height="10" x="4.384" fill="rgb(32.097% 36.497% 43.879%)"/><rect width="1.1" height="10" x="3.384" fill="rgb(32.309% 36.501% 43.439%)"/><rect width="1.1" height="10" x="2.384" fill="rgb(32.52% 36.504% 42.998%)"/><rect width="1.1" height="10" x="1.384" fill="rgb(32.73% 36.506% 42.557%)"/><rect width="1.1" height="10" x=".384" fill="rgb(32.94% 36.505% 42.114%)"/><rect width="1.1" height="10" x="-.616" fill="rgb(33.149% 36.504% 41.67%)"/><rect width="1.1" height="10" x="-1.616" fill="rgb(32.681% 36.505% 42.659%)"/><rect width="1.1" height="10" x="-2.616" fill="rgb(33.565% 36.496% 40.779%)"/><rect width="1.1" height="10" x="-3.616" fill="rgb(32.26% 36.501% 43.541%)"/><rect width="1.1" height="10" x="-4.616" fill="rgb(33.979% 36.482% 39.884%)"/><rect width="1.1" height="10" x="-5.616" fill="rgb(31.836% 36.49% 44.42%)"/><rect width="1.1" height="10" x="-6.616" fill="rgb(34.391% 36.463% 38.983%)"/><rect width="1.1" height="10" x="-7.616" fill="rgb(31.409% 36.472% 45.296%)"/><rect width="1.1" height="10" x="-8.616" fill="rgb(34.8% 36.438% 38.077%)"/><rect width="1.1" height="10" x="-9.616" fill="rgb(30.98% 36.449% 46.169%)"/><rect width="132" height="25" y="15" fill="none" stroke="gray" stroke-width=".2"/><polyline fill="none" stroke="red" stroke-width=".2" points="131.384 40 130.384 39.999 129.384 39.997 128.384 39.995 127.384 39.993 126.384 39.991 125.384 39.988 124.384 39.985 123.384 39.982 122.384 39.978 121.384 39.974 120.384 39.97 119.384 39.965 118.384 39.96 117.384 39.955 116.384 39.95 115.384 39.944 114.384 39.938 113.384 39.932 112.384 39.926 111.384 39.919 110.384 39.912 109.384 39.904 108.384 39.897 107.384 39.889 106.384 39.881 105.384 39.872 104.384 39.864 103.384 39.855 102.384 39.845 101.384 39.836 100.384 39.826 99.384 39.816 98.384 39.806 97.384 39.796 96.384 39.785 95.384 39.774 94.384 39.763 93.384 39.751 92.384 39.739 91.384 39.727 90.384 39.715 89.384 39.703 88.384 39.69 87.384 39.677 86.384 39.664 85.384 39.65 84.384 39.637 83.384 39.623 82.384 39.609 81.384 39.594 80.384 39.58 79.384 39.565 78.384 39.55 77.384 39.534 76.384 39.519 75.384 39.503 74.384 39.487 73.384 39.471 72.384 39.455 71.384 39.438 70.384 39.421 69.384 39.404 68.384 39.387 67.384 39.37 66.384 39.352 65.384 39.334 64.384 39.316 63.384 39.298 62.384 39.279 61.384 39.261 60.384 39.242 59.384 39.223 58.384 39.203 57.384 39.184 56.384 39.164 55.384 39.144 54.384 39.124 53.384 39.104 52.384 39.084 51.384 39.063 50.384 39.042 49.384 39.021 48.384 39 47.384 38.978 46.384 38.957 45.384 38.935 44.384 38.913 43.384 38.891 42.384 38.869 41.384 38.846 40.384 38.824 39.384 38.801 38.384 38.778 37.384 38.755 36.384 38.731 35.384 38.708 34.384 38.684 33.384 38.66 32.384 38.636 31.384 38.612 30.384 38.587 29.384 38.563 28.384 38.538 27.384 38.513 26.384 38.488 25.384 38.463 24.384 38.438 23.384 38.412 22.384 38.387 21.384 38.361 20.384 38.335 19.384 38.309 18.384 38.282 17.384 38.256 16.384 38.229 15.384 38.203 14.384 38.176 13.384 38.149 12.384 38.121 11.384 38.094 10.384 38.067 9.384 38.039 8.384 38.011 7.384 37.983 6.384 37.955 5.384 37.927 4.384 37.899 3.384 37.87 2.384 37.841 1.384 37.813 .384 37.784 -.616 37.755 -1.616 37.819 -2.616 37.696 -3.616 37.877 -4.616 37.637 -5.616 37.934 -6.616 37.578 -7.616 37.99 -8.616 37.518 -9.616 38.045"/><polyline fill="none" stroke="green" stroke-width=".2" points="131.384 40 130.384 39.951 129.384 39.903 128.384 39.856 127.384 39.809 126.384 39.762 125.384 39.716 124.384 39.671 123.384 39.626 122.384 39.582 121.384 39.538 120.384 39.495 119.384 39.452 118.384 39.41 117.384 39.368 116.384 39.327 115.384 39.286 114.384 39.246 113.384 39.206 112.384 39.167 111.384 39.128 110.384 39.089 109.384 39.052 108.384 39.014 107.384 38.978 106.384 38.941 105.384 38.905 104.384 38.87 103.384 38.835 102.384 38.801 101.384 38.766 100.384 38.733 99.384 38.7 98.384 38.667 97.384 38.635 96.384 38.603 95.384 38.572 94.384 38.541 93.384 38.511 92.384 38.481 91.384 38.451 90.384 38.422 89.384 38.393 88.384 38.365 87.384 38.337 86.384 38.31 85.384 38.283 84.384 38.256 83.384 38.23 82.384 38.204 81.384 38.179 80.384 38.154 79.384 38.129 78.384 38.105 77.384 38.081 76.384 38.058 75.384 38.035 74.384 38.012 73.384 37.99 72.384 37.968 71.384 37.947 70.384 37.926 69.384 37.905 68.384 37.885 67.384 37.865 66.384 37.845 65.384 37.826 64.384 37.807 63.384 37.789 62.384 37.771 61.384 37.753 60.384 37.735 59.384 37.718 58.384 37.702 57.384 37.685 56.384 37.669 55.384 37.654 54.384 37.638 53.384 37.623 52.384 37.609 51.384 37.594 50.384 37.58 49.384 37.567 48.384 37.553 47.384 37.54 46.384 37.528 45.384 37.515 44.384 37.503 43.384 37.491 42.384 37.48 41.384 37.469 40.384 37.458 39.384 37.448 38.384 37.437 37.384 37.428 36.384 37.418 35.384 37.409 34.384 37.4 33.384 37.391 32.384 37.383 31.384 37.375 30.384 37.367 29.384 37.359 28.384 37.352 27.384 37.345 26.384 37.338 25.384 37.332 24.384 37.326 23.384 37.32 22.384 37.315 21.384 37.309 20.384 37.304 19.384 37.299 18.384 37.295 17.384 37.291 16.384 37.287 15.384 37.283 14.384 37.28 13.384 37.277 12.384 37.274 11.384 37.271 10.384 37.269 9.384 37.266 8.384 37.265 7.384 37.263 6.384 37.261 5.384 37.26 4.384 37.259 3.384 37.259 2.384 37.258 1.384 37.258 .384 37.258 -.616 37.258 -1.616 37.258 -2.616 37.259 -3.616 37.259 -4.616 37.262 -5.616 37.26 -6.616 37.265 -7.616 37.263 -8.616 37.269 -9.616 37.267"/><polyline fill="none" stroke="#00f" stroke-width=".2" points="131.384 15 130.384 15.267 129.384 15.532 128.384 15.795 127.384 16.056 126.384 16.315 125.384 16.572 124.384 16.827 123.384 17.08 122.384 17.331 121.384 17.58 120.384 17.827 119.384 18.073 118.384 18.316 117.384 18.557 116.384 18.796 115.384 19.034 114.384 19.269 113.384 19.503 112.384 19.735 111.384 19.965 110.384 20.193 109.384 20.419 108.384 20.644 107.384 20.866 106.384 21.087 105.384 21.306 104.384 21.524 103.384 21.739 102.384 21.953 101.384 22.165 100.384 22.375 99.384 22.584 98.384 22.791 97.384 22.996 96.384 23.199 95.384 23.401 94.384 23.601 93.384 23.8 92.384 23.997 91.384 24.192 90.384 24.385 89.384 24.577 88.384 24.768 87.384 24.957 86.384 25.144 85.384 25.329 84.384 25.513 83.384 25.696 82.384 25.877 81.384 26.056 80.384 26.234 79.384 26.41 78.384 26.585 77.384 26.759 76.384 26.931 75.384 27.101 74.384 27.27 73.384 27.437 72.384 27.603 71.384 27.768 70.384 27.931 69.384 28.093 68.384 28.253 67.384 28.412 66.384 28.57 65.384 28.726 64.384 28.88 63.384 29.034 62.384 29.186 61.384 29.337 60.384 29.486 59.384 29.634 58.384 29.781 57.384 29.926 56.384 30.07 55.384 30.213 54.384 30.354 53.384 30.494 52.384 30.633 51.384 30.771 50.384 30.907 49.384 31.043 48.384 31.176 47.384 31.309 46.384 31.441 45.384 31.571 44.384 31.7 43.384 31.828 42.384 31.954 41.384 32.08 40.384 32.204 39.384 32.327 38.384 32.449 37.384 32.57 36.384 32.69 35.384 32.808 34.384 32.925 33.384 33.042 32.384 33.157 31.384 33.271 30.384 33.384 29.384 33.496 28.384 33.606 27.384 33.716 26.384 33.825 25.384 33.932 24.384 34.039 23.384 34.144 22.384 34.249 21.384 34.352 20.384 34.454 19.384 34.556 18.384 34.656 17.384 34.755 16.384 34.854 15.384 34.951 14.384 35.047 13.384 35.142 12.384 35.237 11.384 35.33 10.384 35.423 9.384 35.514 8.384 35.605 7.384 35.694 6.384 35.783 5.384 35.871 4.384 35.958 3.384 36.043 2.384 36.128 1.384 36.213 .384 36.296 -.616 36.378 -1.616 36.193 -2.616 36.54 -3.616 36.024 -4.616 36.699 -5.616 35.851 -6.616 36.854 -7.616 35.674 -8.616 37.005 -9.616 35.493"/></svg>