<svg xmlns="http://www.w3.org/2000/svg" viewBox="-4 -4 140 30"><desc>Show a gradient from sRGB blue, in LCH, as Chroma is reduced from the max value (131) to near-zero demonstrating a purpling mid-way. 1.1 is an egregious hack to avoid limited subpixel precision compositing artifacts</desc><rect width="1.1" height="10" x="131.2" fill="rgb(0.019% 0.005% 99.996%)"/><rect width="1.1" height="10" x="130.2" fill="rgb(2.664% 0.657% 99.401%)"/><rect width="1.1" height="10" x="129.2" fill="rgb(5.156% 1.309% 98.806%)"/><rect width="1.1" height="10" x="128.2" fill="rgb(7.07% 1.96% 98.212%)"/><rect width="1.1" height="10" x="127.2" fill="rgb(8.622% 2.611% 97.619%)"/><rect width="1.1" height="10" x="126.2" fill="rgb(9.945% 3.262% 97.026%)"/><rect width="1.1" height="10" x="125.2" fill="rgb(11.108% 3.912% 96.434%)"/><rect width="1.1" height="10" x="124.2" fill="rgb(12.15% 4.534% 95.842%)"/><rect width="1.1" height="10" x="123.2" fill="rgb(13.097% 5.106% 95.251%)"/><rect width="1.1" height="10" x="122.2" fill="rgb(13.967% 5.637% 94.661%)"/><rect width="1.1" height="10" x="121.2" fill="rgb(14.772% 6.135% 94.071%)"/><rect width="1.1" height="10" x="120.2" fill="rgb(15.522% 6.604% 93.482%)"/><rect width="1.1" height="10" x="119.2" fill="rgb(16.224% 7.048% 92.894%)"/><rect width="1.1" height="10" x="118.2" fill="rgb(16.884% 7.471% 92.306%)"/><rect width="1.1" height="10" x="117.2" fill="rgb(17.508% 7.875% 91.719%)"/><rect width="1.1" height="10" x="116.2" fill="rgb(18.098% 8.263% 91.133%)"/><rect width="1.1" height="10" x="115.2" fill="rgb(18.657% 8.635% 90.547%)"/><rect width="1.1" height="10" x="114.2" fill="rgb(19.19% 8.994% 89.962%)"/><rect width="1.1" height="10" x="113.2" fill="rgb(19.697% 9.34% 89.377%)"/><rect width="1.1" height="10" x="112.2" fill="rgb(20.182% 9.675% 88.793%)"/><rect width="1.1" height="10" x="111.2" fill="rgb(20.645% 10% 88.21%)"/><rect width="1.1" height="10" x="110.2" fill="rgb(21.088% 10.315% 87.627%)"/><rect width="1.1" height="10" x="109.2" fill="rgb(21.513% 10.622% 87.045%)"/><rect width="1.1" height="10" x="108.2" fill="rgb(21.92% 10.92% 86.464%)"/><rect width="1.1" height="10" x="107.2" fill="rgb(22.312% 11.21% 85.883%)"/><rect width="1.1" height="10" x="106.2" fill="rgb(22.688% 11.493% 85.303%)"/><rect width="1.1" height="10" x="105.2" fill="rgb(23.049% 11.77% 84.724%)"/><rect width="1.1" height="10" x="104.2" fill="rgb(23.397% 12.04% 84.145%)"/><rect width="1.1" height="10" x="103.2" fill="rgb(23.732% 12.304% 83.567%)"/><rect width="1.1" height="10" x="102.2" fill="rgb(24.054% 12.562% 82.99%)"/><rect width="1.1" height="10" x="101.2" fill="rgb(24.365% 12.815% 82.413%)"/><rect width="1.1" height="10" x="100.2" fill="rgb(24.665% 13.063% 81.837%)"/><rect width="1.1" height="10" x="99.2" fill="rgb(24.953% 13.306% 81.261%)"/><rect width="1.1" height="10" x="98.2" fill="rgb(25.232% 13.545% 80.686%)"/><rect width="1.1" height="10" x="97.2" fill="rgb(25.5% 13.779% 80.112%)"/><rect width="1.1" height="10" x="96.2" fill="rgb(25.759% 14.009% 79.539%)"/><rect width="1.1" height="10" x="95.2" fill="rgb(26.009% 14.235% 78.966%)"/><rect width="1.1" height="10" x="94.2" fill="rgb(26.25% 14.457% 78.394%)"/><rect width="1.1" height="10" x="93.2" fill="rgb(26.483% 14.675% 77.822%)"/><rect width="1.1" height="10" x="92.2" fill="rgb(26.707% 14.89% 77.251%)"/><rect width="1.1" height="10" x="91.2" fill="rgb(26.924% 15.102% 76.681%)"/><rect width="1.1" height="10" x="90.2" fill="rgb(27.133% 15.31% 76.112%)"/><rect width="1.1" height="10" x="89.2" fill="rgb(27.334% 15.515% 75.543%)"/><rect width="1.1" height="10" x="88.2" fill="rgb(27.528% 15.717% 74.975%)"/><rect width="1.1" height="10" x="87.2" fill="rgb(27.715% 15.916% 74.407%)"/><rect width="1.1" height="10" x="86.2" fill="rgb(27.895% 16.112% 73.84%)"/><rect width="1.1" height="10" x="85.2" fill="rgb(28.069% 16.306% 73.274%)"/><rect width="1.1" height="10" x="84.2" fill="rgb(28.236% 16.497% 72.709%)"/><rect width="1.1" height="10" x="83.2" fill="rgb(28.397% 16.685% 72.144%)"/><rect width="1.1" height="10" x="82.2" fill="rgb(28.551% 16.871% 71.58%)"/><rect width="1.1" height="10" x="81.2" fill="rgb(28.7% 17.055% 71.016%)"/><rect width="1.1" height="10" x="80.2" fill="rgb(28.843% 17.236% 70.453%)"/><rect width="1.1" height="10" x="79.2" fill="rgb(28.98% 17.415% 69.891%)"/><rect width="1.1" height="10" x="78.2" fill="rgb(29.111% 17.591% 69.33%)"/><rect width="1.1" height="10" x="77.2" fill="rgb(29.238% 17.766% 68.769%)"/><rect width="1.1" height="10" x="76.2" fill="rgb(29.358% 17.938% 68.209%)"/><rect width="1.1" height="10" x="75.2" fill="rgb(29.474% 18.109% 67.65%)"/><rect width="1.1" height="10" x="74.2" fill="rgb(29.584% 18.277% 67.091%)"/><rect width="1.1" height="10" x="73.2" fill="rgb(29.69% 18.444% 66.533%)"/><rect width="1.1" height="10" x="72.2" fill="rgb(29.79% 18.609% 65.975%)"/><rect width="1.1" height="10" x="71.2" fill="rgb(29.886% 18.772% 65.419%)"/><rect width="1.1" height="10" x="70.2" fill="rgb(29.977% 18.933% 64.863%)"/><rect width="1.1" height="10" x="69.2" fill="rgb(30.063% 19.092% 64.307%)"/><rect width="1.1" height="10" x="68.2" fill="rgb(30.145% 19.25% 63.753%)"/><rect width="1.1" height="10" x="67.2" fill="rgb(30.222% 19.406% 63.199%)"/><rect width="1.1" height="10" x="66.2" fill="rgb(30.295% 19.56% 62.645%)"/><rect width="1.1" height="10" x="65.2" fill="rgb(30.363% 19.713% 62.093%)"/><rect width="1.1" height="10" x="64.2" fill="rgb(30.427% 19.864% 61.541%)"/><rect width="1.1" height="10" x="63.2" fill="rgb(30.487% 20.014% 60.99%)"/><rect width="1.1" height="10" x="62.2" fill="rgb(30.543% 20.162% 60.439%)"/><rect width="1.1" height="10" x="61.2" fill="rgb(30.595% 20.309% 59.889%)"/><rect width="1.1" height="10" x="60.2" fill="rgb(30.642% 20.455% 59.34%)"/><rect width="1.1" height="10" x="59.2" fill="rgb(30.686% 20.599% 58.791%)"/><rect width="1.1" height="10" x="58.2" fill="rgb(30.726% 20.742% 58.243%)"/><rect width="1.1" height="10" x="57.2" fill="rgb(30.761% 20.883% 57.696%)"/><rect width="1.1" height="10" x="56.2" fill="rgb(30.793% 21.023% 57.149%)"/><rect width="1.1" height="10" x="55.2" fill="rgb(30.822% 21.162% 56.604%)"/><rect width="1.1" height="10" x="54.2" fill="rgb(30.846% 21.299% 56.058%)"/><rect width="1.1" height="10" x="53.2" fill="rgb(30.867% 21.435% 55.514%)"/><rect width="1.1" height="10" x="52.2" fill="rgb(30.884% 21.57% 54.97%)"/><rect width="1.1" height="10" x="51.2" fill="rgb(30.898% 21.704% 54.427%)"/><rect width="1.1" height="10" x="50.2" fill="rgb(30.907% 21.837% 53.884%)"/><rect width="1.1" height="10" x="49.2" fill="rgb(30.914% 21.968% 53.342%)"/><rect width="1.1" height="10" x="48.2" fill="rgb(30.917% 22.099% 52.801%)"/><rect width="1.1" height="10" x="47.2" fill="rgb(30.916% 22.228% 52.26%)"/><rect width="1.1" height="10" x="46.2" fill="rgb(30.912% 22.356% 51.72%)"/><rect width="1.1" height="10" x="45.2" fill="rgb(30.905% 22.483% 51.181%)"/><rect width="1.1" height="10" x="44.2" fill="rgb(30.894% 22.609% 50.642%)"/><rect width="1.1" height="10" x="43.2" fill="rgb(30.88% 22.734% 50.104%)"/><rect width="1.1" height="10" x="42.2" fill="rgb(30.862% 22.858% 49.566%)"/><rect width="1.1" height="10" x="41.2" fill="rgb(30.842% 22.981% 49.03%)"/><rect width="1.1" height="10" x="40.2" fill="rgb(30.818% 23.103% 48.493%)"/><rect width="1.1" height="10" x="39.2" fill="rgb(30.79% 23.224% 47.958%)"/><rect width="1.1" height="10" x="38.2" fill="rgb(30.76% 23.344% 47.423%)"/><rect width="1.1" height="10" x="37.2" fill="rgb(30.726% 23.463% 46.888%)"/><rect width="1.1" height="10" x="36.2" fill="rgb(30.689% 23.581% 46.355%)"/><rect width="1.1" height="10" x="35.2" fill="rgb(30.649% 23.698% 45.821%)"/><rect width="1.1" height="10" x="34.2" fill="rgb(30.606% 23.814% 45.289%)"/><rect width="1.1" height="10" x="33.2" fill="rgb(30.56% 23.929% 44.757%)"/><rect width="1.1" height="10" x="32.2" fill="rgb(30.511% 24.044% 44.225%)"/><rect width="1.1" height="10" x="31.2" fill="rgb(30.458% 24.157% 43.694%)"/><rect width="1.1" height="10" x="30.2" fill="rgb(30.403% 24.27% 43.164%)"/><rect width="1.1" height="10" x="29.2" fill="rgb(30.344% 24.382% 42.634%)"/><rect width="1.1" height="10" x="28.2" fill="rgb(30.282% 24.493% 42.104%)"/><rect width="1.1" height="10" x="27.2" fill="rgb(30.218% 24.603% 41.576%)"/><rect width="1.1" height="10" x="26.2" fill="rgb(30.15% 24.712% 41.047%)"/><rect width="1.1" height="10" x="25.2" fill="rgb(30.079% 24.821% 40.519%)"/><rect width="1.1" height="10" x="24.2" fill="rgb(30.005% 24.928% 39.992%)"/><rect width="1.1" height="10" x="23.2" fill="rgb(29.929% 25.035% 39.465%)"/><rect width="1.1" height="10" x="22.2" fill="rgb(29.849% 25.141% 38.938%)"/><rect width="1.1" height="10" x="21.2" fill="rgb(29.766% 25.247% 38.412%)"/><rect width="1.1" height="10" x="20.2" fill="rgb(29.68% 25.351% 37.887%)"/><rect width="1.1" height="10" x="19.2" fill="rgb(29.592% 25.455% 37.361%)"/><rect width="1.1" height="10" x="18.2" fill="rgb(29.5% 25.558% 36.836%)"/><rect width="1.1" height="10" x="17.2" fill="rgb(29.405% 25.66% 36.312%)"/><rect width="1.1" height="10" x="16.2" fill="rgb(29.308% 25.762% 35.787%)"/><rect width="1.1" height="10" x="15.2" fill="rgb(29.207% 25.863% 35.263%)"/><rect width="1.1" height="10" x="14.2" fill="rgb(29.104% 25.963% 34.74%)"/><rect width="1.1" height="10" x="13.2" fill="rgb(28.997% 26.062% 34.216%)"/><rect width="1.1" height="10" x="12.2" fill="rgb(28.888% 26.161% 33.693%)"/><rect width="1.1" height="10" x="11.2" fill="rgb(28.775% 26.259% 33.17%)"/><rect width="1.1" height="10" x="10.2" fill="rgb(28.66% 26.356% 32.647%)"/><rect width="1.1" height="10" x="9.2" fill="rgb(28.541% 26.452% 32.124%)"/><rect width="1.1" height="10" x="8.2" fill="rgb(28.42% 26.548% 31.601%)"/><rect width="1.1" height="10" x="7.2" fill="rgb(28.296% 26.644% 31.078%)"/><rect width="1.1" height="10" x="6.2" fill="rgb(28.168% 26.738% 30.555%)"/><rect width="1.1" height="10" x="5.2" fill="rgb(28.038% 26.832% 30.032%)"/><rect width="1.1" height="10" x="4.2" fill="rgb(27.904% 26.925% 29.509%)"/><rect width="1.1" height="10" x="3.2" fill="rgb(27.768% 27.018% 28.986%)"/><rect width="1.1" height="10" x="2.2" fill="rgb(27.628% 27.11% 28.463%)"/><rect width="1.1" height="10" x="1.2" fill="rgb(27.485% 27.201% 27.939%)"/><rect width="1.1" height="10" x=".2" fill="rgb(27.34% 27.292% 27.415%)"/><rect width="132" height="25" y="15" fill="none" stroke="gray" stroke-width=".2"/><polyline fill="none" stroke="red" stroke-width=".2" points="131.2 40 130.2 39.948 129.2 39.898 128.2 39.848 127.2 39.8 126.2 39.752 125.2 39.704 124.2 39.658 123.2 39.612 122.2 39.567 121.2 39.523 120.2 39.479 119.2 39.437 118.2 39.395 117.2 39.353 116.2 39.313 115.2 39.273 114.2 39.234 113.2 39.196 112.2 39.158 111.2 39.121 110.2 39.085 109.2 39.05 108.2 39.015 107.2 38.981 106.2 38.947 105.2 38.915 104.2 38.883 103.2 38.851 102.2 38.821 101.2 38.791 100.2 38.761 99.2 38.733 98.2 38.705 97.2 38.677 96.2 38.651 95.2 38.625 94.2 38.599 93.2 38.575 92.2 38.55 91.2 38.527 90.2 38.504 89.2 38.482 88.2 38.46 87.2 38.439 86.2 38.419 85.2 38.399 84.2 38.38 83.2 38.361 82.2 38.343 81.2 38.326 80.2 38.309 79.2 38.293 78.2 38.277 77.2 38.262 76.2 38.247 75.2 38.233 74.2 38.22 73.2 38.207 72.2 38.195 71.2 38.183 70.2 38.172 69.2 38.161 68.2 38.151 67.2 38.141 66.2 38.132 65.2 38.124 64.2 38.116 63.2 38.108 62.2 38.101 61.2 38.095 60.2 38.089 59.2 38.083 58.2 38.078 57.2 38.073 56.2 38.069 55.2 38.066 54.2 38.063 53.2 38.06 52.2 38.058 51.2 38.056 50.2 38.055 49.2 38.054 48.2 38.053 47.2 38.054 46.2 38.054 45.2 38.055 44.2 38.056 43.2 38.058 42.2 38.06 41.2 38.063 40.2 38.066 39.2 38.07 38.2 38.074 37.2 38.078 36.2 38.083 35.2 38.088 34.2 38.093 33.2 38.099 32.2 38.105 31.2 38.112 30.2 38.119 29.2 38.126 28.2 38.134 27.2 38.142 26.2 38.15 25.2 38.159 24.2 38.168 23.2 38.178 22.2 38.188 21.2 38.198 20.2 38.208 19.2 38.219 18.2 38.23 17.2 38.242 16.2 38.254 15.2 38.266 14.2 38.278 13.2 38.291 12.2 38.304 11.2 38.317 10.2 38.331 9.2 38.344 8.2 38.359 7.2 38.373 6.2 38.388 5.2 38.403 4.2 38.418 3.2 38.433 2.2 38.449 1.2 38.465 .2 38.481"/><polyline fill="none" stroke="green" stroke-width=".2" points="131.2 40 130.2 39.987 129.2 39.975 128.2 39.962 127.2 39.949 126.2 39.937 125.2 39.924 124.2 39.912 123.2 39.899 122.2 39.887 121.2 39.874 120.2 39.862 119.2 39.849 118.2 39.837 117.2 39.824 116.2 39.812 115.2 39.799 114.2 39.787 113.2 39.774 112.2 39.762 111.2 39.749 110.2 39.737 109.2 39.725 108.2 39.712 107.2 39.7 106.2 39.688 105.2 39.675 104.2 39.663 103.2 39.651 102.2 39.638 101.2 39.626 100.2 39.614 99.2 39.601 98.2 39.589 97.2 39.577 96.2 39.565 95.2 39.553 94.2 39.54 93.2 39.528 92.2 39.516 91.2 39.504 90.2 39.492 89.2 39.48 88.2 39.468 87.2 39.456 86.2 39.444 85.2 39.432 84.2 39.419 83.2 39.407 82.2 39.396 81.2 39.384 80.2 39.372 79.2 39.36 78.2 39.348 77.2 39.336 76.2 39.324 75.2 39.312 74.2 39.3 73.2 39.288 72.2 39.277 71.2 39.265 70.2 39.253 69.2 39.241 68.2 39.23 67.2 39.218 66.2 39.206 65.2 39.195 64.2 39.183 63.2 39.171 62.2 39.16 61.2 39.148 60.2 39.137 59.2 39.125 58.2 39.113 57.2 39.102 56.2 39.09 55.2 39.079 54.2 39.068 53.2 39.056 52.2 39.045 51.2 39.033 50.2 39.022 49.2 39.011 48.2 38.999 47.2 38.988 46.2 38.977 45.2 38.966 44.2 38.954 43.2 38.943 42.2 38.932 41.2 38.921 40.2 38.91 39.2 38.899 38.2 38.888 37.2 38.877 36.2 38.866 35.2 38.855 34.2 38.844 33.2 38.833 32.2 38.822 31.2 38.811 30.2 38.8 29.2 38.789 28.2 38.778 27.2 38.767 26.2 38.757 25.2 38.746 24.2 38.735 23.2 38.725 22.2 38.714 21.2 38.703 20.2 38.693 19.2 38.682 18.2 38.672 17.2 38.661 16.2 38.651 15.2 38.64 14.2 38.63 13.2 38.619 12.2 38.609 11.2 38.598 10.2 38.588 9.2 38.578 8.2 38.568 7.2 38.557 6.2 38.547 5.2 38.537 4.2 38.527 3.2 38.517 2.2 38.507 1.2 38.497 .2 38.487"/><polyline fill="none" stroke="#00f" stroke-width=".2" points="131.2 15.002 130.2 15.34 129.2 15.674 128.2 16.005 127.2 16.333 126.2 16.658 125.2 16.98 124.2 17.3 123.2 17.616 122.2 17.93 121.2 18.24 120.2 18.548 119.2 18.853 118.2 19.154 117.2 19.453 116.2 19.75 115.2 20.043 114.2 20.334 113.2 20.621 112.2 20.906 111.2 21.189 110.2 21.468 109.2 21.745 108.2 22.019 107.2 22.29 106.2 22.559 105.2 22.825 104.2 23.088 103.2 23.348 102.2 23.606 101.2 23.862 100.2 24.114 99.2 24.364 98.2 24.612 97.2 24.857 96.2 25.099 95.2 25.339 94.2 25.576 93.2 25.811 92.2 26.043 91.2 26.273 90.2 26.5 89.2 26.725 88.2 26.947 87.2 27.167 86.2 27.384 85.2 27.599 84.2 27.812 83.2 28.022 82.2 28.23 81.2 28.435 80.2 28.638 79.2 28.839 78.2 29.037 77.2 29.234 76.2 29.427 75.2 29.619 74.2 29.808 73.2 29.995 72.2 30.18 71.2 30.363 70.2 30.543 69.2 30.721 68.2 30.897 67.2 31.071 66.2 31.242 65.2 31.412 64.2 31.579 63.2 31.745 62.2 31.908 61.2 32.069 60.2 32.228 59.2 32.385 58.2 32.539 57.2 32.692 56.2 32.843 55.2 32.992 54.2 33.138 53.2 33.283 52.2 33.426 51.2 33.567 50.2 33.706 49.2 33.843 48.2 33.978 47.2 34.111 46.2 34.242 45.2 34.372 44.2 34.499 43.2 34.625 42.2 34.749 41.2 34.871 40.2 34.991 39.2 35.109 38.2 35.226 37.2 35.341 36.2 35.454 35.2 35.565 34.2 35.675 33.2 35.783 32.2 35.889 31.2 35.994 30.2 36.097 29.2 36.198 28.2 36.298 27.2 36.396 26.2 36.492 25.2 36.587 24.2 36.68 23.2 36.771 22.2 36.861 21.2 36.95 20.2 37.037 19.2 37.122 18.2 37.206 17.2 37.288 16.2 37.369 15.2 37.449 14.2 37.527 13.2 37.603 12.2 37.678 11.2 37.752 10.2 37.824 9.2 37.895 8.2 37.965 7.2 38.033 6.2 38.1 5.2 38.165 4.2 38.229 3.2 38.292 2.2 38.354 1.2 38.414 .2 38.473"/></svg>