<svg xmlns="http://www.w3.org/2000/svg" overflow="visible" viewBox="-140 -140 290 280"><desc>Show a top-down view of the CIE Lab colorspace. The display-p3 primaries and secondaries are shown, with an annotation indicating the L value. For comparison, the sRGB primaries and secondaries are also shown.</desc><g fill="none" stroke="#000" stroke-width=".5">​<polyline points="0 -120 0 120"/><polyline points="-120 0 120 0"/><g stroke="#888"><path d="M-3,-110 h6 M-3,-100 h6 M-3,-90 h6 M-3,-80 h6 M-3,-70 h6 M-3,-60 h6 M-3,-50 h6 M-3,-40 h6 M-3,-30 h6 M-3,-20 h6 M-3,-10 h6 M-3,10 h6 M-3,20 h6 M-3,30 h6 M-3,40 h6 M-3,50 h6 M-3,60 h6 M-3,70 h6 M-3,80 h6 M-3,90 h6 M-3,100 h6 M-3,110 h6"/><path d="M110,-3 v6 M100,-3 v6 M90,-3 v6 M80,-3 v6 M70,-3 v6 M60,-3 v6 M50,-3 v6 M40,-3 v6 M30,-3 v6 M20,-3 v6 M10,-3 v6 M-10,-3 v6 M-20,-3 v6 M-30,-3 v6 M-40,-3 v6 M-50,-3 v6 M-60,-3 v6 M-70,-3 v6 M-80,-3 v6 M-90,-3 v6 M-100,-3 v6 M-110,-3 v6"/><g stroke="#bbb" stroke-dasharray="1 2"><polyline points="0 0 80.81 -69.88"/><polyline points="0 0 -79.28 -80.99"/><polyline points="0 0 68.29 112.02"/><polyline points="0 0 -50.66 14.96"/><polyline points="0 0 93.54 60.49"/><polyline points="0 0 -15.75 -93.38"/></g><polyline points="0 0 94.469 -98.883"/><polyline points="0 0 -106.559 -102.871"/><polyline points="0 0 70.472 115.594"/><polyline points="0 0 -68.471 17.676"/><polyline points="0 0 105.781 61.54"/><polyline points="0 0 -17.445 -122.031"/></g></g><g fill="#fff" stroke="#bbb" stroke-dasharray="1 2" stroke-width=".5"><circle cx="80.812" cy="-69.885" r="3" fill="#FF000040"/><circle cx="-79.287" cy="-80.99" r="3" fill="#00FF0040"/><circle cx="68.299" cy="112.029" r="3" fill="#0000FF40"/><circle cx="-50.665" cy="14.962" r="3" fill="#00FFFF40"/><circle cx="93.55" cy="60.499" r="3" fill="#FF00FF40"/><circle cx="-15.753" cy="-93.388" r="3" fill="#FFFF0040"/></g><g stroke="none" stroke-width=".5"><circle cx="94.469" cy="-98.884" r="3" fill="red"/><circle cx="-106.56" cy="-102.872" r="3" fill="green"/><circle cx="70.472" cy="115.594" r="3" fill="#00f"/><circle cx="-68.472" cy="17.676" r="3" fill="#0ff"/><circle cx="105.781" cy="61.54" r="3" fill="#f0f"/><circle cx="-17.445" cy="-122.031" r="3" fill="#ff0"/></g><circle r="4"/><circle r="3" fill="#777"/><circle r="2" fill="#fff"/><g font-family="sans-serif" font-size="8"><text x="120" y="-3">+a</text><text x="-120.5" y="-3" text-anchor="end">-a</text><text x="4" y="122">-b</text><text x="4" y="-118">+b</text></g><g font-family="sans-serif" font-size="5pt"><text x="88" y="-80">L: 56.2047%<tspan x="88" dy="10">C: 136.75689<tspan x="88" dy="10">H: 46.3080</tspan></tspan></text><text x="-134" y="-85.9">L: 86.6146%<tspan x="-134" dy="10">C: 148.1135<tspan x="-134" dy="10">H: 136.0089</tspan></tspan></text><text x="75" y="97">L: 29.5676%<tspan x="75" dy="10">C: 131.2070<tspan x="75" dy="10">H: 301.3685</tspan></tspan></text><text x="-116" y="12">L: 89.8048%<tspan x="-116" dy="10">C: 70.7166<tspan x="-116" dy="10">H: 194.4753</tspan></tspan></text><text x="105" y="35">L: 62.3180%<tspan x="105" dy="10">C: 122.3802<tspan x="105" dy="10">H: 329.8104</tspan></tspan></text><text x="-63" y="-120">L: 97.3656%<tspan x="-63" dy="10">C: 123.2719<tspan x="-63" dy="10">H: 98.1357</tspan></tspan></text></g></svg>