<svg xmlns="http://www.w3.org/2000/svg" viewBox="-220 -190 390 380"><desc>Show a top-down view of the CIE Lab colorspace. The prophoto-rgb primaries and secondaries are shown, with an annotation indicating the L value. For comparison, the sRGB primaries and secondaries are also shown.</desc><g fill="none" stroke="#000" stroke-width=".5">​<polyline points="0 -180 0 180"/><polyline points="-200 0 150 0"/><g stroke="#888"><path d="M-3,-170 h6 M-3,-160 h6 M-3,-150 h6 M-3,-140 h6 M-3,-130 h6 M-3,-120 h6 M-3,-110 h6 M-3,-100 h6 M-3,-90 h6 M-3,-80 h6 M-3,-70 h6 M-3,-60 h6 M-3,-50 h6 M-3,-40 h6 M-3,-30 h6 M-3,-20 h6 M-3,-10 h6 M-3,10 h6 M-3,20 h6 M-3,30 h6 M-3,40 h6 M-3,50 h6 M-3,60 h6 M-3,70 h6 M-3,80 h6 M-3,90 h6 M-3,100 h6 M-3,110 h6 M-3,120 h6 M-3,130 h6 M-3,140 h6 M-3,150 h6 M-3,160 h6 M-3,170 h6"/><path d="M140,-3 v6 M130,-3 v6 M120,-3 v6 M110,-3 v6 M100,-3 v6 M90,-3 v6 M80,-3 v6 M70,-3 v6 M60,-3 v6 M50,-3 v6 M40,-3 v6 M30,-3 v6 M20,-3 v6 M10,-3 v6 M-10,-3 v6 M-20,-3 v6 M-30,-3 v6 M-40,-3 v6 M-50,-3 v6 M-60,-3 v6 M-70,-3 v6 M-80,-3 v6 M-90,-3 v6 M-100,-3 v6 M-110,-3 v6 M-120,-3 v6 M-130,-3 v6 M-140,-3 v6 M-150,-3 v6 M-160,-3 v6 M-170,-3 v6 M-180,-3 v6 M-190,-3 v6"/><g stroke="#bbb" stroke-dasharray="1 2"><polyline points="0 0 80.81 -69.88"/><polyline points="0 0 -79.28 -80.99"/><polyline points="0 0 68.29 112.02"/><polyline points="0 0 -50.66 14.96"/><polyline points="0 0 93.54 60.49"/><polyline points="0 0 -15.75 -93.38"/></g><polyline points="0 0 139.172 -104.502"/><polyline points="0 0 -186.692 -150.99"/><polyline points="0 0 90.284 172.272"/><polyline points="0 0 -168.01 21.408"/><polyline points="0 0 145.209 67.89"/><polyline points="0 0 -5.451 -172.408"/></g></g><g fill="#fff" stroke="#bbb" stroke-dasharray="1 2" stroke-width=".5"><circle cx="80.812" cy="-69.885" r="3" fill="#FF000040"/><circle cx="-79.287" cy="-80.99" r="3" fill="#00FF0040"/><circle cx="68.299" cy="112.029" r="3" fill="#0000FF40"/><circle cx="-50.665" cy="14.962" r="3" fill="#00FFFF40"/><circle cx="93.55" cy="60.499" r="3" fill="#FF00FF40"/><circle cx="-15.753" cy="-93.388" r="3" fill="#FFFF0040"/></g><g stroke="none" stroke-width=".5"><circle cx="139.172" cy="-104.502" r="3" fill="red"/><circle cx="-186.692" cy="-150.99" r="3" fill="green"/><circle cx="90.284" cy="172.272" r="3" fill="#00f"/><circle cx="-168.01" cy="21.408" r="3" fill="#0ff"/><circle cx="145.209" cy="67.89" r="3" fill="#f0f"/><circle cx="-5.451" cy="-172.408" r="3" fill="#ff0"/></g><circle r="4"/><circle r="3" fill="#777"/><circle r="2" fill="#fff"/><g font-family="sans-serif" font-size="8"><text x="150" y="-3">+a</text><text x="-200.5" y="-3" text-anchor="end">-a</text><text x="4" y="182">-b</text><text x="4" y="-178">+b</text></g><g font-family="sans-serif" font-size="5pt"><text x="115" y="-143">L: 60.6110%<tspan x="115" dy="10">C: 174.03857<tspan x="115" dy="10">H: 36.9023</tspan></tspan></text><text x="-194" y="-112">L: 87.5745%<tspan x="-194" dy="10">C: 240.1084<tspan x="-194" dy="10">H: 141.0352</tspan></tspan></text><text x="100" y="145">L: 0.0774%<tspan x="100" dy="10">C: 194.4964<tspan x="100" dy="10">H: 297.6581</tspan></tspan></text><text x="-176" y="36">L: 87.5786%<tspan x="-176" dy="10">C: 169.3684<tspan x="-176" dy="10">H: 187.2614</tspan></tspan></text><text x="115" y="25">L: 60.6186%<tspan x="115" dy="10">C: 160.2957<tspan x="115" dy="10">H: 334.9422</tspan></tspan></text><text x="-63" y="-170">L: 99.9967%<tspan x="-63" dy="10">C: -5.4509<tspan x="-63" dy="10">H: 172.4081</tspan></tspan></text></g></svg>