<svg xmlns="http://www.w3.org/2000/svg" viewBox="-4 -4 160 90"><desc>Show a gradient from sRGB blue, in JzCzHz, as Chroma is reduced from the max value (0.156) to near-zero demonstrating less purpling mid-way compared to LCH. 1.1 is an egregious hack to avoid limited subpixel precision compositing artifacts</desc><rect width="1.1" height="10" x="146.655" fill="salmon"/><rect width="1.1" height="10" x="145.655" fill="salmon"/><rect width="1.1" height="10" x="144.655" fill="salmon"/><rect width="1.1" height="10" x="143.655" fill="salmon"/><rect width="1.1" height="10" x="142.655" fill="salmon"/><rect width="1.1" height="10" x="141.655" fill="salmon"/><rect width="1.1" height="10" x="140.655" fill="salmon"/><rect width="1.1" height="10" x="139.655" fill="salmon"/><rect width="1.1" height="10" x="138.655" fill="salmon"/><rect width="1.1" height="10" x="137.655" fill="salmon"/><rect width="1.1" height="10" x="136.655" fill="salmon"/><rect width="1.1" height="10" x="135.655" fill="salmon"/><rect width="1.1" height="10" x="134.655" fill="salmon"/><rect width="1.1" height="10" x="133.655" fill="salmon"/><rect width="1.1" height="10" x="132.655" fill="salmon"/><rect width="1.1" height="10" x="131.655" fill="salmon"/><rect width="1.1" height="10" x="130.655" fill="salmon"/><rect width="1.1" height="10" x="129.655" fill="salmon"/><rect width="1.1" height="10" x="128.655" fill="salmon"/><rect width="1.1" height="10" x="127.655" fill="salmon"/><rect width="1.1" height="10" x="126.655" fill="salmon"/><rect width="1.1" height="10" x="125.655" fill="salmon"/><rect width="1.1" height="10" x="124.655" fill="salmon"/><rect width="1.1" height="10" x="123.655" fill="salmon"/><rect width="1.1" height="10" x="122.655" fill="salmon"/><rect width="1.1" height="10" x="121.655" fill="salmon"/><rect width="1.1" height="10" x="120.655" fill="salmon"/><rect width="1.1" height="10" x="119.655" fill="salmon"/><rect width="1.1" height="10" x="118.655" fill="salmon"/><rect width="1.1" height="10" x="117.655" fill="salmon"/><rect width="1.1" height="10" x="116.655" fill="salmon"/><rect width="1.1" height="10" x="115.655" fill="salmon"/><rect width="1.1" height="10" x="114.655" fill="salmon"/><rect width="1.1" height="10" x="113.655" fill="salmon"/><rect width="1.1" height="10" x="112.655" fill="salmon"/><rect width="1.1" height="10" x="111.655" fill="salmon"/><rect width="1.1" height="10" x="110.655" fill="salmon"/><rect width="1.1" height="10" x="109.655" fill="salmon"/><rect width="1.1" height="10" x="108.655" fill="salmon"/><rect width="1.1" height="10" x="107.655" fill="salmon"/><rect width="1.1" height="10" x="106.655" fill="salmon"/><rect width="1.1" height="10" x="105.655" fill="salmon"/><rect width="1.1" height="10" x="104.655" fill="salmon"/><rect width="1.1" height="10" x="103.655" fill="salmon"/><rect width="1.1" height="10" x="102.655" fill="salmon"/><rect width="1.1" height="10" x="101.655" fill="salmon"/><rect width="1.1" height="10" x="100.655" fill="salmon"/><rect width="1.1" height="10" x="99.655" fill="salmon"/><rect width="1.1" height="10" x="98.655" fill="salmon"/><rect width="1.1" height="10" x="97.655" fill="salmon"/><rect width="1.1" height="10" x="96.655" fill="salmon"/><rect width="1.1" height="10" x="95.655" fill="salmon"/><rect width="1.1" height="10" x="94.655" fill="salmon"/><rect width="1.1" height="10" x="93.655" fill="salmon"/><rect width="1.1" height="10" x="92.655" fill="salmon"/><rect width="1.1" height="10" x="91.655" fill="salmon"/><rect width="1.1" height="10" x="90.655" fill="salmon"/><rect width="1.1" height="10" x="89.655" fill="salmon"/><rect width="1.1" height="10" x="88.655" fill="salmon"/><rect width="1.1" height="10" x="87.655" fill="salmon"/><rect width="1.1" height="10" x="86.655" fill="salmon"/><rect width="1.1" height="10" x="85.655" fill="salmon"/><rect width="1.1" height="10" x="84.655" fill="salmon"/><rect width="1.1" height="10" x="83.655" fill="salmon"/><rect width="1.1" height="10" x="82.655" fill="salmon"/><rect width="1.1" height="10" x="81.655" fill="salmon"/><rect width="1.1" height="10" x="80.655" fill="salmon"/><rect width="1.1" height="10" x="79.655" fill="salmon"/><rect width="1.1" height="10" x="78.655" fill="salmon"/><rect width="1.1" height="10" x="77.655" fill="salmon"/><rect width="1.1" height="10" x="76.655" fill="salmon"/><rect width="1.1" height="10" x="75.655" fill="salmon"/><rect width="1.1" height="10" x="74.655" fill="salmon"/><rect width="1.1" height="10" x="73.655" fill="salmon"/><rect width="1.1" height="10" x="72.655" fill="salmon"/><rect width="1.1" height="10" x="71.655" fill="salmon"/><rect width="1.1" height="10" x="70.655" fill="salmon"/><rect width="1.1" height="10" x="69.655" fill="salmon"/><rect width="1.1" height="10" x="68.655" fill="salmon"/><rect width="1.1" height="10" x="67.655" fill="salmon"/><rect width="1.1" height="10" x="66.655" fill="salmon"/><rect width="1.1" height="10" x="65.655" fill="salmon"/><rect width="1.1" height="10" x="64.655" fill="salmon"/><rect width="1.1" height="10" x="63.655" fill="salmon"/><rect width="1.1" height="10" x="62.655" fill="salmon"/><rect width="1.1" height="10" x="61.655" fill="salmon"/><rect width="1.1" height="10" x="60.655" fill="salmon"/><rect width="1.1" height="10" x="59.655" fill="salmon"/><rect width="1.1" height="10" x="58.655" fill="salmon"/><rect width="1.1" height="10" x="57.655" fill="salmon"/><rect width="1.1" height="10" x="56.655" fill="salmon"/><rect width="1.1" height="10" x="55.655" fill="salmon"/><rect width="1.1" height="10" x="54.655" fill="salmon"/><rect width="1.1" height="10" x="53.655" fill="salmon"/><rect width="1.1" height="10" x="52.655" fill="rgb(1.189% 33.847% 61.727%)"/><rect width="1.1" height="10" x="51.655" fill="rgb(2.789% 33.898% 61.291%)"/><rect width="1.1" height="10" x="50.655" fill="rgb(4.385% 33.947% 60.856%)"/><rect width="1.1" height="10" x="49.655" fill="rgb(5.764% 33.993% 60.42%)"/><rect width="1.1" height="10" x="48.655" fill="rgb(6.947% 34.036% 59.985%)"/><rect width="1.1" height="10" x="47.655" fill="rgb(7.996% 34.078% 59.551%)"/><rect width="1.1" height="10" x="46.655" fill="rgb(8.947% 34.117% 59.116%)"/><rect width="1.1" height="10" x="45.655" fill="rgb(9.823% 34.154% 58.682%)"/><rect width="1.1" height="10" x="44.655" fill="rgb(10.638% 34.188% 58.248%)"/><rect width="1.1" height="10" x="43.655" fill="rgb(11.403% 34.22% 57.814%)"/><rect width="1.1" height="10" x="42.655" fill="rgb(12.127% 34.251% 57.38%)"/><rect width="1.1" height="10" x="41.655" fill="rgb(12.815% 34.278% 56.947%)"/><rect width="1.1" height="10" x="40.655" fill="rgb(13.472% 34.304% 56.513%)"/><rect width="1.1" height="10" x="39.655" fill="rgb(14.102% 34.328% 56.08%)"/><rect width="1.1" height="10" x="38.655" fill="rgb(14.708% 34.349% 55.647%)"/><rect width="1.1" height="10" x="37.655" fill="rgb(15.292% 34.369% 55.214%)"/><rect width="1.1" height="10" x="36.655" fill="rgb(15.858% 34.386% 54.781%)"/><rect width="1.1" height="10" x="35.655" fill="rgb(16.406% 34.401% 54.348%)"/><rect width="1.1" height="10" x="34.655" fill="rgb(16.938% 34.415% 53.916%)"/><rect width="1.1" height="10" x="33.655" fill="rgb(17.455% 34.426% 53.483%)"/><rect width="1.1" height="10" x="32.655" fill="rgb(17.959% 34.435% 53.05%)"/><rect width="1.1" height="10" x="31.655" fill="rgb(18.451% 34.442% 52.618%)"/><rect width="1.1" height="10" x="30.655" fill="rgb(18.931% 34.448% 52.185%)"/><rect width="1.1" height="10" x="29.655" fill="rgb(19.401% 34.451% 51.752%)"/><rect width="1.1" height="10" x="28.655" fill="rgb(19.861% 34.452% 51.32%)"/><rect width="1.1" height="10" x="27.655" fill="rgb(20.311% 34.452% 50.887%)"/><rect width="1.1" height="10" x="26.655" fill="rgb(20.753% 34.449% 50.454%)"/><rect width="1.1" height="10" x="25.655" fill="rgb(21.186% 34.445% 50.021%)"/><rect width="1.1" height="10" x="24.655" fill="rgb(21.612% 34.438% 49.588%)"/><rect width="1.1" height="10" x="23.655" fill="rgb(22.031% 34.43% 49.155%)"/><rect width="1.1" height="10" x="22.655" fill="rgb(22.442% 34.42% 48.721%)"/><rect width="1.1" height="10" x="21.655" fill="rgb(22.847% 34.408% 48.288%)"/><rect width="1.1" height="10" x="20.655" fill="rgb(23.246% 34.395% 47.854%)"/><rect width="1.1" height="10" x="19.655" fill="rgb(23.639% 34.379% 47.42%)"/><rect width="1.1" height="10" x="18.655" fill="rgb(24.026% 34.362% 46.985%)"/><rect width="1.1" height="10" x="17.655" fill="rgb(24.408% 34.342% 46.551%)"/><rect width="1.1" height="10" x="16.655" fill="rgb(24.784% 34.321% 46.116%)"/><rect width="1.1" height="10" x="15.655" fill="rgb(25.156% 34.298% 45.68%)"/><rect width="1.1" height="10" x="14.655" fill="rgb(25.523% 34.274% 45.245%)"/><rect width="1.1" height="10" x="13.655" fill="rgb(25.886% 34.247% 44.808%)"/><rect width="1.1" height="10" x="12.655" fill="rgb(26.244% 34.219% 44.372%)"/><rect width="1.1" height="10" x="11.655" fill="rgb(26.598% 34.189% 43.935%)"/><rect width="1.1" height="10" x="10.655" fill="rgb(26.948% 34.158% 43.497%)"/><rect width="1.1" height="10" x="9.655" fill="rgb(27.294% 34.124% 43.059%)"/><rect width="1.1" height="10" x="8.655" fill="rgb(27.636% 34.089% 42.62%)"/><rect width="1.1" height="10" x="7.655" fill="rgb(27.975% 34.052% 42.18%)"/><rect width="1.1" height="10" x="6.655" fill="rgb(28.31% 34.014% 41.74%)"/><rect width="1.1" height="10" x="5.655" fill="rgb(28.642% 33.973% 41.299%)"/><rect width="1.1" height="10" x="4.655" fill="rgb(28.97% 33.931% 40.858%)"/><rect width="1.1" height="10" x="3.655" fill="rgb(29.296% 33.888% 40.415%)"/><rect width="1.1" height="10" x="2.655" fill="rgb(29.618% 33.842% 39.972%)"/><rect width="1.1" height="10" x="1.655" fill="rgb(29.938% 33.795% 39.528%)"/><rect width="1.1" height="10" x=".655" fill="rgb(30.254% 33.746% 39.082%)"/><rect width="1.1" height="10" x="-.345" fill="rgb(30.568% 33.695% 38.636%)"/><rect width="146.572" height="35" y="15" fill="none" stroke="gray" stroke-width=".2"/><polyline fill="none" stroke="red" stroke-width=".2" points="146.655 50 145.655 49.989 144.655 49.978 143.655 49.967 142.655 49.956 141.655 49.944 140.655 49.933 139.655 49.921 138.655 49.909 137.655 49.897 136.655 49.885 135.655 49.873 134.655 49.86 133.655 49.847 132.655 49.835 131.655 49.822 130.655 49.808 129.655 49.795 128.655 49.782 127.655 49.768 126.655 49.754 125.655 49.741 124.655 49.726 123.655 49.712 122.655 49.698 121.655 49.684 120.655 49.669 119.655 49.654 118.655 49.639 117.655 49.624 116.655 49.609 115.655 49.594 114.655 49.578 113.655 49.563 112.655 49.547 111.655 49.531 110.655 49.515 109.655 49.499 108.655 49.483 107.655 49.467 106.655 49.45 105.655 49.434 104.655 49.417 103.655 49.4 102.655 49.383 101.655 49.366 100.655 49.348 99.655 49.331 98.655 49.314 97.655 49.296 96.655 49.278 95.655 49.26 94.655 49.242 93.655 49.224 92.655 49.206 91.655 49.188 90.655 49.169 89.655 49.15 88.655 49.132 87.655 49.113 86.655 49.094 85.655 49.075 84.655 49.056 83.655 49.036 82.655 49.017 81.655 48.997 80.655 48.978 79.655 48.958 78.655 48.938 77.655 48.918 76.655 48.898 75.655 48.878 74.655 48.858 73.655 48.837 72.655 48.817 71.655 48.796 70.655 48.776 69.655 48.755 68.655 48.734 67.655 48.713 66.655 48.692 65.655 48.67 64.655 48.649 63.655 48.628 62.655 48.606 61.655 48.584 60.655 48.563 59.655 48.541 58.655 48.519 57.655 48.497 56.655 48.475 55.655 48.453 54.655 48.43 53.655 48.408 52.655 48.385 51.655 48.363 50.655 48.34 49.655 48.317 48.655 48.294 47.655 48.272 46.655 48.248 45.655 48.225 44.655 48.202 43.655 48.179 42.655 48.155 41.655 48.132 40.655 48.108 39.655 48.085 38.655 48.061 37.655 48.037 36.655 48.013 35.655 47.989 34.655 47.965 33.655 47.941 32.655 47.916 31.655 47.892 30.655 47.868 29.655 47.843 28.655 47.818 27.655 47.794 26.655 47.769 25.655 47.744 24.655 47.719 23.655 47.694 22.655 47.669 21.655 47.644 20.655 47.619 19.655 47.593 18.655 47.568 17.655 47.542 16.655 47.517 15.655 47.491 14.655 47.466 13.655 47.44 12.655 47.414 11.655 47.388 10.655 47.362 9.655 47.336 8.655 47.31 7.655 47.284 6.655 47.257 5.655 47.231 4.655 47.205 3.655 47.178 2.655 47.151 1.655 47.125 .655 47.098 -.345 47.071"/><polyline fill="none" stroke="green" stroke-width=".2" points="146.655 50 145.655 49.938 144.655 49.877 143.655 49.817 142.655 49.758 141.655 49.699 140.655 49.641 139.655 49.584 138.655 49.527 137.655 49.471 136.655 49.416 135.655 49.361 134.655 49.308 133.655 49.254 132.655 49.202 131.655 49.15 130.655 49.099 129.655 49.048 128.655 48.999 127.655 48.949 126.655 48.901 125.655 48.853 124.655 48.806 123.655 48.759 122.655 48.713 121.655 48.668 120.655 48.623 119.655 48.579 118.655 48.535 117.655 48.493 116.655 48.45 115.655 48.409 114.655 48.368 113.655 48.327 112.655 48.287 111.655 48.248 110.655 48.209 109.655 48.171 108.655 48.134 107.655 48.097 106.655 48.06 105.655 48.025 104.655 47.989 103.655 47.955 102.655 47.921 101.655 47.887 100.655 47.854 99.655 47.821 98.655 47.789 97.655 47.758 96.655 47.727 95.655 47.697 94.655 47.667 93.655 47.638 92.655 47.609 91.655 47.581 90.655 47.553 89.655 47.526 88.655 47.499 87.655 47.473 86.655 47.447 85.655 47.422 84.655 47.397 83.655 47.373 82.655 47.349 81.655 47.326 80.655 47.303 79.655 47.28 78.655 47.259 77.655 47.237 76.655 47.216 75.655 47.196 74.655 47.176 73.655 47.156 72.655 47.137 71.655 47.118 70.655 47.1 69.655 47.083 68.655 47.065 67.655 47.048 66.655 47.032 65.655 47.016 64.655 47 63.655 46.985 62.655 46.97 61.655 46.956 60.655 46.942 59.655 46.929 58.655 46.916 57.655 46.903 56.655 46.891 55.655 46.879 54.655 46.867 53.655 46.856 52.655 46.846 51.655 46.835 50.655 46.826 49.655 46.816 48.655 46.807 47.655 46.798 46.655 46.79 45.655 46.782 44.655 46.774 43.655 46.767 42.655 46.76 41.655 46.754 40.655 46.747 39.655 46.742 38.655 46.736 37.655 46.731 36.655 46.726 35.655 46.722 34.655 46.718 33.655 46.714 32.655 46.711 31.655 46.708 30.655 46.705 29.655 46.703 28.655 46.701 27.655 46.699 26.655 46.698 25.655 46.697 24.655 46.696 23.655 46.696 22.655 46.696 21.655 46.696 20.655 46.697 19.655 46.698 18.655 46.699 17.655 46.7 16.655 46.702 15.655 46.704 14.655 46.707 13.655 46.709 12.655 46.712 11.655 46.716 10.655 46.719 9.655 46.723 8.655 46.727 7.655 46.732 6.655 46.737 5.655 46.742 4.655 46.747 3.655 46.752 2.655 46.758 1.655 46.764 .655 46.771 -.345 46.777"/><polyline fill="none" stroke="#00f" stroke-width=".2" points="146.655 15 145.655 15.368 144.655 15.734 143.655 16.096 142.655 16.456 141.655 16.812 140.655 17.166 139.655 17.517 138.655 17.866 137.655 18.211 136.655 18.554 135.655 18.894 134.655 19.231 133.655 19.566 132.655 19.897 131.655 20.227 130.655 20.553 129.655 20.877 128.655 21.198 127.655 21.517 126.655 21.833 125.655 22.147 124.655 22.458 123.655 22.766 122.655 23.072 121.655 23.375 120.655 23.676 119.655 23.974 118.655 24.27 117.655 24.564 116.655 24.855 115.655 25.144 114.655 25.43 113.655 25.714 112.655 25.995 111.655 26.274 110.655 26.551 109.655 26.826 108.655 27.098 107.655 27.368 106.655 27.635 105.655 27.901 104.655 28.164 103.655 28.425 102.655 28.683 101.655 28.94 100.655 29.194 99.655 29.446 98.655 29.696 97.655 29.944 96.655 30.189 95.655 30.433 94.655 30.674 93.655 30.913 92.655 31.151 91.655 31.386 90.655 31.619 89.655 31.85 88.655 32.079 87.655 32.306 86.655 32.531 85.655 32.754 84.655 32.975 83.655 33.194 82.655 33.412 81.655 33.627 80.655 33.84 79.655 34.052 78.655 34.261 77.655 34.469 76.655 34.675 75.655 34.879 74.655 35.081 73.655 35.281 72.655 35.479 71.655 35.676 70.655 35.871 69.655 36.064 68.655 36.255 67.655 36.445 66.655 36.633 65.655 36.819 64.655 37.003 63.655 37.186 62.655 37.366 61.655 37.546 60.655 37.723 59.655 37.899 58.655 38.073 57.655 38.246 56.655 38.417 55.655 38.586 54.655 38.754 53.655 38.92 52.655 39.085 51.655 39.248 50.655 39.409 49.655 39.569 48.655 39.727 47.655 39.884 46.655 40.039 45.655 40.193 44.655 40.345 43.655 40.496 42.655 40.645 41.655 40.793 40.655 40.939 39.655 41.084 38.655 41.227 37.655 41.369 36.655 41.51 35.655 41.649 34.655 41.787 33.655 41.923 32.655 42.058 31.655 42.192 30.655 42.324 29.655 42.455 28.655 42.585 27.655 42.713 26.655 42.84 25.655 42.966 24.655 43.09 23.655 43.213 22.655 43.335 21.655 43.455 20.655 43.574 19.655 43.692 18.655 43.809 17.655 43.924 16.655 44.038 15.655 44.151 14.655 44.263 13.655 44.374 12.655 44.483 11.655 44.591 10.655 44.698 9.655 44.804 8.655 44.909 7.655 45.012 6.655 45.115 5.655 45.216 4.655 45.316 3.655 45.415 2.655 45.513 1.655 45.609 .655 45.705 -.345 45.8"/></svg>