<svg xmlns="http://www.w3.org/2000/svg" viewBox="-4 -4 160 90"><desc>Show a gradient from rec2020 blue, in LCH, as Chroma is reduced from the max value (146.572) to near-zero demonstrating a purpling mid-way. 1.1 is an egregious hack to avoid limited subpixel precision compositing artifacts</desc><rect width="1.1" height="10" x="146.572" fill="salmon"/><rect width="1.1" height="10" x="145.572" fill="salmon"/><rect width="1.1" height="10" x="144.572" fill="salmon"/><rect width="1.1" height="10" x="143.572" fill="salmon"/><rect width="1.1" height="10" x="142.572" fill="salmon"/><rect width="1.1" height="10" x="141.572" fill="salmon"/><rect width="1.1" height="10" x="140.572" fill="salmon"/><rect width="1.1" height="10" x="139.572" fill="salmon"/><rect width="1.1" height="10" x="138.572" fill="salmon"/><rect width="1.1" height="10" x="137.572" fill="salmon"/><rect width="1.1" height="10" x="136.572" fill="salmon"/><rect width="1.1" height="10" x="135.572" fill="salmon"/><rect width="1.1" height="10" x="134.572" fill="salmon"/><rect width="1.1" height="10" x="133.572" fill="salmon"/><rect width="1.1" height="10" x="132.572" fill="salmon"/><rect width="1.1" height="10" x="131.572" fill="salmon"/><rect width="1.1" height="10" x="130.572" fill="salmon"/><rect width="1.1" height="10" x="129.572" fill="salmon"/><rect width="1.1" height="10" x="128.572" fill="salmon"/><rect width="1.1" height="10" x="127.572" fill="salmon"/><rect width="1.1" height="10" x="126.572" fill="salmon"/><rect width="1.1" height="10" x="125.572" fill="salmon"/><rect width="1.1" height="10" x="124.572" fill="salmon"/><rect width="1.1" height="10" x="123.572" fill="salmon"/><rect width="1.1" height="10" x="122.572" fill="salmon"/><rect width="1.1" height="10" x="121.572" fill="salmon"/><rect width="1.1" height="10" x="120.572" fill="salmon"/><rect width="1.1" height="10" x="119.572" fill="salmon"/><rect width="1.1" height="10" x="118.572" fill="salmon"/><rect width="1.1" height="10" x="117.572" fill="salmon"/><rect width="1.1" height="10" x="116.572" fill="salmon"/><rect width="1.1" height="10" x="115.572" fill="salmon"/><rect width="1.1" height="10" x="114.572" fill="salmon"/><rect width="1.1" height="10" x="113.572" fill="salmon"/><rect width="1.1" height="10" x="112.572" fill="rgb(2.048% 5.971% 84.861%)"/><rect width="1.1" height="10" x="111.572" fill="rgb(4.171% 6.343% 84.279%)"/><rect width="1.1" height="10" x="110.572" fill="rgb(5.952% 6.699% 83.697%)"/><rect width="1.1" height="10" x="109.572" fill="rgb(7.387% 7.041% 83.116%)"/><rect width="1.1" height="10" x="108.572" fill="rgb(8.607% 7.37% 82.535%)"/><rect width="1.1" height="10" x="107.572" fill="rgb(9.675% 7.687% 81.956%)"/><rect width="1.1" height="10" x="106.572" fill="rgb(10.63% 7.994% 81.377%)"/><rect width="1.1" height="10" x="105.572" fill="rgb(11.496% 8.292% 80.798%)"/><rect width="1.1" height="10" x="104.572" fill="rgb(12.29% 8.58% 80.221%)"/><rect width="1.1" height="10" x="103.572" fill="rgb(13.023% 8.86% 79.644%)"/><rect width="1.1" height="10" x="102.572" fill="rgb(13.704% 9.133% 79.067%)"/><rect width="1.1" height="10" x="101.572" fill="rgb(14.34% 9.398% 78.492%)"/><rect width="1.1" height="10" x="100.572" fill="rgb(14.938% 9.657% 77.917%)"/><rect width="1.1" height="10" x="99.572" fill="rgb(15.5% 9.91% 77.343%)"/><rect width="1.1" height="10" x="98.572" fill="rgb(16.031% 10.157% 76.769%)"/><rect width="1.1" height="10" x="97.572" fill="rgb(16.534% 10.398% 76.197%)"/><rect width="1.1" height="10" x="96.572" fill="rgb(17.011% 10.634% 75.625%)"/><rect width="1.1" height="10" x="95.572" fill="rgb(17.465% 10.866% 75.053%)"/><rect width="1.1" height="10" x="94.572" fill="rgb(17.897% 11.092% 74.483%)"/><rect width="1.1" height="10" x="93.572" fill="rgb(18.309% 11.314% 73.913%)"/><rect width="1.1" height="10" x="92.572" fill="rgb(18.702% 11.532% 73.344%)"/><rect width="1.1" height="10" x="91.572" fill="rgb(19.078% 11.746% 72.775%)"/><rect width="1.1" height="10" x="90.572" fill="rgb(19.437% 11.956% 72.207%)"/><rect width="1.1" height="10" x="89.572" fill="rgb(19.782% 12.163% 71.64%)"/><rect width="1.1" height="10" x="88.572" fill="rgb(20.111% 12.366% 71.074%)"/><rect width="1.1" height="10" x="87.572" fill="rgb(20.427% 12.565% 70.508%)"/><rect width="1.1" height="10" x="86.572" fill="rgb(20.731% 12.762% 69.944%)"/><rect width="1.1" height="10" x="85.572" fill="rgb(21.022% 12.955% 69.379%)"/><rect width="1.1" height="10" x="84.572" fill="rgb(21.301% 13.145% 68.816%)"/><rect width="1.1" height="10" x="83.572" fill="rgb(21.569% 13.332% 68.253%)"/><rect width="1.1" height="10" x="82.572" fill="rgb(21.826% 13.517% 67.691%)"/><rect width="1.1" height="10" x="81.572" fill="rgb(22.074% 13.699% 67.13%)"/><rect width="1.1" height="10" x="80.572" fill="rgb(22.311% 13.879% 66.57%)"/><rect width="1.1" height="10" x="79.572" fill="rgb(22.539% 14.056% 66.01%)"/><rect width="1.1" height="10" x="78.572" fill="rgb(22.758% 14.23% 65.451%)"/><rect width="1.1" height="10" x="77.572" fill="rgb(22.968% 14.402% 64.892%)"/><rect width="1.1" height="10" x="76.572" fill="rgb(23.17% 14.572% 64.335%)"/><rect width="1.1" height="10" x="75.572" fill="rgb(23.364% 14.74% 63.778%)"/><rect width="1.1" height="10" x="74.572" fill="rgb(23.549% 14.906% 63.222%)"/><rect width="1.1" height="10" x="73.572" fill="rgb(23.728% 15.069% 62.666%)"/><rect width="1.1" height="10" x="72.572" fill="rgb(23.898% 15.231% 62.112%)"/><rect width="1.1" height="10" x="71.572" fill="rgb(24.062% 15.391% 61.558%)"/><rect width="1.1" height="10" x="70.572" fill="rgb(24.219% 15.548% 61.005%)"/><rect width="1.1" height="10" x="69.572" fill="rgb(24.369% 15.704% 60.452%)"/><rect width="1.1" height="10" x="68.572" fill="rgb(24.512% 15.858% 59.901%)"/><rect width="1.1" height="10" x="67.572" fill="rgb(24.649% 16.011% 59.35%)"/><rect width="1.1" height="10" x="66.572" fill="rgb(24.78% 16.162% 58.799%)"/><rect width="1.1" height="10" x="65.572" fill="rgb(24.905% 16.311% 58.25%)"/><rect width="1.1" height="10" x="64.572" fill="rgb(25.024% 16.458% 57.701%)"/><rect width="1.1" height="10" x="63.572" fill="rgb(25.137% 16.604% 57.153%)"/><rect width="1.1" height="10" x="62.572" fill="rgb(25.244% 16.748% 56.606%)"/><rect width="1.1" height="10" x="61.572" fill="rgb(25.346% 16.891% 56.06%)"/><rect width="1.1" height="10" x="60.572" fill="rgb(25.443% 17.032% 55.514%)"/><rect width="1.1" height="10" x="59.572" fill="rgb(25.534% 17.172% 54.969%)"/><rect width="1.1" height="10" x="58.572" fill="rgb(25.62% 17.311% 54.424%)"/><rect width="1.1" height="10" x="57.572" fill="rgb(25.701% 17.448% 53.881%)"/><rect width="1.1" height="10" x="56.572" fill="rgb(25.776% 17.584% 53.338%)"/><rect width="1.1" height="10" x="55.572" fill="rgb(25.847% 17.718% 52.796%)"/><rect width="1.1" height="10" x="54.572" fill="rgb(25.914% 17.851% 52.255%)"/><rect width="1.1" height="10" x="53.572" fill="rgb(25.975% 17.983% 51.714%)"/><rect width="1.1" height="10" x="52.572" fill="rgb(26.032% 18.114% 51.174%)"/><rect width="1.1" height="10" x="51.572" fill="rgb(26.084% 18.243% 50.635%)"/><rect width="1.1" height="10" x="50.572" fill="rgb(26.132% 18.372% 50.097%)"/><rect width="1.1" height="10" x="49.572" fill="rgb(26.175% 18.499% 49.559%)"/><rect width="1.1" height="10" x="48.572" fill="rgb(26.214% 18.624% 49.022%)"/><rect width="1.1" height="10" x="47.572" fill="rgb(26.249% 18.749% 48.486%)"/><rect width="1.1" height="10" x="46.572" fill="rgb(26.279% 18.873% 47.951%)"/><rect width="1.1" height="10" x="45.572" fill="rgb(26.305% 18.995% 47.416%)"/><rect width="1.1" height="10" x="44.572" fill="rgb(26.328% 19.117% 46.882%)"/><rect width="1.1" height="10" x="43.572" fill="rgb(26.346% 19.237% 46.349%)"/><rect width="1.1" height="10" x="42.572" fill="rgb(26.36% 19.357% 45.816%)"/><rect width="1.1" height="10" x="41.572" fill="rgb(26.37% 19.475% 45.284%)"/><rect width="1.1" height="10" x="40.572" fill="rgb(26.376% 19.593% 44.753%)"/><rect width="1.1" height="10" x="39.572" fill="rgb(26.378% 19.709% 44.222%)"/><rect width="1.1" height="10" x="38.572" fill="rgb(26.377% 19.824% 43.692%)"/><rect width="1.1" height="10" x="37.572" fill="rgb(26.371% 19.939% 43.163%)"/><rect width="1.1" height="10" x="36.572" fill="rgb(26.362% 20.052% 42.635%)"/><rect width="1.1" height="10" x="35.572" fill="rgb(26.349% 20.165% 42.107%)"/><rect width="1.1" height="10" x="34.572" fill="rgb(26.333% 20.276% 41.58%)"/><rect width="1.1" height="10" x="33.572" fill="rgb(26.312% 20.387% 41.054%)"/><rect width="1.1" height="10" x="32.572" fill="rgb(26.289% 20.497% 40.528%)"/><rect width="1.1" height="10" x="31.572" fill="rgb(26.261% 20.606% 40.003%)"/><rect width="1.1" height="10" x="30.572" fill="rgb(26.23% 20.714% 39.478%)"/><rect width="1.1" height="10" x="29.572" fill="rgb(26.196% 20.821% 38.954%)"/><rect width="1.1" height="10" x="28.572" fill="rgb(26.158% 20.928% 38.431%)"/><rect width="1.1" height="10" x="27.572" fill="rgb(26.116% 21.033% 37.908%)"/><rect width="1.1" height="10" x="26.572" fill="rgb(26.071% 21.138% 37.386%)"/><rect width="1.1" height="10" x="25.572" fill="rgb(26.023% 21.242% 36.864%)"/><rect width="1.1" height="10" x="24.572" fill="rgb(25.971% 21.345% 36.343%)"/><rect width="1.1" height="10" x="23.572" fill="rgb(25.916% 21.447% 35.823%)"/><rect width="1.1" height="10" x="22.572" fill="rgb(25.857% 21.549% 35.303%)"/><rect width="1.1" height="10" x="21.572" fill="rgb(25.795% 21.65% 34.784%)"/><rect width="1.1" height="10" x="20.572" fill="rgb(25.73% 21.75% 34.265%)"/><rect width="1.1" height="10" x="19.572" fill="rgb(25.661% 21.849% 33.746%)"/><rect width="1.1" height="10" x="18.572" fill="rgb(25.589% 21.948% 33.228%)"/><rect width="1.1" height="10" x="17.572" fill="rgb(25.514% 22.045% 32.711%)"/><rect width="1.1" height="10" x="16.572" fill="rgb(25.435% 22.142% 32.194%)"/><rect width="1.1" height="10" x="15.572" fill="rgb(25.353% 22.239% 31.677%)"/><rect width="1.1" height="10" x="14.572" fill="rgb(25.268% 22.334% 31.16%)"/><rect width="1.1" height="10" x="13.572" fill="rgb(25.179% 22.429% 30.644%)"/><rect width="1.1" height="10" x="12.572" fill="rgb(25.087% 22.523% 30.129%)"/><rect width="1.1" height="10" x="11.572" fill="rgb(24.992% 22.617% 29.613%)"/><rect width="1.1" height="10" x="10.572" fill="rgb(24.894% 22.71% 29.098%)"/><rect width="1.1" height="10" x="9.572" fill="rgb(24.792% 22.802% 28.583%)"/><rect width="1.1" height="10" x="8.572" fill="rgb(24.687% 22.893% 28.068%)"/><rect width="1.1" height="10" x="7.572" fill="rgb(24.578% 22.984% 27.553%)"/><rect width="1.1" height="10" x="6.572" fill="rgb(24.467% 23.074% 27.038%)"/><rect width="1.1" height="10" x="5.572" fill="rgb(24.352% 23.164% 26.523%)"/><rect width="1.1" height="10" x="4.572" fill="rgb(24.234% 23.252% 26.008%)"/><rect width="1.1" height="10" x="3.572" fill="rgb(24.112% 23.341% 25.493%)"/><rect width="1.1" height="10" x="2.572" fill="rgb(23.987% 23.428% 24.977%)"/><rect width="1.1" height="10" x="1.572" fill="rgb(23.859% 23.515% 24.462%)"/><rect width="1.1" height="10" x=".572" fill="rgb(23.727% 23.601% 23.946%)"/><rect width="146.572" height="35" y="15" fill="none" stroke="gray" stroke-width=".2"/><polyline fill="none" stroke="red" stroke-width=".2" points="146.572 50 145.572 49.958 144.572 49.916 143.572 49.875 142.572 49.834 141.572 49.794 140.572 49.754 139.572 49.716 138.572 49.677 137.572 49.639 136.572 49.602 135.572 49.565 134.572 49.529 133.572 49.493 132.572 49.458 131.572 49.424 130.572 49.39 129.572 49.356 128.572 49.323 127.572 49.291 126.572 49.259 125.572 49.227 124.572 49.196 123.572 49.166 122.572 49.136 121.572 49.106 120.572 49.078 119.572 49.049 118.572 49.021 117.572 48.994 116.572 48.967 115.572 48.94 114.572 48.915 113.572 48.889 112.572 48.864 111.572 48.84 110.572 48.816 109.572 48.792 108.572 48.769 107.572 48.746 106.572 48.724 105.572 48.702 104.572 48.681 103.572 48.66 102.572 48.64 101.572 48.62 100.572 48.6 99.572 48.581 98.572 48.563 97.572 48.545 96.572 48.527 95.572 48.51 94.572 48.493 93.572 48.476 92.572 48.46 91.572 48.445 90.572 48.43 89.572 48.415 88.572 48.4 87.572 48.387 86.572 48.373 85.572 48.36 84.572 48.347 83.572 48.335 82.572 48.323 81.572 48.311 80.572 48.3 79.572 48.289 78.572 48.279 77.572 48.269 76.572 48.259 75.572 48.25 74.572 48.241 73.572 48.232 72.572 48.224 71.572 48.216 70.572 48.209 69.572 48.201 68.572 48.195 67.572 48.188 66.572 48.182 65.572 48.176 64.572 48.171 63.572 48.166 62.572 48.161 61.572 48.157 60.572 48.153 59.572 48.149 58.572 48.145 57.572 48.142 56.572 48.139 55.572 48.137 54.572 48.135 53.572 48.133 52.572 48.131 51.572 48.13 50.572 48.129 49.572 48.128 48.572 48.128 47.572 48.128 46.572 48.128 45.572 48.129 44.572 48.129 43.572 48.13 42.572 48.132 41.572 48.133 40.572 48.135 39.572 48.137 38.572 48.14 37.572 48.142 36.572 48.145 35.572 48.148 34.572 48.152 33.572 48.155 32.572 48.159 31.572 48.163 30.572 48.168 29.572 48.172 28.572 48.177 27.572 48.182 26.572 48.188 25.572 48.193 24.572 48.199 23.572 48.205 22.572 48.211 21.572 48.218 20.572 48.224 19.572 48.231 18.572 48.238 17.572 48.245 16.572 48.253 15.572 48.26 14.572 48.268 13.572 48.276 12.572 48.284 11.572 48.293 10.572 48.301 9.572 48.31 8.572 48.319 7.572 48.328 6.572 48.338 5.572 48.347 4.572 48.357 3.572 48.366 2.572 48.376 1.572 48.386 .572 48.397"/><polyline fill="none" stroke="green" stroke-width=".2" points="146.572 50 145.572 49.987 144.572 49.973 143.572 49.96 142.572 49.947 141.572 49.934 140.572 49.921 139.572 49.907 138.572 49.894 137.572 49.881 136.572 49.868 135.572 49.855 134.572 49.842 133.572 49.829 132.572 49.817 131.572 49.804 130.572 49.791 129.572 49.778 128.572 49.765 127.572 49.753 126.572 49.74 125.572 49.727 124.572 49.715 123.572 49.702 122.572 49.689 121.572 49.677 120.572 49.664 119.572 49.652 118.572 49.639 117.572 49.627 116.572 49.615 115.572 49.602 114.572 49.59 113.572 49.578 112.572 49.565 111.572 49.553 110.572 49.541 109.572 49.529 108.572 49.517 107.572 49.505 106.572 49.493 105.572 49.481 104.572 49.469 103.572 49.457 102.572 49.445 101.572 49.433 100.572 49.421 99.572 49.409 98.572 49.397 97.572 49.386 96.572 49.374 95.572 49.362 94.572 49.35 93.572 49.339 92.572 49.327 91.572 49.316 90.572 49.304 89.572 49.293 88.572 49.281 87.572 49.27 86.572 49.258 85.572 49.247 84.572 49.236 83.572 49.224 82.572 49.213 81.572 49.202 80.572 49.191 79.572 49.18 78.572 49.168 77.572 49.157 76.572 49.146 75.572 49.135 74.572 49.124 73.572 49.113 72.572 49.102 71.572 49.092 70.572 49.081 69.572 49.07 68.572 49.059 67.572 49.048 66.572 49.038 65.572 49.027 64.572 49.016 63.572 49.006 62.572 48.995 61.572 48.985 60.572 48.974 59.572 48.964 58.572 48.953 57.572 48.943 56.572 48.932 55.572 48.922 54.572 48.912 53.572 48.901 52.572 48.891 51.572 48.881 50.572 48.871 49.572 48.861 48.572 48.851 47.572 48.841 46.572 48.831 45.572 48.821 44.572 48.811 43.572 48.801 42.572 48.791 41.572 48.781 40.572 48.771 39.572 48.761 38.572 48.752 37.572 48.742 36.572 48.732 35.572 48.723 34.572 48.713 33.572 48.703 32.572 48.694 31.572 48.684 30.572 48.675 29.572 48.665 28.572 48.656 27.572 48.647 26.572 48.637 25.572 48.628 24.572 48.619 23.572 48.61 22.572 48.6 21.572 48.591 20.572 48.582 19.572 48.573 18.572 48.564 17.572 48.555 16.572 48.546 15.572 48.537 14.572 48.528 13.572 48.519 12.572 48.511 11.572 48.502 10.572 48.493 9.572 48.484 8.572 48.476 7.572 48.467 6.572 48.458 5.572 48.45 4.572 48.441 3.572 48.433 2.572 48.424 1.572 48.416 .572 48.407"/><polyline fill="none" stroke="#00f" stroke-width=".2" points="146.572 15 145.572 15.456 144.572 15.908 143.572 16.356 142.572 16.799 141.572 17.24 140.572 17.676 139.572 18.108 138.572 18.536 137.572 18.961 136.572 19.382 135.572 19.798 134.572 20.212 133.572 20.621 132.572 21.027 131.572 21.428 130.572 21.826 129.572 22.221 128.572 22.612 127.572 22.999 126.572 23.382 125.572 23.762 124.572 24.138 123.572 24.51 122.572 24.879 121.572 25.245 120.572 25.607 119.572 25.965 118.572 26.32 117.572 26.671 116.572 27.019 115.572 27.363 114.572 27.704 113.572 28.041 112.572 28.376 111.572 28.706 110.572 29.033 109.572 29.357 108.572 29.678 107.572 29.995 106.572 30.309 105.572 30.62 104.572 30.927 103.572 31.231 102.572 31.532 101.572 31.83 100.572 32.124 99.572 32.415 98.572 32.704 97.572 32.989 96.572 33.27 95.572 33.549 94.572 33.825 93.572 34.097 92.572 34.367 91.572 34.633 90.572 34.896 89.572 35.157 88.572 35.414 87.572 35.668 86.572 35.92 85.572 36.168 84.572 36.414 83.572 36.657 82.572 36.896 81.572 37.133 80.572 37.367 79.572 37.598 78.572 37.827 77.572 38.052 76.572 38.275 75.572 38.495 74.572 38.712 73.572 38.927 72.572 39.139 71.572 39.348 70.572 39.554 69.572 39.758 68.572 39.959 67.572 40.157 66.572 40.353 65.572 40.546 64.572 40.737 63.572 40.925 62.572 41.111 61.572 41.294 60.572 41.474 59.572 41.652 58.572 41.828 57.572 42.001 56.572 42.172 55.572 42.34 54.572 42.506 53.572 42.669 52.572 42.83 51.572 42.989 50.572 43.145 49.572 43.299 48.572 43.451 47.572 43.601 46.572 43.748 45.572 43.893 44.572 44.035 43.572 44.176 42.572 44.314 41.572 44.45 40.572 44.584 39.572 44.716 38.572 44.846 37.572 44.973 36.572 45.099 35.572 45.222 34.572 45.344 33.572 45.463 32.572 45.58 31.572 45.696 30.572 45.809 29.572 45.92 28.572 46.029 27.572 46.137 26.572 46.242 25.572 46.346 24.572 46.448 23.572 46.548 22.572 46.646 21.572 46.742 20.572 46.836 19.572 46.929 18.572 47.019 17.572 47.108 16.572 47.196 15.572 47.281 14.572 47.365 13.572 47.447 12.572 47.528 11.572 47.606 10.572 47.683 9.572 47.759 8.572 47.833 7.572 47.905 6.572 47.976 5.572 48.045 4.572 48.113 3.572 48.179 2.572 48.244 1.572 48.307 .572 48.368"/></svg>