<svg xmlns="http://www.w3.org/2000/svg" overflow="visible" viewBox="-130 -130 260 260"><desc>Show a top-down view of the CIE Lab colorspace. The sRGB primaries and secondaries are shown, with an annotation indicating the L value red (#F00) is lch(54.2917% 106.8390 40.8526) lab(54.2917, 80.81247134537588, 69.88502268764606) sRGB yellow (#FF0) is lch(97.6071% 94.7077 99.5746) lab(97.6071, -15.75288562782686, 93.38840952541491) mix is lch(69.4521% 102.5872 61.4053) which is rgb(75.3600% 65.6304% 16.9796%) lab(69.4521, 49.09932548023713, 90.07435729010635)</desc><g fill="none" stroke="#000" stroke-width=".5">​<polyline points="0 -120 0 120"/><polyline points="-120 0 120 0"/><g stroke="#888"><path d="M-3,-110 h6 M-3,-100 h6 M-3,-90 h6 M-3,-80 h6 M-3,-70 h6 M-3,-60 h6 M-3,-50 h6 M-3,-40 h6 M-3,-30 h6 M-3,-20 h6 M-3,-10 h6 M-3,10 h6 M-3,20 h6 M-3,30 h6 M-3,40 h6 M-3,50 h6 M-3,60 h6 M-3,70 h6 M-3,80 h6 M-3,90 h6 M-3,100 h6 M-3,110 h6"/><path d="M110,-3 v6 M100,-3 v6 M90,-3 v6 M80,-3 v6 M70,-3 v6 M60,-3 v6 M50,-3 v6 M40,-3 v6 M30,-3 v6 M20,-3 v6 M10,-3 v6 M-10,-3 v6 M-20,-3 v6 M-30,-3 v6 M-40,-3 v6 M-50,-3 v6 M-60,-3 v6 M-70,-3 v6 M-80,-3 v6 M-90,-3 v6 M-100,-3 v6 M-110,-3 v6"/><polyline points="0 0 80.81 -69.88"/><polyline points="0 0 -79.28 -80.99"/><polyline points="0 0 68.29 112.02"/><polyline points="0 0 -50.66 14.96"/><polyline points="0 0 93.54 60.49"/><polyline points="0 0 -15.75 -93.38"/></g></g><g stroke="none" stroke-width=".5"><circle cx="80.812" cy="-69.885" r="3" fill="red"/><circle cx="-79.287" cy="-80.99" r="3" fill="green"/><circle cx="68.299" cy="112.029" r="3" fill="#00f"/><circle cx="-50.665" cy="14.962" r="3" fill="#0ff"/><circle cx="93.55" cy="60.499" r="3" fill="#f0f"/><circle cx="-15.753" cy="-93.388" r="3" fill="#ff0"/></g><circle r="4"/><circle r="3" fill="#777"/><circle r="2" fill="#fff"/><g font-family="sans-serif" font-size="8"><text x="120" y="-3">+a</text><text x="-120.5" y="-3" text-anchor="end">-a</text><text x="4" y="122">-b</text><text x="4" y="-118">+b</text></g><g font-family="sans-serif" font-size="5pt"><text x="85.8" y="-74.8">L: 54.2917%<tspan x="85.8" dy="10">C: 106.8390<tspan x="85.8" dy="10">H: 40.8526</tspan></tspan></text><text x="-128" y="-85.9">L: 87.8181%<tspan x="-128" dy="10">C: 113.3397<tspan x="-128" dy="10">H: 134.3912</tspan></tspan></text><text x="73.3" y="97">L: 29.5676%<tspan x="73.3" dy="10">C: 131.2070<tspan x="73.3" dy="10">H: 301.3685</tspan></tspan></text><text x="-100" y="12">L: 90.6655%<tspan x="-100" dy="10">C: 52.8285<tspan x="-100" dy="10">H: 196.4524</tspan></tspan></text><text x="99" y="55">L: 60.1697%<tspan x="99" dy="10">C: 111.4077<tspan x="99" dy="10">H: 327.1094</tspan></tspan></text><text x="-60" y="-98">L: 97.6071%<tspan x="-60" dy="10">C: 94.7078<tspan x="-60" dy="10">H: 99.5746</tspan></tspan></text></g></svg>