<svg xmlns="http://www.w3.org/2000/svg" xmlns:xlink="http://www.w3.org/1999/xlink" id="Layer_1" width="125" height="200" x="0" y="0" enable-background="new 0 0 125 200" version="1.1" viewBox="0 0 125 200" xml:space="preserve"><g><rect width="100" height="150" x="1.5" y="22" fill="none" stroke="silver" stroke-dasharray="6 4" stroke-width="3"/><g><rect width="24" height="39.5" x="77.5" y="132.5" fill="#FFF" stroke="red" stroke-width="3"/><text fill="red" font-family="'Arial'" font-size="12" transform="matrix(0 1 -1 0 85.2314 139.2959)">Latin</text></g><g><rect width="24" height="40.5" x="50.5" y="22" fill="#FFF" stroke="red" stroke-width="3"/><text fill="red" font-family="'Arial'" font-size="12" transform="matrix(0 1 -1 0 58.2314 29.8145)">العربية</text></g><g><rect width="24" height="49.5" x="23.5" y="122.5" fill="#FFF" stroke="red" stroke-width="3"/><text transform="matrix(1 0 0 1 29.5 136.1191)"><tspan x="0" y="0" fill="red" font-family="'KozGoPr6N-Regular-90ms-RKSJ-H'" font-size="12">日</tspan><tspan x="0" y="14.4" fill="red" font-family="'KozGoPr6N-Regular-90ms-RKSJ-H'" font-size="12">本</tspan><tspan x="0" y="28.8" fill="red" font-family="'KozGoPr6N-Regular-90ms-RKSJ-H'" font-size="12">語</tspan></text></g><text font-family="'Arial'" font-size="13" font-weight="700" letter-spacing=".5" transform="matrix(1 0 0 1 21.0606 11.1523)">RTL END</text><text font-family="'Arial'" font-size="13" font-weight="700" letter-spacing=".5" transform="matrix(1 0 0 1 19.0606 195.1523)">LTR END</text><line x1=".2" x2="102.8" y1="22" y2="22" fill="#FFF" stroke="#333" stroke-width="3"/><line x1=".2" x2="102.8" y1="172" y2="172" fill="#FFF" stroke="#333" stroke-width="3"/><g><rect width="153" height="12" x="42.6" y="91" fill="#EFEFEF" transform="matrix(-8.978436e-11 1 -1 -8.978436e-11 216.0999 -22.0999)"/><text fill="#6D6D6D" font-family="'Arial'" font-size="10" letter-spacing=".5" transform="matrix(0 1 -1 0 115.4473 65.2764)">INLINE AXIS</text></g></g></svg>