<svg xmlns="http://www.w3.org/2000/svg" xmlns:xlink="http://www.w3.org/1999/xlink" id="Layer_1" width="199" height="125" x="0" y="0" enable-background="new 0 0 199 125" version="1.1" viewBox="0 0 199 125" xml:space="preserve"><g><rect width="153" height="12" x="21.3" fill="#EFEFEF"/><text fill="#6D6D6D" font-family="'Arial'" font-size="10" letter-spacing=".5" transform="matrix(1 0 0 1 66.077 10.1289)">INLINE AXIS</text></g><rect width="150" height="100" x="22.8" y="23.5" fill="none" stroke="silver" stroke-dasharray="6 4" stroke-width="3"/><text font-family="'Arial'" font-size="13" font-weight="700" letter-spacing=".5" transform="matrix(0 -1 1 0 11.1523 103.9395)">RTL END</text><g><rect width="39.5" height="24" x="133.3" y="23.5" fill="#FFF" stroke="red" stroke-width="3"/><text fill="red" font-family="'Arial'" font-size="12" transform="matrix(1 0 0 1 140.0742 39.7676)">Latin</text></g><g><rect width="40.5" height="24" x="22.8" y="50.5" fill="#FFF" stroke="red" stroke-width="3"/><text fill="red" font-family="'Arial'" font-size="12" transform="matrix(1 0 0 1 30.5928 66.7676)">العربية</text></g><g><rect width="49.5" height="24" x="123.3" y="77.5" fill="#FFF" stroke="red" stroke-width="3"/><text fill="red" font-family="'KozGoPr6N-Regular-90ms-RKSJ-H'" font-size="12" transform="matrix(1 0 0 1 130.0742 93.7676)">日本語</text></g><text font-family="'Arial'" font-size="13" font-weight="700" letter-spacing=".5" transform="matrix(0 -1 1 0 193.1523 103.9395)">LTR END</text><line x1="172.8" x2="172.8" y1="125" y2="22" fill="#FFF" stroke="#333" stroke-width="3"/><line x1="22.8" x2="22.8" y1="125" y2="22" fill="#FFF" stroke="#333" stroke-width="3"/></svg>