<svg xmlns="http://www.w3.org/2000/svg" xmlns:xlink="http://www.w3.org/1999/xlink" id="Layer_1" width="125" height="183" x="0" y="0" enable-background="new 0 0 125 183" version="1.1" viewBox="0 0 125 183" xml:space="preserve"><text font-family="'Arial'" font-size="13" font-weight="700" letter-spacing=".5" transform="matrix(0 -1 1 0 11.1522 117.6982)">END</text><rect width="100" height="156" x="23" y="25" fill="none" stroke="silver" stroke-dasharray="6 4" stroke-width="3"/><g><rect width="24" height="39.5" x="23" y="25" fill="#FFF" stroke="red" stroke-width="3"/><text fill="red" font-family="'Arial'" font-size="12" transform="matrix(0 1 -1 0 30.7549 31.7734)">Latin</text></g><g><rect width="24" height="55.5" x="23" y="70.5" fill="#FFF" stroke="red" stroke-width="3"/><text fill="red" font-family="'Arial'" font-size="16" transform="matrix(0 1 -1 0 29.5 81.5)">العربية</text></g><g><rect width="24" height="49.5" x="23" y="131.5" fill="#FFF" stroke="red" stroke-width="3"/><text transform="matrix(1 0 0 1 29.0222 145.0962)"><tspan x="0" y="0" fill="red" font-family="'KozGoPr6N-Regular-90ms-RKSJ-H'" font-size="12">日</tspan><tspan x="0" y="14.4" fill="red" font-family="'KozGoPr6N-Regular-90ms-RKSJ-H'" font-size="12">本</tspan><tspan x="0" y="28.8" fill="red" font-family="'KozGoPr6N-Regular-90ms-RKSJ-H'" font-size="12">語</tspan></text></g><line x1="23" x2="23" y1="182.5" y2="23.5" fill="#FFF" stroke="#333" stroke-width="3.005"/><g><rect width="103" height="12" x="21.5" fill="#EFEFEF"/><text fill="#6D6D6D" font-family="'Arial'" font-size="10" letter-spacing=".5" transform="matrix(1 0 0 1 40.7888 10.1289)">BLOCK AXIS</text></g></svg>