<svg xmlns="http://www.w3.org/2000/svg" xmlns:xlink="http://www.w3.org/1999/xlink" id="Layer_1" width="125" height="180" x="0" y="0" enable-background="new 0 0 125 180" version="1.1" viewBox="0 0 125 180" xml:space="preserve"><g><rect width="100" height="150" x="24" y="1.5" fill="none" stroke="silver" stroke-dasharray="6 4" stroke-width="3"/><text font-family="'Arial'" font-size="13" font-weight="700" letter-spacing=".5" transform="matrix(1 0 0 1 57.4536 174.6299)">LEFT</text><g><rect width="24" height="39.5" x="24" y="112" fill="#FFF" stroke="red" stroke-width="3"/><text fill="red" font-family="'Arial'" font-size="12" transform="matrix(0 -1 1 0 40.2676 144.7275)">Latin</text></g><g><rect width="24" height="40.5" x="54" y="111" fill="#FFF" stroke="red" stroke-width="3"/><text fill="red" font-family="'Arial'" font-size="12" transform="matrix(0 -1 1 0 70.2676 143.708)">العربية</text></g><g><rect width="24" height="49.5" x="84" y="102" fill="#FFF" stroke="red" stroke-width="3"/><text transform="matrix(1 0 0 1 90 115.5967)"><tspan x="0" y="0" fill="red" font-family="'KozGoPr6N-Regular-90ms-RKSJ-H'" font-size="12">日</tspan><tspan x="0" y="14.4" fill="red" font-family="'KozGoPr6N-Regular-90ms-RKSJ-H'" font-size="12">本</tspan><tspan x="0" y="28.8" fill="red" font-family="'KozGoPr6N-Regular-90ms-RKSJ-H'" font-size="12">語</tspan></text></g><line x1="22.5" x2="125.5" y1="151.5" y2="151.5" fill="#FFF" stroke="#333" stroke-width="3"/><g><rect width="153" height="12" x="-70.5" y="71" fill="#EFEFEF" transform="matrix(6.123234e-17 -1 1 6.123234e-17 -70.9775 82.9775)"/><text fill="#6D6D6D" font-family="'Arial'" font-size="10" letter-spacing=".5" transform="matrix(0 -1 1 0 10.1289 108.7012)">INLINE AXIS</text></g></g></svg>