<svg xmlns="http://www.w3.org/2000/svg" xmlns:xlink="http://www.w3.org/1999/xlink" id="Layer_1" width="126" height="174" x="0" y="0" enable-background="new 0 0 126 174" version="1.1" viewBox="0 0 126 174" xml:space="preserve"><text font-family="'Arial'" font-size="13" font-weight="700" letter-spacing=".5" transform="matrix(1 0 0 1 36.9578 11.1523)">LEFT</text><g><rect width="100" height="150" x="1.5" y="22" fill="none" stroke="silver" stroke-dasharray="6 4" stroke-width="3"/><g><rect width="24" height="39.5" x="77.5" y="22" fill="#FFF" stroke="red" stroke-width="3"/><text fill="red" font-family="'Arial'" font-size="12" transform="matrix(0 1 -1 0 85.2373 28.7959)">Latin</text></g><g><rect width="24" height="40.5" x="47.5" y="22" fill="#FFF" stroke="red" stroke-width="3"/><text fill="red" font-family="'Arial'" font-size="12" transform="matrix(0 1 -1 0 55.2373 29.8145)">العربية</text></g><g><rect width="24" height="49.5" x="17.5" y="22" fill="#FFF" stroke="red" stroke-width="3"/><text transform="matrix(1 0 0 1 23.5042 35.6191)"><tspan x="0" y="0" fill="red" font-family="'KozGoPr6N-Regular-90ms-RKSJ-H'" font-size="12">日</tspan><tspan x="0" y="14.4" fill="red" font-family="'KozGoPr6N-Regular-90ms-RKSJ-H'" font-size="12">本</tspan><tspan x="0" y="28.8" fill="red" font-family="'KozGoPr6N-Regular-90ms-RKSJ-H'" font-size="12">語</tspan></text></g><line x1="0" x2="103" y1="22" y2="22" fill="#FFF" stroke="#333" stroke-width="3"/></g><g><rect width="153" height="12" x="42.8" y="91" fill="#EFEFEF" transform="matrix(-1.836970e-16 1 -1 -1.836970e-16 216.2562 -22.2562)"/><text fill="#6D6D6D" font-family="'Arial'" font-size="10" letter-spacing=".5" transform="matrix(0 1 -1 0 115.127 65.2764)">INLINE AXIS</text></g></svg>