<svg xmlns="http://www.w3.org/2000/svg" xmlns:xlink="http://www.w3.org/1999/xlink" id="Layer_1" width="125" height="180" x="0" y="0" enable-background="new 0 0 125 180" version="1.1" viewBox="0 0 125 180" xml:space="preserve"><g><rect width="100" height="150" x="1.5" y="1.5" fill="none" stroke="silver" stroke-dasharray="6 4" stroke-width="3"/><g><rect width="24" height="39.5" x="77.5" y="112" fill="#FFF" stroke="red" stroke-width="3"/><text fill="red" font-family="'Arial'" font-size="12" transform="matrix(0 1 -1 0 85.2324 118.7734)">Latin</text></g><g><rect width="24" height="40.5" x="47.5" y="111" fill="#FFF" stroke="red" stroke-width="3"/><text fill="red" font-family="'Arial'" font-size="12" transform="matrix(0 1 -1 0 55.2324 118.792)">العربية</text></g><g><rect width="24" height="49.5" x="17.5" y="102" fill="#FFF" stroke="red" stroke-width="3"/><text transform="matrix(1 0 0 1 23.5 115.5967)"><tspan x="0" y="0" fill="red" font-family="'KozGoPr6N-Regular-90ms-RKSJ-H'" font-size="12">日</tspan><tspan x="0" y="14.4" fill="red" font-family="'KozGoPr6N-Regular-90ms-RKSJ-H'" font-size="12">本</tspan><tspan x="0" y="28.8" fill="red" font-family="'KozGoPr6N-Regular-90ms-RKSJ-H'" font-size="12">語</tspan></text></g><text font-family="'Arial'" font-size="13" font-weight="700" letter-spacing=".5" transform="matrix(1 0 0 1 30.6548 174.6299)">RIGHT</text><line x1=".5" x2="103.5" y1="151.5" y2="151.5" fill="#FFF" stroke="#333" stroke-width="3"/><g><rect width="153" height="12" x="42.5" y="71" fill="#EFEFEF" transform="matrix(-1.836970e-16 1 -1 -1.836970e-16 195.9765 -42.0214)"/><text fill="#6D6D6D" font-family="'Arial'" font-size="10" letter-spacing=".5" transform="matrix(0 1 -1 0 114.8691 45.2539)">INLINE AXIS</text></g></g></svg>