<svg xmlns="http://www.w3.org/2000/svg" xmlns:xlink="http://www.w3.org/1999/xlink" id="Layer_1" width="229" height="193" x="0" y="0" enable-background="new 0 0 229 193" version="1.1" viewBox="0 0 229 193" xml:space="preserve"><text font-family="'Arial'" font-size="13" font-weight="700" letter-spacing=".5" transform="matrix(0 -1 1 0 223.8523 146.5313)">RTL START</text><rect width="180" height="168" x="22.5" y="23.5" fill="none" stroke="silver" stroke-dasharray="6 4" stroke-width="3"/><g><rect width="140" height="38.2" x="42.5" y="43.5" fill="none"/><text transform="matrix(1 0 0 1 42.5006 50.6599)"><tspan x="0" y="0" font-family="'Arial'" font-size="10">This is an English-language </tspan><tspan x="0" y="14" font-family="'Arial'" font-size="10">document. The following is a </tspan><tspan x="0" y="28" font-family="'Arial'" font-size="10">list in various languages.</tspan></text></g><text font-family="'Arial'" font-size="10" font-weight="700" transform="matrix(1 0 0 1 42.5008 108.0784)">Translations:</text><text fill="red" font-family="'Arial'" font-size="10" text-decoration="underline" transform="matrix(1 0 0 1 42.5008 125.667)">français</text><text fill="red" font-family="'Arial'" font-size="12" text-decoration="underline" transform="matrix(1 0 0 1 156.9422 146.2114)">العربية</text><text fill="red" font-family="'KozGoPr6N-Regular-90ms-RKSJ-H'" font-size="12" text-decoration="underline" transform="matrix(1 0 0 1 42.5008 166.2676)">日本語</text><line x1="22.5" x2="22.5" y1="193.5" y2="22" fill="#FFF" stroke="#333" stroke-width="3"/><line x1="202.5" x2="202.5" y1="192" y2="22" fill="#FFF" stroke="#333" stroke-width="3"/><text font-family="'Arial'" font-size="13" font-weight="700" letter-spacing=".5" transform="matrix(0 -1 1 0 11.3524 146.3594)">LTR START</text><g><rect width="183" height="12" x="21" fill="#EFEFEF"/><text fill="#6D6D6D" font-family="'Arial'" font-size="10" letter-spacing=".5" transform="matrix(1 0 0 1 80.777 10.1289)">INLINE AXIS</text></g></svg>