<svg xmlns="http://www.w3.org/2000/svg" width="159" height="159" viewBox="-3 -3 106 106"><rect width="100" height="100" x="0" y="0" fill="#fff" stroke="silver" stroke-dasharray="6 4" stroke-width="3"/><g transform="translate(21,21)"><rect width="58" height="58" x="0" y="0" fill="#fff" stroke="red" stroke-width="3"/></g><path fill="#000" d="M 1.5 50 l 5 -5 v 3 h 8 v -3 l 5 5 l -5 5 v -3 h -8 v 3 z"/><path fill="#000" d="M 80.5 50 l 5 -5 v 3 h 8 v -3 l 5 5 l -5 5 v -3 h -8 v 3 z"/><g><path fill="#000" d="M 1.5 -50 l 5 -5 v 3 h 8 v -3 l 5 5 l -5 5 v -3 h -8 v 3 z" transform="rotate(90)"/><path fill="#000" d="M 80.5 -50 l 5 -5 v 3 h 8 v -3 l 5 5 l -5 5 v -3 h -8 v 3 z" transform="rotate(90)"/></g></svg>