<svg xmlns="http://www.w3.org/2000/svg" xmlns:xlink="http://www.w3.org/1999/xlink" id="Layer_1" width="162" height="210" x="0" y="0" enable-background="new 0 0 162 210" version="1.1" viewBox="0 0 162 210" xml:space="preserve"><rect width="136" height="182.2" x="2" y="26.3" fill="none" stroke="silver" stroke-dasharray="6 4" stroke-width="3"/><g><g><text fill="red" font-family="'Arial'" font-size="10" text-decoration="underline" transform="matrix(0 1 -1 0 58.332 46.3008)">français</text></g><g><text fill="red" font-family="'Arial'" font-size="10" text-decoration="underline" transform="matrix(0 1 -1 0 41.332 46.3008)">العربية</text></g><g><text transform="matrix(1 0 0 1 21.9998 55.1006)"><tspan x="0" y="0" fill="red" font-family="'KozGoPr6N-Regular-90ms-RKSJ-H'" font-size="10" text-decoration="underline">日</tspan><tspan x="0" y="12" fill="red" font-family="'KozGoPr6N-Regular-90ms-RKSJ-H'" font-size="10" text-decoration="underline">本</tspan><tspan x="0" y="24" fill="red" font-family="'KozGoPr6N-Regular-90ms-RKSJ-H'" font-size="10" text-decoration="underline">語</tspan></text></g></g><line x1="0" x2="139.5" y1="26.3" y2="26.3" fill="#FFF" stroke="#333" stroke-width="3"/><text font-family="'Arial'" font-size="13" font-weight="700" letter-spacing=".5" transform="matrix(1 0 0 1 4.1768 11.1523)">DOCUMENT START</text><rect width="13" height="142" x="104.7" y="46" fill="none"/><text transform="matrix(1 0 0 1 105.1992 56.2891)"><tspan x="0" y="0" font-family="'MicrosoftYaHeiUI'" font-size="12">这</tspan><tspan x="0" y="16" font-family="'MicrosoftYaHeiUI'" font-size="12">是</tspan><tspan x="0" y="32" font-family="'MicrosoftYaHeiUI'" font-size="12">一</tspan><tspan x="0" y="48" font-family="'MicrosoftYaHeiUI'" font-size="12">份</tspan><tspan x="0" y="64" font-family="'MicrosoftYaHeiUI'" font-size="12">中</tspan><tspan x="0" y="80" font-family="'MicrosoftYaHeiUI'" font-size="12">文</tspan><tspan x="0" y="96" font-family="'MicrosoftYaHeiUI'" font-size="12">文</tspan><tspan x="0" y="112" font-family="'MicrosoftYaHeiUI'" font-size="12">件</tspan><tspan x="0" y="128" font-family="'MicrosoftYaHeiUI'" font-size="12">︒</tspan></text><rect width="13" height="143" x="85.7" y="46" fill="none"/><text transform="matrix(1 0 0 1 86.1992 56.2891)"><tspan x="0" y="0" font-family="'MicrosoftYaHeiUI'" font-size="12">下</tspan><tspan x="0" y="16" font-family="'MicrosoftYaHeiUI'" font-size="12">面</tspan><tspan x="0" y="32" font-family="'MicrosoftYaHeiUI'" font-size="12">有</tspan><tspan x="0" y="48" font-family="'MicrosoftYaHeiUI'" font-size="12">外</tspan><tspan x="0" y="64" font-family="'MicrosoftYaHeiUI'" font-size="12">文</tspan><tspan x="0" y="80" font-family="'MicrosoftYaHeiUI'" font-size="12">的</tspan><tspan x="0" y="96" font-family="'MicrosoftYaHeiUI'" font-size="12">列</tspan><tspan x="0" y="112" font-family="'MicrosoftYaHeiUI'" font-size="12">表</tspan><tspan x="0" y="128" font-family="'MicrosoftYaHeiUI'" font-size="12">：</tspan></text><g><rect width="185.2" height="12" x="63.1" y="111.4" fill="#EFEFEF" transform="matrix(-1.836970e-16 1 -1 -1.836970e-16 273.0996 -38.2988)"/><text fill="#6D6D6D" font-family="'Arial'" font-size="10" letter-spacing=".5" transform="matrix(0 1 -1 0 151.5703 85.7515)">INLINE AXIS</text></g></svg>