<svg xmlns="http://www.w3.org/2000/svg" xmlns:xlink="http://www.w3.org/1999/xlink" id="Layer_1" width="125" height="200" x="0" y="0" enable-background="new 0 0 125 200" version="1.1" viewBox="0 0 125 200" xml:space="preserve"><g><rect width="100" height="150" x="23.4" y="22" fill="none" stroke="silver" stroke-dasharray="6 4" stroke-width="3"/><text font-family="'Arial'" font-size="13" font-weight="700" letter-spacing=".5" transform="matrix(1 0 0 1 34.384 11.1523)">RTL START</text><text font-family="'Arial'" font-size="13" font-weight="700" letter-spacing=".5" transform="matrix(1 0 0 1 32.384 195.1523)">LTR START</text><rect width="24" height="39.5" x="23.4" y="132.5" fill="#FFF" stroke="red" stroke-width="3"/><text fill="red" font-family="'Arial'" font-size="12" transform="matrix(0 -1 1 0 39.6821 165.249)">Latin</text><g><rect width="24" height="40.5" x="50.4" y="22" fill="#FFF" stroke="red" stroke-width="3"/><text fill="red" font-family="'Arial'" font-size="12" transform="matrix(0 -1 1 0 66.6821 54.7295)">العربية</text></g><g><rect width="24" height="49.5" x="77.4" y="122.5" fill="#FFF" stroke="red" stroke-width="3"/><text transform="matrix(1 0 0 1 83.4145 136.1191)"><tspan x="0" y="0" fill="red" font-family="'KozGoPr6N-Regular-90ms-RKSJ-H'" font-size="12">日</tspan><tspan x="0" y="14.4" fill="red" font-family="'KozGoPr6N-Regular-90ms-RKSJ-H'" font-size="12">本</tspan><tspan x="0" y="28.8" fill="red" font-family="'KozGoPr6N-Regular-90ms-RKSJ-H'" font-size="12">語</tspan></text></g><line x1="22.1" x2="124.7" y1="22" y2="22" fill="#FFF" stroke="#333" stroke-width="3"/><line x1="22.1" x2="124.7" y1="172" y2="172" fill="#FFF" stroke="#333" stroke-width="3"/><g><rect width="153" height="12" x="-70.5" y="91" fill="#EFEFEF" transform="matrix(6.123234e-17 -1 1 6.123234e-17 -91 103)"/><text fill="#6D6D6D" font-family="'Arial'" font-size="10" letter-spacing=".5" transform="matrix(0 -1 1 0 10.1289 128.7236)">INLINE AXIS</text></g></g></svg>