<svg xmlns="http://www.w3.org/2000/svg" xmlns:xlink="http://www.w3.org/1999/xlink" id="Layer_1" width="183" height="125" x="0" y="0" enable-background="new 0 0 183 125" version="1.1" viewBox="0 0 183 125" xml:space="preserve"><g><rect width="103" height="12" x="123.5" y="67" fill="#EFEFEF" transform="matrix(6.123234e-17 -1 1 6.123234e-17 101.978 248.022)"/><text fill="#6D6D6D" font-family="'Arial'" font-size="10" letter-spacing=".5" transform="matrix(0 -1 1 0 179.1289 105.2549)">BLOCK AXIS</text></g><g><rect width="156" height="100" x="1.5" y="23" fill="none" stroke="silver" stroke-dasharray="6 4" stroke-width="3"/><g><rect width="39.5" height="24" x="1.5" y="23" fill="#FFF" stroke="red" stroke-width="3"/><text fill="red" font-family="'Arial'" font-size="12" transform="matrix(1 0 0 1 8.2734 39.2896)">Latin</text></g><g><rect width="55.5" height="24" x="47" y="23" fill="#FFF" stroke="red" stroke-width="3"/><text fill="red" font-family="'Arial'" font-size="16" transform="matrix(1 0 0 1 58 41)">العربية</text></g><g><rect width="49.5" height="24" x="108" y="23" fill="#FFF" stroke="red" stroke-width="3"/><text fill="red" font-family="'KozGoPr6N-Regular-90ms-RKSJ-H'" font-size="12" transform="matrix(1 0 0 1 114.7734 39.2896)">日本語</text></g><text font-family="'Arial'" font-size="13" font-weight="700" letter-spacing=".5" transform="matrix(1 0 0 1 56.2104 11.1523)">START</text><line x1="0" x2="159" y1="23" y2="23" fill="#FFF" stroke="#333" stroke-width="3.005"/></g></svg>