<svg xmlns="http://www.w3.org/2000/svg" xmlns:xlink="http://www.w3.org/1999/xlink" width="149" height="170" enable-background="new 0 -.538 149 170" version="1.1" viewBox="0 -0.538 149 170" xml:space="preserve"><line x1="0" x2="67.598" y1="38.934" y2="38.934" fill="none" stroke="#000"/><line x1="0" x2="67.599" y1="43.097" y2="43.097" fill="none" stroke="#000"/><line x1="0" x2="67.598" y1="47.262" y2="47.262" fill="none" stroke="#000"/><line x1="0" x2="67.598" y1="51.426" y2="51.426" fill="none" stroke="#000"/><line x1="0" x2="67.598" y1="55.59" y2="55.59" fill="none" stroke="#000"/><line x1="0" x2="67.598" y1="59.754" y2="59.754" fill="none" stroke="#000"/><line x1="0" x2="67.598" y1="63.919" y2="63.919" fill="none" stroke="#000"/><line x1="0" x2="67.598" y1="68.083" y2="68.083" fill="none" stroke="#000"/><line x1="0" x2="67.598" y1="72.248" y2="72.248" fill="none" stroke="#000"/><line x1="0" x2="67.598" y1="76.412" y2="76.412" fill="none" stroke="#000"/><line x1="0" x2="67.598" y1="80.576" y2="80.576" fill="none" stroke="#000"/><line x1="0" x2="67.598" y1="84.74" y2="84.74" fill="none" stroke="#000"/><line x1="0" x2="67.598" y1="88.904" y2="88.904" fill="none" stroke="#000"/><line x1="0" x2="67.598" y1="93.069" y2="93.069" fill="none" stroke="#000"/><line x1="0" x2="67.598" y1="97.233" y2="97.233" fill="none" stroke="#000"/><line x1="0" x2="67.598" y1="101.397" y2="101.397" fill="none" stroke="#000"/><line x1="0" x2="67.598" y1="105.561" y2="105.561" fill="none" stroke="#000"/><line x1="0" x2="67.598" y1="109.726" y2="109.726" fill="none" stroke="#000"/><line x1="0" x2="67.598" y1="113.891" y2="113.891" fill="none" stroke="#000"/><line x1="0" x2="67.598" y1="118.054" y2="118.054" fill="none" stroke="#000"/><line x1="0" x2="67.598" y1="122.219" y2="122.219" fill="none" stroke="#000"/><line x1="0" x2="67.598" y1="126.383" y2="126.383" fill="none" stroke="#000"/><line x1="0" x2="67.598" y1="130.547" y2="130.547" fill="none" stroke="#000"/><line x1="0" x2="67.598" y1="134.712" y2="134.712" fill="none" stroke="#000"/><line x1="0" x2="67.598" y1="138.876" y2="138.876" fill="none" stroke="#000"/><line x1="0" x2="67.598" y1="143.04" y2="143.04" fill="none" stroke="#000"/><line x1="0" x2="67.598" y1="147.205" y2="147.205" fill="none" stroke="#000"/><line x1="0" x2="67.598" y1="151.369" y2="151.369" fill="none" stroke="#000"/><line x1="0" x2="67.598" y1="155.533" y2="155.533" fill="none" stroke="#000"/><line x1="0" x2="67.598" y1="159.697" y2="159.697" fill="none" stroke="#000"/><line x1="0" x2="67.598" y1="163.862" y2="163.862" fill="none" stroke="#000"/><line x1="0" x2="67.598" y1="168.025" y2="168.025" fill="none" stroke="#000"/><line x1="81.172" x2="148.769" y1="38.934" y2="38.934" fill="none" stroke="#000"/><line x1="81.172" x2="148.77" y1="43.097" y2="43.097" fill="none" stroke="#000"/><line x1="81.172" x2="148.769" y1="47.262" y2="47.262" fill="none" stroke="#000"/><line x1="81.172" x2="148.769" y1="51.426" y2="51.426" fill="none" stroke="#000"/><line x1="81.172" x2="148.769" y1="55.59" y2="55.59" fill="none" stroke="#000"/><line x1="81.172" x2="148.769" y1="59.754" y2="59.754" fill="none" stroke="#000"/><line x1="81.172" x2="148.769" y1="63.919" y2="63.919" fill="none" stroke="#000"/><line x1="81.172" x2="148.769" y1="68.083" y2="68.083" fill="none" stroke="#000"/><line x1="81.172" x2="148.769" y1="72.248" y2="72.248" fill="none" stroke="#000"/><line x1="81.172" x2="148.769" y1="76.412" y2="76.412" fill="none" stroke="#000"/><line x1="81.172" x2="148.769" y1="80.576" y2="80.576" fill="none" stroke="#000"/><line x1="81.172" x2="148.769" y1="84.74" y2="84.74" fill="none" stroke="#000"/><line x1="81.172" x2="148.769" y1="88.904" y2="88.904" fill="none" stroke="#000"/><line x1="81.172" x2="148.769" y1="93.069" y2="93.069" fill="none" stroke="#000"/><line x1="81.172" x2="148.769" y1="97.233" y2="97.233" fill="none" stroke="#000"/><line x1="81.172" x2="148.769" y1="101.397" y2="101.397" fill="none" stroke="#000"/><line x1="81.172" x2="148.769" y1="105.561" y2="105.561" fill="none" stroke="#000"/><line x1="81.172" x2="148.769" y1="109.726" y2="109.726" fill="none" stroke="#000"/><line x1="81.172" x2="148.769" y1="113.89" y2="113.89" fill="none" stroke="#000"/><line x1="81.172" x2="148.769" y1="118.054" y2="118.054" fill="none" stroke="#000"/><line x1="81.172" x2="148.769" y1="122.219" y2="122.219" fill="none" stroke="#000"/><line x1="81.172" x2="148.769" y1="126.383" y2="126.383" fill="none" stroke="#000"/><line x1="81.172" x2="148.769" y1="130.547" y2="130.547" fill="none" stroke="#000"/><line x1="81.172" x2="148.769" y1="134.712" y2="134.712" fill="none" stroke="#000"/><line x1="81.172" x2="148.769" y1="138.876" y2="138.876" fill="none" stroke="#000"/><line x1="81.172" x2="148.769" y1="143.04" y2="143.04" fill="none" stroke="#000"/><line x1="81.172" x2="148.769" y1="147.205" y2="147.205" fill="none" stroke="#000"/><line x1="81.172" x2="148.769" y1="151.369" y2="151.369" fill="none" stroke="#000"/><line x1="81.172" x2="148.769" y1="155.533" y2="155.533" fill="none" stroke="#000"/><line x1="81.172" x2="148.769" y1="159.697" y2="159.697" fill="none" stroke="#000"/><line x1="81.172" x2="148.769" y1="163.862" y2="163.862" fill="none" stroke="#000"/><line x1="81.172" x2="148.769" y1="168.025" y2="168.025" fill="none" stroke="#000"/><line x1="0" x2="88.6" y1="14.751" y2="14.751" fill="none" stroke="#000" stroke-width="1.5"/><line x1="0" x2="88.6" y1="7.75" y2="7.75" fill="none" stroke="#000" stroke-width="1.5"/><line x1="0" x2="88.6" y1="21.751" y2="21.751" fill="none" stroke="#000" stroke-width="1.5"/><line x1="0" x2="88.6" y1=".75" y2=".75" fill="none" stroke="#000" stroke-width="1.5"/><rect width="53.816" height="62.348" x="47.477" y="82.335" fill="#FFF" stroke="#FFF" stroke-width="8"/><line x1="47.477" x2="101.293" y1="82.335" y2="144.684" fill="none" stroke="#000"/><line x1="47.477" x2="101.293" y1="144.684" y2="82.335" fill="none" stroke="#000"/><rect width="53.816" height="62.348" x="47.477" y="82.335" fill="none" stroke="#000"/></svg>