<svg xmlns="http://www.w3.org/2000/svg" xmlns:svg="http://www.w3.org/2000/svg" id="svg2" width="116.069" height="115.581" x="0" y="0" enable-background="new -.925 -.774 296 242" overflow="visible" version="1.1" viewBox="-5.925 -0.774 228.345 231.163" xml:space="preserve" style="overflow:visible"><metadata id="metadata36"/><text id="text4" x="-196.025" y="18.422" font-size="36" transform="matrix(0,-1,1,0,0,0)" style="font-size:36px;font-family:Helvetica;fill:red">block-end</text><text id="text6" x="34.419" y="-198.073" font-size="36" transform="matrix(0,1,-1,0,0,0)" style="font-size:36px;font-family:Helvetica;fill:red">block-start</text><text id="text8" x="30.779" y="229.561" font-size="36" style="font-size:36px;font-family:Helvetica">inline-end</text><text id="text10" x="25.132" y="25.47" font-size="36" style="font-size:36px;font-family:Helvetica">inline-start</text><g id="g12" transform="matrix(0,0.98661953,1,0,-11.217472,-30.446085)"><g id="g14"><line id="line16" x1="80.075" x2="212.075" y1="120.226" y2="120.226" stroke-miterlimit="10" style="fill:none;stroke:#000;stroke-width:2;stroke-miterlimit:10"/><g id="g18"><path id="path20" d="m 224.016,120.226 c -5.68,2.107 -12.727,5.703 -17.095,9.512 l 3.44,-9.512 -3.44,-9.51 c 4.368,3.808 11.415,7.404 17.095,9.51 z"/></g></g></g><g id="g22" transform="matrix(0,1,-1,0,227.23552,-33.969602)"><g id="g24"><line id="line26" x1="152.075" x2="152.075" y1="48.226" y2="178.226" stroke-miterlimit="10" style="fill:none;stroke:red;stroke-width:8;stroke-miterlimit:10"/><g id="g28"><path id="path30" d="m 152.016,192.226 c -2.529,-6.815 -6.844,-15.271 -11.414,-20.514 l 11.414,4.129 11.412,-4.129 c -4.571,5.242 -8.886,13.698 -11.412,20.514 z" style="fill:red"/></g></g></g></svg>