<svg xmlns="http://www.w3.org/2000/svg" xmlns:svg="http://www.w3.org/2000/svg" xmlns:xlink="http://www.w3.org/1999/xlink" id="svg3012" width="224.984" height="82.094" version="1.1"><defs id="defs3014"><linearGradient id="id0" x1="58.653" x2="58.653" y1="52.537" y2="25.183" gradientTransform="matrix(1.6,0,0,1.6,0.58821,-60.063712)" gradientUnits="userSpaceOnUse"><stop id="stop4468" offset="0" stop-color="#fff"/><stop id="stop4470" offset="1" stop-color="#1e90ff"/></linearGradient><linearGradient id="linearGradient3042" x1="58.653" x2="58.653" y1="52.537" y2="25.183" gradientTransform="matrix(0,-1.6,1.6,0,336.98586,532.79193)" gradientUnits="userSpaceOnUse" xlink:href="#id0"/><linearGradient id="linearGradient3001" x1="58.653" x2="58.653" y1="52.537" y2="25.183" gradientTransform="matrix(0,-1.6,1.6,0,337.06653,532.90777)" gradientUnits="userSpaceOnUse" xlink:href="#id0"/><linearGradient id="linearGradient3001-1" x1="58.653" x2="58.653" y1="52.537" y2="25.183" gradientTransform="matrix(0,-1.6,1.6,0,318.73586,521.04193)" gradientUnits="userSpaceOnUse" xlink:href="#id0-8"/><linearGradient id="id0-8" x1="58.653" x2="58.653" y1="52.537" y2="25.183" gradientTransform="matrix(1.6,0,0,1.6,0.58821,-60.063712)" gradientUnits="userSpaceOnUse"><stop id="stop4468-5" offset="0" stop-color="#fff"/><stop id="stop4470-9" offset="1" stop-color="#1e90ff"/></linearGradient><linearGradient id="linearGradient3018" x1="58.52" x2="58.653" y1="38.803" y2="25.183" gradientTransform="matrix(0,-0.94272514,0.7554173,0,475.46395,471.27783)" gradientUnits="userSpaceOnUse" xlink:href="#id0-8"/><linearGradient id="linearGradient3018-5" x1="58.52" x2="58.653" y1="38.803" y2="25.183" gradientTransform="matrix(0,-0.94272514,0.7554173,0,475.96395,470.4669)" gradientUnits="userSpaceOnUse" xlink:href="#id0-8-4"/><linearGradient id="id0-8-4" x1="58.653" x2="58.653" y1="52.537" y2="25.183" gradientTransform="matrix(1.6,0,0,1.6,0.58821,-60.063712)" gradientUnits="userSpaceOnUse"><stop id="stop4468-5-8" offset="0" stop-color="#fff"/><stop id="stop4470-9-1" offset="1" stop-color="#1e90ff"/></linearGradient><linearGradient id="linearGradient3052" x1="58.653" x2="58.653" y1="81.43" y2="25.183" gradientTransform="matrix(0,-0.94272514,1.189894,0,280.78819,471.27783)" gradientUnits="userSpaceOnUse" xlink:href="#id0-8-4"/><linearGradient id="linearGradient3052-8" x1="58.653" x2="58.653" y1="113.784" y2="25.183" gradientTransform="matrix(0,-0.94272514,0.7554173,0,291.33187,472.15441)" gradientUnits="userSpaceOnUse" xlink:href="#id0-8-4-6"/><linearGradient id="id0-8-4-6" x1="58.653" x2="58.653" y1="52.537" y2="25.183" gradientTransform="matrix(1.6,0,0,1.6,0.58821,-60.063712)" gradientUnits="userSpaceOnUse"><stop id="stop4468-5-8-2" offset="0" stop-color="#fff"/><stop id="stop4470-9-1-8" offset="1" stop-color="#1e90ff"/></linearGradient><linearGradient id="linearGradient3086" x1="58.653" x2="58.653" y1="113.784" y2="25.183" gradientTransform="matrix(0,-0.94272514,-1.0678515,0,510.06013,471.27783)" gradientUnits="userSpaceOnUse" xlink:href="#id0-8-4-6"/><linearGradient id="id2" x1="55.477" x2="112.599" y1="55.399" y2="55.399" gradientTransform="matrix(1.6,0,0,1.6,0.58821,-60.063712)" gradientUnits="userSpaceOnUse"><stop id="stop4478" offset="0" stop-color="#fff"/><stop id="stop4480" offset="1" stop-color="#F93"/></linearGradient><linearGradient id="linearGradient3148" x1="55.477" x2="112.599" y1="55.399" y2="55.399" gradientTransform="matrix(-3.3950258,0,0,3.2318159,693.57864,256.10201)" gradientUnits="userSpaceOnUse" xlink:href="#id2"/></defs><metadata id="metadata3017"/><g id="layer1" transform="translate(-290.85937,-372.0626)"><flowRoot id="flowRoot3020" xml:space="preserve" style="font-size:9px;font-style:normal;font-variant:normal;font-weight:400;font-stretch:normal;text-align:center;line-height:125%;letter-spacing:0;word-spacing:0;text-anchor:middle;fill:#000;fill-opacity:1;stroke:none;font-family:Liberation Sans;-inkscape-font-specification:Liberation Sans"><flowRegion id="flowRegion3022"><rect id="rect3024" width="427" height="124" x="194" y="376.362"/></flowRegion><flowPara id="flowPara3026" style="font-size:24px;font-style:normal;font-variant:normal;font-weight:400;font-stretch:normal;font-family:Sans;-inkscape-font-specification:Sans">با Unicode بنویس.</flowPara></flowRoot><path id="path4484-7" d="m 504.77646,418.38558 -3.8105,-0.0709 -0.0309,4.19825 -6.44736,-6.52576 6.4402,-6.5289 0.0381,4.04997 3.79637,-0.002 z" style="fill:url(#linearGradient3018);fill-rule:nonzero;stroke:#87cefa;stroke-width:.30490515"/><path id="path4484-7-2" d="m 377.58059,418.38558 -56.62296,-0.0709 -0.0487,4.19825 -10.15554,-6.52576 10.14426,-6.5289 0.06,4.04997 56.54759,-0.002 z" style="fill:url(#linearGradient3052);fill-rule:nonzero;stroke:#87cefa;stroke-width:.38267088"/><path id="path4484-7-2-4" d="m 388.75629,418.38558 85.25442,-0.0709 0.0437,4.19825 9.11394,-6.52576 -9.10381,-6.5289 -0.0538,4.04997 -85.41115,-0.002 z" style="fill:url(#linearGradient3086);fill-rule:nonzero;stroke:#87cefa;stroke-width:.3625156"/><path id="path4494" d="m 505.2328,432.72557 -140.587,0 0,-5.90431 -53.34332,8.3209 53.34332,8.32241 0,-5.9043 140.587,0 0,-4.8347 z m -70.29265,0 m -70.29435,-2.95291 m -26.67085,1.20904 m 0,8.32242 m 26.67085,1.20905 m 70.29435,-2.9529 m 70.29265,-2.41814" style="fill:url(#linearGradient3148);fill-rule:nonzero;stroke:#fc6;stroke-width:1.1968056"/></g></svg>