<svg xmlns="http://www.w3.org/2000/svg" xmlns:svg="http://www.w3.org/2000/svg" style="fill-rule:evenodd" id="svg3603" width="100%" height="100%" clip-rule="evenodd" image-rendering="optimizeQuality" shape-rendering="geometricPrecision" text-rendering="geometricPrecision" version="1.1" viewBox="0 0 152.125 225.736" xml:space="preserve"><metadata id="metadata3667"/><defs id="defs3605"><linearGradient id="id0" x1="81.314" x2="81.314" y1="52.248" y2="8.639" gradientTransform="translate(0,16)" gradientUnits="userSpaceOnUse"><stop id="stop3608" offset="0" stop-color="#fff"/><stop id="stop3610" offset="1" stop-color="#1e90ff"/></linearGradient><linearGradient id="id1" x1="49.77" x2="49.77" y1="51.95" y2="8.341" gradientTransform="translate(0,16)" gradientUnits="userSpaceOnUse"><stop id="stop3613" offset="0" stop-color="#fff"/><stop id="stop3615" offset="1" stop-color="#1e90ff"/></linearGradient><linearGradient id="id2" x1="21.242" x2="21.242" y1="52.103" y2="8.494" gradientTransform="translate(0,16)" gradientUnits="userSpaceOnUse"><stop id="stop3618" offset="0" stop-color="#fff"/><stop id="stop3620" offset="1" stop-color="#1e90ff"/></linearGradient><linearGradient id="id3" x1="130.473" x2="130.473" y1="71.971" y2="28.362" gradientTransform="translate(0,16)" gradientUnits="userSpaceOnUse"><stop id="stop3623" offset="0" stop-color="#fff"/><stop id="stop3625" offset="1" stop-color="#1e90ff"/></linearGradient><linearGradient id="id4" x1="130.205" x2="130.205" y1="122.623" y2="79.014" gradientTransform="translate(0,16)" gradientUnits="userSpaceOnUse"><stop id="stop3628" offset="0" stop-color="#fff"/><stop id="stop3630" offset="1" stop-color="#1e90ff"/></linearGradient><linearGradient id="id5" x1="130.693" x2="130.693" y1="172.398" y2="128.789" gradientTransform="translate(0,16)" gradientUnits="userSpaceOnUse"><stop id="stop3633" offset="0" stop-color="#fff"/><stop id="stop3635" offset="1" stop-color="#1e90ff"/></linearGradient></defs><g id="Layer_x0020_1" transform="translate(0.09375,3.1321204)"><metadata id="CorelCorpID_0Corel-Layer"/><line id="line3639" x1="49.878" x2="49.883" y1="7.891" y2="196.001" style="fill:none;stroke:#000;stroke-width:2.00012994"/><line id="line3641" x1="130.59" x2="130.598" y1="6.868" y2="195.247" style="fill:none;stroke:#000;stroke-width:2.01673055"/><path id="path3643" d="M 92.35,68.2476 92.3553,38.2456 81.3198,24.6393 70.279,38.2305 70.2737,68.2325 92.35,68.24762 z M 92.353,53.2459 M 86.8379,31.4425 M 75.7994,31.4349 M 70.27598,53.2307 M 81.31228,68.24" style="fill:url(#id0);fill-rule:nonzero;stroke:#87cefa;stroke-width:.576002"/><path id="path3645" d="M 60.806,67.9498 60.8113,37.9478 49.7758,24.3415 38.735,37.9327 38.7297,67.9347 60.806,67.94982 z M 60.809,52.9481 M 55.2939,31.1447 M 44.2554,31.1371 m -5.52342,21.7958 m 11.0363,15.0093" style="fill:url(#id1);fill-rule:nonzero;stroke:#87cefa;stroke-width:.576002"/><path id="path3647" d="M 32.2773,68.1025 32.2826,38.1005 21.2471,24.4942 10.2063,38.0854 10.201,68.0874 32.2773,68.10252 z m 0.003,-15.0017 M 26.7652,31.2974 M 15.7267,31.2898 m -5.52342,21.7958 m 11.0363,15.0093" style="fill:url(#id2);fill-rule:nonzero;stroke:#87cefa;stroke-width:.576002"/><path id="path3649" d="m 141.508,87.9707 0.005,-30.002 -11.0355,-13.6063 -11.0408,13.5912 -0.005,30.002 22.0763,0.01512 z M 141.511,72.969 M 135.9959,51.1656 M 124.9574,51.158 m -5.52342,21.7958 m 11.0363,15.0093" style="fill:url(#id3);fill-rule:nonzero;stroke:#87cefa;stroke-width:.576002"/><path id="path3651" d="m 141.241,138.623 0.005,-30.002 -11.0355,-13.6063 -11.0408,13.5912 -0.005,30.002 22.0763,0.0151 z m 0.003,-15.0017 m -5.5151,-21.8034 m -11.0385,-0.008 m -5.5234,21.79584 m 11.0363,15.0093" style="fill:url(#id4);fill-rule:nonzero;stroke:#87cefa;stroke-width:.576002"/><path id="path3653" d="m 141.729,188.398 0.005,-30.002 -11.0355,-13.6063 -11.0408,13.5912 -0.005,30.002 22.0763,0.0151 z m 0.003,-15.0017 m -5.5151,-21.8034 m -11.0385,-0.008 m -5.52342,21.7958 m 11.0363,15.0093" style="fill:url(#id5);fill-rule:nonzero;stroke:#87cefa;stroke-width:.576002"/><polygon id="polygon3655" points="85.626 102.743 88.276 100.092 66.014 77.882 70.354 73.565 92.526 95.842 95.182 93.186 98.372 105.938" transform="translate(0,16)" style="fill:tomato;stroke:red;stroke-width:2.00012994"/><g id="g3657" transform="matrix(0.989903,0,0,1,48.4092,102.0208)"><text id="text3659" x="80" y="110" font-size="16" font-weight="normal" style="font-size:16.00029945px;font-weight:400;fill:#000;font-family:Arial">0°</text></g><g id="g3661" transform="matrix(0.989903,0,0,1,-35.426,102.4479)"><text id="text3663" x="80" y="110" font-size="16" font-weight="normal" style="font-size:16.00029945px;font-weight:400;fill:#000;font-family:Arial">0°</text></g></g></svg>