<svg xmlns="http://www.w3.org/2000/svg" xmlns:svg="http://www.w3.org/2000/svg" xmlns:xlink="http://www.w3.org/1999/xlink" id="svg2" width="440.25" height="298.906" version="1.1"><defs id="defs4"><linearGradient id="id2" x1="69.851" x2="69.851" y1="89.373" y2="180.437" gradientUnits="userSpaceOnUse"><stop id="stop4266" offset="0" stop-color="#fff"/><stop id="stop4268" offset="1" stop-color="#EA8A2F"/></linearGradient><linearGradient id="linearGradient3879" x1="69.851" x2="69.851" y1="89.373" y2="180.437" gradientTransform="matrix(1.5,0,0,-1.5,168.51255,1133.2501)" gradientUnits="userSpaceOnUse" xlink:href="#id2"/><linearGradient id="id1" x1="106.919" x2="9.42" y1="64.93" y2="64.93" gradientUnits="userSpaceOnUse"><stop id="stop4261" offset="0" stop-color="#fff"/><stop id="stop4263" offset="1" stop-color="#15A739"/></linearGradient><linearGradient id="linearGradient3914" x1="106.919" x2="9.42" y1="64.93" y2="64.93" gradientTransform="matrix(4.0000617,0,0,0.80464393,-82.682583,1026.4211)" gradientUnits="userSpaceOnUse" xlink:href="#id1"/></defs><metadata id="metadata7"/><g id="layer1" transform="translate(70.125,-805.3125)"><path id="path3971" d="m 256.34467,1018.6 0,37.872" style="fill:#80b3ff;fill-opacity:1;stroke:#80b3ff;stroke-width:1.5;stroke-linecap:butt;stroke-linejoin:miter;stroke-miterlimit:4;stroke-opacity:1;stroke-dasharray:1.5,1.5;stroke-dashoffset:0"/><path id="path3971-3-7" d="m 315.75,1040.8992 0.125,15.3196" style="fill:#ccc;stroke:#ccc;stroke-width:1.5;stroke-linecap:butt;stroke-linejoin:miter;stroke-miterlimit:4;stroke-opacity:1;stroke-dasharray:1.5,1.5;stroke-dashoffset:0"/><path id="path2993" d="m 360.12396,816.07359 -420.247926,0" style="fill:none;stroke:#000;stroke-width:1.5px;stroke-linecap:butt;stroke-linejoin:miter;stroke-opacity:1"/><path id="path2995" d="m 360.12396,1056.4145 -420.247926,0" style="fill:none;stroke:#000;stroke-width:1.5px;stroke-linecap:butt;stroke-linejoin:miter;stroke-opacity:1"/><rect id="rect3003" width="15.124" height="210.124" x="345" y="831.414" style="opacity:.9;fill:#999;fill-opacity:1;stroke:none"/><rect id="rect3003-9" width="15.124" height="210.124" x="315" y="830.95" style="opacity:.9;fill:#999;fill-opacity:1;stroke:none"/><rect id="rect3003-7" width="15.124" height="210.124" x="-60.124" y="831.167" style="opacity:.9;fill:#999;fill-opacity:1;stroke:none"/><rect id="rect3003-8" width="15.124" height="195.217" x="-30" y="830.95" style="opacity:.9;fill:#999;fill-opacity:1;stroke:none"/><rect id="rect3045" width="255" height="165" x="1.5" y="853.667" style="opacity:.9;fill:none;stroke:navy;stroke-width:1.34840965;stroke-miterlimit:4;stroke-opacity:1;stroke-dasharray:none;stroke-dashoffset:0"/><rect id="rect3047" width="45" height="45" x="166.5" y="861.167" style="opacity:.9;fill:none;stroke:navy;stroke-width:1.29903805;stroke-miterlimit:4;stroke-opacity:1;stroke-dasharray:none;stroke-dashoffset:0"/><rect id="rect3049" width="45" height="45" x="166.5" y="913.667" style="opacity:.9;fill:none;stroke:navy;stroke-width:1.22474492;stroke-miterlimit:4;stroke-opacity:1;stroke-dasharray:none;stroke-dashoffset:0"/><rect id="rect3051" width="45" height="45" x="166.5" y="966.167" style="opacity:.9;fill:none;stroke:navy;stroke-width:1.38873005;stroke-miterlimit:4;stroke-opacity:1;stroke-dasharray:none;stroke-dashoffset:0"/><rect id="rect3047-3" width="45" height="45" x="114" y="861.167" style="opacity:.9;fill:none;stroke:navy;stroke-width:1.29903805;stroke-miterlimit:4;stroke-opacity:1;stroke-dasharray:none;stroke-dashoffset:0"/><rect id="rect3049-7" width="45" height="45" x="114" y="913.667" style="opacity:.9;fill:none;stroke:navy;stroke-width:1.22474492;stroke-miterlimit:4;stroke-opacity:1;stroke-dasharray:none;stroke-dashoffset:0"/><rect id="rect3051-1" width="45" height="45" x="114" y="966.167" style="opacity:.9;fill:none;stroke:navy;stroke-width:1.38873005;stroke-miterlimit:4;stroke-opacity:1;stroke-dasharray:none;stroke-dashoffset:0"/><rect id="rect3047-38" width="45" height="45" x="61.5" y="861.167" style="opacity:.9;fill:none;stroke:navy;stroke-width:1.29903805;stroke-miterlimit:4;stroke-opacity:1;stroke-dasharray:none;stroke-dashoffset:0"/><rect id="rect3049-0" width="45" height="45" x="61.5" y="913.667" style="opacity:.9;fill:none;stroke:navy;stroke-width:1.22474492;stroke-miterlimit:4;stroke-opacity:1;stroke-dasharray:none;stroke-dashoffset:0"/><rect id="rect3051-9" width="45" height="45" x="61.5" y="966.167" style="opacity:.9;fill:none;stroke:navy;stroke-width:1.38873005;stroke-miterlimit:4;stroke-opacity:1;stroke-dasharray:none;stroke-dashoffset:0"/><rect id="rect3047-7" width="45" height="45" x="9" y="861.167" style="opacity:.9;fill:none;stroke:navy;stroke-width:1.29903805;stroke-miterlimit:4;stroke-opacity:1;stroke-dasharray:none;stroke-dashoffset:0"/><rect id="rect3049-9" width="45" height="45" x="9" y="913.667" style="opacity:.9;fill:none;stroke:navy;stroke-width:1.22474492;stroke-miterlimit:4;stroke-opacity:1;stroke-dasharray:none;stroke-dashoffset:0"/><rect id="rect3051-93" width="45" height="45" x="9" y="966.167" style="opacity:.9;fill:none;stroke:navy;stroke-width:1.38873005;stroke-miterlimit:4;stroke-opacity:1;stroke-dasharray:none;stroke-dashoffset:0"/><rect style="font-size:12px;font-weight:700;-inkscape-font-specification:Liberation Sans Bold" id="rect3149" width="20.455" height="20.145" x="194.628" y="54.649"/><text id="text3121" x="883.151" y="-181.5" transform="matrix(0,1,-1,0,0,0)" xml:space="preserve" style="font-size:15px;font-style:normal;font-variant:normal;font-weight:400;font-stretch:normal;text-align:center;line-height:125%;letter-spacing:0;word-spacing:0;text-anchor:middle;fill:#000;fill-opacity:1;stroke:none;font-family:Liberation Sans;-inkscape-font-specification:Liberation Sans"><tspan id="tspan3123" x="883.151" y="-181.5"><tspan id="tspan3125" x="883.151" y="-181.5" style="font-size:18px;-inkscape-font-specification:Liberation Sans">1.3</tspan></tspan></text><text id="text3145" x="935.651" y="-181.5" transform="matrix(0,1,-1,0,0,0)" xml:space="preserve" style="font-size:15px;font-style:normal;font-variant:normal;font-weight:400;font-stretch:normal;text-align:center;line-height:125%;letter-spacing:0;word-spacing:0;text-anchor:middle;fill:#000;fill-opacity:1;stroke:none;font-family:Liberation Sans;-inkscape-font-specification:Liberation Sans"><tspan id="tspan3147" x="935.651" y="-181.5"><tspan id="tspan3149" x="935.651" y="-181.5" style="font-size:18px;-inkscape-font-specification:Liberation Sans">1.2</tspan></tspan></text><text id="text3169" x="988.151" y="-181.5" transform="matrix(0,1,-1,0,0,0)" xml:space="preserve" style="font-size:15px;font-style:normal;font-variant:normal;font-weight:400;font-stretch:normal;text-align:center;line-height:125%;letter-spacing:0;word-spacing:0;text-anchor:middle;fill:#000;fill-opacity:1;stroke:none;font-family:Liberation Sans;-inkscape-font-specification:Liberation Sans"><tspan id="tspan3171" x="988.151" y="-181.5"><tspan id="tspan3173" x="988.151" y="-181.5" style="font-size:18px;-inkscape-font-specification:Liberation Sans">1.1</tspan></tspan></text><text id="text3115" x="883.151" y="-129" transform="matrix(0,1,-1,0,0,0)" xml:space="preserve" style="font-size:15px;font-style:normal;font-variant:normal;font-weight:400;font-stretch:normal;text-align:center;line-height:125%;letter-spacing:0;word-spacing:0;text-anchor:middle;fill:#000;fill-opacity:1;stroke:none;font-family:Liberation Sans;-inkscape-font-specification:Liberation Sans"><tspan id="tspan3117" x="883.151" y="-129"><tspan id="tspan3119" x="883.151" y="-129" style="font-size:18px;-inkscape-font-specification:Liberation Sans">2.3</tspan></tspan></text><text id="text3139" x="935.651" y="-129" transform="matrix(0,1,-1,0,0,0)" xml:space="preserve" style="font-size:15px;font-style:normal;font-variant:normal;font-weight:400;font-stretch:normal;text-align:center;line-height:125%;letter-spacing:0;word-spacing:0;text-anchor:middle;fill:#000;fill-opacity:1;stroke:none;font-family:Liberation Sans;-inkscape-font-specification:Liberation Sans"><tspan id="tspan3141" x="935.651" y="-129"><tspan id="tspan3143" x="935.651" y="-129" style="font-size:18px;-inkscape-font-specification:Liberation Sans">2.2</tspan></tspan></text><text id="text3163" x="988.151" y="-129" transform="matrix(0,1,-1,0,0,0)" xml:space="preserve" style="font-size:15px;font-style:normal;font-variant:normal;font-weight:400;font-stretch:normal;text-align:center;line-height:125%;letter-spacing:0;word-spacing:0;text-anchor:middle;fill:#000;fill-opacity:1;stroke:none;font-family:Liberation Sans;-inkscape-font-specification:Liberation Sans"><tspan id="tspan3165" x="988.151" y="-129"><tspan id="tspan3167" x="988.151" y="-129" style="font-size:18px;-inkscape-font-specification:Liberation Sans">2.1</tspan></tspan></text><text id="text3157" x="988.151" y="-76.5" transform="matrix(0,1,-1,0,0,0)" xml:space="preserve" style="font-size:15px;font-style:normal;font-variant:normal;font-weight:400;font-stretch:normal;text-align:center;line-height:125%;letter-spacing:0;word-spacing:0;text-anchor:middle;fill:#000;fill-opacity:1;stroke:none;font-family:Liberation Sans;-inkscape-font-specification:Liberation Sans"><tspan id="tspan3159" x="988.151" y="-76.5"><tspan id="tspan3161" x="988.151" y="-76.5" style="font-size:18px;-inkscape-font-specification:Liberation Sans">3.1</tspan></tspan></text><text id="text3133" x="935.651" y="-76.5" transform="matrix(0,1,-1,0,0,0)" xml:space="preserve" style="font-size:15px;font-style:normal;font-variant:normal;font-weight:400;font-stretch:normal;text-align:center;line-height:125%;letter-spacing:0;word-spacing:0;text-anchor:middle;fill:#000;fill-opacity:1;stroke:none;font-family:Liberation Sans;-inkscape-font-specification:Liberation Sans"><tspan id="tspan3135" x="935.651" y="-76.5"><tspan id="tspan3137" x="935.651" y="-76.5" style="font-size:18px;-inkscape-font-specification:Liberation Sans">3.2</tspan></tspan></text><text id="text3109" x="883.151" y="-76.5" transform="matrix(0,1,-1,0,0,0)" xml:space="preserve" style="font-size:15px;font-style:normal;font-variant:normal;font-weight:400;font-stretch:normal;text-align:center;line-height:125%;letter-spacing:0;word-spacing:0;text-anchor:middle;fill:#000;fill-opacity:1;stroke:none;font-family:Liberation Sans;-inkscape-font-specification:Liberation Sans"><tspan id="tspan3111" x="883.151" y="-76.5"><tspan id="tspan3113" x="883.151" y="-76.5" style="font-size:18px;-inkscape-font-specification:Liberation Sans">3.3</tspan></tspan></text><text id="text3103" x="883.151" y="-24" transform="matrix(0,1,-1,0,0,0)" xml:space="preserve" style="font-size:15px;font-style:normal;font-variant:normal;font-weight:400;font-stretch:normal;text-align:center;line-height:125%;letter-spacing:0;word-spacing:0;text-anchor:middle;fill:#000;fill-opacity:1;stroke:none;font-family:Liberation Sans;-inkscape-font-specification:Liberation Sans"><tspan id="tspan3105" x="883.151" y="-24"><tspan id="tspan3107" x="883.151" y="-24" style="font-size:18px;-inkscape-font-specification:Liberation Sans">4.3</tspan></tspan></text><text id="text3127" x="935.651" y="-24" transform="matrix(0,1,-1,0,0,0)" xml:space="preserve" style="font-size:15px;font-style:normal;font-variant:normal;font-weight:400;font-stretch:normal;text-align:center;line-height:125%;letter-spacing:0;word-spacing:0;text-anchor:middle;fill:#000;fill-opacity:1;stroke:none;font-family:Liberation Sans;-inkscape-font-specification:Liberation Sans"><tspan id="tspan3129" x="935.651" y="-24"><tspan id="tspan3131" x="935.651" y="-24" style="font-size:18px;-inkscape-font-specification:Liberation Sans">4.2</tspan></tspan></text><text id="text3151" x="988.151" y="-24" transform="matrix(0,1,-1,0,0,0)" xml:space="preserve" style="font-size:15px;font-style:normal;font-variant:normal;font-weight:400;font-stretch:normal;text-align:center;line-height:125%;letter-spacing:0;word-spacing:0;text-anchor:middle;fill:#000;fill-opacity:1;stroke:none;font-family:Liberation Sans;-inkscape-font-specification:Liberation Sans"><tspan id="tspan3153" x="988.151" y="-24"><tspan id="tspan3155" x="988.151" y="-24" style="font-size:18px;-inkscape-font-specification:Liberation Sans">4.1</tspan></tspan></text><rect id="rect3047-37" width="30" height="45" x="219" y="861.167" style="opacity:.9;fill:none;stroke:navy;stroke-width:1.06066012;stroke-miterlimit:4;stroke-opacity:1;stroke-dasharray:none;stroke-dashoffset:0"/><text id="text3349" x="883.667" y="-226.5" transform="matrix(0,1,-1,0,0,0)" xml:space="preserve" style="font-size:15px;font-style:normal;font-variant:normal;font-weight:400;font-stretch:normal;text-align:center;line-height:125%;letter-spacing:0;word-spacing:0;text-anchor:middle;fill:#000;fill-opacity:1;stroke:none;font-family:Liberation Sans;-inkscape-font-specification:Liberation Sans"><tspan style="font-weight:700;-inkscape-font-specification:Liberation Sans Bold" id="tspan3351" x="883.667" y="-226.5">Col 3</tspan></text><rect id="rect3047-37-2" width="30" height="45" x="219" y="913.667" style="opacity:.9;fill:none;stroke:navy;stroke-width:1.06066012;stroke-miterlimit:4;stroke-opacity:1;stroke-dasharray:none;stroke-dashoffset:0"/><text id="text3349-2" x="936.167" y="-226.5" transform="matrix(0,1,-1,0,0,0)" xml:space="preserve" style="font-size:15px;font-style:normal;font-variant:normal;font-weight:400;font-stretch:normal;text-align:center;line-height:125%;letter-spacing:0;word-spacing:0;text-anchor:middle;fill:#000;fill-opacity:1;stroke:none;font-family:Liberation Sans;-inkscape-font-specification:Liberation Sans"><tspan style="font-weight:700;-inkscape-font-specification:Liberation Sans Bold" id="tspan3351-1" x="936.167" y="-226.5">Col 2</tspan></text><rect id="rect3047-37-6" width="30" height="45" x="219" y="966.167" style="opacity:.9;fill:none;stroke:navy;stroke-width:1.06066012;stroke-miterlimit:4;stroke-opacity:1;stroke-dasharray:none;stroke-dashoffset:0"/><text id="text3349-3" x="988.667" y="-226.5" transform="matrix(0,1,-1,0,0,0)" xml:space="preserve" style="font-size:15px;font-style:normal;font-variant:normal;font-weight:400;font-stretch:normal;text-align:center;line-height:125%;letter-spacing:0;word-spacing:0;text-anchor:middle;fill:#000;fill-opacity:1;stroke:none;font-family:Liberation Sans;-inkscape-font-specification:Liberation Sans"><tspan style="font-weight:700;-inkscape-font-specification:Liberation Sans Bold" id="tspan3351-0" x="988.667" y="-226.5">Col 1</tspan></text><path id="path3813" d="m 142.5,816.16656 -4.5,7.5 6,0 0,22.5 -6,0 4.5,7.5 4.5,-7.5 -6,0 0,-22.5 6,0 z" style="fill:teal;stroke:none"/><text id="text3815" x="97.5" y="838.667" xml:space="preserve" style="font-size:15px;font-style:normal;font-variant:normal;font-weight:400;font-stretch:normal;text-align:center;line-height:125%;letter-spacing:0;word-spacing:0;text-anchor:middle;fill:#000;fill-opacity:1;stroke:none;font-family:Liberation Sans;-inkscape-font-specification:Liberation Sans"><tspan style="fill:teal" id="tspan3817" x="97.5" y="838.667">auto margin</tspan></text><path id="path3813-9" d="m 142.5,1019.0384 -4.5,7.5 6,0 0,22.5 -6,0 4.5,7.5 4.5,-7.5 -6,0 0,-22.5 6,0 z" style="fill:teal;stroke:none"/><text id="text3815-9" x="97.5" y="1041.539" xml:space="preserve" style="font-size:15px;font-style:normal;font-variant:normal;font-weight:400;font-stretch:normal;text-align:center;line-height:125%;letter-spacing:0;word-spacing:0;text-anchor:middle;fill:#000;fill-opacity:1;stroke:none;font-family:Liberation Sans;-inkscape-font-specification:Liberation Sans"><tspan style="fill:teal" id="tspan3817-1" x="97.5" y="1041.539">auto margin</tspan></text><path id="path3813-0" d="m -22.499999,1026.1666 -3,3 4.5,0 0,9 -4.5,0 3,3.3718 3,-3.3718 -4.5,0 0,-9 4.5,0 z" style="fill:teal;stroke:none"/><text id="text3861" x="7.5" y="1041.167" xml:space="preserve" style="font-size:15px;font-style:normal;font-variant:normal;font-weight:400;font-stretch:normal;text-align:center;line-height:125%;letter-spacing:0;word-spacing:0;text-anchor:middle;fill:#000;fill-opacity:1;stroke:none;font-family:Liberation Sans;-inkscape-font-specification:Liberation Sans"><tspan style="fill:teal" id="tspan3863" x="7.5" y="1041.167">indent</tspan></text><path id="path4282" d="m 275.07735,999.1901 0,-99.02354 4.36877,0 -6.15687,-37.57278 -6.15801,37.57278 4.36876,0 0,99.02354 3.57734,0 z m 0,-49.51124 m 2.18495,-49.5123 m -0.89462,-18.78585 m -6.15801,0 m -0.89461,18.78585 m 2.18494,49.5123 m 1.78923,49.51124" style="fill:url(#linearGradient3879);fill-rule:nonzero;stroke:#f3c35c;stroke-width:.864003"/><text id="text3896" x="930.167" y="-279" transform="matrix(0,1,-1,0,0,0)" xml:space="preserve" style="font-size:15px;font-style:normal;font-variant:normal;font-weight:400;font-stretch:normal;text-align:center;line-height:125%;letter-spacing:0;word-spacing:0;text-anchor:middle;fill:#000;fill-opacity:1;stroke:none;font-family:Liberation Sans;-inkscape-font-specification:Liberation Sans"><tspan style="font-weight:700;fill:#ea8a2f;-inkscape-font-specification:Liberation Sans Bold" id="tspan3898" x="930.167" y="-279">RTL</tspan></text><path id="path4280" d="m 345,1071.6776 -222.85702,0 0,-8.011 -167.142979,15.0003 167.142979,14.9997 0,-8.0111 222.85702,0 0,-13.9779 z m -111.42571,0 m -111.43172,-4.0053 m -83.571284,3.4943 m 0,14.9998 m 83.571284,3.4943 m 111.43172,-4.0052 M 345,1078.6669" style="fill:url(#linearGradient3914);fill-rule:nonzero;stroke:#b2d9aa;stroke-width:1.03337801"/><text id="text3947" x="295.5" y="1084.667" xml:space="preserve" style="font-size:15px;font-style:normal;font-variant:normal;font-weight:400;font-stretch:normal;text-align:center;line-height:125%;letter-spacing:0;word-spacing:0;text-anchor:middle;fill:#000;fill-opacity:1;stroke:none;font-family:Liberation Sans;-inkscape-font-specification:Liberation Sans"><tspan style="font-size:18px;font-weight:700;fill:#15a739;-inkscape-font-specification:Liberation Sans Bold" id="tspan3949" x="295.5" y="1084.667">vertical-RL</tspan></text><rect id="rect3963" width="38.631" height="36.598" x="94.69" y="135.518"/><path id="path4777" d="m 257.05178,1049.2188 0,3 51.96647,0.4478 0,3 5.98175,-4.5 -5.98175,-4.5 0,3 z" style="fill:#00f;stroke:none"/><path id="path4777-5" d="m 315,1042.6666 0,3 -9,0 0,3 -6,-4.5 6,-4.5 0,3 z" style="fill:#4d4d4d;stroke:none"/><text id="text4797" x="285.5" y="1027.667" xml:space="preserve" style="font-size:13.5px;font-style:normal;font-variant:normal;font-weight:400;font-stretch:normal;text-align:center;line-height:85.00000238%;letter-spacing:0;word-spacing:0;text-anchor:middle;fill:#000;fill-opacity:1;stroke:none;font-family:Liberation Sans;-inkscape-font-specification:Liberation Sans"><tspan style="line-height:85.00000238%;fill:#00f" id="tspan4799" x="285.5" y="1027.667">collapsing</tspan><tspan style="line-height:85.00000238%;fill:#00f" id="tspan4801" x="285.5" y="1039.141">margins</tspan></text></g></svg>