<svg xmlns="http://www.w3.org/2000/svg" width="600" height="450" version="1.1"><rect width="100%" height="100%" x="0" y="0" fill="none" stroke="#000"/><g stroke="#000" font-family="Times" transform="scale(1, -1) translate(75, -300)"><line x1="0" x2="0" y1="0" y2="250"/><line x1="0" x2="500" y1="0" y2="0"/><text font-size="24" transform="scale(1, -1) translate(210, 100)">Stretch</text><text font-size="24" transform="scale(1, -1) rotate(-90) translate(100, -25)">Distance</text><g transform="translate(50, -50)"><line x1="0" x2="0" y1="0" y2="10"/><line x1="0" x2="100" y1="0" y2="0"/><line x1="100" x2="100" y1="0" y2="10"/><text font-size="12" transform="scale(1, -1) translate(48, 20)">A</text></g><g transform="translate(200, -50)"><line x1="0" x2="0" y1="0" y2="10"/><line x1="0" x2="100" y1="0" y2="0"/><line x1="100" x2="100" y1="0" y2="10"/><text font-size="12" transform="scale(1, -1) translate(48, 20)">B</text></g><g transform="translate(350, -50)"><line x1="0" x2="0" y1="0" y2="10"/><line x1="0" x2="100" y1="0" y2="0"/><line x1="100" x2="100" y1="0" y2="10"/><text font-size="12" transform="scale(1, -1) translate(48, 20)">C</text></g><g><line x1="50" x2="50" y1="-5" y2="5"/><text x="-10" y="18" font-size="12" transform="scale(1, -1)">Min Family Stretch</text><line x1="100" x2="100" y1="-5" y2="5"/><text x="95" y="18" font-size="12" transform="scale(1, -1)">50%</text><line x1="200" x2="200" y1="-5" y2="5"/><text x="190" y="18" font-size="12" transform="scale(1, -1)">100%</text><line x1="250" x2="250" y1="-5" y2="5"/><text x="240" y="18" font-size="12" transform="scale(1, -1)">125%</text><line x1="350" x2="350" y1="-5" y2="5"/><text x="340" y="18" font-size="12" transform="scale(1, -1)">175%</text><line x1="450" x2="450" y1="-5" y2="5"/><text x="410" y="18" font-size="12" transform="scale(1, -1)">Max Family Stretch</text></g><line x1="250" x2="250" y1="0" y2="250" stroke-dasharray="5 5"/><line x1="450" x2="450" y1="0" y2="250" stroke-dasharray="5 5"/><line x1="50" x2="50" y1="0" y2="250" stroke-dasharray="5 5"/><line x1="250" x2="450" y1="0" y2="100"/><line x1="250" x2="50" y1="100" y2="200"/><circle cx="250" cy="100" r="5" fill="#fff"/></g></svg>