<svg xmlns="http://www.w3.org/2000/svg" width="600" height="400" version="1.1"><rect width="100%" height="100%" x="0" y="0" fill="none" stroke="#000"/><g stroke="#000" font-family="Times" transform="scale(1, -1) translate(75, -250)"><line x1="0" x2="0" y1="0" y2="200"/><line x1="0" x2="400" y1="0" y2="0"/><text font-size="24" transform="scale(1, -1) translate(180, 100)">Italic</text><text font-size="24" transform="scale(1, -1) rotate(-90) translate(50, -25)">Distance</text><g transform="translate(50, -50)"><line x1="0" x2="0" y1="0" y2="10"/><line x1="0" x2="25" y1="0" y2="0"/><line x1="25" x2="25" y1="0" y2="10"/><text font-size="12" transform="scale(1, -1) translate(9, 20)">A</text></g><g transform="translate(125, -50)"><line x1="0" x2="0" y1="0" y2="10"/><line x1="0" x2="25" y1="0" y2="0"/><line x1="25" x2="25" y1="0" y2="10"/><text font-size="12" transform="scale(1, -1) translate(9, 20)">B</text></g><g transform="translate(187.5, -50)"><line x1="0" x2="0" y1="0" y2="10"/><line x1="0" x2="25" y1="0" y2="0"/><line x1="25" x2="25" y1="0" y2="10"/><text font-size="12" transform="scale(1, -1) translate(9, 20)">C</text></g><g transform="translate(237.5, -50)"><line x1="0" x2="0" y1="0" y2="10"/><line x1="0" x2="25" y1="0" y2="0"/><line x1="25" x2="25" y1="0" y2="10"/><text font-size="12" transform="scale(1, -1) translate(9, 20)">D</text></g><g transform="translate(325, -50)"><line x1="0" x2="0" y1="0" y2="10"/><line x1="0" x2="25" y1="0" y2="0"/><line x1="25" x2="25" y1="0" y2="10"/><text font-size="12" transform="scale(1, -1) translate(9, 20)">E</text></g><g><line x1="50" x2="50" y1="-5" y2="5"/><text x="-10" y="18" font-size="12" transform="scale(1, -1)">Min Family Italic</text><line x1="150" x2="150" y1="0" y2="200"/><text x="148" y="18" font-size="12" transform="scale(1, -1)">0</text><line x1="250" x2="250" y1="-5" y2="5"/><text x="248" y="18" font-size="12" transform="scale(1, -1)">1</text><line x1="350" x2="350" y1="-5" y2="5"/><text x="310" y="18" font-size="12" transform="scale(1, -1)">Max Family Italic</text></g><line x1="350" x2="350" y1="0" y2="200" stroke-dasharray="5 5"/><line x1="50" x2="50" y1="0" y2="200" stroke-dasharray="5 5"/><line x1="0" x2="400" y1="100" y2="100" stroke-dasharray="5 5"/><text x="405" y="-95" transform="scale(1, -1)">Check oblique</text><line x1="250" x2="350" y1="0" y2="50"/><line x1="250" x2="50" y1="50" y2="150"/><circle cx="250" cy="50" r="5" fill="#fff"/><circle cx="150" cy="100" r="5" fill="#000"/></g></svg>