<svg xmlns="http://www.w3.org/2000/svg" width="600" height="375" version="1.1"><rect width="100%" height="100%" x="0" y="0" fill="none" stroke="#000"/><g stroke="#000" font-family="Times" transform="scale(1, -1) translate(75, -225)"><line x1="0" x2="0" y1="0" y2="175"/><line x1="0" x2="400" y1="0" y2="0"/><text font-size="24" transform="scale(1, -1) translate(210, 100)">Oblique</text><text font-size="24" transform="scale(1, -1) rotate(-90) translate(50, -25)">Distance</text><g transform="translate(50, -50)"><line x1="0" x2="0" y1="0" y2="10"/><line x1="0" x2="50" y1="0" y2="0"/><line x1="50" x2="50" y1="0" y2="10"/><text font-size="12" transform="scale(1, -1) translate(21, 20)">A</text></g><g transform="translate(150, -50)"><line x1="0" x2="0" y1="0" y2="10"/><line x1="0" x2="50" y1="0" y2="0"/><line x1="50" x2="50" y1="0" y2="10"/><text font-size="12" transform="scale(1, -1) translate(21, 20)">B</text></g><g transform="translate(250, -50)"><line x1="0" x2="0" y1="0" y2="10"/><line x1="0" x2="100" y1="0" y2="0"/><line x1="100" x2="100" y1="0" y2="10"/><text font-size="12" transform="scale(1, -1) translate(48, 20)">C</text></g><g><line x1="50" x2="50" y1="-5" y2="5"/><text x="-10" y="18" font-size="12" transform="scale(1, -1)">Min Family Oblique</text><line x1="200" x2="200" y1="0" y2="175"/><text x="188" y="18" font-size="12" transform="scale(1, -1)">0deg</text><line x1="350" x2="350" y1="-5" y2="5"/><text x="300" y="18" font-size="12" transform="scale(1, -1)">Max Family Oblique</text></g><line x1="350" x2="350" y1="0" y2="175" stroke-dasharray="5 5"/><line x1="50" x2="50" y1="0" y2="175" stroke-dasharray="5 5"/><line x1="0" x2="400" y1="75" y2="75" stroke-dasharray="5 5"/><text x="405" y="-70" transform="scale(1, -1)">Check italic</text><line x1="200" x2="350" y1="0" y2="75"/><line x1="200" x2="50" y1="75" y2="150"/><circle cx="200" cy="75" r="5" fill="#fff"/></g></svg>