<svg xmlns="http://www.w3.org/2000/svg" width="612" height="508" viewBox="0 0 612 508"><defs><pattern id="checker" width="20" height="20" patternUnits="userSpaceOnUse"><rect width="10" height="10" x="0" y="0" fill="#eee"/><rect width="10" height="10" x="10" y="10" fill="#eee"/><rect width="10" height="10" x="0" y="10" fill="#ccc"/><rect width="10" height="10" x="10" y="0" fill="#ccc"/></pattern><pattern id="line1" width="200" height="1" patternUnits="userSpaceOnUse"><rect width="16" height="1" x="0" y="0" fill="#fcc"/><rect width="24" height="1" x="16" y="0" fill="#cfc"/><rect width="40" height="1" x="40" y="0" fill="#ccf"/><rect width="16" height="1" x="80" y="0" fill="#fcc"/><rect width="24" height="1" x="96" y="0" fill="#cfc"/><rect width="40" height="1" x="120" y="0" fill="#ccf"/><rect width="16" height="1" x="160" y="0" fill="#fcc"/><rect width="24" height="1" x="176" y="0" fill="#cfc"/></pattern><pattern id="line2" width="200" height="1" patternUnits="userSpaceOnUse"><rect width="40" height="1" x="0" y="0" fill="#ccf"/><rect width="16" height="1" x="40" y="0" fill="#fcc"/><rect width="24" height="1" x="56" y="0" fill="#cfc"/><rect width="40" height="1" x="80" y="0" fill="#ccf"/><rect width="16" height="1" x="120" y="0" fill="#fcc"/><rect width="24" height="1" x="136" y="0" fill="#cfc"/><rect width="40" height="1" x="160" y="0" fill="#ccf"/></pattern><pattern id="line3" width="200" height="1" patternUnits="userSpaceOnUse"><rect width="20" height="1" x="0" y="0" fill="#fcc"/><rect width="30" height="1" x="20" y="0" fill="#cfc"/><rect width="50" height="1" x="50" y="0" fill="#ccf"/><rect width="20" height="1" x="100" y="0" fill="#fcc"/><rect width="30" height="1" x="120" y="0" fill="#cfc"/><rect width="50" height="1" x="150" y="0" fill="#ccf"/></pattern></defs><style>svg { overflow: visible; } text { font-family: sans-serif; font-weight: bold; font-size: 24px; text-anchor: middle; } g &gt; rect:nth-child(1) { fill: #888 } g &gt; rect:nth-child(2) { fill: url(#line1); } g &gt; rect:nth-child(3) { fill: url(#line2); } g &gt; rect:nth-child(4) { fill: url(#line3); } g &gt; rect:nth-child(5) { stroke: #888; stroke-width: 2; fill: transparent; }</style><g transform="translate(2,2)"><rect width="200" height="250" x="0" y="0"/><rect width="200" height="50" x="0" y="0"/><rect width="200" height="50" x="0" y="50"/><rect width="200" height="50" x="0" y="100"/><rect width="200" height="250" x="0" y="0"/><text x="100" y="135">flex-start</text></g><g transform="translate(206,2)"><rect width="200" height="250" x="0" y="0"/><rect width="200" height="50" x="0" y="50"/><rect width="200" height="50" x="0" y="100"/><rect width="200" height="50" x="0" y="150"/><rect width="200" height="250" x="0" y="0"/><text x="100" y="135">center</text></g><g transform="translate(410,2)"><rect width="200" height="250" x="0" y="0"/><rect width="200" height="50" x="0" y="100"/><rect width="200" height="50" x="0" y="150"/><rect width="200" height="50" x="0" y="200"/><rect width="200" height="250" x="0" y="0"/><text x="100" y="135">flex-end</text></g><g transform="translate(2,256)"><rect width="200" height="250" x="0" y="0"/><rect width="200" height="50" x="0" y="0"/><rect width="200" height="50" x="0" y="100"/><rect width="200" height="50" x="0" y="200"/><rect width="200" height="250" x="0" y="0"/><text x="100" y="135">space-between</text></g><g transform="translate(206,256)"><rect width="200" height="250" x="0" y="0"/><rect width="200" height="50" x="0" y="16"/><rect width="200" height="50" x="0" y="100"/><rect width="200" height="50" x="0" y="183"/><rect width="200" height="250" x="0" y="0"/><text x="100" y="135">space-around</text></g><g transform="translate(410,256)"><rect width="200" height="250" x="0" y="0"/><rect width="200" height="83.33" x="0" y="0"/><rect width="200" height="83.33" x="0" y="83.33"/><rect width="200" height="83.33" x="0" y="166.66"/><rect width="200" height="250" x="0" y="0"/><text x="100" y="135">stretch</text></g></svg>